<?xml version="1.0" encoding="utf-8" standalone="no"?>
<!DOCTYPE svg PUBLIC "-//W3C//DTD SVG 1.1//EN"
  "http://www.w3.org/Graphics/SVG/1.1/DTD/svg11.dtd">
<svg xmlns:xlink="http://www.w3.org/1999/xlink" width="568.46125pt" height="351.034375pt" viewBox="0 0 568.46125 351.034375" xmlns="http://www.w3.org/2000/svg" version="1.1">
 <metadata>
  <rdf:RDF xmlns:dc="http://purl.org/dc/elements/1.1/" xmlns:cc="http://creativecommons.org/ns#" xmlns:rdf="http://www.w3.org/1999/02/22-rdf-syntax-ns#">
   <cc:Work>
    <dc:type rdf:resource="http://purl.org/dc/dcmitype/StillImage"/>
    <dc:date>2026-04-21T09:31:22.667598</dc:date>
    <dc:format>image/svg+xml</dc:format>
    <dc:creator>
     <cc:Agent>
      <dc:title>Matplotlib v3.10.8, https://matplotlib.org/</dc:title>
     </cc:Agent>
    </dc:creator>
   </cc:Work>
  </rdf:RDF>
 </metadata>
 <defs>
  <style type="text/css">*{stroke-linejoin: round; stroke-linecap: butt}</style>
 </defs>
 <g id="figure_1">
  <g id="patch_1">
   <path d="M 0 351.034375 
L 568.46125 351.034375 
L 568.46125 0 
L 0 0 
z
" style="fill: #ffffff"/>
  </g>
  <g id="axes_1">
   <g id="patch_2">
    <path d="M 43.78125 313.478125 
L 561.26125 313.478125 
L 561.26125 22.318125 
L 43.78125 22.318125 
z
" style="fill: #ffffff"/>
   </g>
   <g id="matplotlib.axis_1">
    <g id="xtick_1">
     <g id="line2d_1">
      <path d="M 100.287536 313.478125 
L 100.287536 22.318125 
" clip-path="url(#p90a4d0df7c)" style="fill: none; stroke: #b0b0b0; stroke-opacity: 0.25; stroke-width: 0.8; stroke-linecap: square"/>
     </g>
     <g id="line2d_2">
      <defs>
       <path id="m6dc0bb8d83" d="M 0 0 
L 0 3.5 
" style="stroke: #000000; stroke-width: 0.8"/>
      </defs>
      <g>
       <use xlink:href="#m6dc0bb8d83" x="100.287536" y="313.478125" style="stroke: #000000; stroke-width: 0.8"/>
      </g>
     </g>
     <g id="text_1">
      <!-- −20 -->
      <g transform="translate(89.735193 328.076563) scale(0.1 -0.1)">
       <defs>
        <path id="DejaVuSans-2212" d="M 678 2272 
L 4684 2272 
L 4684 1741 
L 678 1741 
L 678 2272 
z
" transform="scale(0.015625)"/>
        <path id="DejaVuSans-32" d="M 1228 531 
L 3431 531 
L 3431 0 
L 469 0 
L 469 531 
Q 828 903 1448 1529 
Q 2069 2156 2228 2338 
Q 2531 2678 2651 2914 
Q 2772 3150 2772 3378 
Q 2772 3750 2511 3984 
Q 2250 4219 1831 4219 
Q 1534 4219 1204 4116 
Q 875 4013 500 3803 
L 500 4441 
Q 881 4594 1212 4672 
Q 1544 4750 1819 4750 
Q 2544 4750 2975 4387 
Q 3406 4025 3406 3419 
Q 3406 3131 3298 2873 
Q 3191 2616 2906 2266 
Q 2828 2175 2409 1742 
Q 1991 1309 1228 531 
z
" transform="scale(0.015625)"/>
        <path id="DejaVuSans-30" d="M 2034 4250 
Q 1547 4250 1301 3770 
Q 1056 3291 1056 2328 
Q 1056 1369 1301 889 
Q 1547 409 2034 409 
Q 2525 409 2770 889 
Q 3016 1369 3016 2328 
Q 3016 3291 2770 3770 
Q 2525 4250 2034 4250 
z
M 2034 4750 
Q 2819 4750 3233 4129 
Q 3647 3509 3647 2328 
Q 3647 1150 3233 529 
Q 2819 -91 2034 -91 
Q 1250 -91 836 529 
Q 422 1150 422 2328 
Q 422 3509 836 4129 
Q 1250 4750 2034 4750 
z
" transform="scale(0.015625)"/>
       </defs>
       <use xlink:href="#DejaVuSans-2212"/>
       <use xlink:href="#DejaVuSans-32" transform="translate(83.789062 0)"/>
       <use xlink:href="#DejaVuSans-30" transform="translate(147.412109 0)"/>
      </g>
     </g>
    </g>
    <g id="xtick_2">
     <g id="line2d_3">
      <path d="M 193.611592 313.478125 
L 193.611592 22.318125 
" clip-path="url(#p90a4d0df7c)" style="fill: none; stroke: #b0b0b0; stroke-opacity: 0.25; stroke-width: 0.8; stroke-linecap: square"/>
     </g>
     <g id="line2d_4">
      <g>
       <use xlink:href="#m6dc0bb8d83" x="193.611592" y="313.478125" style="stroke: #000000; stroke-width: 0.8"/>
      </g>
     </g>
     <g id="text_2">
      <!-- −10 -->
      <g transform="translate(183.059248 328.076563) scale(0.1 -0.1)">
       <defs>
        <path id="DejaVuSans-31" d="M 794 531 
L 1825 531 
L 1825 4091 
L 703 3866 
L 703 4441 
L 1819 4666 
L 2450 4666 
L 2450 531 
L 3481 531 
L 3481 0 
L 794 0 
L 794 531 
z
" transform="scale(0.015625)"/>
       </defs>
       <use xlink:href="#DejaVuSans-2212"/>
       <use xlink:href="#DejaVuSans-31" transform="translate(83.789062 0)"/>
       <use xlink:href="#DejaVuSans-30" transform="translate(147.412109 0)"/>
      </g>
     </g>
    </g>
    <g id="xtick_3">
     <g id="line2d_5">
      <path d="M 286.935647 313.478125 
L 286.935647 22.318125 
" clip-path="url(#p90a4d0df7c)" style="fill: none; stroke: #b0b0b0; stroke-opacity: 0.25; stroke-width: 0.8; stroke-linecap: square"/>
     </g>
     <g id="line2d_6">
      <g>
       <use xlink:href="#m6dc0bb8d83" x="286.935647" y="313.478125" style="stroke: #000000; stroke-width: 0.8"/>
      </g>
     </g>
     <g id="text_3">
      <!-- 0 -->
      <g transform="translate(283.754397 328.076563) scale(0.1 -0.1)">
       <use xlink:href="#DejaVuSans-30"/>
      </g>
     </g>
    </g>
    <g id="xtick_4">
     <g id="line2d_7">
      <path d="M 380.259703 313.478125 
L 380.259703 22.318125 
" clip-path="url(#p90a4d0df7c)" style="fill: none; stroke: #b0b0b0; stroke-opacity: 0.25; stroke-width: 0.8; stroke-linecap: square"/>
     </g>
     <g id="line2d_8">
      <g>
       <use xlink:href="#m6dc0bb8d83" x="380.259703" y="313.478125" style="stroke: #000000; stroke-width: 0.8"/>
      </g>
     </g>
     <g id="text_4">
      <!-- 10 -->
      <g transform="translate(373.897203 328.076563) scale(0.1 -0.1)">
       <use xlink:href="#DejaVuSans-31"/>
       <use xlink:href="#DejaVuSans-30" transform="translate(63.623047 0)"/>
      </g>
     </g>
    </g>
    <g id="xtick_5">
     <g id="line2d_9">
      <path d="M 473.583758 313.478125 
L 473.583758 22.318125 
" clip-path="url(#p90a4d0df7c)" style="fill: none; stroke: #b0b0b0; stroke-opacity: 0.25; stroke-width: 0.8; stroke-linecap: square"/>
     </g>
     <g id="line2d_10">
      <g>
       <use xlink:href="#m6dc0bb8d83" x="473.583758" y="313.478125" style="stroke: #000000; stroke-width: 0.8"/>
      </g>
     </g>
     <g id="text_5">
      <!-- 20 -->
      <g transform="translate(467.221258 328.076563) scale(0.1 -0.1)">
       <use xlink:href="#DejaVuSans-32"/>
       <use xlink:href="#DejaVuSans-30" transform="translate(63.623047 0)"/>
      </g>
     </g>
    </g>
    <g id="text_6">
     <!-- Shadowing variation (dB) -->
     <g transform="translate(239.265781 341.754687) scale(0.1 -0.1)">
      <defs>
       <path id="DejaVuSans-53" d="M 3425 4513 
L 3425 3897 
Q 3066 4069 2747 4153 
Q 2428 4238 2131 4238 
Q 1616 4238 1336 4038 
Q 1056 3838 1056 3469 
Q 1056 3159 1242 3001 
Q 1428 2844 1947 2747 
L 2328 2669 
Q 3034 2534 3370 2195 
Q 3706 1856 3706 1288 
Q 3706 609 3251 259 
Q 2797 -91 1919 -91 
Q 1588 -91 1214 -16 
Q 841 59 441 206 
L 441 856 
Q 825 641 1194 531 
Q 1563 422 1919 422 
Q 2459 422 2753 634 
Q 3047 847 3047 1241 
Q 3047 1584 2836 1778 
Q 2625 1972 2144 2069 
L 1759 2144 
Q 1053 2284 737 2584 
Q 422 2884 422 3419 
Q 422 4038 858 4394 
Q 1294 4750 2059 4750 
Q 2388 4750 2728 4690 
Q 3069 4631 3425 4513 
z
" transform="scale(0.015625)"/>
       <path id="DejaVuSans-68" d="M 3513 2113 
L 3513 0 
L 2938 0 
L 2938 2094 
Q 2938 2591 2744 2837 
Q 2550 3084 2163 3084 
Q 1697 3084 1428 2787 
Q 1159 2491 1159 1978 
L 1159 0 
L 581 0 
L 581 4863 
L 1159 4863 
L 1159 2956 
Q 1366 3272 1645 3428 
Q 1925 3584 2291 3584 
Q 2894 3584 3203 3211 
Q 3513 2838 3513 2113 
z
" transform="scale(0.015625)"/>
       <path id="DejaVuSans-61" d="M 2194 1759 
Q 1497 1759 1228 1600 
Q 959 1441 959 1056 
Q 959 750 1161 570 
Q 1363 391 1709 391 
Q 2188 391 2477 730 
Q 2766 1069 2766 1631 
L 2766 1759 
L 2194 1759 
z
M 3341 1997 
L 3341 0 
L 2766 0 
L 2766 531 
Q 2569 213 2275 61 
Q 1981 -91 1556 -91 
Q 1019 -91 701 211 
Q 384 513 384 1019 
Q 384 1609 779 1909 
Q 1175 2209 1959 2209 
L 2766 2209 
L 2766 2266 
Q 2766 2663 2505 2880 
Q 2244 3097 1772 3097 
Q 1472 3097 1187 3025 
Q 903 2953 641 2809 
L 641 3341 
Q 956 3463 1253 3523 
Q 1550 3584 1831 3584 
Q 2591 3584 2966 3190 
Q 3341 2797 3341 1997 
z
" transform="scale(0.015625)"/>
       <path id="DejaVuSans-64" d="M 2906 2969 
L 2906 4863 
L 3481 4863 
L 3481 0 
L 2906 0 
L 2906 525 
Q 2725 213 2448 61 
Q 2172 -91 1784 -91 
Q 1150 -91 751 415 
Q 353 922 353 1747 
Q 353 2572 751 3078 
Q 1150 3584 1784 3584 
Q 2172 3584 2448 3432 
Q 2725 3281 2906 2969 
z
M 947 1747 
Q 947 1113 1208 752 
Q 1469 391 1925 391 
Q 2381 391 2643 752 
Q 2906 1113 2906 1747 
Q 2906 2381 2643 2742 
Q 2381 3103 1925 3103 
Q 1469 3103 1208 2742 
Q 947 2381 947 1747 
z
" transform="scale(0.015625)"/>
       <path id="DejaVuSans-6f" d="M 1959 3097 
Q 1497 3097 1228 2736 
Q 959 2375 959 1747 
Q 959 1119 1226 758 
Q 1494 397 1959 397 
Q 2419 397 2687 759 
Q 2956 1122 2956 1747 
Q 2956 2369 2687 2733 
Q 2419 3097 1959 3097 
z
M 1959 3584 
Q 2709 3584 3137 3096 
Q 3566 2609 3566 1747 
Q 3566 888 3137 398 
Q 2709 -91 1959 -91 
Q 1206 -91 779 398 
Q 353 888 353 1747 
Q 353 2609 779 3096 
Q 1206 3584 1959 3584 
z
" transform="scale(0.015625)"/>
       <path id="DejaVuSans-77" d="M 269 3500 
L 844 3500 
L 1563 769 
L 2278 3500 
L 2956 3500 
L 3675 769 
L 4391 3500 
L 4966 3500 
L 4050 0 
L 3372 0 
L 2619 2869 
L 1863 0 
L 1184 0 
L 269 3500 
z
" transform="scale(0.015625)"/>
       <path id="DejaVuSans-69" d="M 603 3500 
L 1178 3500 
L 1178 0 
L 603 0 
L 603 3500 
z
M 603 4863 
L 1178 4863 
L 1178 4134 
L 603 4134 
L 603 4863 
z
" transform="scale(0.015625)"/>
       <path id="DejaVuSans-6e" d="M 3513 2113 
L 3513 0 
L 2938 0 
L 2938 2094 
Q 2938 2591 2744 2837 
Q 2550 3084 2163 3084 
Q 1697 3084 1428 2787 
Q 1159 2491 1159 1978 
L 1159 0 
L 581 0 
L 581 3500 
L 1159 3500 
L 1159 2956 
Q 1366 3272 1645 3428 
Q 1925 3584 2291 3584 
Q 2894 3584 3203 3211 
Q 3513 2838 3513 2113 
z
" transform="scale(0.015625)"/>
       <path id="DejaVuSans-67" d="M 2906 1791 
Q 2906 2416 2648 2759 
Q 2391 3103 1925 3103 
Q 1463 3103 1205 2759 
Q 947 2416 947 1791 
Q 947 1169 1205 825 
Q 1463 481 1925 481 
Q 2391 481 2648 825 
Q 2906 1169 2906 1791 
z
M 3481 434 
Q 3481 -459 3084 -895 
Q 2688 -1331 1869 -1331 
Q 1566 -1331 1297 -1286 
Q 1028 -1241 775 -1147 
L 775 -588 
Q 1028 -725 1275 -790 
Q 1522 -856 1778 -856 
Q 2344 -856 2625 -561 
Q 2906 -266 2906 331 
L 2906 616 
Q 2728 306 2450 153 
Q 2172 0 1784 0 
Q 1141 0 747 490 
Q 353 981 353 1791 
Q 353 2603 747 3093 
Q 1141 3584 1784 3584 
Q 2172 3584 2450 3431 
Q 2728 3278 2906 2969 
L 2906 3500 
L 3481 3500 
L 3481 434 
z
" transform="scale(0.015625)"/>
       <path id="DejaVuSans-20" transform="scale(0.015625)"/>
       <path id="DejaVuSans-76" d="M 191 3500 
L 800 3500 
L 1894 563 
L 2988 3500 
L 3597 3500 
L 2284 0 
L 1503 0 
L 191 3500 
z
" transform="scale(0.015625)"/>
       <path id="DejaVuSans-72" d="M 2631 2963 
Q 2534 3019 2420 3045 
Q 2306 3072 2169 3072 
Q 1681 3072 1420 2755 
Q 1159 2438 1159 1844 
L 1159 0 
L 581 0 
L 581 3500 
L 1159 3500 
L 1159 2956 
Q 1341 3275 1631 3429 
Q 1922 3584 2338 3584 
Q 2397 3584 2469 3576 
Q 2541 3569 2628 3553 
L 2631 2963 
z
" transform="scale(0.015625)"/>
       <path id="DejaVuSans-74" d="M 1172 4494 
L 1172 3500 
L 2356 3500 
L 2356 3053 
L 1172 3053 
L 1172 1153 
Q 1172 725 1289 603 
Q 1406 481 1766 481 
L 2356 481 
L 2356 0 
L 1766 0 
Q 1100 0 847 248 
Q 594 497 594 1153 
L 594 3053 
L 172 3053 
L 172 3500 
L 594 3500 
L 594 4494 
L 1172 4494 
z
" transform="scale(0.015625)"/>
       <path id="DejaVuSans-28" d="M 1984 4856 
Q 1566 4138 1362 3434 
Q 1159 2731 1159 2009 
Q 1159 1288 1364 580 
Q 1569 -128 1984 -844 
L 1484 -844 
Q 1016 -109 783 600 
Q 550 1309 550 2009 
Q 550 2706 781 3412 
Q 1013 4119 1484 4856 
L 1984 4856 
z
" transform="scale(0.015625)"/>
       <path id="DejaVuSans-42" d="M 1259 2228 
L 1259 519 
L 2272 519 
Q 2781 519 3026 730 
Q 3272 941 3272 1375 
Q 3272 1813 3026 2020 
Q 2781 2228 2272 2228 
L 1259 2228 
z
M 1259 4147 
L 1259 2741 
L 2194 2741 
Q 2656 2741 2882 2914 
Q 3109 3088 3109 3444 
Q 3109 3797 2882 3972 
Q 2656 4147 2194 4147 
L 1259 4147 
z
M 628 4666 
L 2241 4666 
Q 2963 4666 3353 4366 
Q 3744 4066 3744 3513 
Q 3744 3084 3544 2831 
Q 3344 2578 2956 2516 
Q 3422 2416 3680 2098 
Q 3938 1781 3938 1306 
Q 3938 681 3513 340 
Q 3088 0 2303 0 
L 628 0 
L 628 4666 
z
" transform="scale(0.015625)"/>
       <path id="DejaVuSans-29" d="M 513 4856 
L 1013 4856 
Q 1481 4119 1714 3412 
Q 1947 2706 1947 2009 
Q 1947 1309 1714 600 
Q 1481 -109 1013 -844 
L 513 -844 
Q 928 -128 1133 580 
Q 1338 1288 1338 2009 
Q 1338 2731 1133 3434 
Q 928 4138 513 4856 
z
" transform="scale(0.015625)"/>
      </defs>
      <use xlink:href="#DejaVuSans-53"/>
      <use xlink:href="#DejaVuSans-68" transform="translate(63.476562 0)"/>
      <use xlink:href="#DejaVuSans-61" transform="translate(126.855469 0)"/>
      <use xlink:href="#DejaVuSans-64" transform="translate(188.134766 0)"/>
      <use xlink:href="#DejaVuSans-6f" transform="translate(251.611328 0)"/>
      <use xlink:href="#DejaVuSans-77" transform="translate(312.792969 0)"/>
      <use xlink:href="#DejaVuSans-69" transform="translate(394.580078 0)"/>
      <use xlink:href="#DejaVuSans-6e" transform="translate(422.363281 0)"/>
      <use xlink:href="#DejaVuSans-67" transform="translate(485.742188 0)"/>
      <use xlink:href="#DejaVuSans-20" transform="translate(549.21875 0)"/>
      <use xlink:href="#DejaVuSans-76" transform="translate(581.005859 0)"/>
      <use xlink:href="#DejaVuSans-61" transform="translate(640.185547 0)"/>
      <use xlink:href="#DejaVuSans-72" transform="translate(701.464844 0)"/>
      <use xlink:href="#DejaVuSans-69" transform="translate(742.578125 0)"/>
      <use xlink:href="#DejaVuSans-61" transform="translate(770.361328 0)"/>
      <use xlink:href="#DejaVuSans-74" transform="translate(831.640625 0)"/>
      <use xlink:href="#DejaVuSans-69" transform="translate(870.849609 0)"/>
      <use xlink:href="#DejaVuSans-6f" transform="translate(898.632812 0)"/>
      <use xlink:href="#DejaVuSans-6e" transform="translate(959.814453 0)"/>
      <use xlink:href="#DejaVuSans-20" transform="translate(1023.193359 0)"/>
      <use xlink:href="#DejaVuSans-28" transform="translate(1054.980469 0)"/>
      <use xlink:href="#DejaVuSans-64" transform="translate(1093.994141 0)"/>
      <use xlink:href="#DejaVuSans-42" transform="translate(1157.470703 0)"/>
      <use xlink:href="#DejaVuSans-29" transform="translate(1226.074219 0)"/>
     </g>
    </g>
   </g>
   <g id="matplotlib.axis_2">
    <g id="ytick_1">
     <g id="line2d_11">
      <path d="M 43.78125 300.270051 
L 561.26125 300.270051 
" clip-path="url(#p90a4d0df7c)" style="fill: none; stroke: #b0b0b0; stroke-opacity: 0.25; stroke-width: 0.8; stroke-linecap: square"/>
     </g>
     <g id="line2d_12">
      <defs>
       <path id="mf44efa15de" d="M 0 0 
L -3.5 0 
" style="stroke: #000000; stroke-width: 0.8"/>
      </defs>
      <g>
       <use xlink:href="#mf44efa15de" x="43.78125" y="300.270051" style="stroke: #000000; stroke-width: 0.8"/>
      </g>
     </g>
     <g id="text_7">
      <!-- 0.0 -->
      <g transform="translate(20.878125 304.06927) scale(0.1 -0.1)">
       <defs>
        <path id="DejaVuSans-2e" d="M 684 794 
L 1344 794 
L 1344 0 
L 684 0 
L 684 794 
z
" transform="scale(0.015625)"/>
       </defs>
       <use xlink:href="#DejaVuSans-30"/>
       <use xlink:href="#DejaVuSans-2e" transform="translate(63.623047 0)"/>
       <use xlink:href="#DejaVuSans-30" transform="translate(95.410156 0)"/>
      </g>
     </g>
    </g>
    <g id="ytick_2">
     <g id="line2d_13">
      <path d="M 43.78125 247.326575 
L 561.26125 247.326575 
" clip-path="url(#p90a4d0df7c)" style="fill: none; stroke: #b0b0b0; stroke-opacity: 0.25; stroke-width: 0.8; stroke-linecap: square"/>
     </g>
     <g id="line2d_14">
      <g>
       <use xlink:href="#mf44efa15de" x="43.78125" y="247.326575" style="stroke: #000000; stroke-width: 0.8"/>
      </g>
     </g>
     <g id="text_8">
      <!-- 0.2 -->
      <g transform="translate(20.878125 251.125794) scale(0.1 -0.1)">
       <use xlink:href="#DejaVuSans-30"/>
       <use xlink:href="#DejaVuSans-2e" transform="translate(63.623047 0)"/>
       <use xlink:href="#DejaVuSans-32" transform="translate(95.410156 0)"/>
      </g>
     </g>
    </g>
    <g id="ytick_3">
     <g id="line2d_15">
      <path d="M 43.78125 194.383099 
L 561.26125 194.383099 
" clip-path="url(#p90a4d0df7c)" style="fill: none; stroke: #b0b0b0; stroke-opacity: 0.25; stroke-width: 0.8; stroke-linecap: square"/>
     </g>
     <g id="line2d_16">
      <g>
       <use xlink:href="#mf44efa15de" x="43.78125" y="194.383099" style="stroke: #000000; stroke-width: 0.8"/>
      </g>
     </g>
     <g id="text_9">
      <!-- 0.4 -->
      <g transform="translate(20.878125 198.182318) scale(0.1 -0.1)">
       <defs>
        <path id="DejaVuSans-34" d="M 2419 4116 
L 825 1625 
L 2419 1625 
L 2419 4116 
z
M 2253 4666 
L 3047 4666 
L 3047 1625 
L 3713 1625 
L 3713 1100 
L 3047 1100 
L 3047 0 
L 2419 0 
L 2419 1100 
L 313 1100 
L 313 1709 
L 2253 4666 
z
" transform="scale(0.015625)"/>
       </defs>
       <use xlink:href="#DejaVuSans-30"/>
       <use xlink:href="#DejaVuSans-2e" transform="translate(63.623047 0)"/>
       <use xlink:href="#DejaVuSans-34" transform="translate(95.410156 0)"/>
      </g>
     </g>
    </g>
    <g id="ytick_4">
     <g id="line2d_17">
      <path d="M 43.78125 141.439623 
L 561.26125 141.439623 
" clip-path="url(#p90a4d0df7c)" style="fill: none; stroke: #b0b0b0; stroke-opacity: 0.25; stroke-width: 0.8; stroke-linecap: square"/>
     </g>
     <g id="line2d_18">
      <g>
       <use xlink:href="#mf44efa15de" x="43.78125" y="141.439623" style="stroke: #000000; stroke-width: 0.8"/>
      </g>
     </g>
     <g id="text_10">
      <!-- 0.6 -->
      <g transform="translate(20.878125 145.238842) scale(0.1 -0.1)">
       <defs>
        <path id="DejaVuSans-36" d="M 2113 2584 
Q 1688 2584 1439 2293 
Q 1191 2003 1191 1497 
Q 1191 994 1439 701 
Q 1688 409 2113 409 
Q 2538 409 2786 701 
Q 3034 994 3034 1497 
Q 3034 2003 2786 2293 
Q 2538 2584 2113 2584 
z
M 3366 4563 
L 3366 3988 
Q 3128 4100 2886 4159 
Q 2644 4219 2406 4219 
Q 1781 4219 1451 3797 
Q 1122 3375 1075 2522 
Q 1259 2794 1537 2939 
Q 1816 3084 2150 3084 
Q 2853 3084 3261 2657 
Q 3669 2231 3669 1497 
Q 3669 778 3244 343 
Q 2819 -91 2113 -91 
Q 1303 -91 875 529 
Q 447 1150 447 2328 
Q 447 3434 972 4092 
Q 1497 4750 2381 4750 
Q 2619 4750 2861 4703 
Q 3103 4656 3366 4563 
z
" transform="scale(0.015625)"/>
       </defs>
       <use xlink:href="#DejaVuSans-30"/>
       <use xlink:href="#DejaVuSans-2e" transform="translate(63.623047 0)"/>
       <use xlink:href="#DejaVuSans-36" transform="translate(95.410156 0)"/>
      </g>
     </g>
    </g>
    <g id="ytick_5">
     <g id="line2d_19">
      <path d="M 43.78125 88.496147 
L 561.26125 88.496147 
" clip-path="url(#p90a4d0df7c)" style="fill: none; stroke: #b0b0b0; stroke-opacity: 0.25; stroke-width: 0.8; stroke-linecap: square"/>
     </g>
     <g id="line2d_20">
      <g>
       <use xlink:href="#mf44efa15de" x="43.78125" y="88.496147" style="stroke: #000000; stroke-width: 0.8"/>
      </g>
     </g>
     <g id="text_11">
      <!-- 0.8 -->
      <g transform="translate(20.878125 92.295365) scale(0.1 -0.1)">
       <defs>
        <path id="DejaVuSans-38" d="M 2034 2216 
Q 1584 2216 1326 1975 
Q 1069 1734 1069 1313 
Q 1069 891 1326 650 
Q 1584 409 2034 409 
Q 2484 409 2743 651 
Q 3003 894 3003 1313 
Q 3003 1734 2745 1975 
Q 2488 2216 2034 2216 
z
M 1403 2484 
Q 997 2584 770 2862 
Q 544 3141 544 3541 
Q 544 4100 942 4425 
Q 1341 4750 2034 4750 
Q 2731 4750 3128 4425 
Q 3525 4100 3525 3541 
Q 3525 3141 3298 2862 
Q 3072 2584 2669 2484 
Q 3125 2378 3379 2068 
Q 3634 1759 3634 1313 
Q 3634 634 3220 271 
Q 2806 -91 2034 -91 
Q 1263 -91 848 271 
Q 434 634 434 1313 
Q 434 1759 690 2068 
Q 947 2378 1403 2484 
z
M 1172 3481 
Q 1172 3119 1398 2916 
Q 1625 2713 2034 2713 
Q 2441 2713 2670 2916 
Q 2900 3119 2900 3481 
Q 2900 3844 2670 4047 
Q 2441 4250 2034 4250 
Q 1625 4250 1398 4047 
Q 1172 3844 1172 3481 
z
" transform="scale(0.015625)"/>
       </defs>
       <use xlink:href="#DejaVuSans-30"/>
       <use xlink:href="#DejaVuSans-2e" transform="translate(63.623047 0)"/>
       <use xlink:href="#DejaVuSans-38" transform="translate(95.410156 0)"/>
      </g>
     </g>
    </g>
    <g id="ytick_6">
     <g id="line2d_21">
      <path d="M 43.78125 35.55267 
L 561.26125 35.55267 
" clip-path="url(#p90a4d0df7c)" style="fill: none; stroke: #b0b0b0; stroke-opacity: 0.25; stroke-width: 0.8; stroke-linecap: square"/>
     </g>
     <g id="line2d_22">
      <g>
       <use xlink:href="#mf44efa15de" x="43.78125" y="35.55267" style="stroke: #000000; stroke-width: 0.8"/>
      </g>
     </g>
     <g id="text_12">
      <!-- 1.0 -->
      <g transform="translate(20.878125 39.351889) scale(0.1 -0.1)">
       <use xlink:href="#DejaVuSans-31"/>
       <use xlink:href="#DejaVuSans-2e" transform="translate(63.623047 0)"/>
       <use xlink:href="#DejaVuSans-30" transform="translate(95.410156 0)"/>
      </g>
     </g>
    </g>
    <g id="text_13">
     <!-- CDF -->
     <g transform="translate(14.798438 178.115313) rotate(-90) scale(0.1 -0.1)">
      <defs>
       <path id="DejaVuSans-43" d="M 4122 4306 
L 4122 3641 
Q 3803 3938 3442 4084 
Q 3081 4231 2675 4231 
Q 1875 4231 1450 3742 
Q 1025 3253 1025 2328 
Q 1025 1406 1450 917 
Q 1875 428 2675 428 
Q 3081 428 3442 575 
Q 3803 722 4122 1019 
L 4122 359 
Q 3791 134 3420 21 
Q 3050 -91 2638 -91 
Q 1578 -91 968 557 
Q 359 1206 359 2328 
Q 359 3453 968 4101 
Q 1578 4750 2638 4750 
Q 3056 4750 3426 4639 
Q 3797 4528 4122 4306 
z
" transform="scale(0.015625)"/>
       <path id="DejaVuSans-44" d="M 1259 4147 
L 1259 519 
L 2022 519 
Q 2988 519 3436 956 
Q 3884 1394 3884 2338 
Q 3884 3275 3436 3711 
Q 2988 4147 2022 4147 
L 1259 4147 
z
M 628 4666 
L 1925 4666 
Q 3281 4666 3915 4102 
Q 4550 3538 4550 2338 
Q 4550 1131 3912 565 
Q 3275 0 1925 0 
L 628 0 
L 628 4666 
z
" transform="scale(0.015625)"/>
       <path id="DejaVuSans-46" d="M 628 4666 
L 3309 4666 
L 3309 4134 
L 1259 4134 
L 1259 2759 
L 3109 2759 
L 3109 2228 
L 1259 2228 
L 1259 0 
L 628 0 
L 628 4666 
z
" transform="scale(0.015625)"/>
      </defs>
      <use xlink:href="#DejaVuSans-43"/>
      <use xlink:href="#DejaVuSans-44" transform="translate(69.824219 0)"/>
      <use xlink:href="#DejaVuSans-46" transform="translate(146.826172 0)"/>
     </g>
    </g>
   </g>
   <g id="line2d_23">
    <path d="M 67.303068 300.24358 
L 119.217375 299.846503 
L 119.304743 299.820032 
L 122.52474 299.63473 
L 122.660823 299.608258 
L 130.044197 299.34354 
L 130.153233 299.317069 
L 133.214155 299.131767 
L 135.327041 299.02588 
L 143.173529 298.787634 
L 143.247247 298.761162 
L 145.381463 298.57586 
L 162.086168 296.74931 
L 162.160875 296.696367 
L 163.584763 296.352234 
L 165.048102 296.113988 
L 165.117027 296.087517 
L 165.928542 295.955158 
L 166.028607 295.902214 
L 168.03827 295.558082 
L 170.083747 295.346308 
L 174.03439 294.499212 
L 174.947533 294.208023 
L 176.121617 293.758004 
L 176.278549 293.678589 
L 177.696081 293.413871 
L 178.16659 293.228569 
L 179.091611 293.09621 
L 179.246241 293.016795 
L 181.641725 292.407945 
L 181.723174 292.32853 
L 182.804869 291.957926 
L 184.288307 291.534378 
L 184.717131 291.402019 
L 184.88387 291.349076 
L 185.474331 291.163773 
L 185.493901 291.137302 
L 186.314119 290.925528 
L 186.989026 290.554923 
L 187.745846 290.316678 
L 187.934313 290.131376 
L 188.509337 289.999017 
L 188.659704 289.840186 
L 189.390324 289.707828 
L 189.537517 289.628413 
L 190.05284 289.44311 
L 190.821338 289.257808 
L 191.951381 288.701902 
L 194.419255 287.695976 
L 194.524982 287.643032 
L 195.709011 287.404787 
L 198.061951 286.345917 
L 198.899489 286.028256 
L 199.653638 285.551765 
L 200.223618 285.392934 
L 200.500931 285.154689 
L 201.538221 284.439952 
L 201.646469 284.334065 
L 201.938834 284.148763 
L 202.010988 284.042876 
L 202.384436 283.831102 
L 203.098968 283.169308 
L 203.476344 282.984006 
L 203.663289 282.692817 
L 203.929679 282.533987 
L 203.938939 282.507515 
L 204.188636 282.375156 
L 204.845669 282.004552 
L 205.342088 281.713363 
L 205.488306 281.528061 
L 205.6926 281.395702 
L 206.083666 281.025098 
L 206.151651 280.866267 
L 207.433334 279.9927 
L 207.733593 279.780926 
L 208.041689 279.595624 
L 208.16719 279.436793 
L 209.553424 278.563226 
L 209.643567 278.404396 
L 210.372977 278.192622 
L 210.557383 278.00732 
L 210.689426 277.874961 
L 212.072324 276.974922 
L 212.450382 276.49843 
L 212.75079 276.207241 
L 212.81864 276.101354 
L 213.129831 275.942524 
L 213.680748 275.254259 
L 213.918728 275.148372 
L 214.301668 274.989541 
L 214.42667 274.883654 
L 214.730822 274.698352 
L 214.849613 274.618937 
L 216.011307 273.9042 
L 216.108913 273.798313 
L 216.93051 273.29535 
L 217.037639 273.162991 
L 217.296876 272.977689 
L 217.429798 272.765915 
L 218.007704 272.580613 
L 218.22969 272.368839 
L 218.312525 272.289424 
L 218.468439 272.104122 
L 218.802425 271.865876 
L 219.24628 271.495272 
L 219.524754 271.283498 
L 219.900983 271.018781 
L 220.942132 270.145213 
L 221.101063 269.906968 
L 221.313871 269.748137 
L 221.460502 269.562835 
L 221.884042 269.139287 
L 222.097806 268.953985 
L 222.379556 268.583381 
L 222.94573 268.318663 
L 223.170142 268.10689 
L 223.357759 267.921587 
L 223.491583 267.8157 
L 223.9867 267.127435 
L 224.111678 266.88919 
L 224.304559 266.624472 
L 224.718902 266.095037 
L 224.865981 265.936207 
L 225.269735 265.512659 
L 225.565074 265.274414 
L 225.650056 265.168527 
L 225.974877 265.009696 
L 226.09007 264.797922 
L 226.369207 264.480261 
L 226.589285 264.242016 
L 226.993151 263.871411 
L 227.109096 263.686109 
L 227.456103 263.39492 
L 227.685338 263.262561 
L 228.011055 262.944901 
L 228.466978 262.547825 
L 228.851155 262.071333 
L 229.256057 261.780144 
L 229.283165 261.700729 
L 229.450335 261.541898 
L 229.6164 261.224238 
L 229.919097 261.091879 
L 230.148097 260.827162 
L 231.135604 259.847707 
L 232.652827 257.91527 
L 232.73231 257.75644 
L 233.297021 256.829929 
L 233.570687 256.644627 
L 233.702261 256.565212 
L 234.031296 256.115192 
L 234.145482 255.92989 
L 234.325228 255.744588 
L 235.296502 254.71219 
L 235.515056 254.421001 
L 235.909037 254.023925 
L 236.001309 253.918038 
L 236.127365 253.759207 
L 236.241862 253.600377 
L 236.41091 253.362131 
L 236.531686 253.256244 
L 236.767603 253.017999 
L 237.045423 252.859168 
L 237.223712 252.647394 
L 237.328223 252.488564 
L 237.626588 252.065016 
L 237.707962 251.906186 
L 237.82103 251.747355 
L 238.079873 251.588525 
L 238.394936 251.323808 
L 238.601829 250.953203 
L 238.780296 250.741429 
L 238.865776 250.529655 
L 239.815914 249.020766 
L 240.131566 248.544275 
L 240.973235 247.273632 
L 241.18285 246.929499 
L 241.785588 245.923573 
L 241.927144 245.738271 
L 242.071767 245.447082 
L 242.240551 245.182364 
L 243.694785 243.223456 
L 243.878173 242.82638 
L 244.11288 242.429304 
L 244.260417 242.270473 
L 244.482694 241.979284 
L 244.699151 241.793982 
L 244.958471 241.343962 
L 245.05128 241.185132 
L 245.292592 240.893943 
L 245.411785 240.735112 
L 245.486762 240.629225 
L 245.782434 240.39098 
L 246.014181 240.073319 
L 246.174507 239.861545 
L 246.460923 239.437997 
L 246.59791 239.199752 
L 246.771794 238.908562 
L 246.91042 238.72326 
L 247.000849 238.537958 
L 247.178735 238.379128 
L 247.322971 238.193825 
L 247.417265 238.008523 
L 247.629946 237.770278 
L 247.956968 237.426145 
L 249.628607 234.858386 
L 249.701224 234.726028 
L 250.768385 233.031837 
L 250.922805 232.846534 
L 251.666582 231.86708 
L 251.801315 231.549419 
L 252.27572 230.781739 
L 252.371148 230.543493 
L 252.596848 230.225832 
L 252.736339 229.8817 
L 252.949073 229.564039 
L 253.16428 229.140491 
L 253.320024 228.981661 
L 253.435335 228.849302 
L 253.528042 228.690472 
L 254.077402 227.631602 
L 254.22207 227.340413 
L 254.607708 226.83745 
L 254.76759 226.546261 
L 255.05459 226.175656 
L 255.161759 225.990354 
L 255.379806 225.61975 
L 256.191656 224.322635 
L 256.737126 223.290237 
L 257.090966 222.840217 
L 257.429093 222.151952 
L 257.704633 221.728404 
L 257.873096 221.331328 
L 258.34019 220.59012 
L 258.475629 220.431289 
L 258.674391 220.113628 
L 259.653987 218.340022 
L 259.780837 218.075305 
L 261.333954 215.639905 
L 261.75774 215.004583 
L 262.661399 213.654524 
L 262.936308 213.178033 
L 263.354699 212.595655 
L 263.426553 212.436824 
L 263.597635 212.277994 
L 263.702646 212.145635 
L 263.907353 211.880918 
L 264.052271 211.695616 
L 264.48942 210.822048 
L 264.554869 210.636746 
L 268.751907 203.118773 
L 269.026821 202.483451 
L 269.120542 202.298149 
L 269.224802 202.086375 
L 269.74265 201.159864 
L 269.894029 200.709844 
L 270.144178 200.074523 
L 270.32385 199.836277 
L 270.505122 199.650975 
L 270.800514 199.333314 
L 270.904363 199.068597 
L 271.100802 198.697992 
L 271.225194 198.327388 
L 273.474671 194.436042 
L 273.728158 194.038966 
L 273.929624 193.774249 
L 274.375714 193.085984 
L 274.473242 192.847738 
L 274.585183 192.688908 
L 274.669586 192.503606 
L 274.79454 192.344775 
L 274.924698 191.974171 
L 275.024516 191.762397 
L 275.149489 191.471208 
L 275.358552 191.100603 
L 275.552077 190.88883 
L 275.884857 190.094677 
L 278.131285 185.991558 
L 278.214217 185.806256 
L 278.516976 185.197406 
L 278.638474 184.747386 
L 278.968441 184.217952 
L 279.12207 183.953234 
L 279.222915 183.767932 
L 279.373902 183.503215 
L 279.520552 183.13261 
L 279.668084 182.97378 
L 279.872423 182.603176 
L 280.180309 181.967854 
L 280.374667 181.676665 
L 280.574852 181.385476 
L 280.672832 181.067815 
L 281.469432 179.744228 
L 281.560145 179.453039 
L 281.67757 179.267737 
L 281.774875 179.135378 
L 281.976161 178.976547 
L 283.116685 176.488204 
L 283.266382 176.27643 
L 283.499491 175.799939 
L 283.892863 175.270504 
L 284.083163 174.767541 
L 284.24871 174.555767 
L 284.441383 174.105748 
L 284.602918 173.920445 
L 284.8634 173.364539 
L 285.107099 173.020406 
L 285.411808 172.385085 
L 285.739474 171.908593 
L 285.85393 171.776235 
L 286.191868 171.220328 
L 286.285546 171.061498 
L 286.364191 170.902667 
L 286.505943 170.717365 
L 287.136253 169.42025 
L 287.292978 169.26142 
L 288.315763 166.667189 
L 288.535171 166.455415 
L 288.784353 165.846565 
L 288.882532 165.528904 
L 289.043691 165.237715 
L 289.25302 164.734752 
L 289.605064 163.967072 
L 289.761746 163.78177 
L 290.037566 163.33175 
L 290.169558 163.093505 
L 290.415752 162.855259 
L 290.54211 162.431711 
L 290.792244 161.95522 
L 290.903693 161.822861 
L 291.114401 161.425785 
L 291.23226 161.293426 
L 291.410457 160.869879 
L 291.602523 160.366916 
L 291.714434 160.12867 
L 291.861157 159.890424 
L 292.046366 159.67865 
L 292.168803 159.466876 
L 292.33223 159.149216 
L 292.469244 158.884498 
L 293.026997 157.666798 
L 293.141868 157.507968 
L 293.281747 157.190307 
L 293.576275 156.6344 
L 293.690523 156.502042 
L 293.98668 155.840248 
L 294.518908 155.019624 
L 294.649351 154.781379 
L 294.801016 154.437246 
L 294.925404 154.172529 
L 295.000576 153.934283 
L 295.111429 153.722509 
L 295.762305 152.451866 
L 295.933141 152.266564 
L 296.019245 152.081261 
L 296.114483 151.922431 
L 296.238597 151.684185 
L 296.833341 150.545901 
L 297.031727 150.22824 
L 297.142325 149.804692 
L 297.686816 148.772294 
L 298.099813 147.978142 
L 298.192405 147.766368 
L 298.250695 147.528123 
L 298.367128 147.369292 
L 298.690338 146.760442 
L 298.82775 146.548668 
L 299.111026 145.992762 
L 299.215726 145.780988 
L 299.57852 145.251553 
L 299.729378 144.880949 
L 299.899954 144.616231 
L 300.015672 144.404457 
L 300.677227 143.027927 
L 300.85279 142.630851 
L 301.058172 142.180831 
L 301.165383 142.048473 
L 301.288401 141.889642 
L 301.393563 141.651397 
L 301.537138 141.439623 
L 301.711934 141.069018 
L 301.884805 140.804301 
L 302.201607 140.195451 
L 302.280297 140.010149 
L 302.513556 139.586601 
L 302.909849 138.792449 
L 303.04424 138.580675 
L 304.189119 136.51588 
L 304.25979 136.330577 
L 304.385433 135.986445 
L 304.601712 135.589369 
L 304.706188 135.430538 
L 304.841438 135.245236 
L 304.967002 135.033462 
L 305.120301 134.795217 
L 305.24552 134.477556 
L 305.422207 134.08048 
L 305.546648 133.815762 
L 305.658772 133.498101 
L 305.754 133.312799 
L 305.961605 132.968667 
L 306.133533 132.783364 
L 307.592957 130.321493 
L 307.770139 130.083247 
L 308.048959 129.765586 
L 308.406994 129.20968 
L 308.558822 128.997906 
L 308.685264 128.812604 
L 309.201134 127.939036 
L 309.369349 127.674319 
L 309.560152 127.277243 
L 310.096422 126.403676 
L 310.210482 126.244845 
L 310.416458 125.794826 
L 310.523156 125.635995 
L 310.649731 125.424221 
L 310.883166 125.212447 
L 311.08514 124.735956 
L 311.206571 124.524182 
L 311.406202 124.047691 
L 311.851396 123.28001 
L 312.004146 122.988821 
L 313.17079 120.844611 
L 313.307182 120.68578 
L 313.461983 120.368119 
L 313.739129 120.103402 
L 314.028057 119.573967 
L 314.217154 119.335721 
L 314.362351 119.071004 
L 314.485136 118.912174 
L 314.555136 118.673928 
L 318.409685 112.45307 
L 318.544404 112.214824 
L 318.921023 111.367728 
L 319.051749 111.208898 
L 319.219861 110.944181 
L 319.86918 109.911783 
L 319.992645 109.779424 
L 321.286002 107.714628 
L 321.370053 107.58227 
L 321.556407 107.396968 
L 321.708054 107.105778 
L 321.833388 106.946948 
L 322.037273 106.5234 
L 322.169483 106.232211 
L 322.356763 105.91455 
L 322.766651 105.358644 
L 322.931977 105.067455 
L 323.062332 104.882152 
L 323.250655 104.564492 
L 323.54842 104.167416 
L 323.674502 103.902698 
L 325.027942 101.837903 
L 325.160388 101.679072 
L 325.341695 101.440827 
L 325.475782 101.123166 
L 325.568462 100.990807 
L 325.918396 100.646674 
L 326.16509 100.223127 
L 326.56169 99.561333 
L 326.715467 99.376031 
L 327.421747 98.237746 
L 327.522057 98.105388 
L 327.653007 97.867142 
L 327.74112 97.814198 
L 328.123299 97.311235 
L 328.255895 97.07299 
L 328.723038 96.596498 
L 328.819226 96.490612 
L 329.003017 96.278838 
L 330.07732 94.690533 
L 330.250573 94.531703 
L 331.464339 92.546323 
L 331.724883 92.096303 
L 332.0031 91.884529 
L 332.105035 91.725699 
L 332.265487 91.540396 
L 332.342305 91.408038 
L 332.604385 91.275679 
L 332.995152 90.746244 
L 333.240024 90.110923 
L 333.560295 89.76679 
L 333.802493 89.555016 
L 334.183192 89.263827 
L 334.273709 89.131468 
L 334.520857 88.840279 
L 334.705073 88.54909 
L 334.852062 88.39026 
L 335.88823 87.013729 
L 336.481906 86.298992 
L 337.783649 84.657745 
L 337.992133 84.28714 
L 338.180193 84.048895 
L 338.509495 83.598875 
L 338.621019 83.413573 
L 338.746283 83.228271 
L 339.902439 81.69291 
L 340.008335 81.454664 
L 341.077639 80.342851 
L 341.166189 80.236964 
L 341.358336 80.078134 
L 341.614083 79.892832 
L 341.69837 79.760473 
L 342.242946 79.442812 
L 342.40994 79.178095 
L 342.615321 78.992793 
L 342.732007 78.595717 
L 342.895417 78.436886 
L 343.968074 77.483904 
L 344.045972 77.43096 
L 344.323582 77.245658 
L 344.878638 76.398562 
L 345.098581 76.186788 
L 345.205831 76.05443 
L 346.943783 74.413182 
L 347.130851 74.254352 
L 347.258096 74.069049 
L 347.741034 73.671973 
L 348.0244 73.301369 
L 348.135274 73.195482 
L 348.496801 72.957236 
L 348.597814 72.824878 
L 348.842709 72.639576 
L 349.015243 72.427802 
L 349.236975 72.030726 
L 349.326568 71.898367 
L 349.546862 71.739536 
L 349.772787 71.421876 
L 350.55604 70.627723 
L 350.892903 70.177704 
L 351.206214 69.939458 
L 351.525386 69.542382 
L 351.750302 69.35708 
L 351.942535 69.145306 
L 352.168652 68.827645 
L 352.380201 68.668815 
L 352.611198 68.483513 
L 352.718695 68.351154 
L 352.96782 68.13938 
L 353.111453 68.033493 
L 353.289442 67.848191 
L 353.460499 67.662889 
L 354.390794 66.736378 
L 354.60156 66.577547 
L 354.780722 66.286358 
L 355.737579 65.412791 
L 355.936682 65.253961 
L 355.978975 65.174545 
L 356.172177 65.015715 
L 356.242091 64.830413 
L 356.679895 64.645111 
L 356.777709 64.565695 
L 357.100241 64.433337 
L 358.155992 63.559769 
L 358.545459 63.083278 
L 358.930996 62.712674 
L 360.431096 61.415559 
L 360.994884 61.018482 
L 361.128532 60.886124 
L 361.33245 60.83318 
L 361.645055 60.541991 
L 361.889356 60.277274 
L 362.166773 60.118443 
L 362.341839 59.880198 
L 362.502729 59.747839 
L 362.721401 59.562537 
L 363.290065 59.086046 
L 363.598431 58.900743 
L 365.709038 57.497741 
L 366.113408 57.285967 
L 366.179223 57.153609 
L 366.574207 56.915363 
L 366.68759 56.756533 
L 367.105648 56.597702 
L 367.291322 56.332985 
L 367.959851 56.041796 
L 368.342608 55.856494 
L 370.151849 54.506435 
L 370.262903 54.453491 
L 370.513496 54.294661 
L 370.815968 54.056415 
L 371.163196 53.897585 
L 371.460588 53.632868 
L 371.561311 53.500509 
L 371.842665 53.20932 
L 372.083028 53.050489 
L 372.09485 52.997546 
L 372.49411 52.838715 
L 372.80999 52.573998 
L 373.055998 52.388696 
L 373.24867 52.203394 
L 373.525366 51.965148 
L 374.21014 51.488657 
L 374.418803 51.409242 
L 375.314051 51.038637 
L 375.821245 50.77392 
L 375.942345 50.615089 
L 376.091388 50.456259 
L 376.451014 50.297429 
L 377.10309 49.741522 
L 377.415512 49.55622 
L 377.538475 49.423861 
L 378.486947 49.1062 
L 378.605354 49.000313 
L 379.823116 48.603237 
L 380.109616 48.470879 
L 380.259512 48.33852 
L 380.733599 48.020859 
L 380.892394 47.72967 
L 380.938195 47.623783 
L 381.289871 47.438481 
L 381.695756 47.226707 
L 384.24864 46.485498 
L 384.253132 46.459027 
L 384.694031 46.300196 
L 385.114898 46.114894 
L 386.040927 45.850177 
L 386.32784 45.770761 
L 386.700077 45.585459 
L 386.865307 45.479572 
L 387.784153 45.214855 
L 387.972609 45.161911 
L 389.85017 44.341287 
L 390.419469 44.182457 
L 390.569089 44.103042 
L 390.964914 43.944211 
L 391.93783 43.573607 
L 392.724743 43.414777 
L 392.812185 43.30889 
L 393.134917 43.176531 
L 393.150858 43.150059 
L 393.974946 42.938285 
L 394.035536 42.885342 
L 394.641695 42.726511 
L 396.883676 41.985303 
L 397.389141 41.826472 
L 398.709065 41.455868 
L 399.423392 41.297038 
L 403.811269 40.344055 
L 404.85188 40.132281 
L 405.200892 40.052866 
L 407.225084 39.708733 
L 407.341082 39.629318 
L 408.192794 39.470488 
L 408.86656 39.285186 
L 410.308732 39.073412 
L 411.261312 38.835166 
L 411.310673 38.808694 
L 412.397453 38.649864 
L 412.41506 38.623392 
L 414.473548 38.411618 
L 416.05582 38.279259 
L 416.703656 38.199844 
L 423.632385 37.458636 
L 423.662216 37.432164 
L 429.500528 36.849786 
L 432.377672 36.690955 
L 434.574442 36.585068 
L 450.109542 36.029162 
L 478.935547 35.579142 
L 537.739432 35.55267 
L 537.739432 35.55267 
" clip-path="url(#p90a4d0df7c)" style="fill: none; stroke: #1f77b4; stroke-width: 2; stroke-linecap: square"/>
   </g>
   <g id="patch_3">
    <path d="M 43.78125 313.478125 
L 43.78125 22.318125 
" style="fill: none; stroke: #000000; stroke-width: 0.8; stroke-linejoin: miter; stroke-linecap: square"/>
   </g>
   <g id="patch_4">
    <path d="M 561.26125 313.478125 
L 561.26125 22.318125 
" style="fill: none; stroke: #000000; stroke-width: 0.8; stroke-linejoin: miter; stroke-linecap: square"/>
   </g>
   <g id="patch_5">
    <path d="M 43.78125 313.478125 
L 561.26125 313.478125 
" style="fill: none; stroke: #000000; stroke-width: 0.8; stroke-linejoin: miter; stroke-linecap: square"/>
   </g>
   <g id="patch_6">
    <path d="M 43.78125 22.318125 
L 561.26125 22.318125 
" style="fill: none; stroke: #000000; stroke-width: 0.8; stroke-linejoin: miter; stroke-linecap: square"/>
   </g>
   <g id="text_14">
    <!-- Shadowing Variation Empirical CDF -->
    <g transform="translate(183.42125 16.318125) scale(0.12 -0.12)">
     <defs>
      <path id="DejaVuSans-Bold-53" d="M 3834 4519 
L 3834 3531 
Q 3450 3703 3084 3790 
Q 2719 3878 2394 3878 
Q 1963 3878 1756 3759 
Q 1550 3641 1550 3391 
Q 1550 3203 1689 3098 
Q 1828 2994 2194 2919 
L 2706 2816 
Q 3484 2659 3812 2340 
Q 4141 2022 4141 1434 
Q 4141 663 3683 286 
Q 3225 -91 2284 -91 
Q 1841 -91 1394 -6 
Q 947 78 500 244 
L 500 1259 
Q 947 1022 1364 901 
Q 1781 781 2169 781 
Q 2563 781 2772 912 
Q 2981 1044 2981 1288 
Q 2981 1506 2839 1625 
Q 2697 1744 2272 1838 
L 1806 1941 
Q 1106 2091 782 2419 
Q 459 2747 459 3303 
Q 459 4000 909 4375 
Q 1359 4750 2203 4750 
Q 2588 4750 2994 4692 
Q 3400 4634 3834 4519 
z
" transform="scale(0.015625)"/>
      <path id="DejaVuSans-Bold-68" d="M 4056 2131 
L 4056 0 
L 2931 0 
L 2931 347 
L 2931 1625 
Q 2931 2084 2911 2256 
Q 2891 2428 2841 2509 
Q 2775 2619 2662 2680 
Q 2550 2741 2406 2741 
Q 2056 2741 1856 2470 
Q 1656 2200 1656 1722 
L 1656 0 
L 538 0 
L 538 4863 
L 1656 4863 
L 1656 2988 
Q 1909 3294 2193 3439 
Q 2478 3584 2822 3584 
Q 3428 3584 3742 3212 
Q 4056 2841 4056 2131 
z
" transform="scale(0.015625)"/>
      <path id="DejaVuSans-Bold-61" d="M 2106 1575 
Q 1756 1575 1579 1456 
Q 1403 1338 1403 1106 
Q 1403 894 1545 773 
Q 1688 653 1941 653 
Q 2256 653 2472 879 
Q 2688 1106 2688 1447 
L 2688 1575 
L 2106 1575 
z
M 3816 1997 
L 3816 0 
L 2688 0 
L 2688 519 
Q 2463 200 2181 54 
Q 1900 -91 1497 -91 
Q 953 -91 614 226 
Q 275 544 275 1050 
Q 275 1666 698 1953 
Q 1122 2241 2028 2241 
L 2688 2241 
L 2688 2328 
Q 2688 2594 2478 2717 
Q 2269 2841 1825 2841 
Q 1466 2841 1156 2769 
Q 847 2697 581 2553 
L 581 3406 
Q 941 3494 1303 3539 
Q 1666 3584 2028 3584 
Q 2975 3584 3395 3211 
Q 3816 2838 3816 1997 
z
" transform="scale(0.015625)"/>
      <path id="DejaVuSans-Bold-64" d="M 2919 2988 
L 2919 4863 
L 4044 4863 
L 4044 0 
L 2919 0 
L 2919 506 
Q 2688 197 2409 53 
Q 2131 -91 1766 -91 
Q 1119 -91 703 423 
Q 288 938 288 1747 
Q 288 2556 703 3070 
Q 1119 3584 1766 3584 
Q 2128 3584 2408 3439 
Q 2688 3294 2919 2988 
z
M 2181 722 
Q 2541 722 2730 984 
Q 2919 1247 2919 1747 
Q 2919 2247 2730 2509 
Q 2541 2772 2181 2772 
Q 1825 2772 1636 2509 
Q 1447 2247 1447 1747 
Q 1447 1247 1636 984 
Q 1825 722 2181 722 
z
" transform="scale(0.015625)"/>
      <path id="DejaVuSans-Bold-6f" d="M 2203 2784 
Q 1831 2784 1636 2517 
Q 1441 2250 1441 1747 
Q 1441 1244 1636 976 
Q 1831 709 2203 709 
Q 2569 709 2762 976 
Q 2956 1244 2956 1747 
Q 2956 2250 2762 2517 
Q 2569 2784 2203 2784 
z
M 2203 3584 
Q 3106 3584 3614 3096 
Q 4122 2609 4122 1747 
Q 4122 884 3614 396 
Q 3106 -91 2203 -91 
Q 1297 -91 786 396 
Q 275 884 275 1747 
Q 275 2609 786 3096 
Q 1297 3584 2203 3584 
z
" transform="scale(0.015625)"/>
      <path id="DejaVuSans-Bold-77" d="M 225 3500 
L 1313 3500 
L 1900 1088 
L 2491 3500 
L 3425 3500 
L 4013 1113 
L 4603 3500 
L 5691 3500 
L 4769 0 
L 3547 0 
L 2956 2406 
L 2369 0 
L 1147 0 
L 225 3500 
z
" transform="scale(0.015625)"/>
      <path id="DejaVuSans-Bold-69" d="M 538 3500 
L 1656 3500 
L 1656 0 
L 538 0 
L 538 3500 
z
M 538 4863 
L 1656 4863 
L 1656 3950 
L 538 3950 
L 538 4863 
z
" transform="scale(0.015625)"/>
      <path id="DejaVuSans-Bold-6e" d="M 4056 2131 
L 4056 0 
L 2931 0 
L 2931 347 
L 2931 1631 
Q 2931 2084 2911 2256 
Q 2891 2428 2841 2509 
Q 2775 2619 2662 2680 
Q 2550 2741 2406 2741 
Q 2056 2741 1856 2470 
Q 1656 2200 1656 1722 
L 1656 0 
L 538 0 
L 538 3500 
L 1656 3500 
L 1656 2988 
Q 1909 3294 2193 3439 
Q 2478 3584 2822 3584 
Q 3428 3584 3742 3212 
Q 4056 2841 4056 2131 
z
" transform="scale(0.015625)"/>
      <path id="DejaVuSans-Bold-67" d="M 2919 594 
Q 2688 288 2409 144 
Q 2131 0 1766 0 
Q 1125 0 706 504 
Q 288 1009 288 1791 
Q 288 2575 706 3076 
Q 1125 3578 1766 3578 
Q 2131 3578 2409 3434 
Q 2688 3291 2919 2981 
L 2919 3500 
L 4044 3500 
L 4044 353 
Q 4044 -491 3511 -936 
Q 2978 -1381 1966 -1381 
Q 1638 -1381 1331 -1331 
Q 1025 -1281 716 -1178 
L 716 -306 
Q 1009 -475 1290 -558 
Q 1572 -641 1856 -641 
Q 2406 -641 2662 -400 
Q 2919 -159 2919 353 
L 2919 594 
z
M 2181 2772 
Q 1834 2772 1640 2515 
Q 1447 2259 1447 1791 
Q 1447 1309 1634 1061 
Q 1822 813 2181 813 
Q 2531 813 2725 1069 
Q 2919 1325 2919 1791 
Q 2919 2259 2725 2515 
Q 2531 2772 2181 2772 
z
" transform="scale(0.015625)"/>
      <path id="DejaVuSans-Bold-20" transform="scale(0.015625)"/>
      <path id="DejaVuSans-Bold-56" d="M 31 4666 
L 1241 4666 
L 2478 1222 
L 3713 4666 
L 4922 4666 
L 3194 0 
L 1759 0 
L 31 4666 
z
" transform="scale(0.015625)"/>
      <path id="DejaVuSans-Bold-72" d="M 3138 2547 
Q 2991 2616 2845 2648 
Q 2700 2681 2553 2681 
Q 2122 2681 1889 2404 
Q 1656 2128 1656 1613 
L 1656 0 
L 538 0 
L 538 3500 
L 1656 3500 
L 1656 2925 
Q 1872 3269 2151 3426 
Q 2431 3584 2822 3584 
Q 2878 3584 2943 3579 
Q 3009 3575 3134 3559 
L 3138 2547 
z
" transform="scale(0.015625)"/>
      <path id="DejaVuSans-Bold-74" d="M 1759 4494 
L 1759 3500 
L 2913 3500 
L 2913 2700 
L 1759 2700 
L 1759 1216 
Q 1759 972 1856 886 
Q 1953 800 2241 800 
L 2816 800 
L 2816 0 
L 1856 0 
Q 1194 0 917 276 
Q 641 553 641 1216 
L 641 2700 
L 84 2700 
L 84 3500 
L 641 3500 
L 641 4494 
L 1759 4494 
z
" transform="scale(0.015625)"/>
      <path id="DejaVuSans-Bold-45" d="M 588 4666 
L 3834 4666 
L 3834 3756 
L 1791 3756 
L 1791 2888 
L 3713 2888 
L 3713 1978 
L 1791 1978 
L 1791 909 
L 3903 909 
L 3903 0 
L 588 0 
L 588 4666 
z
" transform="scale(0.015625)"/>
      <path id="DejaVuSans-Bold-6d" d="M 3781 2919 
Q 3994 3244 4286 3414 
Q 4578 3584 4928 3584 
Q 5531 3584 5847 3212 
Q 6163 2841 6163 2131 
L 6163 0 
L 5038 0 
L 5038 1825 
Q 5041 1866 5042 1909 
Q 5044 1953 5044 2034 
Q 5044 2406 4934 2573 
Q 4825 2741 4581 2741 
Q 4263 2741 4089 2478 
Q 3916 2216 3909 1719 
L 3909 0 
L 2784 0 
L 2784 1825 
Q 2784 2406 2684 2573 
Q 2584 2741 2328 2741 
Q 2006 2741 1831 2477 
Q 1656 2213 1656 1722 
L 1656 0 
L 531 0 
L 531 3500 
L 1656 3500 
L 1656 2988 
Q 1863 3284 2130 3434 
Q 2397 3584 2719 3584 
Q 3081 3584 3359 3409 
Q 3638 3234 3781 2919 
z
" transform="scale(0.015625)"/>
      <path id="DejaVuSans-Bold-70" d="M 1656 506 
L 1656 -1331 
L 538 -1331 
L 538 3500 
L 1656 3500 
L 1656 2988 
Q 1888 3294 2169 3439 
Q 2450 3584 2816 3584 
Q 3463 3584 3878 3070 
Q 4294 2556 4294 1747 
Q 4294 938 3878 423 
Q 3463 -91 2816 -91 
Q 2450 -91 2169 54 
Q 1888 200 1656 506 
z
M 2400 2772 
Q 2041 2772 1848 2508 
Q 1656 2244 1656 1747 
Q 1656 1250 1848 986 
Q 2041 722 2400 722 
Q 2759 722 2948 984 
Q 3138 1247 3138 1747 
Q 3138 2247 2948 2509 
Q 2759 2772 2400 2772 
z
" transform="scale(0.015625)"/>
      <path id="DejaVuSans-Bold-63" d="M 3366 3391 
L 3366 2478 
Q 3138 2634 2908 2709 
Q 2678 2784 2431 2784 
Q 1963 2784 1702 2511 
Q 1441 2238 1441 1747 
Q 1441 1256 1702 982 
Q 1963 709 2431 709 
Q 2694 709 2930 787 
Q 3166 866 3366 1019 
L 3366 103 
Q 3103 6 2833 -42 
Q 2563 -91 2291 -91 
Q 1344 -91 809 395 
Q 275 881 275 1747 
Q 275 2613 809 3098 
Q 1344 3584 2291 3584 
Q 2566 3584 2833 3536 
Q 3100 3488 3366 3391 
z
" transform="scale(0.015625)"/>
      <path id="DejaVuSans-Bold-6c" d="M 538 4863 
L 1656 4863 
L 1656 0 
L 538 0 
L 538 4863 
z
" transform="scale(0.015625)"/>
      <path id="DejaVuSans-Bold-43" d="M 4288 256 
Q 3956 84 3597 -3 
Q 3238 -91 2847 -91 
Q 1681 -91 1000 561 
Q 319 1213 319 2328 
Q 319 3447 1000 4098 
Q 1681 4750 2847 4750 
Q 3238 4750 3597 4662 
Q 3956 4575 4288 4403 
L 4288 3438 
Q 3953 3666 3628 3772 
Q 3303 3878 2944 3878 
Q 2300 3878 1931 3465 
Q 1563 3053 1563 2328 
Q 1563 1606 1931 1193 
Q 2300 781 2944 781 
Q 3303 781 3628 887 
Q 3953 994 4288 1222 
L 4288 256 
z
" transform="scale(0.015625)"/>
      <path id="DejaVuSans-Bold-44" d="M 1791 3756 
L 1791 909 
L 2222 909 
Q 2959 909 3348 1275 
Q 3738 1641 3738 2338 
Q 3738 3031 3350 3393 
Q 2963 3756 2222 3756 
L 1791 3756 
z
M 588 4666 
L 1856 4666 
Q 2919 4666 3439 4514 
Q 3959 4363 4331 4000 
Q 4659 3684 4818 3271 
Q 4978 2859 4978 2338 
Q 4978 1809 4818 1395 
Q 4659 981 4331 666 
Q 3956 303 3431 151 
Q 2906 0 1856 0 
L 588 0 
L 588 4666 
z
" transform="scale(0.015625)"/>
      <path id="DejaVuSans-Bold-46" d="M 588 4666 
L 3834 4666 
L 3834 3756 
L 1791 3756 
L 1791 2888 
L 3713 2888 
L 3713 1978 
L 1791 1978 
L 1791 0 
L 588 0 
L 588 4666 
z
" transform="scale(0.015625)"/>
     </defs>
     <use xlink:href="#DejaVuSans-Bold-53"/>
     <use xlink:href="#DejaVuSans-Bold-68" transform="translate(72.021484 0)"/>
     <use xlink:href="#DejaVuSans-Bold-61" transform="translate(143.212891 0)"/>
     <use xlink:href="#DejaVuSans-Bold-64" transform="translate(210.693359 0)"/>
     <use xlink:href="#DejaVuSans-Bold-6f" transform="translate(282.275391 0)"/>
     <use xlink:href="#DejaVuSans-Bold-77" transform="translate(350.976562 0)"/>
     <use xlink:href="#DejaVuSans-Bold-69" transform="translate(443.359375 0)"/>
     <use xlink:href="#DejaVuSans-Bold-6e" transform="translate(477.636719 0)"/>
     <use xlink:href="#DejaVuSans-Bold-67" transform="translate(548.828125 0)"/>
     <use xlink:href="#DejaVuSans-Bold-20" transform="translate(620.410156 0)"/>
     <use xlink:href="#DejaVuSans-Bold-56" transform="translate(655.224609 0)"/>
     <use xlink:href="#DejaVuSans-Bold-61" transform="translate(727.117188 0)"/>
     <use xlink:href="#DejaVuSans-Bold-72" transform="translate(794.597656 0)"/>
     <use xlink:href="#DejaVuSans-Bold-69" transform="translate(843.914062 0)"/>
     <use xlink:href="#DejaVuSans-Bold-61" transform="translate(878.191406 0)"/>
     <use xlink:href="#DejaVuSans-Bold-74" transform="translate(945.671875 0)"/>
     <use xlink:href="#DejaVuSans-Bold-69" transform="translate(993.474609 0)"/>
     <use xlink:href="#DejaVuSans-Bold-6f" transform="translate(1027.751953 0)"/>
     <use xlink:href="#DejaVuSans-Bold-6e" transform="translate(1096.453125 0)"/>
     <use xlink:href="#DejaVuSans-Bold-20" transform="translate(1167.644531 0)"/>
     <use xlink:href="#DejaVuSans-Bold-45" transform="translate(1202.458984 0)"/>
     <use xlink:href="#DejaVuSans-Bold-6d" transform="translate(1270.769531 0)"/>
     <use xlink:href="#DejaVuSans-Bold-70" transform="translate(1374.96875 0)"/>
     <use xlink:href="#DejaVuSans-Bold-69" transform="translate(1446.550781 0)"/>
     <use xlink:href="#DejaVuSans-Bold-72" transform="translate(1480.828125 0)"/>
     <use xlink:href="#DejaVuSans-Bold-69" transform="translate(1530.144531 0)"/>
     <use xlink:href="#DejaVuSans-Bold-63" transform="translate(1564.421875 0)"/>
     <use xlink:href="#DejaVuSans-Bold-61" transform="translate(1623.699219 0)"/>
     <use xlink:href="#DejaVuSans-Bold-6c" transform="translate(1691.179688 0)"/>
     <use xlink:href="#DejaVuSans-Bold-20" transform="translate(1725.457031 0)"/>
     <use xlink:href="#DejaVuSans-Bold-43" transform="translate(1760.271484 0)"/>
     <use xlink:href="#DejaVuSans-Bold-44" transform="translate(1833.660156 0)"/>
     <use xlink:href="#DejaVuSans-Bold-46" transform="translate(1916.667969 0)"/>
    </g>
   </g>
   <g id="line2d_24">
    <path d="M 154.514577 313.478125 
L 154.514577 22.318125 
" clip-path="url(#p90a4d0df7c)" style="fill: none; stroke-dasharray: 7.4,3.2; stroke-dashoffset: 0; stroke: #008000; stroke-width: 2"/>
   </g>
   <g id="legend_1">
    <g id="patch_7">
     <path d="M 431.525312 308.478125 
L 554.26125 308.478125 
Q 556.26125 308.478125 556.26125 306.478125 
L 556.26125 278.121875 
Q 556.26125 276.121875 554.26125 276.121875 
L 431.525312 276.121875 
Q 429.525312 276.121875 429.525312 278.121875 
L 429.525312 306.478125 
Q 429.525312 308.478125 431.525312 308.478125 
z
" style="fill: #ffffff; opacity: 0.8; stroke: #cccccc; stroke-linejoin: miter"/>
    </g>
    <g id="line2d_25">
     <path d="M 433.525312 284.220312 
L 443.525312 284.220312 
L 453.525312 284.220312 
" style="fill: none; stroke: #1f77b4; stroke-width: 2; stroke-linecap: square"/>
    </g>
    <g id="text_15">
     <!-- CDF -->
     <g transform="translate(461.525312 287.720312) scale(0.1 -0.1)">
      <use xlink:href="#DejaVuSans-43"/>
      <use xlink:href="#DejaVuSans-44" transform="translate(69.824219 0)"/>
      <use xlink:href="#DejaVuSans-46" transform="translate(146.826172 0)"/>
     </g>
    </g>
    <g id="line2d_26">
     <path d="M 433.525312 298.898438 
L 443.525312 298.898438 
L 453.525312 298.898438 
" style="fill: none; stroke-dasharray: 7.4,3.2; stroke-dashoffset: 0; stroke: #008000; stroke-width: 2"/>
    </g>
    <g id="text_16">
     <!-- 5th pct: -14.19 dB -->
     <g transform="translate(461.525312 302.398438) scale(0.1 -0.1)">
      <defs>
       <path id="DejaVuSans-35" d="M 691 4666 
L 3169 4666 
L 3169 4134 
L 1269 4134 
L 1269 2991 
Q 1406 3038 1543 3061 
Q 1681 3084 1819 3084 
Q 2600 3084 3056 2656 
Q 3513 2228 3513 1497 
Q 3513 744 3044 326 
Q 2575 -91 1722 -91 
Q 1428 -91 1123 -41 
Q 819 9 494 109 
L 494 744 
Q 775 591 1075 516 
Q 1375 441 1709 441 
Q 2250 441 2565 725 
Q 2881 1009 2881 1497 
Q 2881 1984 2565 2268 
Q 2250 2553 1709 2553 
Q 1456 2553 1204 2497 
Q 953 2441 691 2322 
L 691 4666 
z
" transform="scale(0.015625)"/>
       <path id="DejaVuSans-70" d="M 1159 525 
L 1159 -1331 
L 581 -1331 
L 581 3500 
L 1159 3500 
L 1159 2969 
Q 1341 3281 1617 3432 
Q 1894 3584 2278 3584 
Q 2916 3584 3314 3078 
Q 3713 2572 3713 1747 
Q 3713 922 3314 415 
Q 2916 -91 2278 -91 
Q 1894 -91 1617 61 
Q 1341 213 1159 525 
z
M 3116 1747 
Q 3116 2381 2855 2742 
Q 2594 3103 2138 3103 
Q 1681 3103 1420 2742 
Q 1159 2381 1159 1747 
Q 1159 1113 1420 752 
Q 1681 391 2138 391 
Q 2594 391 2855 752 
Q 3116 1113 3116 1747 
z
" transform="scale(0.015625)"/>
       <path id="DejaVuSans-63" d="M 3122 3366 
L 3122 2828 
Q 2878 2963 2633 3030 
Q 2388 3097 2138 3097 
Q 1578 3097 1268 2742 
Q 959 2388 959 1747 
Q 959 1106 1268 751 
Q 1578 397 2138 397 
Q 2388 397 2633 464 
Q 2878 531 3122 666 
L 3122 134 
Q 2881 22 2623 -34 
Q 2366 -91 2075 -91 
Q 1284 -91 818 406 
Q 353 903 353 1747 
Q 353 2603 823 3093 
Q 1294 3584 2113 3584 
Q 2378 3584 2631 3529 
Q 2884 3475 3122 3366 
z
" transform="scale(0.015625)"/>
       <path id="DejaVuSans-3a" d="M 750 794 
L 1409 794 
L 1409 0 
L 750 0 
L 750 794 
z
M 750 3309 
L 1409 3309 
L 1409 2516 
L 750 2516 
L 750 3309 
z
" transform="scale(0.015625)"/>
       <path id="DejaVuSans-2d" d="M 313 2009 
L 1997 2009 
L 1997 1497 
L 313 1497 
L 313 2009 
z
" transform="scale(0.015625)"/>
       <path id="DejaVuSans-39" d="M 703 97 
L 703 672 
Q 941 559 1184 500 
Q 1428 441 1663 441 
Q 2288 441 2617 861 
Q 2947 1281 2994 2138 
Q 2813 1869 2534 1725 
Q 2256 1581 1919 1581 
Q 1219 1581 811 2004 
Q 403 2428 403 3163 
Q 403 3881 828 4315 
Q 1253 4750 1959 4750 
Q 2769 4750 3195 4129 
Q 3622 3509 3622 2328 
Q 3622 1225 3098 567 
Q 2575 -91 1691 -91 
Q 1453 -91 1209 -44 
Q 966 3 703 97 
z
M 1959 2075 
Q 2384 2075 2632 2365 
Q 2881 2656 2881 3163 
Q 2881 3666 2632 3958 
Q 2384 4250 1959 4250 
Q 1534 4250 1286 3958 
Q 1038 3666 1038 3163 
Q 1038 2656 1286 2365 
Q 1534 2075 1959 2075 
z
" transform="scale(0.015625)"/>
      </defs>
      <use xlink:href="#DejaVuSans-35"/>
      <use xlink:href="#DejaVuSans-74" transform="translate(63.623047 0)"/>
      <use xlink:href="#DejaVuSans-68" transform="translate(102.832031 0)"/>
      <use xlink:href="#DejaVuSans-20" transform="translate(166.210938 0)"/>
      <use xlink:href="#DejaVuSans-70" transform="translate(197.998047 0)"/>
      <use xlink:href="#DejaVuSans-63" transform="translate(261.474609 0)"/>
      <use xlink:href="#DejaVuSans-74" transform="translate(316.455078 0)"/>
      <use xlink:href="#DejaVuSans-3a" transform="translate(355.664062 0)"/>
      <use xlink:href="#DejaVuSans-20" transform="translate(389.355469 0)"/>
      <use xlink:href="#DejaVuSans-2d" transform="translate(421.142578 0)"/>
      <use xlink:href="#DejaVuSans-31" transform="translate(457.226562 0)"/>
      <use xlink:href="#DejaVuSans-34" transform="translate(520.849609 0)"/>
      <use xlink:href="#DejaVuSans-2e" transform="translate(584.472656 0)"/>
      <use xlink:href="#DejaVuSans-31" transform="translate(616.259766 0)"/>
      <use xlink:href="#DejaVuSans-39" transform="translate(679.882812 0)"/>
      <use xlink:href="#DejaVuSans-20" transform="translate(743.505859 0)"/>
      <use xlink:href="#DejaVuSans-64" transform="translate(775.292969 0)"/>
      <use xlink:href="#DejaVuSans-42" transform="translate(838.769531 0)"/>
     </g>
    </g>
   </g>
  </g>
 </g>
 <defs>
  <clipPath id="p90a4d0df7c">
   <rect x="43.78125" y="22.318125" width="517.48" height="291.16"/>
  </clipPath>
 </defs>
</svg>
