<?xml version="1.0" encoding="utf-8" standalone="no"?>
<!DOCTYPE svg PUBLIC "-//W3C//DTD SVG 1.1//EN"
  "http://www.w3.org/Graphics/SVG/1.1/DTD/svg11.dtd">
<svg xmlns:xlink="http://www.w3.org/1999/xlink" width="554.06125pt" height="336.634375pt" viewBox="0 0 554.06125 336.634375" xmlns="http://www.w3.org/2000/svg" version="1.1">
 <metadata>
  <rdf:RDF xmlns:dc="http://purl.org/dc/elements/1.1/" xmlns:cc="http://creativecommons.org/ns#" xmlns:rdf="http://www.w3.org/1999/02/22-rdf-syntax-ns#">
   <cc:Work>
    <dc:type rdf:resource="http://purl.org/dc/dcmitype/StillImage"/>
    <dc:date>2026-04-29T14:45:48.341990</dc:date>
    <dc:format>image/svg+xml</dc:format>
    <dc:creator>
     <cc:Agent>
      <dc:title>Matplotlib v3.10.8, https://matplotlib.org/</dc:title>
     </cc:Agent>
    </dc:creator>
   </cc:Work>
  </rdf:RDF>
 </metadata>
 <defs>
  <style type="text/css">*{stroke-linejoin: round; stroke-linecap: butt}</style>
 </defs>
 <g id="figure_1">
  <g id="patch_1">
   <path d="M 0 336.634375 
L 554.06125 336.634375 
L 554.06125 0 
L 0 0 
z
" style="fill: #ffffff"/>
  </g>
  <g id="axes_1">
   <g id="patch_2">
    <path d="M 36.58125 306.278125 
L 554.06125 306.278125 
L 554.06125 15.118125 
L 36.58125 15.118125 
z
" style="fill: #ffffff"/>
   </g>
   <g id="matplotlib.axis_1">
    <g id="xtick_1">
     <g id="line2d_1">
      <path d="M 93.087536 306.278125 
L 93.087536 15.118125 
" clip-path="url(#pa9cd3e075d)" style="fill: none; stroke: #b0b0b0; stroke-opacity: 0.25; stroke-width: 0.8; stroke-linecap: square"/>
     </g>
     <g id="line2d_2">
      <defs>
       <path id="m993bc7d4f9" d="M 0 0 
L 0 3.5 
" style="stroke: #000000; stroke-width: 0.8"/>
      </defs>
      <g>
       <use xlink:href="#m993bc7d4f9" x="93.087536" y="306.278125" style="stroke: #000000; stroke-width: 0.8"/>
      </g>
     </g>
     <g id="text_1">
      <!-- −20 -->
      <g transform="translate(82.535193 320.876563) scale(0.1 -0.1)">
       <defs>
        <path id="DejaVuSans-2212" d="M 678 2272 
L 4684 2272 
L 4684 1741 
L 678 1741 
L 678 2272 
z
" transform="scale(0.015625)"/>
        <path id="DejaVuSans-32" d="M 1228 531 
L 3431 531 
L 3431 0 
L 469 0 
L 469 531 
Q 828 903 1448 1529 
Q 2069 2156 2228 2338 
Q 2531 2678 2651 2914 
Q 2772 3150 2772 3378 
Q 2772 3750 2511 3984 
Q 2250 4219 1831 4219 
Q 1534 4219 1204 4116 
Q 875 4013 500 3803 
L 500 4441 
Q 881 4594 1212 4672 
Q 1544 4750 1819 4750 
Q 2544 4750 2975 4387 
Q 3406 4025 3406 3419 
Q 3406 3131 3298 2873 
Q 3191 2616 2906 2266 
Q 2828 2175 2409 1742 
Q 1991 1309 1228 531 
z
" transform="scale(0.015625)"/>
        <path id="DejaVuSans-30" d="M 2034 4250 
Q 1547 4250 1301 3770 
Q 1056 3291 1056 2328 
Q 1056 1369 1301 889 
Q 1547 409 2034 409 
Q 2525 409 2770 889 
Q 3016 1369 3016 2328 
Q 3016 3291 2770 3770 
Q 2525 4250 2034 4250 
z
M 2034 4750 
Q 2819 4750 3233 4129 
Q 3647 3509 3647 2328 
Q 3647 1150 3233 529 
Q 2819 -91 2034 -91 
Q 1250 -91 836 529 
Q 422 1150 422 2328 
Q 422 3509 836 4129 
Q 1250 4750 2034 4750 
z
" transform="scale(0.015625)"/>
       </defs>
       <use xlink:href="#DejaVuSans-2212"/>
       <use xlink:href="#DejaVuSans-32" transform="translate(83.789062 0)"/>
       <use xlink:href="#DejaVuSans-30" transform="translate(147.412109 0)"/>
      </g>
     </g>
    </g>
    <g id="xtick_2">
     <g id="line2d_3">
      <path d="M 186.411592 306.278125 
L 186.411592 15.118125 
" clip-path="url(#pa9cd3e075d)" style="fill: none; stroke: #b0b0b0; stroke-opacity: 0.25; stroke-width: 0.8; stroke-linecap: square"/>
     </g>
     <g id="line2d_4">
      <g>
       <use xlink:href="#m993bc7d4f9" x="186.411592" y="306.278125" style="stroke: #000000; stroke-width: 0.8"/>
      </g>
     </g>
     <g id="text_2">
      <!-- −10 -->
      <g transform="translate(175.859248 320.876563) scale(0.1 -0.1)">
       <defs>
        <path id="DejaVuSans-31" d="M 794 531 
L 1825 531 
L 1825 4091 
L 703 3866 
L 703 4441 
L 1819 4666 
L 2450 4666 
L 2450 531 
L 3481 531 
L 3481 0 
L 794 0 
L 794 531 
z
" transform="scale(0.015625)"/>
       </defs>
       <use xlink:href="#DejaVuSans-2212"/>
       <use xlink:href="#DejaVuSans-31" transform="translate(83.789062 0)"/>
       <use xlink:href="#DejaVuSans-30" transform="translate(147.412109 0)"/>
      </g>
     </g>
    </g>
    <g id="xtick_3">
     <g id="line2d_5">
      <path d="M 279.735647 306.278125 
L 279.735647 15.118125 
" clip-path="url(#pa9cd3e075d)" style="fill: none; stroke: #b0b0b0; stroke-opacity: 0.25; stroke-width: 0.8; stroke-linecap: square"/>
     </g>
     <g id="line2d_6">
      <g>
       <use xlink:href="#m993bc7d4f9" x="279.735647" y="306.278125" style="stroke: #000000; stroke-width: 0.8"/>
      </g>
     </g>
     <g id="text_3">
      <!-- 0 -->
      <g transform="translate(276.554397 320.876563) scale(0.1 -0.1)">
       <use xlink:href="#DejaVuSans-30"/>
      </g>
     </g>
    </g>
    <g id="xtick_4">
     <g id="line2d_7">
      <path d="M 373.059703 306.278125 
L 373.059703 15.118125 
" clip-path="url(#pa9cd3e075d)" style="fill: none; stroke: #b0b0b0; stroke-opacity: 0.25; stroke-width: 0.8; stroke-linecap: square"/>
     </g>
     <g id="line2d_8">
      <g>
       <use xlink:href="#m993bc7d4f9" x="373.059703" y="306.278125" style="stroke: #000000; stroke-width: 0.8"/>
      </g>
     </g>
     <g id="text_4">
      <!-- 10 -->
      <g transform="translate(366.697203 320.876563) scale(0.1 -0.1)">
       <use xlink:href="#DejaVuSans-31"/>
       <use xlink:href="#DejaVuSans-30" transform="translate(63.623047 0)"/>
      </g>
     </g>
    </g>
    <g id="xtick_5">
     <g id="line2d_9">
      <path d="M 466.383758 306.278125 
L 466.383758 15.118125 
" clip-path="url(#pa9cd3e075d)" style="fill: none; stroke: #b0b0b0; stroke-opacity: 0.25; stroke-width: 0.8; stroke-linecap: square"/>
     </g>
     <g id="line2d_10">
      <g>
       <use xlink:href="#m993bc7d4f9" x="466.383758" y="306.278125" style="stroke: #000000; stroke-width: 0.8"/>
      </g>
     </g>
     <g id="text_5">
      <!-- 20 -->
      <g transform="translate(460.021258 320.876563) scale(0.1 -0.1)">
       <use xlink:href="#DejaVuSans-32"/>
       <use xlink:href="#DejaVuSans-30" transform="translate(63.623047 0)"/>
      </g>
     </g>
    </g>
    <g id="text_6">
     <!-- Shadowing variation (dB) -->
     <g transform="translate(232.065781 334.554688) scale(0.1 -0.1)">
      <defs>
       <path id="DejaVuSans-53" d="M 3425 4513 
L 3425 3897 
Q 3066 4069 2747 4153 
Q 2428 4238 2131 4238 
Q 1616 4238 1336 4038 
Q 1056 3838 1056 3469 
Q 1056 3159 1242 3001 
Q 1428 2844 1947 2747 
L 2328 2669 
Q 3034 2534 3370 2195 
Q 3706 1856 3706 1288 
Q 3706 609 3251 259 
Q 2797 -91 1919 -91 
Q 1588 -91 1214 -16 
Q 841 59 441 206 
L 441 856 
Q 825 641 1194 531 
Q 1563 422 1919 422 
Q 2459 422 2753 634 
Q 3047 847 3047 1241 
Q 3047 1584 2836 1778 
Q 2625 1972 2144 2069 
L 1759 2144 
Q 1053 2284 737 2584 
Q 422 2884 422 3419 
Q 422 4038 858 4394 
Q 1294 4750 2059 4750 
Q 2388 4750 2728 4690 
Q 3069 4631 3425 4513 
z
" transform="scale(0.015625)"/>
       <path id="DejaVuSans-68" d="M 3513 2113 
L 3513 0 
L 2938 0 
L 2938 2094 
Q 2938 2591 2744 2837 
Q 2550 3084 2163 3084 
Q 1697 3084 1428 2787 
Q 1159 2491 1159 1978 
L 1159 0 
L 581 0 
L 581 4863 
L 1159 4863 
L 1159 2956 
Q 1366 3272 1645 3428 
Q 1925 3584 2291 3584 
Q 2894 3584 3203 3211 
Q 3513 2838 3513 2113 
z
" transform="scale(0.015625)"/>
       <path id="DejaVuSans-61" d="M 2194 1759 
Q 1497 1759 1228 1600 
Q 959 1441 959 1056 
Q 959 750 1161 570 
Q 1363 391 1709 391 
Q 2188 391 2477 730 
Q 2766 1069 2766 1631 
L 2766 1759 
L 2194 1759 
z
M 3341 1997 
L 3341 0 
L 2766 0 
L 2766 531 
Q 2569 213 2275 61 
Q 1981 -91 1556 -91 
Q 1019 -91 701 211 
Q 384 513 384 1019 
Q 384 1609 779 1909 
Q 1175 2209 1959 2209 
L 2766 2209 
L 2766 2266 
Q 2766 2663 2505 2880 
Q 2244 3097 1772 3097 
Q 1472 3097 1187 3025 
Q 903 2953 641 2809 
L 641 3341 
Q 956 3463 1253 3523 
Q 1550 3584 1831 3584 
Q 2591 3584 2966 3190 
Q 3341 2797 3341 1997 
z
" transform="scale(0.015625)"/>
       <path id="DejaVuSans-64" d="M 2906 2969 
L 2906 4863 
L 3481 4863 
L 3481 0 
L 2906 0 
L 2906 525 
Q 2725 213 2448 61 
Q 2172 -91 1784 -91 
Q 1150 -91 751 415 
Q 353 922 353 1747 
Q 353 2572 751 3078 
Q 1150 3584 1784 3584 
Q 2172 3584 2448 3432 
Q 2725 3281 2906 2969 
z
M 947 1747 
Q 947 1113 1208 752 
Q 1469 391 1925 391 
Q 2381 391 2643 752 
Q 2906 1113 2906 1747 
Q 2906 2381 2643 2742 
Q 2381 3103 1925 3103 
Q 1469 3103 1208 2742 
Q 947 2381 947 1747 
z
" transform="scale(0.015625)"/>
       <path id="DejaVuSans-6f" d="M 1959 3097 
Q 1497 3097 1228 2736 
Q 959 2375 959 1747 
Q 959 1119 1226 758 
Q 1494 397 1959 397 
Q 2419 397 2687 759 
Q 2956 1122 2956 1747 
Q 2956 2369 2687 2733 
Q 2419 3097 1959 3097 
z
M 1959 3584 
Q 2709 3584 3137 3096 
Q 3566 2609 3566 1747 
Q 3566 888 3137 398 
Q 2709 -91 1959 -91 
Q 1206 -91 779 398 
Q 353 888 353 1747 
Q 353 2609 779 3096 
Q 1206 3584 1959 3584 
z
" transform="scale(0.015625)"/>
       <path id="DejaVuSans-77" d="M 269 3500 
L 844 3500 
L 1563 769 
L 2278 3500 
L 2956 3500 
L 3675 769 
L 4391 3500 
L 4966 3500 
L 4050 0 
L 3372 0 
L 2619 2869 
L 1863 0 
L 1184 0 
L 269 3500 
z
" transform="scale(0.015625)"/>
       <path id="DejaVuSans-69" d="M 603 3500 
L 1178 3500 
L 1178 0 
L 603 0 
L 603 3500 
z
M 603 4863 
L 1178 4863 
L 1178 4134 
L 603 4134 
L 603 4863 
z
" transform="scale(0.015625)"/>
       <path id="DejaVuSans-6e" d="M 3513 2113 
L 3513 0 
L 2938 0 
L 2938 2094 
Q 2938 2591 2744 2837 
Q 2550 3084 2163 3084 
Q 1697 3084 1428 2787 
Q 1159 2491 1159 1978 
L 1159 0 
L 581 0 
L 581 3500 
L 1159 3500 
L 1159 2956 
Q 1366 3272 1645 3428 
Q 1925 3584 2291 3584 
Q 2894 3584 3203 3211 
Q 3513 2838 3513 2113 
z
" transform="scale(0.015625)"/>
       <path id="DejaVuSans-67" d="M 2906 1791 
Q 2906 2416 2648 2759 
Q 2391 3103 1925 3103 
Q 1463 3103 1205 2759 
Q 947 2416 947 1791 
Q 947 1169 1205 825 
Q 1463 481 1925 481 
Q 2391 481 2648 825 
Q 2906 1169 2906 1791 
z
M 3481 434 
Q 3481 -459 3084 -895 
Q 2688 -1331 1869 -1331 
Q 1566 -1331 1297 -1286 
Q 1028 -1241 775 -1147 
L 775 -588 
Q 1028 -725 1275 -790 
Q 1522 -856 1778 -856 
Q 2344 -856 2625 -561 
Q 2906 -266 2906 331 
L 2906 616 
Q 2728 306 2450 153 
Q 2172 0 1784 0 
Q 1141 0 747 490 
Q 353 981 353 1791 
Q 353 2603 747 3093 
Q 1141 3584 1784 3584 
Q 2172 3584 2450 3431 
Q 2728 3278 2906 2969 
L 2906 3500 
L 3481 3500 
L 3481 434 
z
" transform="scale(0.015625)"/>
       <path id="DejaVuSans-20" transform="scale(0.015625)"/>
       <path id="DejaVuSans-76" d="M 191 3500 
L 800 3500 
L 1894 563 
L 2988 3500 
L 3597 3500 
L 2284 0 
L 1503 0 
L 191 3500 
z
" transform="scale(0.015625)"/>
       <path id="DejaVuSans-72" d="M 2631 2963 
Q 2534 3019 2420 3045 
Q 2306 3072 2169 3072 
Q 1681 3072 1420 2755 
Q 1159 2438 1159 1844 
L 1159 0 
L 581 0 
L 581 3500 
L 1159 3500 
L 1159 2956 
Q 1341 3275 1631 3429 
Q 1922 3584 2338 3584 
Q 2397 3584 2469 3576 
Q 2541 3569 2628 3553 
L 2631 2963 
z
" transform="scale(0.015625)"/>
       <path id="DejaVuSans-74" d="M 1172 4494 
L 1172 3500 
L 2356 3500 
L 2356 3053 
L 1172 3053 
L 1172 1153 
Q 1172 725 1289 603 
Q 1406 481 1766 481 
L 2356 481 
L 2356 0 
L 1766 0 
Q 1100 0 847 248 
Q 594 497 594 1153 
L 594 3053 
L 172 3053 
L 172 3500 
L 594 3500 
L 594 4494 
L 1172 4494 
z
" transform="scale(0.015625)"/>
       <path id="DejaVuSans-28" d="M 1984 4856 
Q 1566 4138 1362 3434 
Q 1159 2731 1159 2009 
Q 1159 1288 1364 580 
Q 1569 -128 1984 -844 
L 1484 -844 
Q 1016 -109 783 600 
Q 550 1309 550 2009 
Q 550 2706 781 3412 
Q 1013 4119 1484 4856 
L 1984 4856 
z
" transform="scale(0.015625)"/>
       <path id="DejaVuSans-42" d="M 1259 2228 
L 1259 519 
L 2272 519 
Q 2781 519 3026 730 
Q 3272 941 3272 1375 
Q 3272 1813 3026 2020 
Q 2781 2228 2272 2228 
L 1259 2228 
z
M 1259 4147 
L 1259 2741 
L 2194 2741 
Q 2656 2741 2882 2914 
Q 3109 3088 3109 3444 
Q 3109 3797 2882 3972 
Q 2656 4147 2194 4147 
L 1259 4147 
z
M 628 4666 
L 2241 4666 
Q 2963 4666 3353 4366 
Q 3744 4066 3744 3513 
Q 3744 3084 3544 2831 
Q 3344 2578 2956 2516 
Q 3422 2416 3680 2098 
Q 3938 1781 3938 1306 
Q 3938 681 3513 340 
Q 3088 0 2303 0 
L 628 0 
L 628 4666 
z
" transform="scale(0.015625)"/>
       <path id="DejaVuSans-29" d="M 513 4856 
L 1013 4856 
Q 1481 4119 1714 3412 
Q 1947 2706 1947 2009 
Q 1947 1309 1714 600 
Q 1481 -109 1013 -844 
L 513 -844 
Q 928 -128 1133 580 
Q 1338 1288 1338 2009 
Q 1338 2731 1133 3434 
Q 928 4138 513 4856 
z
" transform="scale(0.015625)"/>
      </defs>
      <use xlink:href="#DejaVuSans-53"/>
      <use xlink:href="#DejaVuSans-68" transform="translate(63.476562 0)"/>
      <use xlink:href="#DejaVuSans-61" transform="translate(126.855469 0)"/>
      <use xlink:href="#DejaVuSans-64" transform="translate(188.134766 0)"/>
      <use xlink:href="#DejaVuSans-6f" transform="translate(251.611328 0)"/>
      <use xlink:href="#DejaVuSans-77" transform="translate(312.792969 0)"/>
      <use xlink:href="#DejaVuSans-69" transform="translate(394.580078 0)"/>
      <use xlink:href="#DejaVuSans-6e" transform="translate(422.363281 0)"/>
      <use xlink:href="#DejaVuSans-67" transform="translate(485.742188 0)"/>
      <use xlink:href="#DejaVuSans-20" transform="translate(549.21875 0)"/>
      <use xlink:href="#DejaVuSans-76" transform="translate(581.005859 0)"/>
      <use xlink:href="#DejaVuSans-61" transform="translate(640.185547 0)"/>
      <use xlink:href="#DejaVuSans-72" transform="translate(701.464844 0)"/>
      <use xlink:href="#DejaVuSans-69" transform="translate(742.578125 0)"/>
      <use xlink:href="#DejaVuSans-61" transform="translate(770.361328 0)"/>
      <use xlink:href="#DejaVuSans-74" transform="translate(831.640625 0)"/>
      <use xlink:href="#DejaVuSans-69" transform="translate(870.849609 0)"/>
      <use xlink:href="#DejaVuSans-6f" transform="translate(898.632812 0)"/>
      <use xlink:href="#DejaVuSans-6e" transform="translate(959.814453 0)"/>
      <use xlink:href="#DejaVuSans-20" transform="translate(1023.193359 0)"/>
      <use xlink:href="#DejaVuSans-28" transform="translate(1054.980469 0)"/>
      <use xlink:href="#DejaVuSans-64" transform="translate(1093.994141 0)"/>
      <use xlink:href="#DejaVuSans-42" transform="translate(1157.470703 0)"/>
      <use xlink:href="#DejaVuSans-29" transform="translate(1226.074219 0)"/>
     </g>
    </g>
   </g>
   <g id="matplotlib.axis_2">
    <g id="ytick_1">
     <g id="line2d_11">
      <path d="M 36.58125 293.070051 
L 554.06125 293.070051 
" clip-path="url(#pa9cd3e075d)" style="fill: none; stroke: #b0b0b0; stroke-opacity: 0.25; stroke-width: 0.8; stroke-linecap: square"/>
     </g>
     <g id="line2d_12">
      <defs>
       <path id="m8f4d4b4c68" d="M 0 0 
L -3.5 0 
" style="stroke: #000000; stroke-width: 0.8"/>
      </defs>
      <g>
       <use xlink:href="#m8f4d4b4c68" x="36.58125" y="293.070051" style="stroke: #000000; stroke-width: 0.8"/>
      </g>
     </g>
     <g id="text_7">
      <!-- 0.0 -->
      <g transform="translate(13.678125 296.86927) scale(0.1 -0.1)">
       <defs>
        <path id="DejaVuSans-2e" d="M 684 794 
L 1344 794 
L 1344 0 
L 684 0 
L 684 794 
z
" transform="scale(0.015625)"/>
       </defs>
       <use xlink:href="#DejaVuSans-30"/>
       <use xlink:href="#DejaVuSans-2e" transform="translate(63.623047 0)"/>
       <use xlink:href="#DejaVuSans-30" transform="translate(95.410156 0)"/>
      </g>
     </g>
    </g>
    <g id="ytick_2">
     <g id="line2d_13">
      <path d="M 36.58125 240.126575 
L 554.06125 240.126575 
" clip-path="url(#pa9cd3e075d)" style="fill: none; stroke: #b0b0b0; stroke-opacity: 0.25; stroke-width: 0.8; stroke-linecap: square"/>
     </g>
     <g id="line2d_14">
      <g>
       <use xlink:href="#m8f4d4b4c68" x="36.58125" y="240.126575" style="stroke: #000000; stroke-width: 0.8"/>
      </g>
     </g>
     <g id="text_8">
      <!-- 0.2 -->
      <g transform="translate(13.678125 243.925794) scale(0.1 -0.1)">
       <use xlink:href="#DejaVuSans-30"/>
       <use xlink:href="#DejaVuSans-2e" transform="translate(63.623047 0)"/>
       <use xlink:href="#DejaVuSans-32" transform="translate(95.410156 0)"/>
      </g>
     </g>
    </g>
    <g id="ytick_3">
     <g id="line2d_15">
      <path d="M 36.58125 187.183099 
L 554.06125 187.183099 
" clip-path="url(#pa9cd3e075d)" style="fill: none; stroke: #b0b0b0; stroke-opacity: 0.25; stroke-width: 0.8; stroke-linecap: square"/>
     </g>
     <g id="line2d_16">
      <g>
       <use xlink:href="#m8f4d4b4c68" x="36.58125" y="187.183099" style="stroke: #000000; stroke-width: 0.8"/>
      </g>
     </g>
     <g id="text_9">
      <!-- 0.4 -->
      <g transform="translate(13.678125 190.982318) scale(0.1 -0.1)">
       <defs>
        <path id="DejaVuSans-34" d="M 2419 4116 
L 825 1625 
L 2419 1625 
L 2419 4116 
z
M 2253 4666 
L 3047 4666 
L 3047 1625 
L 3713 1625 
L 3713 1100 
L 3047 1100 
L 3047 0 
L 2419 0 
L 2419 1100 
L 313 1100 
L 313 1709 
L 2253 4666 
z
" transform="scale(0.015625)"/>
       </defs>
       <use xlink:href="#DejaVuSans-30"/>
       <use xlink:href="#DejaVuSans-2e" transform="translate(63.623047 0)"/>
       <use xlink:href="#DejaVuSans-34" transform="translate(95.410156 0)"/>
      </g>
     </g>
    </g>
    <g id="ytick_4">
     <g id="line2d_17">
      <path d="M 36.58125 134.239623 
L 554.06125 134.239623 
" clip-path="url(#pa9cd3e075d)" style="fill: none; stroke: #b0b0b0; stroke-opacity: 0.25; stroke-width: 0.8; stroke-linecap: square"/>
     </g>
     <g id="line2d_18">
      <g>
       <use xlink:href="#m8f4d4b4c68" x="36.58125" y="134.239623" style="stroke: #000000; stroke-width: 0.8"/>
      </g>
     </g>
     <g id="text_10">
      <!-- 0.6 -->
      <g transform="translate(13.678125 138.038842) scale(0.1 -0.1)">
       <defs>
        <path id="DejaVuSans-36" d="M 2113 2584 
Q 1688 2584 1439 2293 
Q 1191 2003 1191 1497 
Q 1191 994 1439 701 
Q 1688 409 2113 409 
Q 2538 409 2786 701 
Q 3034 994 3034 1497 
Q 3034 2003 2786 2293 
Q 2538 2584 2113 2584 
z
M 3366 4563 
L 3366 3988 
Q 3128 4100 2886 4159 
Q 2644 4219 2406 4219 
Q 1781 4219 1451 3797 
Q 1122 3375 1075 2522 
Q 1259 2794 1537 2939 
Q 1816 3084 2150 3084 
Q 2853 3084 3261 2657 
Q 3669 2231 3669 1497 
Q 3669 778 3244 343 
Q 2819 -91 2113 -91 
Q 1303 -91 875 529 
Q 447 1150 447 2328 
Q 447 3434 972 4092 
Q 1497 4750 2381 4750 
Q 2619 4750 2861 4703 
Q 3103 4656 3366 4563 
z
" transform="scale(0.015625)"/>
       </defs>
       <use xlink:href="#DejaVuSans-30"/>
       <use xlink:href="#DejaVuSans-2e" transform="translate(63.623047 0)"/>
       <use xlink:href="#DejaVuSans-36" transform="translate(95.410156 0)"/>
      </g>
     </g>
    </g>
    <g id="ytick_5">
     <g id="line2d_19">
      <path d="M 36.58125 81.296147 
L 554.06125 81.296147 
" clip-path="url(#pa9cd3e075d)" style="fill: none; stroke: #b0b0b0; stroke-opacity: 0.25; stroke-width: 0.8; stroke-linecap: square"/>
     </g>
     <g id="line2d_20">
      <g>
       <use xlink:href="#m8f4d4b4c68" x="36.58125" y="81.296147" style="stroke: #000000; stroke-width: 0.8"/>
      </g>
     </g>
     <g id="text_11">
      <!-- 0.8 -->
      <g transform="translate(13.678125 85.095365) scale(0.1 -0.1)">
       <defs>
        <path id="DejaVuSans-38" d="M 2034 2216 
Q 1584 2216 1326 1975 
Q 1069 1734 1069 1313 
Q 1069 891 1326 650 
Q 1584 409 2034 409 
Q 2484 409 2743 651 
Q 3003 894 3003 1313 
Q 3003 1734 2745 1975 
Q 2488 2216 2034 2216 
z
M 1403 2484 
Q 997 2584 770 2862 
Q 544 3141 544 3541 
Q 544 4100 942 4425 
Q 1341 4750 2034 4750 
Q 2731 4750 3128 4425 
Q 3525 4100 3525 3541 
Q 3525 3141 3298 2862 
Q 3072 2584 2669 2484 
Q 3125 2378 3379 2068 
Q 3634 1759 3634 1313 
Q 3634 634 3220 271 
Q 2806 -91 2034 -91 
Q 1263 -91 848 271 
Q 434 634 434 1313 
Q 434 1759 690 2068 
Q 947 2378 1403 2484 
z
M 1172 3481 
Q 1172 3119 1398 2916 
Q 1625 2713 2034 2713 
Q 2441 2713 2670 2916 
Q 2900 3119 2900 3481 
Q 2900 3844 2670 4047 
Q 2441 4250 2034 4250 
Q 1625 4250 1398 4047 
Q 1172 3844 1172 3481 
z
" transform="scale(0.015625)"/>
       </defs>
       <use xlink:href="#DejaVuSans-30"/>
       <use xlink:href="#DejaVuSans-2e" transform="translate(63.623047 0)"/>
       <use xlink:href="#DejaVuSans-38" transform="translate(95.410156 0)"/>
      </g>
     </g>
    </g>
    <g id="ytick_6">
     <g id="line2d_21">
      <path d="M 36.58125 28.35267 
L 554.06125 28.35267 
" clip-path="url(#pa9cd3e075d)" style="fill: none; stroke: #b0b0b0; stroke-opacity: 0.25; stroke-width: 0.8; stroke-linecap: square"/>
     </g>
     <g id="line2d_22">
      <g>
       <use xlink:href="#m8f4d4b4c68" x="36.58125" y="28.35267" style="stroke: #000000; stroke-width: 0.8"/>
      </g>
     </g>
     <g id="text_12">
      <!-- 1.0 -->
      <g transform="translate(13.678125 32.151889) scale(0.1 -0.1)">
       <use xlink:href="#DejaVuSans-31"/>
       <use xlink:href="#DejaVuSans-2e" transform="translate(63.623047 0)"/>
       <use xlink:href="#DejaVuSans-30" transform="translate(95.410156 0)"/>
      </g>
     </g>
    </g>
    <g id="text_13">
     <!-- CDF -->
     <g transform="translate(7.598438 170.915313) rotate(-90) scale(0.1 -0.1)">
      <defs>
       <path id="DejaVuSans-43" d="M 4122 4306 
L 4122 3641 
Q 3803 3938 3442 4084 
Q 3081 4231 2675 4231 
Q 1875 4231 1450 3742 
Q 1025 3253 1025 2328 
Q 1025 1406 1450 917 
Q 1875 428 2675 428 
Q 3081 428 3442 575 
Q 3803 722 4122 1019 
L 4122 359 
Q 3791 134 3420 21 
Q 3050 -91 2638 -91 
Q 1578 -91 968 557 
Q 359 1206 359 2328 
Q 359 3453 968 4101 
Q 1578 4750 2638 4750 
Q 3056 4750 3426 4639 
Q 3797 4528 4122 4306 
z
" transform="scale(0.015625)"/>
       <path id="DejaVuSans-44" d="M 1259 4147 
L 1259 519 
L 2022 519 
Q 2988 519 3436 956 
Q 3884 1394 3884 2338 
Q 3884 3275 3436 3711 
Q 2988 4147 2022 4147 
L 1259 4147 
z
M 628 4666 
L 1925 4666 
Q 3281 4666 3915 4102 
Q 4550 3538 4550 2338 
Q 4550 1131 3912 565 
Q 3275 0 1925 0 
L 628 0 
L 628 4666 
z
" transform="scale(0.015625)"/>
       <path id="DejaVuSans-46" d="M 628 4666 
L 3309 4666 
L 3309 4134 
L 1259 4134 
L 1259 2759 
L 3109 2759 
L 3109 2228 
L 1259 2228 
L 1259 0 
L 628 0 
L 628 4666 
z
" transform="scale(0.015625)"/>
      </defs>
      <use xlink:href="#DejaVuSans-43"/>
      <use xlink:href="#DejaVuSans-44" transform="translate(69.824219 0)"/>
      <use xlink:href="#DejaVuSans-46" transform="translate(146.826172 0)"/>
     </g>
    </g>
   </g>
   <g id="line2d_23">
    <path d="M 60.103068 293.04358 
L 112.017375 292.646503 
L 112.104743 292.620032 
L 115.32474 292.43473 
L 115.460823 292.408258 
L 122.844197 292.14354 
L 122.953233 292.117069 
L 126.014155 291.931767 
L 128.127041 291.82588 
L 135.973529 291.587634 
L 136.047247 291.561162 
L 138.181463 291.37586 
L 154.886168 289.54931 
L 154.960875 289.496367 
L 156.384763 289.152234 
L 157.848102 288.913988 
L 157.917027 288.887517 
L 158.728542 288.755158 
L 158.828607 288.702214 
L 160.83827 288.358082 
L 162.883747 288.146308 
L 166.83439 287.299212 
L 167.747533 287.008023 
L 168.921617 286.558004 
L 169.078549 286.478589 
L 170.496081 286.213871 
L 170.96659 286.028569 
L 171.891611 285.89621 
L 172.046241 285.816795 
L 174.441725 285.207945 
L 174.523174 285.12853 
L 175.604869 284.757926 
L 177.088307 284.334378 
L 177.517131 284.202019 
L 177.68387 284.149076 
L 178.274331 283.963773 
L 178.293901 283.937302 
L 179.114119 283.725528 
L 179.789026 283.354923 
L 180.545846 283.116678 
L 180.734313 282.931376 
L 181.309337 282.799017 
L 181.459704 282.640186 
L 182.190324 282.507828 
L 182.337517 282.428413 
L 182.85284 282.24311 
L 183.621338 282.057808 
L 184.751381 281.501902 
L 187.219255 280.495976 
L 187.324982 280.443032 
L 188.509011 280.204787 
L 190.861951 279.145917 
L 191.699489 278.828256 
L 192.453638 278.351765 
L 193.023618 278.192934 
L 193.300931 277.954689 
L 194.338221 277.239952 
L 194.446469 277.134065 
L 194.738834 276.948763 
L 194.810988 276.842876 
L 195.184436 276.631102 
L 195.898968 275.969308 
L 196.276344 275.784006 
L 196.463289 275.492817 
L 196.729679 275.333987 
L 196.738939 275.307515 
L 196.988636 275.175156 
L 197.645669 274.804552 
L 198.142088 274.513363 
L 198.288306 274.328061 
L 198.4926 274.195702 
L 198.883666 273.825098 
L 198.951651 273.666267 
L 200.233334 272.7927 
L 200.533593 272.580926 
L 200.841689 272.395624 
L 200.96719 272.236793 
L 202.353424 271.363226 
L 202.443567 271.204396 
L 203.172977 270.992622 
L 203.357383 270.80732 
L 203.489426 270.674961 
L 204.872324 269.774922 
L 205.250382 269.29843 
L 205.55079 269.007241 
L 205.61864 268.901354 
L 205.929831 268.742524 
L 206.480748 268.054259 
L 206.718728 267.948372 
L 207.101668 267.789541 
L 207.22667 267.683654 
L 207.530822 267.498352 
L 207.649613 267.418937 
L 208.811307 266.7042 
L 208.908913 266.598313 
L 209.73051 266.09535 
L 209.837639 265.962991 
L 210.096876 265.777689 
L 210.229798 265.565915 
L 210.807704 265.380613 
L 211.02969 265.168839 
L 211.112525 265.089424 
L 211.268439 264.904122 
L 211.602425 264.665876 
L 212.04628 264.295272 
L 212.324754 264.083498 
L 212.700983 263.818781 
L 213.742132 262.945213 
L 213.901063 262.706968 
L 214.113871 262.548137 
L 214.260502 262.362835 
L 214.684042 261.939287 
L 214.897806 261.753985 
L 215.179556 261.383381 
L 215.74573 261.118663 
L 215.970142 260.90689 
L 216.157759 260.721587 
L 216.291583 260.6157 
L 216.7867 259.927435 
L 216.911678 259.68919 
L 217.104559 259.424472 
L 217.518902 258.895037 
L 217.665981 258.736207 
L 218.069735 258.312659 
L 218.365074 258.074414 
L 218.450056 257.968527 
L 218.774877 257.809696 
L 218.89007 257.597922 
L 219.169207 257.280261 
L 219.389285 257.042016 
L 219.793151 256.671411 
L 219.909096 256.486109 
L 220.256103 256.19492 
L 220.485338 256.062561 
L 220.811055 255.744901 
L 221.266978 255.347825 
L 221.651155 254.871333 
L 222.056057 254.580144 
L 222.083165 254.500729 
L 222.250335 254.341898 
L 222.4164 254.024238 
L 222.719097 253.891879 
L 222.948097 253.627162 
L 223.935604 252.647707 
L 225.452827 250.71527 
L 225.53231 250.55644 
L 226.097021 249.629929 
L 226.370687 249.444627 
L 226.502261 249.365212 
L 226.831296 248.915192 
L 226.945482 248.72989 
L 227.125228 248.544588 
L 228.096502 247.51219 
L 228.315056 247.221001 
L 228.709037 246.823925 
L 228.801309 246.718038 
L 228.927365 246.559207 
L 229.041862 246.400377 
L 229.21091 246.162131 
L 229.331686 246.056244 
L 229.567603 245.817999 
L 229.845423 245.659168 
L 230.023712 245.447394 
L 230.128223 245.288564 
L 230.426588 244.865016 
L 230.507962 244.706186 
L 230.62103 244.547355 
L 230.879873 244.388525 
L 231.194936 244.123808 
L 231.401829 243.753203 
L 231.580296 243.541429 
L 231.665776 243.329655 
L 232.615914 241.820766 
L 232.931566 241.344275 
L 233.773235 240.073632 
L 233.98285 239.729499 
L 234.585588 238.723573 
L 234.727144 238.538271 
L 234.871767 238.247082 
L 235.040551 237.982364 
L 236.494785 236.023456 
L 236.678173 235.62638 
L 236.91288 235.229304 
L 237.060417 235.070473 
L 237.282694 234.779284 
L 237.499151 234.593982 
L 237.758471 234.143962 
L 237.85128 233.985132 
L 238.092592 233.693943 
L 238.211785 233.535112 
L 238.286762 233.429225 
L 238.582434 233.19098 
L 238.814181 232.873319 
L 238.974507 232.661545 
L 239.260923 232.237997 
L 239.39791 231.999752 
L 239.571794 231.708562 
L 239.71042 231.52326 
L 239.800849 231.337958 
L 239.978735 231.179128 
L 240.122971 230.993825 
L 240.217265 230.808523 
L 240.429946 230.570278 
L 240.756968 230.226145 
L 242.428607 227.658386 
L 242.501224 227.526028 
L 243.568385 225.831837 
L 243.722805 225.646534 
L 244.466582 224.66708 
L 244.601315 224.349419 
L 245.07572 223.581739 
L 245.171148 223.343493 
L 245.396848 223.025832 
L 245.536339 222.6817 
L 245.749073 222.364039 
L 245.96428 221.940491 
L 246.120024 221.781661 
L 246.235335 221.649302 
L 246.328042 221.490472 
L 246.877402 220.431602 
L 247.02207 220.140413 
L 247.407708 219.63745 
L 247.56759 219.346261 
L 247.85459 218.975656 
L 247.961759 218.790354 
L 248.179806 218.41975 
L 248.991656 217.122635 
L 249.537126 216.090237 
L 249.890966 215.640217 
L 250.229093 214.951952 
L 250.504633 214.528404 
L 250.673096 214.131328 
L 251.14019 213.39012 
L 251.275629 213.231289 
L 251.474391 212.913628 
L 252.453987 211.140022 
L 252.580837 210.875305 
L 254.133954 208.439905 
L 254.55774 207.804583 
L 255.461399 206.454524 
L 255.736308 205.978033 
L 256.154699 205.395655 
L 256.226553 205.236824 
L 256.397635 205.077994 
L 256.502646 204.945635 
L 256.707353 204.680918 
L 256.852271 204.495616 
L 257.28942 203.622048 
L 257.354869 203.436746 
L 261.551907 195.918773 
L 261.826821 195.283451 
L 261.920542 195.098149 
L 262.024802 194.886375 
L 262.54265 193.959864 
L 262.694029 193.509844 
L 262.944178 192.874523 
L 263.12385 192.636277 
L 263.305122 192.450975 
L 263.600514 192.133314 
L 263.704363 191.868597 
L 263.900802 191.497992 
L 264.025194 191.127388 
L 266.274671 187.236042 
L 266.528158 186.838966 
L 266.729624 186.574249 
L 267.175714 185.885984 
L 267.273242 185.647738 
L 267.385183 185.488908 
L 267.469586 185.303606 
L 267.59454 185.144775 
L 267.724698 184.774171 
L 267.824516 184.562397 
L 267.949489 184.271208 
L 268.158552 183.900603 
L 268.352077 183.68883 
L 268.684857 182.894677 
L 270.931285 178.791558 
L 271.014217 178.606256 
L 271.316976 177.997406 
L 271.438474 177.547386 
L 271.768441 177.017952 
L 271.92207 176.753234 
L 272.022915 176.567932 
L 272.173902 176.303215 
L 272.320552 175.93261 
L 272.468084 175.77378 
L 272.672423 175.403176 
L 272.980309 174.767854 
L 273.174667 174.476665 
L 273.374852 174.185476 
L 273.472832 173.867815 
L 274.269432 172.544228 
L 274.360145 172.253039 
L 274.47757 172.067737 
L 274.574875 171.935378 
L 274.776161 171.776547 
L 275.916685 169.288204 
L 276.066382 169.07643 
L 276.299491 168.599939 
L 276.692863 168.070504 
L 276.883163 167.567541 
L 277.04871 167.355767 
L 277.241383 166.905748 
L 277.402918 166.720445 
L 277.6634 166.164539 
L 277.907099 165.820406 
L 278.211808 165.185085 
L 278.539474 164.708593 
L 278.65393 164.576235 
L 278.991868 164.020328 
L 279.085546 163.861498 
L 279.164191 163.702667 
L 279.305943 163.517365 
L 279.936253 162.22025 
L 280.092978 162.06142 
L 281.115763 159.467189 
L 281.335171 159.255415 
L 281.584353 158.646565 
L 281.682532 158.328904 
L 281.843691 158.037715 
L 282.05302 157.534752 
L 282.405064 156.767072 
L 282.561746 156.58177 
L 282.837566 156.13175 
L 282.969558 155.893505 
L 283.215752 155.655259 
L 283.34211 155.231711 
L 283.592244 154.75522 
L 283.703693 154.622861 
L 283.914401 154.225785 
L 284.03226 154.093426 
L 284.210457 153.669879 
L 284.402523 153.166916 
L 284.514434 152.92867 
L 284.661157 152.690424 
L 284.846366 152.47865 
L 284.968803 152.266876 
L 285.13223 151.949216 
L 285.269244 151.684498 
L 285.826997 150.466798 
L 285.941868 150.307968 
L 286.081747 149.990307 
L 286.376275 149.4344 
L 286.490523 149.302042 
L 286.78668 148.640248 
L 287.318908 147.819624 
L 287.449351 147.581379 
L 287.601016 147.237246 
L 287.725404 146.972529 
L 287.800576 146.734283 
L 287.911429 146.522509 
L 288.562305 145.251866 
L 288.733141 145.066564 
L 288.819245 144.881261 
L 288.914483 144.722431 
L 289.038597 144.484185 
L 289.633341 143.345901 
L 289.831727 143.02824 
L 289.942325 142.604692 
L 290.486816 141.572294 
L 290.899813 140.778142 
L 290.992405 140.566368 
L 291.050695 140.328123 
L 291.167128 140.169292 
L 291.490338 139.560442 
L 291.62775 139.348668 
L 291.911026 138.792762 
L 292.015726 138.580988 
L 292.37852 138.051553 
L 292.529378 137.680949 
L 292.699954 137.416231 
L 292.815672 137.204457 
L 293.477227 135.827927 
L 293.65279 135.430851 
L 293.858172 134.980831 
L 293.965383 134.848473 
L 294.088401 134.689642 
L 294.193563 134.451397 
L 294.337138 134.239623 
L 294.511934 133.869018 
L 294.684805 133.604301 
L 295.001607 132.995451 
L 295.080297 132.810149 
L 295.313556 132.386601 
L 295.709849 131.592449 
L 295.84424 131.380675 
L 296.989119 129.31588 
L 297.05979 129.130577 
L 297.185433 128.786445 
L 297.401712 128.389369 
L 297.506188 128.230538 
L 297.641438 128.045236 
L 297.767002 127.833462 
L 297.920301 127.595217 
L 298.04552 127.277556 
L 298.222207 126.88048 
L 298.346648 126.615762 
L 298.458772 126.298101 
L 298.554 126.112799 
L 298.761605 125.768667 
L 298.933533 125.583364 
L 300.392957 123.121493 
L 300.570139 122.883247 
L 300.848959 122.565586 
L 301.206994 122.00968 
L 301.358822 121.797906 
L 301.485264 121.612604 
L 302.001134 120.739036 
L 302.169349 120.474319 
L 302.360152 120.077243 
L 302.896422 119.203676 
L 303.010482 119.044845 
L 303.216458 118.594826 
L 303.323156 118.435995 
L 303.449731 118.224221 
L 303.683166 118.012447 
L 303.88514 117.535956 
L 304.006571 117.324182 
L 304.206202 116.847691 
L 304.651396 116.08001 
L 304.804146 115.788821 
L 305.97079 113.644611 
L 306.107182 113.48578 
L 306.261983 113.168119 
L 306.539129 112.903402 
L 306.828057 112.373967 
L 307.017154 112.135721 
L 307.162351 111.871004 
L 307.285136 111.712174 
L 307.355136 111.473928 
L 311.209685 105.25307 
L 311.344404 105.014824 
L 311.721023 104.167728 
L 311.851749 104.008898 
L 312.019861 103.744181 
L 312.66918 102.711783 
L 312.792645 102.579424 
L 314.086002 100.514628 
L 314.170053 100.38227 
L 314.356407 100.196968 
L 314.508054 99.905778 
L 314.633388 99.746948 
L 314.837273 99.3234 
L 314.969483 99.032211 
L 315.156763 98.71455 
L 315.566651 98.158644 
L 315.731977 97.867455 
L 315.862332 97.682152 
L 316.050655 97.364492 
L 316.34842 96.967416 
L 316.474502 96.702698 
L 317.827942 94.637903 
L 317.960388 94.479072 
L 318.141695 94.240827 
L 318.275782 93.923166 
L 318.368462 93.790807 
L 318.718396 93.446674 
L 318.96509 93.023127 
L 319.36169 92.361333 
L 319.515467 92.176031 
L 320.221747 91.037746 
L 320.322057 90.905388 
L 320.453007 90.667142 
L 320.54112 90.614198 
L 320.923299 90.111235 
L 321.055895 89.87299 
L 321.523038 89.396498 
L 321.619226 89.290612 
L 321.803017 89.078838 
L 322.87732 87.490533 
L 323.050573 87.331703 
L 324.264339 85.346323 
L 324.524883 84.896303 
L 324.8031 84.684529 
L 324.905035 84.525699 
L 325.065487 84.340396 
L 325.142305 84.208038 
L 325.404385 84.075679 
L 325.795152 83.546244 
L 326.040024 82.910923 
L 326.360295 82.56679 
L 326.602493 82.355016 
L 326.983192 82.063827 
L 327.073709 81.931468 
L 327.320857 81.640279 
L 327.505073 81.34909 
L 327.652062 81.19026 
L 328.68823 79.813729 
L 329.281906 79.098992 
L 330.583649 77.457745 
L 330.792133 77.08714 
L 330.980193 76.848895 
L 331.309495 76.398875 
L 331.421019 76.213573 
L 331.546283 76.028271 
L 332.702439 74.49291 
L 332.808335 74.254664 
L 333.877639 73.142851 
L 333.966189 73.036964 
L 334.158336 72.878134 
L 334.414083 72.692832 
L 334.49837 72.560473 
L 335.042946 72.242812 
L 335.20994 71.978095 
L 335.415321 71.792793 
L 335.532007 71.395717 
L 335.695417 71.236886 
L 336.768074 70.283904 
L 336.845972 70.23096 
L 337.123582 70.045658 
L 337.678638 69.198562 
L 337.898581 68.986788 
L 338.005831 68.85443 
L 339.743783 67.213182 
L 339.930851 67.054352 
L 340.058096 66.869049 
L 340.541034 66.471973 
L 340.8244 66.101369 
L 340.935274 65.995482 
L 341.296801 65.757236 
L 341.397814 65.624878 
L 341.642709 65.439576 
L 341.815243 65.227802 
L 342.036975 64.830726 
L 342.126568 64.698367 
L 342.346862 64.539536 
L 342.572787 64.221876 
L 343.35604 63.427723 
L 343.692903 62.977704 
L 344.006214 62.739458 
L 344.325386 62.342382 
L 344.550302 62.15708 
L 344.742535 61.945306 
L 344.968652 61.627645 
L 345.180201 61.468815 
L 345.411198 61.283513 
L 345.518695 61.151154 
L 345.76782 60.93938 
L 345.911453 60.833493 
L 346.089442 60.648191 
L 346.260499 60.462889 
L 347.190794 59.536378 
L 347.40156 59.377547 
L 347.580722 59.086358 
L 348.537579 58.212791 
L 348.736682 58.053961 
L 348.778975 57.974545 
L 348.972177 57.815715 
L 349.042091 57.630413 
L 349.479895 57.445111 
L 349.577709 57.365695 
L 349.900241 57.233337 
L 350.955992 56.359769 
L 351.345459 55.883278 
L 351.730996 55.512674 
L 353.231096 54.215559 
L 353.794884 53.818482 
L 353.928532 53.686124 
L 354.13245 53.63318 
L 354.445055 53.341991 
L 354.689356 53.077274 
L 354.966773 52.918443 
L 355.141839 52.680198 
L 355.302729 52.547839 
L 355.521401 52.362537 
L 356.090065 51.886046 
L 356.398431 51.700743 
L 358.509038 50.297741 
L 358.913408 50.085967 
L 358.979223 49.953609 
L 359.374207 49.715363 
L 359.48759 49.556533 
L 359.905648 49.397702 
L 360.091322 49.132985 
L 360.759851 48.841796 
L 361.142608 48.656494 
L 362.951849 47.306435 
L 363.062903 47.253491 
L 363.313496 47.094661 
L 363.615968 46.856415 
L 363.963196 46.697585 
L 364.260588 46.432868 
L 364.361311 46.300509 
L 364.642665 46.00932 
L 364.883028 45.850489 
L 364.89485 45.797546 
L 365.29411 45.638715 
L 365.60999 45.373998 
L 365.855998 45.188696 
L 366.04867 45.003394 
L 366.325366 44.765148 
L 367.01014 44.288657 
L 367.218803 44.209242 
L 368.114051 43.838637 
L 368.621245 43.57392 
L 368.742345 43.415089 
L 368.891388 43.256259 
L 369.251014 43.097429 
L 369.90309 42.541522 
L 370.215512 42.35622 
L 370.338475 42.223861 
L 371.286947 41.9062 
L 371.405354 41.800313 
L 372.623116 41.403237 
L 372.909616 41.270879 
L 373.059512 41.13852 
L 373.533599 40.820859 
L 373.692394 40.52967 
L 373.738195 40.423783 
L 374.089871 40.238481 
L 374.495756 40.026707 
L 377.04864 39.285498 
L 377.053132 39.259027 
L 377.494031 39.100196 
L 377.914898 38.914894 
L 378.840927 38.650177 
L 379.12784 38.570761 
L 379.500077 38.385459 
L 379.665307 38.279572 
L 380.584153 38.014855 
L 380.772609 37.961911 
L 382.65017 37.141287 
L 383.219469 36.982457 
L 383.369089 36.903042 
L 383.764914 36.744211 
L 384.73783 36.373607 
L 385.524743 36.214777 
L 385.612185 36.10889 
L 385.934917 35.976531 
L 385.950858 35.950059 
L 386.774946 35.738285 
L 386.835536 35.685342 
L 387.441695 35.526511 
L 389.683676 34.785303 
L 390.189141 34.626472 
L 391.509065 34.255868 
L 392.223392 34.097038 
L 396.611269 33.144055 
L 397.65188 32.932281 
L 398.000892 32.852866 
L 400.025084 32.508733 
L 400.141082 32.429318 
L 400.992794 32.270488 
L 401.66656 32.085186 
L 403.108732 31.873412 
L 404.061312 31.635166 
L 404.110673 31.608694 
L 405.197453 31.449864 
L 405.21506 31.423392 
L 407.273548 31.211618 
L 408.85582 31.079259 
L 409.503656 30.999844 
L 416.432385 30.258636 
L 416.462216 30.232164 
L 422.300528 29.649786 
L 425.177672 29.490955 
L 427.374442 29.385068 
L 442.909542 28.829162 
L 471.735547 28.379142 
L 530.539432 28.35267 
L 530.539432 28.35267 
" clip-path="url(#pa9cd3e075d)" style="fill: none; stroke: #1f77b4; stroke-width: 2; stroke-linecap: square"/>
   </g>
   <g id="patch_3">
    <path d="M 36.58125 306.278125 
L 36.58125 15.118125 
" style="fill: none; stroke: #000000; stroke-width: 0.8; stroke-linejoin: miter; stroke-linecap: square"/>
   </g>
   <g id="patch_4">
    <path d="M 554.06125 306.278125 
L 554.06125 15.118125 
" style="fill: none; stroke: #000000; stroke-width: 0.8; stroke-linejoin: miter; stroke-linecap: square"/>
   </g>
   <g id="patch_5">
    <path d="M 36.58125 306.278125 
L 554.06125 306.278125 
" style="fill: none; stroke: #000000; stroke-width: 0.8; stroke-linejoin: miter; stroke-linecap: square"/>
   </g>
   <g id="patch_6">
    <path d="M 36.58125 15.118125 
L 554.06125 15.118125 
" style="fill: none; stroke: #000000; stroke-width: 0.8; stroke-linejoin: miter; stroke-linecap: square"/>
   </g>
   <g id="text_14">
    <!-- Shadowing Variation Empirical CDF -->
    <g transform="translate(176.22125 9.118125) scale(0.12 -0.12)">
     <defs>
      <path id="DejaVuSans-Bold-53" d="M 3834 4519 
L 3834 3531 
Q 3450 3703 3084 3790 
Q 2719 3878 2394 3878 
Q 1963 3878 1756 3759 
Q 1550 3641 1550 3391 
Q 1550 3203 1689 3098 
Q 1828 2994 2194 2919 
L 2706 2816 
Q 3484 2659 3812 2340 
Q 4141 2022 4141 1434 
Q 4141 663 3683 286 
Q 3225 -91 2284 -91 
Q 1841 -91 1394 -6 
Q 947 78 500 244 
L 500 1259 
Q 947 1022 1364 901 
Q 1781 781 2169 781 
Q 2563 781 2772 912 
Q 2981 1044 2981 1288 
Q 2981 1506 2839 1625 
Q 2697 1744 2272 1838 
L 1806 1941 
Q 1106 2091 782 2419 
Q 459 2747 459 3303 
Q 459 4000 909 4375 
Q 1359 4750 2203 4750 
Q 2588 4750 2994 4692 
Q 3400 4634 3834 4519 
z
" transform="scale(0.015625)"/>
      <path id="DejaVuSans-Bold-68" d="M 4056 2131 
L 4056 0 
L 2931 0 
L 2931 347 
L 2931 1625 
Q 2931 2084 2911 2256 
Q 2891 2428 2841 2509 
Q 2775 2619 2662 2680 
Q 2550 2741 2406 2741 
Q 2056 2741 1856 2470 
Q 1656 2200 1656 1722 
L 1656 0 
L 538 0 
L 538 4863 
L 1656 4863 
L 1656 2988 
Q 1909 3294 2193 3439 
Q 2478 3584 2822 3584 
Q 3428 3584 3742 3212 
Q 4056 2841 4056 2131 
z
" transform="scale(0.015625)"/>
      <path id="DejaVuSans-Bold-61" d="M 2106 1575 
Q 1756 1575 1579 1456 
Q 1403 1338 1403 1106 
Q 1403 894 1545 773 
Q 1688 653 1941 653 
Q 2256 653 2472 879 
Q 2688 1106 2688 1447 
L 2688 1575 
L 2106 1575 
z
M 3816 1997 
L 3816 0 
L 2688 0 
L 2688 519 
Q 2463 200 2181 54 
Q 1900 -91 1497 -91 
Q 953 -91 614 226 
Q 275 544 275 1050 
Q 275 1666 698 1953 
Q 1122 2241 2028 2241 
L 2688 2241 
L 2688 2328 
Q 2688 2594 2478 2717 
Q 2269 2841 1825 2841 
Q 1466 2841 1156 2769 
Q 847 2697 581 2553 
L 581 3406 
Q 941 3494 1303 3539 
Q 1666 3584 2028 3584 
Q 2975 3584 3395 3211 
Q 3816 2838 3816 1997 
z
" transform="scale(0.015625)"/>
      <path id="DejaVuSans-Bold-64" d="M 2919 2988 
L 2919 4863 
L 4044 4863 
L 4044 0 
L 2919 0 
L 2919 506 
Q 2688 197 2409 53 
Q 2131 -91 1766 -91 
Q 1119 -91 703 423 
Q 288 938 288 1747 
Q 288 2556 703 3070 
Q 1119 3584 1766 3584 
Q 2128 3584 2408 3439 
Q 2688 3294 2919 2988 
z
M 2181 722 
Q 2541 722 2730 984 
Q 2919 1247 2919 1747 
Q 2919 2247 2730 2509 
Q 2541 2772 2181 2772 
Q 1825 2772 1636 2509 
Q 1447 2247 1447 1747 
Q 1447 1247 1636 984 
Q 1825 722 2181 722 
z
" transform="scale(0.015625)"/>
      <path id="DejaVuSans-Bold-6f" d="M 2203 2784 
Q 1831 2784 1636 2517 
Q 1441 2250 1441 1747 
Q 1441 1244 1636 976 
Q 1831 709 2203 709 
Q 2569 709 2762 976 
Q 2956 1244 2956 1747 
Q 2956 2250 2762 2517 
Q 2569 2784 2203 2784 
z
M 2203 3584 
Q 3106 3584 3614 3096 
Q 4122 2609 4122 1747 
Q 4122 884 3614 396 
Q 3106 -91 2203 -91 
Q 1297 -91 786 396 
Q 275 884 275 1747 
Q 275 2609 786 3096 
Q 1297 3584 2203 3584 
z
" transform="scale(0.015625)"/>
      <path id="DejaVuSans-Bold-77" d="M 225 3500 
L 1313 3500 
L 1900 1088 
L 2491 3500 
L 3425 3500 
L 4013 1113 
L 4603 3500 
L 5691 3500 
L 4769 0 
L 3547 0 
L 2956 2406 
L 2369 0 
L 1147 0 
L 225 3500 
z
" transform="scale(0.015625)"/>
      <path id="DejaVuSans-Bold-69" d="M 538 3500 
L 1656 3500 
L 1656 0 
L 538 0 
L 538 3500 
z
M 538 4863 
L 1656 4863 
L 1656 3950 
L 538 3950 
L 538 4863 
z
" transform="scale(0.015625)"/>
      <path id="DejaVuSans-Bold-6e" d="M 4056 2131 
L 4056 0 
L 2931 0 
L 2931 347 
L 2931 1631 
Q 2931 2084 2911 2256 
Q 2891 2428 2841 2509 
Q 2775 2619 2662 2680 
Q 2550 2741 2406 2741 
Q 2056 2741 1856 2470 
Q 1656 2200 1656 1722 
L 1656 0 
L 538 0 
L 538 3500 
L 1656 3500 
L 1656 2988 
Q 1909 3294 2193 3439 
Q 2478 3584 2822 3584 
Q 3428 3584 3742 3212 
Q 4056 2841 4056 2131 
z
" transform="scale(0.015625)"/>
      <path id="DejaVuSans-Bold-67" d="M 2919 594 
Q 2688 288 2409 144 
Q 2131 0 1766 0 
Q 1125 0 706 504 
Q 288 1009 288 1791 
Q 288 2575 706 3076 
Q 1125 3578 1766 3578 
Q 2131 3578 2409 3434 
Q 2688 3291 2919 2981 
L 2919 3500 
L 4044 3500 
L 4044 353 
Q 4044 -491 3511 -936 
Q 2978 -1381 1966 -1381 
Q 1638 -1381 1331 -1331 
Q 1025 -1281 716 -1178 
L 716 -306 
Q 1009 -475 1290 -558 
Q 1572 -641 1856 -641 
Q 2406 -641 2662 -400 
Q 2919 -159 2919 353 
L 2919 594 
z
M 2181 2772 
Q 1834 2772 1640 2515 
Q 1447 2259 1447 1791 
Q 1447 1309 1634 1061 
Q 1822 813 2181 813 
Q 2531 813 2725 1069 
Q 2919 1325 2919 1791 
Q 2919 2259 2725 2515 
Q 2531 2772 2181 2772 
z
" transform="scale(0.015625)"/>
      <path id="DejaVuSans-Bold-20" transform="scale(0.015625)"/>
      <path id="DejaVuSans-Bold-56" d="M 31 4666 
L 1241 4666 
L 2478 1222 
L 3713 4666 
L 4922 4666 
L 3194 0 
L 1759 0 
L 31 4666 
z
" transform="scale(0.015625)"/>
      <path id="DejaVuSans-Bold-72" d="M 3138 2547 
Q 2991 2616 2845 2648 
Q 2700 2681 2553 2681 
Q 2122 2681 1889 2404 
Q 1656 2128 1656 1613 
L 1656 0 
L 538 0 
L 538 3500 
L 1656 3500 
L 1656 2925 
Q 1872 3269 2151 3426 
Q 2431 3584 2822 3584 
Q 2878 3584 2943 3579 
Q 3009 3575 3134 3559 
L 3138 2547 
z
" transform="scale(0.015625)"/>
      <path id="DejaVuSans-Bold-74" d="M 1759 4494 
L 1759 3500 
L 2913 3500 
L 2913 2700 
L 1759 2700 
L 1759 1216 
Q 1759 972 1856 886 
Q 1953 800 2241 800 
L 2816 800 
L 2816 0 
L 1856 0 
Q 1194 0 917 276 
Q 641 553 641 1216 
L 641 2700 
L 84 2700 
L 84 3500 
L 641 3500 
L 641 4494 
L 1759 4494 
z
" transform="scale(0.015625)"/>
      <path id="DejaVuSans-Bold-45" d="M 588 4666 
L 3834 4666 
L 3834 3756 
L 1791 3756 
L 1791 2888 
L 3713 2888 
L 3713 1978 
L 1791 1978 
L 1791 909 
L 3903 909 
L 3903 0 
L 588 0 
L 588 4666 
z
" transform="scale(0.015625)"/>
      <path id="DejaVuSans-Bold-6d" d="M 3781 2919 
Q 3994 3244 4286 3414 
Q 4578 3584 4928 3584 
Q 5531 3584 5847 3212 
Q 6163 2841 6163 2131 
L 6163 0 
L 5038 0 
L 5038 1825 
Q 5041 1866 5042 1909 
Q 5044 1953 5044 2034 
Q 5044 2406 4934 2573 
Q 4825 2741 4581 2741 
Q 4263 2741 4089 2478 
Q 3916 2216 3909 1719 
L 3909 0 
L 2784 0 
L 2784 1825 
Q 2784 2406 2684 2573 
Q 2584 2741 2328 2741 
Q 2006 2741 1831 2477 
Q 1656 2213 1656 1722 
L 1656 0 
L 531 0 
L 531 3500 
L 1656 3500 
L 1656 2988 
Q 1863 3284 2130 3434 
Q 2397 3584 2719 3584 
Q 3081 3584 3359 3409 
Q 3638 3234 3781 2919 
z
" transform="scale(0.015625)"/>
      <path id="DejaVuSans-Bold-70" d="M 1656 506 
L 1656 -1331 
L 538 -1331 
L 538 3500 
L 1656 3500 
L 1656 2988 
Q 1888 3294 2169 3439 
Q 2450 3584 2816 3584 
Q 3463 3584 3878 3070 
Q 4294 2556 4294 1747 
Q 4294 938 3878 423 
Q 3463 -91 2816 -91 
Q 2450 -91 2169 54 
Q 1888 200 1656 506 
z
M 2400 2772 
Q 2041 2772 1848 2508 
Q 1656 2244 1656 1747 
Q 1656 1250 1848 986 
Q 2041 722 2400 722 
Q 2759 722 2948 984 
Q 3138 1247 3138 1747 
Q 3138 2247 2948 2509 
Q 2759 2772 2400 2772 
z
" transform="scale(0.015625)"/>
      <path id="DejaVuSans-Bold-63" d="M 3366 3391 
L 3366 2478 
Q 3138 2634 2908 2709 
Q 2678 2784 2431 2784 
Q 1963 2784 1702 2511 
Q 1441 2238 1441 1747 
Q 1441 1256 1702 982 
Q 1963 709 2431 709 
Q 2694 709 2930 787 
Q 3166 866 3366 1019 
L 3366 103 
Q 3103 6 2833 -42 
Q 2563 -91 2291 -91 
Q 1344 -91 809 395 
Q 275 881 275 1747 
Q 275 2613 809 3098 
Q 1344 3584 2291 3584 
Q 2566 3584 2833 3536 
Q 3100 3488 3366 3391 
z
" transform="scale(0.015625)"/>
      <path id="DejaVuSans-Bold-6c" d="M 538 4863 
L 1656 4863 
L 1656 0 
L 538 0 
L 538 4863 
z
" transform="scale(0.015625)"/>
      <path id="DejaVuSans-Bold-43" d="M 4288 256 
Q 3956 84 3597 -3 
Q 3238 -91 2847 -91 
Q 1681 -91 1000 561 
Q 319 1213 319 2328 
Q 319 3447 1000 4098 
Q 1681 4750 2847 4750 
Q 3238 4750 3597 4662 
Q 3956 4575 4288 4403 
L 4288 3438 
Q 3953 3666 3628 3772 
Q 3303 3878 2944 3878 
Q 2300 3878 1931 3465 
Q 1563 3053 1563 2328 
Q 1563 1606 1931 1193 
Q 2300 781 2944 781 
Q 3303 781 3628 887 
Q 3953 994 4288 1222 
L 4288 256 
z
" transform="scale(0.015625)"/>
      <path id="DejaVuSans-Bold-44" d="M 1791 3756 
L 1791 909 
L 2222 909 
Q 2959 909 3348 1275 
Q 3738 1641 3738 2338 
Q 3738 3031 3350 3393 
Q 2963 3756 2222 3756 
L 1791 3756 
z
M 588 4666 
L 1856 4666 
Q 2919 4666 3439 4514 
Q 3959 4363 4331 4000 
Q 4659 3684 4818 3271 
Q 4978 2859 4978 2338 
Q 4978 1809 4818 1395 
Q 4659 981 4331 666 
Q 3956 303 3431 151 
Q 2906 0 1856 0 
L 588 0 
L 588 4666 
z
" transform="scale(0.015625)"/>
      <path id="DejaVuSans-Bold-46" d="M 588 4666 
L 3834 4666 
L 3834 3756 
L 1791 3756 
L 1791 2888 
L 3713 2888 
L 3713 1978 
L 1791 1978 
L 1791 0 
L 588 0 
L 588 4666 
z
" transform="scale(0.015625)"/>
     </defs>
     <use xlink:href="#DejaVuSans-Bold-53"/>
     <use xlink:href="#DejaVuSans-Bold-68" transform="translate(72.021484 0)"/>
     <use xlink:href="#DejaVuSans-Bold-61" transform="translate(143.212891 0)"/>
     <use xlink:href="#DejaVuSans-Bold-64" transform="translate(210.693359 0)"/>
     <use xlink:href="#DejaVuSans-Bold-6f" transform="translate(282.275391 0)"/>
     <use xlink:href="#DejaVuSans-Bold-77" transform="translate(350.976562 0)"/>
     <use xlink:href="#DejaVuSans-Bold-69" transform="translate(443.359375 0)"/>
     <use xlink:href="#DejaVuSans-Bold-6e" transform="translate(477.636719 0)"/>
     <use xlink:href="#DejaVuSans-Bold-67" transform="translate(548.828125 0)"/>
     <use xlink:href="#DejaVuSans-Bold-20" transform="translate(620.410156 0)"/>
     <use xlink:href="#DejaVuSans-Bold-56" transform="translate(655.224609 0)"/>
     <use xlink:href="#DejaVuSans-Bold-61" transform="translate(727.117188 0)"/>
     <use xlink:href="#DejaVuSans-Bold-72" transform="translate(794.597656 0)"/>
     <use xlink:href="#DejaVuSans-Bold-69" transform="translate(843.914062 0)"/>
     <use xlink:href="#DejaVuSans-Bold-61" transform="translate(878.191406 0)"/>
     <use xlink:href="#DejaVuSans-Bold-74" transform="translate(945.671875 0)"/>
     <use xlink:href="#DejaVuSans-Bold-69" transform="translate(993.474609 0)"/>
     <use xlink:href="#DejaVuSans-Bold-6f" transform="translate(1027.751953 0)"/>
     <use xlink:href="#DejaVuSans-Bold-6e" transform="translate(1096.453125 0)"/>
     <use xlink:href="#DejaVuSans-Bold-20" transform="translate(1167.644531 0)"/>
     <use xlink:href="#DejaVuSans-Bold-45" transform="translate(1202.458984 0)"/>
     <use xlink:href="#DejaVuSans-Bold-6d" transform="translate(1270.769531 0)"/>
     <use xlink:href="#DejaVuSans-Bold-70" transform="translate(1374.96875 0)"/>
     <use xlink:href="#DejaVuSans-Bold-69" transform="translate(1446.550781 0)"/>
     <use xlink:href="#DejaVuSans-Bold-72" transform="translate(1480.828125 0)"/>
     <use xlink:href="#DejaVuSans-Bold-69" transform="translate(1530.144531 0)"/>
     <use xlink:href="#DejaVuSans-Bold-63" transform="translate(1564.421875 0)"/>
     <use xlink:href="#DejaVuSans-Bold-61" transform="translate(1623.699219 0)"/>
     <use xlink:href="#DejaVuSans-Bold-6c" transform="translate(1691.179688 0)"/>
     <use xlink:href="#DejaVuSans-Bold-20" transform="translate(1725.457031 0)"/>
     <use xlink:href="#DejaVuSans-Bold-43" transform="translate(1760.271484 0)"/>
     <use xlink:href="#DejaVuSans-Bold-44" transform="translate(1833.660156 0)"/>
     <use xlink:href="#DejaVuSans-Bold-46" transform="translate(1916.667969 0)"/>
    </g>
   </g>
   <g id="line2d_24">
    <path d="M 147.314577 306.278125 
L 147.314577 15.118125 
" clip-path="url(#pa9cd3e075d)" style="fill: none; stroke-dasharray: 7.4,3.2; stroke-dashoffset: 0; stroke: #008000; stroke-width: 2"/>
   </g>
   <g id="legend_1">
    <g id="patch_7">
     <path d="M 424.325312 301.278125 
L 547.06125 301.278125 
Q 549.06125 301.278125 549.06125 299.278125 
L 549.06125 270.921875 
Q 549.06125 268.921875 547.06125 268.921875 
L 424.325312 268.921875 
Q 422.325312 268.921875 422.325312 270.921875 
L 422.325312 299.278125 
Q 422.325312 301.278125 424.325312 301.278125 
z
" style="fill: #ffffff; opacity: 0.8; stroke: #cccccc; stroke-linejoin: miter"/>
    </g>
    <g id="line2d_25">
     <path d="M 426.325312 277.020313 
L 436.325312 277.020313 
L 446.325312 277.020313 
" style="fill: none; stroke: #1f77b4; stroke-width: 2; stroke-linecap: square"/>
    </g>
    <g id="text_15">
     <!-- CDF -->
     <g transform="translate(454.325312 280.520313) scale(0.1 -0.1)">
      <use xlink:href="#DejaVuSans-43"/>
      <use xlink:href="#DejaVuSans-44" transform="translate(69.824219 0)"/>
      <use xlink:href="#DejaVuSans-46" transform="translate(146.826172 0)"/>
     </g>
    </g>
    <g id="line2d_26">
     <path d="M 426.325312 291.698438 
L 436.325312 291.698438 
L 446.325312 291.698438 
" style="fill: none; stroke-dasharray: 7.4,3.2; stroke-dashoffset: 0; stroke: #008000; stroke-width: 2"/>
    </g>
    <g id="text_16">
     <!-- 1th pct: -14.19 dB -->
     <g transform="translate(454.325312 295.198438) scale(0.1 -0.1)">
      <defs>
       <path id="DejaVuSans-70" d="M 1159 525 
L 1159 -1331 
L 581 -1331 
L 581 3500 
L 1159 3500 
L 1159 2969 
Q 1341 3281 1617 3432 
Q 1894 3584 2278 3584 
Q 2916 3584 3314 3078 
Q 3713 2572 3713 1747 
Q 3713 922 3314 415 
Q 2916 -91 2278 -91 
Q 1894 -91 1617 61 
Q 1341 213 1159 525 
z
M 3116 1747 
Q 3116 2381 2855 2742 
Q 2594 3103 2138 3103 
Q 1681 3103 1420 2742 
Q 1159 2381 1159 1747 
Q 1159 1113 1420 752 
Q 1681 391 2138 391 
Q 2594 391 2855 752 
Q 3116 1113 3116 1747 
z
" transform="scale(0.015625)"/>
       <path id="DejaVuSans-63" d="M 3122 3366 
L 3122 2828 
Q 2878 2963 2633 3030 
Q 2388 3097 2138 3097 
Q 1578 3097 1268 2742 
Q 959 2388 959 1747 
Q 959 1106 1268 751 
Q 1578 397 2138 397 
Q 2388 397 2633 464 
Q 2878 531 3122 666 
L 3122 134 
Q 2881 22 2623 -34 
Q 2366 -91 2075 -91 
Q 1284 -91 818 406 
Q 353 903 353 1747 
Q 353 2603 823 3093 
Q 1294 3584 2113 3584 
Q 2378 3584 2631 3529 
Q 2884 3475 3122 3366 
z
" transform="scale(0.015625)"/>
       <path id="DejaVuSans-3a" d="M 750 794 
L 1409 794 
L 1409 0 
L 750 0 
L 750 794 
z
M 750 3309 
L 1409 3309 
L 1409 2516 
L 750 2516 
L 750 3309 
z
" transform="scale(0.015625)"/>
       <path id="DejaVuSans-2d" d="M 313 2009 
L 1997 2009 
L 1997 1497 
L 313 1497 
L 313 2009 
z
" transform="scale(0.015625)"/>
       <path id="DejaVuSans-39" d="M 703 97 
L 703 672 
Q 941 559 1184 500 
Q 1428 441 1663 441 
Q 2288 441 2617 861 
Q 2947 1281 2994 2138 
Q 2813 1869 2534 1725 
Q 2256 1581 1919 1581 
Q 1219 1581 811 2004 
Q 403 2428 403 3163 
Q 403 3881 828 4315 
Q 1253 4750 1959 4750 
Q 2769 4750 3195 4129 
Q 3622 3509 3622 2328 
Q 3622 1225 3098 567 
Q 2575 -91 1691 -91 
Q 1453 -91 1209 -44 
Q 966 3 703 97 
z
M 1959 2075 
Q 2384 2075 2632 2365 
Q 2881 2656 2881 3163 
Q 2881 3666 2632 3958 
Q 2384 4250 1959 4250 
Q 1534 4250 1286 3958 
Q 1038 3666 1038 3163 
Q 1038 2656 1286 2365 
Q 1534 2075 1959 2075 
z
" transform="scale(0.015625)"/>
      </defs>
      <use xlink:href="#DejaVuSans-31"/>
      <use xlink:href="#DejaVuSans-74" transform="translate(63.623047 0)"/>
      <use xlink:href="#DejaVuSans-68" transform="translate(102.832031 0)"/>
      <use xlink:href="#DejaVuSans-20" transform="translate(166.210938 0)"/>
      <use xlink:href="#DejaVuSans-70" transform="translate(197.998047 0)"/>
      <use xlink:href="#DejaVuSans-63" transform="translate(261.474609 0)"/>
      <use xlink:href="#DejaVuSans-74" transform="translate(316.455078 0)"/>
      <use xlink:href="#DejaVuSans-3a" transform="translate(355.664062 0)"/>
      <use xlink:href="#DejaVuSans-20" transform="translate(389.355469 0)"/>
      <use xlink:href="#DejaVuSans-2d" transform="translate(421.142578 0)"/>
      <use xlink:href="#DejaVuSans-31" transform="translate(457.226562 0)"/>
      <use xlink:href="#DejaVuSans-34" transform="translate(520.849609 0)"/>
      <use xlink:href="#DejaVuSans-2e" transform="translate(584.472656 0)"/>
      <use xlink:href="#DejaVuSans-31" transform="translate(616.259766 0)"/>
      <use xlink:href="#DejaVuSans-39" transform="translate(679.882812 0)"/>
      <use xlink:href="#DejaVuSans-20" transform="translate(743.505859 0)"/>
      <use xlink:href="#DejaVuSans-64" transform="translate(775.292969 0)"/>
      <use xlink:href="#DejaVuSans-42" transform="translate(838.769531 0)"/>
     </g>
    </g>
   </g>
  </g>
 </g>
 <defs>
  <clipPath id="pa9cd3e075d">
   <rect x="36.58125" y="15.118125" width="517.48" height="291.16"/>
  </clipPath>
 </defs>
</svg>
