<?xml version="1.0" encoding="utf-8" standalone="no"?>
<!DOCTYPE svg PUBLIC "-//W3C//DTD SVG 1.1//EN"
  "http://www.w3.org/Graphics/SVG/1.1/DTD/svg11.dtd">
<svg xmlns:xlink="http://www.w3.org/1999/xlink" width="554.06125pt" height="336.634375pt" viewBox="0 0 554.06125 336.634375" xmlns="http://www.w3.org/2000/svg" version="1.1">
 <metadata>
  <rdf:RDF xmlns:dc="http://purl.org/dc/elements/1.1/" xmlns:cc="http://creativecommons.org/ns#" xmlns:rdf="http://www.w3.org/1999/02/22-rdf-syntax-ns#">
   <cc:Work>
    <dc:type rdf:resource="http://purl.org/dc/dcmitype/StillImage"/>
    <dc:date>2026-04-29T14:45:48.011147</dc:date>
    <dc:format>image/svg+xml</dc:format>
    <dc:creator>
     <cc:Agent>
      <dc:title>Matplotlib v3.10.8, https://matplotlib.org/</dc:title>
     </cc:Agent>
    </dc:creator>
   </cc:Work>
  </rdf:RDF>
 </metadata>
 <defs>
  <style type="text/css">*{stroke-linejoin: round; stroke-linecap: butt}</style>
 </defs>
 <g id="figure_1">
  <g id="patch_1">
   <path d="M 0 336.634375 
L 554.06125 336.634375 
L 554.06125 0 
L 0 0 
z
" style="fill: #ffffff"/>
  </g>
  <g id="axes_1">
   <g id="patch_2">
    <path d="M 36.58125 306.278125 
L 554.06125 306.278125 
L 554.06125 15.118125 
L 36.58125 15.118125 
z
" style="fill: #ffffff"/>
   </g>
   <g id="matplotlib.axis_1">
    <g id="xtick_1">
     <g id="line2d_1">
      <path d="M 54.811816 306.278125 
L 54.811816 15.118125 
" clip-path="url(#p3faef799dd)" style="fill: none; stroke: #b0b0b0; stroke-opacity: 0.25; stroke-width: 0.8; stroke-linecap: square"/>
     </g>
     <g id="line2d_2">
      <defs>
       <path id="mb09d210b83" d="M 0 0 
L 0 3.5 
" style="stroke: #000000; stroke-width: 0.8"/>
      </defs>
      <g>
       <use xlink:href="#mb09d210b83" x="54.811816" y="306.278125" style="stroke: #000000; stroke-width: 0.8"/>
      </g>
     </g>
     <g id="text_1">
      <!-- −50 -->
      <g transform="translate(44.259472 320.876563) scale(0.1 -0.1)">
       <defs>
        <path id="DejaVuSans-2212" d="M 678 2272 
L 4684 2272 
L 4684 1741 
L 678 1741 
L 678 2272 
z
" transform="scale(0.015625)"/>
        <path id="DejaVuSans-35" d="M 691 4666 
L 3169 4666 
L 3169 4134 
L 1269 4134 
L 1269 2991 
Q 1406 3038 1543 3061 
Q 1681 3084 1819 3084 
Q 2600 3084 3056 2656 
Q 3513 2228 3513 1497 
Q 3513 744 3044 326 
Q 2575 -91 1722 -91 
Q 1428 -91 1123 -41 
Q 819 9 494 109 
L 494 744 
Q 775 591 1075 516 
Q 1375 441 1709 441 
Q 2250 441 2565 725 
Q 2881 1009 2881 1497 
Q 2881 1984 2565 2268 
Q 2250 2553 1709 2553 
Q 1456 2553 1204 2497 
Q 953 2441 691 2322 
L 691 4666 
z
" transform="scale(0.015625)"/>
        <path id="DejaVuSans-30" d="M 2034 4250 
Q 1547 4250 1301 3770 
Q 1056 3291 1056 2328 
Q 1056 1369 1301 889 
Q 1547 409 2034 409 
Q 2525 409 2770 889 
Q 3016 1369 3016 2328 
Q 3016 3291 2770 3770 
Q 2525 4250 2034 4250 
z
M 2034 4750 
Q 2819 4750 3233 4129 
Q 3647 3509 3647 2328 
Q 3647 1150 3233 529 
Q 2819 -91 2034 -91 
Q 1250 -91 836 529 
Q 422 1150 422 2328 
Q 422 3509 836 4129 
Q 1250 4750 2034 4750 
z
" transform="scale(0.015625)"/>
       </defs>
       <use xlink:href="#DejaVuSans-2212"/>
       <use xlink:href="#DejaVuSans-35" transform="translate(83.789062 0)"/>
       <use xlink:href="#DejaVuSans-30" transform="translate(147.412109 0)"/>
      </g>
     </g>
    </g>
    <g id="xtick_2">
     <g id="line2d_3">
      <path d="M 135.27516 306.278125 
L 135.27516 15.118125 
" clip-path="url(#p3faef799dd)" style="fill: none; stroke: #b0b0b0; stroke-opacity: 0.25; stroke-width: 0.8; stroke-linecap: square"/>
     </g>
     <g id="line2d_4">
      <g>
       <use xlink:href="#mb09d210b83" x="135.27516" y="306.278125" style="stroke: #000000; stroke-width: 0.8"/>
      </g>
     </g>
     <g id="text_2">
      <!-- −40 -->
      <g transform="translate(124.722816 320.876563) scale(0.1 -0.1)">
       <defs>
        <path id="DejaVuSans-34" d="M 2419 4116 
L 825 1625 
L 2419 1625 
L 2419 4116 
z
M 2253 4666 
L 3047 4666 
L 3047 1625 
L 3713 1625 
L 3713 1100 
L 3047 1100 
L 3047 0 
L 2419 0 
L 2419 1100 
L 313 1100 
L 313 1709 
L 2253 4666 
z
" transform="scale(0.015625)"/>
       </defs>
       <use xlink:href="#DejaVuSans-2212"/>
       <use xlink:href="#DejaVuSans-34" transform="translate(83.789062 0)"/>
       <use xlink:href="#DejaVuSans-30" transform="translate(147.412109 0)"/>
      </g>
     </g>
    </g>
    <g id="xtick_3">
     <g id="line2d_5">
      <path d="M 215.738504 306.278125 
L 215.738504 15.118125 
" clip-path="url(#p3faef799dd)" style="fill: none; stroke: #b0b0b0; stroke-opacity: 0.25; stroke-width: 0.8; stroke-linecap: square"/>
     </g>
     <g id="line2d_6">
      <g>
       <use xlink:href="#mb09d210b83" x="215.738504" y="306.278125" style="stroke: #000000; stroke-width: 0.8"/>
      </g>
     </g>
     <g id="text_3">
      <!-- −30 -->
      <g transform="translate(205.18616 320.876563) scale(0.1 -0.1)">
       <defs>
        <path id="DejaVuSans-33" d="M 2597 2516 
Q 3050 2419 3304 2112 
Q 3559 1806 3559 1356 
Q 3559 666 3084 287 
Q 2609 -91 1734 -91 
Q 1441 -91 1130 -33 
Q 819 25 488 141 
L 488 750 
Q 750 597 1062 519 
Q 1375 441 1716 441 
Q 2309 441 2620 675 
Q 2931 909 2931 1356 
Q 2931 1769 2642 2001 
Q 2353 2234 1838 2234 
L 1294 2234 
L 1294 2753 
L 1863 2753 
Q 2328 2753 2575 2939 
Q 2822 3125 2822 3475 
Q 2822 3834 2567 4026 
Q 2313 4219 1838 4219 
Q 1578 4219 1281 4162 
Q 984 4106 628 3988 
L 628 4550 
Q 988 4650 1302 4700 
Q 1616 4750 1894 4750 
Q 2613 4750 3031 4423 
Q 3450 4097 3450 3541 
Q 3450 3153 3228 2886 
Q 3006 2619 2597 2516 
z
" transform="scale(0.015625)"/>
       </defs>
       <use xlink:href="#DejaVuSans-2212"/>
       <use xlink:href="#DejaVuSans-33" transform="translate(83.789062 0)"/>
       <use xlink:href="#DejaVuSans-30" transform="translate(147.412109 0)"/>
      </g>
     </g>
    </g>
    <g id="xtick_4">
     <g id="line2d_7">
      <path d="M 296.201848 306.278125 
L 296.201848 15.118125 
" clip-path="url(#p3faef799dd)" style="fill: none; stroke: #b0b0b0; stroke-opacity: 0.25; stroke-width: 0.8; stroke-linecap: square"/>
     </g>
     <g id="line2d_8">
      <g>
       <use xlink:href="#mb09d210b83" x="296.201848" y="306.278125" style="stroke: #000000; stroke-width: 0.8"/>
      </g>
     </g>
     <g id="text_4">
      <!-- −20 -->
      <g transform="translate(285.649504 320.876563) scale(0.1 -0.1)">
       <defs>
        <path id="DejaVuSans-32" d="M 1228 531 
L 3431 531 
L 3431 0 
L 469 0 
L 469 531 
Q 828 903 1448 1529 
Q 2069 2156 2228 2338 
Q 2531 2678 2651 2914 
Q 2772 3150 2772 3378 
Q 2772 3750 2511 3984 
Q 2250 4219 1831 4219 
Q 1534 4219 1204 4116 
Q 875 4013 500 3803 
L 500 4441 
Q 881 4594 1212 4672 
Q 1544 4750 1819 4750 
Q 2544 4750 2975 4387 
Q 3406 4025 3406 3419 
Q 3406 3131 3298 2873 
Q 3191 2616 2906 2266 
Q 2828 2175 2409 1742 
Q 1991 1309 1228 531 
z
" transform="scale(0.015625)"/>
       </defs>
       <use xlink:href="#DejaVuSans-2212"/>
       <use xlink:href="#DejaVuSans-32" transform="translate(83.789062 0)"/>
       <use xlink:href="#DejaVuSans-30" transform="translate(147.412109 0)"/>
      </g>
     </g>
    </g>
    <g id="xtick_5">
     <g id="line2d_9">
      <path d="M 376.665192 306.278125 
L 376.665192 15.118125 
" clip-path="url(#p3faef799dd)" style="fill: none; stroke: #b0b0b0; stroke-opacity: 0.25; stroke-width: 0.8; stroke-linecap: square"/>
     </g>
     <g id="line2d_10">
      <g>
       <use xlink:href="#mb09d210b83" x="376.665192" y="306.278125" style="stroke: #000000; stroke-width: 0.8"/>
      </g>
     </g>
     <g id="text_5">
      <!-- −10 -->
      <g transform="translate(366.112848 320.876563) scale(0.1 -0.1)">
       <defs>
        <path id="DejaVuSans-31" d="M 794 531 
L 1825 531 
L 1825 4091 
L 703 3866 
L 703 4441 
L 1819 4666 
L 2450 4666 
L 2450 531 
L 3481 531 
L 3481 0 
L 794 0 
L 794 531 
z
" transform="scale(0.015625)"/>
       </defs>
       <use xlink:href="#DejaVuSans-2212"/>
       <use xlink:href="#DejaVuSans-31" transform="translate(83.789062 0)"/>
       <use xlink:href="#DejaVuSans-30" transform="translate(147.412109 0)"/>
      </g>
     </g>
    </g>
    <g id="xtick_6">
     <g id="line2d_11">
      <path d="M 457.128536 306.278125 
L 457.128536 15.118125 
" clip-path="url(#p3faef799dd)" style="fill: none; stroke: #b0b0b0; stroke-opacity: 0.25; stroke-width: 0.8; stroke-linecap: square"/>
     </g>
     <g id="line2d_12">
      <g>
       <use xlink:href="#mb09d210b83" x="457.128536" y="306.278125" style="stroke: #000000; stroke-width: 0.8"/>
      </g>
     </g>
     <g id="text_6">
      <!-- 0 -->
      <g transform="translate(453.947286 320.876563) scale(0.1 -0.1)">
       <use xlink:href="#DejaVuSans-30"/>
      </g>
     </g>
    </g>
    <g id="xtick_7">
     <g id="line2d_13">
      <path d="M 537.59188 306.278125 
L 537.59188 15.118125 
" clip-path="url(#p3faef799dd)" style="fill: none; stroke: #b0b0b0; stroke-opacity: 0.25; stroke-width: 0.8; stroke-linecap: square"/>
     </g>
     <g id="line2d_14">
      <g>
       <use xlink:href="#mb09d210b83" x="537.59188" y="306.278125" style="stroke: #000000; stroke-width: 0.8"/>
      </g>
     </g>
     <g id="text_7">
      <!-- 10 -->
      <g transform="translate(531.22938 320.876563) scale(0.1 -0.1)">
       <use xlink:href="#DejaVuSans-31"/>
       <use xlink:href="#DejaVuSans-30" transform="translate(63.623047 0)"/>
      </g>
     </g>
    </g>
    <g id="text_8">
     <!-- Fading variation (dB) -->
     <g transform="translate(243.137656 334.554688) scale(0.1 -0.1)">
      <defs>
       <path id="DejaVuSans-46" d="M 628 4666 
L 3309 4666 
L 3309 4134 
L 1259 4134 
L 1259 2759 
L 3109 2759 
L 3109 2228 
L 1259 2228 
L 1259 0 
L 628 0 
L 628 4666 
z
" transform="scale(0.015625)"/>
       <path id="DejaVuSans-61" d="M 2194 1759 
Q 1497 1759 1228 1600 
Q 959 1441 959 1056 
Q 959 750 1161 570 
Q 1363 391 1709 391 
Q 2188 391 2477 730 
Q 2766 1069 2766 1631 
L 2766 1759 
L 2194 1759 
z
M 3341 1997 
L 3341 0 
L 2766 0 
L 2766 531 
Q 2569 213 2275 61 
Q 1981 -91 1556 -91 
Q 1019 -91 701 211 
Q 384 513 384 1019 
Q 384 1609 779 1909 
Q 1175 2209 1959 2209 
L 2766 2209 
L 2766 2266 
Q 2766 2663 2505 2880 
Q 2244 3097 1772 3097 
Q 1472 3097 1187 3025 
Q 903 2953 641 2809 
L 641 3341 
Q 956 3463 1253 3523 
Q 1550 3584 1831 3584 
Q 2591 3584 2966 3190 
Q 3341 2797 3341 1997 
z
" transform="scale(0.015625)"/>
       <path id="DejaVuSans-64" d="M 2906 2969 
L 2906 4863 
L 3481 4863 
L 3481 0 
L 2906 0 
L 2906 525 
Q 2725 213 2448 61 
Q 2172 -91 1784 -91 
Q 1150 -91 751 415 
Q 353 922 353 1747 
Q 353 2572 751 3078 
Q 1150 3584 1784 3584 
Q 2172 3584 2448 3432 
Q 2725 3281 2906 2969 
z
M 947 1747 
Q 947 1113 1208 752 
Q 1469 391 1925 391 
Q 2381 391 2643 752 
Q 2906 1113 2906 1747 
Q 2906 2381 2643 2742 
Q 2381 3103 1925 3103 
Q 1469 3103 1208 2742 
Q 947 2381 947 1747 
z
" transform="scale(0.015625)"/>
       <path id="DejaVuSans-69" d="M 603 3500 
L 1178 3500 
L 1178 0 
L 603 0 
L 603 3500 
z
M 603 4863 
L 1178 4863 
L 1178 4134 
L 603 4134 
L 603 4863 
z
" transform="scale(0.015625)"/>
       <path id="DejaVuSans-6e" d="M 3513 2113 
L 3513 0 
L 2938 0 
L 2938 2094 
Q 2938 2591 2744 2837 
Q 2550 3084 2163 3084 
Q 1697 3084 1428 2787 
Q 1159 2491 1159 1978 
L 1159 0 
L 581 0 
L 581 3500 
L 1159 3500 
L 1159 2956 
Q 1366 3272 1645 3428 
Q 1925 3584 2291 3584 
Q 2894 3584 3203 3211 
Q 3513 2838 3513 2113 
z
" transform="scale(0.015625)"/>
       <path id="DejaVuSans-67" d="M 2906 1791 
Q 2906 2416 2648 2759 
Q 2391 3103 1925 3103 
Q 1463 3103 1205 2759 
Q 947 2416 947 1791 
Q 947 1169 1205 825 
Q 1463 481 1925 481 
Q 2391 481 2648 825 
Q 2906 1169 2906 1791 
z
M 3481 434 
Q 3481 -459 3084 -895 
Q 2688 -1331 1869 -1331 
Q 1566 -1331 1297 -1286 
Q 1028 -1241 775 -1147 
L 775 -588 
Q 1028 -725 1275 -790 
Q 1522 -856 1778 -856 
Q 2344 -856 2625 -561 
Q 2906 -266 2906 331 
L 2906 616 
Q 2728 306 2450 153 
Q 2172 0 1784 0 
Q 1141 0 747 490 
Q 353 981 353 1791 
Q 353 2603 747 3093 
Q 1141 3584 1784 3584 
Q 2172 3584 2450 3431 
Q 2728 3278 2906 2969 
L 2906 3500 
L 3481 3500 
L 3481 434 
z
" transform="scale(0.015625)"/>
       <path id="DejaVuSans-20" transform="scale(0.015625)"/>
       <path id="DejaVuSans-76" d="M 191 3500 
L 800 3500 
L 1894 563 
L 2988 3500 
L 3597 3500 
L 2284 0 
L 1503 0 
L 191 3500 
z
" transform="scale(0.015625)"/>
       <path id="DejaVuSans-72" d="M 2631 2963 
Q 2534 3019 2420 3045 
Q 2306 3072 2169 3072 
Q 1681 3072 1420 2755 
Q 1159 2438 1159 1844 
L 1159 0 
L 581 0 
L 581 3500 
L 1159 3500 
L 1159 2956 
Q 1341 3275 1631 3429 
Q 1922 3584 2338 3584 
Q 2397 3584 2469 3576 
Q 2541 3569 2628 3553 
L 2631 2963 
z
" transform="scale(0.015625)"/>
       <path id="DejaVuSans-74" d="M 1172 4494 
L 1172 3500 
L 2356 3500 
L 2356 3053 
L 1172 3053 
L 1172 1153 
Q 1172 725 1289 603 
Q 1406 481 1766 481 
L 2356 481 
L 2356 0 
L 1766 0 
Q 1100 0 847 248 
Q 594 497 594 1153 
L 594 3053 
L 172 3053 
L 172 3500 
L 594 3500 
L 594 4494 
L 1172 4494 
z
" transform="scale(0.015625)"/>
       <path id="DejaVuSans-6f" d="M 1959 3097 
Q 1497 3097 1228 2736 
Q 959 2375 959 1747 
Q 959 1119 1226 758 
Q 1494 397 1959 397 
Q 2419 397 2687 759 
Q 2956 1122 2956 1747 
Q 2956 2369 2687 2733 
Q 2419 3097 1959 3097 
z
M 1959 3584 
Q 2709 3584 3137 3096 
Q 3566 2609 3566 1747 
Q 3566 888 3137 398 
Q 2709 -91 1959 -91 
Q 1206 -91 779 398 
Q 353 888 353 1747 
Q 353 2609 779 3096 
Q 1206 3584 1959 3584 
z
" transform="scale(0.015625)"/>
       <path id="DejaVuSans-28" d="M 1984 4856 
Q 1566 4138 1362 3434 
Q 1159 2731 1159 2009 
Q 1159 1288 1364 580 
Q 1569 -128 1984 -844 
L 1484 -844 
Q 1016 -109 783 600 
Q 550 1309 550 2009 
Q 550 2706 781 3412 
Q 1013 4119 1484 4856 
L 1984 4856 
z
" transform="scale(0.015625)"/>
       <path id="DejaVuSans-42" d="M 1259 2228 
L 1259 519 
L 2272 519 
Q 2781 519 3026 730 
Q 3272 941 3272 1375 
Q 3272 1813 3026 2020 
Q 2781 2228 2272 2228 
L 1259 2228 
z
M 1259 4147 
L 1259 2741 
L 2194 2741 
Q 2656 2741 2882 2914 
Q 3109 3088 3109 3444 
Q 3109 3797 2882 3972 
Q 2656 4147 2194 4147 
L 1259 4147 
z
M 628 4666 
L 2241 4666 
Q 2963 4666 3353 4366 
Q 3744 4066 3744 3513 
Q 3744 3084 3544 2831 
Q 3344 2578 2956 2516 
Q 3422 2416 3680 2098 
Q 3938 1781 3938 1306 
Q 3938 681 3513 340 
Q 3088 0 2303 0 
L 628 0 
L 628 4666 
z
" transform="scale(0.015625)"/>
       <path id="DejaVuSans-29" d="M 513 4856 
L 1013 4856 
Q 1481 4119 1714 3412 
Q 1947 2706 1947 2009 
Q 1947 1309 1714 600 
Q 1481 -109 1013 -844 
L 513 -844 
Q 928 -128 1133 580 
Q 1338 1288 1338 2009 
Q 1338 2731 1133 3434 
Q 928 4138 513 4856 
z
" transform="scale(0.015625)"/>
      </defs>
      <use xlink:href="#DejaVuSans-46"/>
      <use xlink:href="#DejaVuSans-61" transform="translate(48.394531 0)"/>
      <use xlink:href="#DejaVuSans-64" transform="translate(109.673828 0)"/>
      <use xlink:href="#DejaVuSans-69" transform="translate(173.150391 0)"/>
      <use xlink:href="#DejaVuSans-6e" transform="translate(200.933594 0)"/>
      <use xlink:href="#DejaVuSans-67" transform="translate(264.3125 0)"/>
      <use xlink:href="#DejaVuSans-20" transform="translate(327.789062 0)"/>
      <use xlink:href="#DejaVuSans-76" transform="translate(359.576172 0)"/>
      <use xlink:href="#DejaVuSans-61" transform="translate(418.755859 0)"/>
      <use xlink:href="#DejaVuSans-72" transform="translate(480.035156 0)"/>
      <use xlink:href="#DejaVuSans-69" transform="translate(521.148438 0)"/>
      <use xlink:href="#DejaVuSans-61" transform="translate(548.931641 0)"/>
      <use xlink:href="#DejaVuSans-74" transform="translate(610.210938 0)"/>
      <use xlink:href="#DejaVuSans-69" transform="translate(649.419922 0)"/>
      <use xlink:href="#DejaVuSans-6f" transform="translate(677.203125 0)"/>
      <use xlink:href="#DejaVuSans-6e" transform="translate(738.384766 0)"/>
      <use xlink:href="#DejaVuSans-20" transform="translate(801.763672 0)"/>
      <use xlink:href="#DejaVuSans-28" transform="translate(833.550781 0)"/>
      <use xlink:href="#DejaVuSans-64" transform="translate(872.564453 0)"/>
      <use xlink:href="#DejaVuSans-42" transform="translate(936.041016 0)"/>
      <use xlink:href="#DejaVuSans-29" transform="translate(1004.644531 0)"/>
     </g>
    </g>
   </g>
   <g id="matplotlib.axis_2">
    <g id="ytick_1">
     <g id="line2d_15">
      <path d="M 36.58125 293.070051 
L 554.06125 293.070051 
" clip-path="url(#p3faef799dd)" style="fill: none; stroke: #b0b0b0; stroke-opacity: 0.25; stroke-width: 0.8; stroke-linecap: square"/>
     </g>
     <g id="line2d_16">
      <defs>
       <path id="m62f89a45e2" d="M 0 0 
L -3.5 0 
" style="stroke: #000000; stroke-width: 0.8"/>
      </defs>
      <g>
       <use xlink:href="#m62f89a45e2" x="36.58125" y="293.070051" style="stroke: #000000; stroke-width: 0.8"/>
      </g>
     </g>
     <g id="text_9">
      <!-- 0.0 -->
      <g transform="translate(13.678125 296.86927) scale(0.1 -0.1)">
       <defs>
        <path id="DejaVuSans-2e" d="M 684 794 
L 1344 794 
L 1344 0 
L 684 0 
L 684 794 
z
" transform="scale(0.015625)"/>
       </defs>
       <use xlink:href="#DejaVuSans-30"/>
       <use xlink:href="#DejaVuSans-2e" transform="translate(63.623047 0)"/>
       <use xlink:href="#DejaVuSans-30" transform="translate(95.410156 0)"/>
      </g>
     </g>
    </g>
    <g id="ytick_2">
     <g id="line2d_17">
      <path d="M 36.58125 240.126575 
L 554.06125 240.126575 
" clip-path="url(#p3faef799dd)" style="fill: none; stroke: #b0b0b0; stroke-opacity: 0.25; stroke-width: 0.8; stroke-linecap: square"/>
     </g>
     <g id="line2d_18">
      <g>
       <use xlink:href="#m62f89a45e2" x="36.58125" y="240.126575" style="stroke: #000000; stroke-width: 0.8"/>
      </g>
     </g>
     <g id="text_10">
      <!-- 0.2 -->
      <g transform="translate(13.678125 243.925794) scale(0.1 -0.1)">
       <use xlink:href="#DejaVuSans-30"/>
       <use xlink:href="#DejaVuSans-2e" transform="translate(63.623047 0)"/>
       <use xlink:href="#DejaVuSans-32" transform="translate(95.410156 0)"/>
      </g>
     </g>
    </g>
    <g id="ytick_3">
     <g id="line2d_19">
      <path d="M 36.58125 187.183099 
L 554.06125 187.183099 
" clip-path="url(#p3faef799dd)" style="fill: none; stroke: #b0b0b0; stroke-opacity: 0.25; stroke-width: 0.8; stroke-linecap: square"/>
     </g>
     <g id="line2d_20">
      <g>
       <use xlink:href="#m62f89a45e2" x="36.58125" y="187.183099" style="stroke: #000000; stroke-width: 0.8"/>
      </g>
     </g>
     <g id="text_11">
      <!-- 0.4 -->
      <g transform="translate(13.678125 190.982318) scale(0.1 -0.1)">
       <use xlink:href="#DejaVuSans-30"/>
       <use xlink:href="#DejaVuSans-2e" transform="translate(63.623047 0)"/>
       <use xlink:href="#DejaVuSans-34" transform="translate(95.410156 0)"/>
      </g>
     </g>
    </g>
    <g id="ytick_4">
     <g id="line2d_21">
      <path d="M 36.58125 134.239623 
L 554.06125 134.239623 
" clip-path="url(#p3faef799dd)" style="fill: none; stroke: #b0b0b0; stroke-opacity: 0.25; stroke-width: 0.8; stroke-linecap: square"/>
     </g>
     <g id="line2d_22">
      <g>
       <use xlink:href="#m62f89a45e2" x="36.58125" y="134.239623" style="stroke: #000000; stroke-width: 0.8"/>
      </g>
     </g>
     <g id="text_12">
      <!-- 0.6 -->
      <g transform="translate(13.678125 138.038842) scale(0.1 -0.1)">
       <defs>
        <path id="DejaVuSans-36" d="M 2113 2584 
Q 1688 2584 1439 2293 
Q 1191 2003 1191 1497 
Q 1191 994 1439 701 
Q 1688 409 2113 409 
Q 2538 409 2786 701 
Q 3034 994 3034 1497 
Q 3034 2003 2786 2293 
Q 2538 2584 2113 2584 
z
M 3366 4563 
L 3366 3988 
Q 3128 4100 2886 4159 
Q 2644 4219 2406 4219 
Q 1781 4219 1451 3797 
Q 1122 3375 1075 2522 
Q 1259 2794 1537 2939 
Q 1816 3084 2150 3084 
Q 2853 3084 3261 2657 
Q 3669 2231 3669 1497 
Q 3669 778 3244 343 
Q 2819 -91 2113 -91 
Q 1303 -91 875 529 
Q 447 1150 447 2328 
Q 447 3434 972 4092 
Q 1497 4750 2381 4750 
Q 2619 4750 2861 4703 
Q 3103 4656 3366 4563 
z
" transform="scale(0.015625)"/>
       </defs>
       <use xlink:href="#DejaVuSans-30"/>
       <use xlink:href="#DejaVuSans-2e" transform="translate(63.623047 0)"/>
       <use xlink:href="#DejaVuSans-36" transform="translate(95.410156 0)"/>
      </g>
     </g>
    </g>
    <g id="ytick_5">
     <g id="line2d_23">
      <path d="M 36.58125 81.296147 
L 554.06125 81.296147 
" clip-path="url(#p3faef799dd)" style="fill: none; stroke: #b0b0b0; stroke-opacity: 0.25; stroke-width: 0.8; stroke-linecap: square"/>
     </g>
     <g id="line2d_24">
      <g>
       <use xlink:href="#m62f89a45e2" x="36.58125" y="81.296147" style="stroke: #000000; stroke-width: 0.8"/>
      </g>
     </g>
     <g id="text_13">
      <!-- 0.8 -->
      <g transform="translate(13.678125 85.095365) scale(0.1 -0.1)">
       <defs>
        <path id="DejaVuSans-38" d="M 2034 2216 
Q 1584 2216 1326 1975 
Q 1069 1734 1069 1313 
Q 1069 891 1326 650 
Q 1584 409 2034 409 
Q 2484 409 2743 651 
Q 3003 894 3003 1313 
Q 3003 1734 2745 1975 
Q 2488 2216 2034 2216 
z
M 1403 2484 
Q 997 2584 770 2862 
Q 544 3141 544 3541 
Q 544 4100 942 4425 
Q 1341 4750 2034 4750 
Q 2731 4750 3128 4425 
Q 3525 4100 3525 3541 
Q 3525 3141 3298 2862 
Q 3072 2584 2669 2484 
Q 3125 2378 3379 2068 
Q 3634 1759 3634 1313 
Q 3634 634 3220 271 
Q 2806 -91 2034 -91 
Q 1263 -91 848 271 
Q 434 634 434 1313 
Q 434 1759 690 2068 
Q 947 2378 1403 2484 
z
M 1172 3481 
Q 1172 3119 1398 2916 
Q 1625 2713 2034 2713 
Q 2441 2713 2670 2916 
Q 2900 3119 2900 3481 
Q 2900 3844 2670 4047 
Q 2441 4250 2034 4250 
Q 1625 4250 1398 4047 
Q 1172 3844 1172 3481 
z
" transform="scale(0.015625)"/>
       </defs>
       <use xlink:href="#DejaVuSans-30"/>
       <use xlink:href="#DejaVuSans-2e" transform="translate(63.623047 0)"/>
       <use xlink:href="#DejaVuSans-38" transform="translate(95.410156 0)"/>
      </g>
     </g>
    </g>
    <g id="ytick_6">
     <g id="line2d_25">
      <path d="M 36.58125 28.35267 
L 554.06125 28.35267 
" clip-path="url(#p3faef799dd)" style="fill: none; stroke: #b0b0b0; stroke-opacity: 0.25; stroke-width: 0.8; stroke-linecap: square"/>
     </g>
     <g id="line2d_26">
      <g>
       <use xlink:href="#m62f89a45e2" x="36.58125" y="28.35267" style="stroke: #000000; stroke-width: 0.8"/>
      </g>
     </g>
     <g id="text_14">
      <!-- 1.0 -->
      <g transform="translate(13.678125 32.151889) scale(0.1 -0.1)">
       <use xlink:href="#DejaVuSans-31"/>
       <use xlink:href="#DejaVuSans-2e" transform="translate(63.623047 0)"/>
       <use xlink:href="#DejaVuSans-30" transform="translate(95.410156 0)"/>
      </g>
     </g>
    </g>
    <g id="text_15">
     <!-- CDF -->
     <g transform="translate(7.598438 170.915313) rotate(-90) scale(0.1 -0.1)">
      <defs>
       <path id="DejaVuSans-43" d="M 4122 4306 
L 4122 3641 
Q 3803 3938 3442 4084 
Q 3081 4231 2675 4231 
Q 1875 4231 1450 3742 
Q 1025 3253 1025 2328 
Q 1025 1406 1450 917 
Q 1875 428 2675 428 
Q 3081 428 3442 575 
Q 3803 722 4122 1019 
L 4122 359 
Q 3791 134 3420 21 
Q 3050 -91 2638 -91 
Q 1578 -91 968 557 
Q 359 1206 359 2328 
Q 359 3453 968 4101 
Q 1578 4750 2638 4750 
Q 3056 4750 3426 4639 
Q 3797 4528 4122 4306 
z
" transform="scale(0.015625)"/>
       <path id="DejaVuSans-44" d="M 1259 4147 
L 1259 519 
L 2022 519 
Q 2988 519 3436 956 
Q 3884 1394 3884 2338 
Q 3884 3275 3436 3711 
Q 2988 4147 2022 4147 
L 1259 4147 
z
M 628 4666 
L 1925 4666 
Q 3281 4666 3915 4102 
Q 4550 3538 4550 2338 
Q 4550 1131 3912 565 
Q 3275 0 1925 0 
L 628 0 
L 628 4666 
z
" transform="scale(0.015625)"/>
      </defs>
      <use xlink:href="#DejaVuSans-43"/>
      <use xlink:href="#DejaVuSans-44" transform="translate(69.824219 0)"/>
      <use xlink:href="#DejaVuSans-46" transform="translate(146.826172 0)"/>
     </g>
    </g>
   </g>
   <g id="line2d_27">
    <path d="M 60.103068 293.04358 
L 166.297145 292.858277 
L 207.493404 292.699447 
L 261.106822 292.302371 
L 265.855891 292.170012 
L 274.431347 291.905295 
L 280.641088 291.640577 
L 287.842716 291.296445 
L 291.159642 291.111143 
L 293.317757 290.952312 
L 294.719745 290.740538 
L 296.269088 290.581708 
L 296.302687 290.555236 
L 298.135295 290.449349 
L 300.948873 290.211104 
L 301.367119 290.15816 
L 303.135838 289.893443 
L 303.948099 289.787556 
L 305.626116 289.602254 
L 309.907355 289.205178 
L 313.345973 288.861045 
L 313.439464 288.834573 
L 316.061924 288.649271 
L 316.170856 288.622799 
L 317.121471 288.490441 
L 318.071966 288.252195 
L 319.233932 288.119836 
L 319.321201 288.040421 
L 321.373112 287.72276 
L 321.793125 287.669817 
L 322.560871 287.537458 
L 325.044072 287.087438 
L 325.045816 287.060967 
L 326.41217 286.902136 
L 327.681198 286.637419 
L 330.870384 285.922682 
L 332.8302 285.73738 
L 333.101379 285.684436 
L 334.285207 285.499134 
L 335.620956 285.28736 
L 335.887065 285.181473 
L 336.457563 284.996171 
L 336.530968 284.916756 
L 338.291731 284.625567 
L 338.483053 284.572623 
L 338.976509 284.413793 
L 340.91512 283.990245 
L 342.05546 283.778471 
L 343.717528 283.381395 
L 344.338011 283.169621 
L 344.782939 282.825489 
L 345.09801 282.640186 
L 345.645307 282.348997 
L 345.667935 282.269582 
L 346.752472 281.951921 
L 347.45484 281.713676 
L 348.482983 281.554845 
L 350.147926 280.945995 
L 351.434073 280.681278 
L 353.744413 279.781239 
L 353.943071 279.728295 
L 354.230803 279.595937 
L 354.381185 279.49005 
L 354.629239 279.331219 
L 354.774387 279.172389 
L 354.987013 278.960615 
L 355.309041 278.828256 
L 358.043996 277.742915 
L 358.126195 277.610556 
L 358.536862 277.451726 
L 359.017924 277.134065 
L 359.855956 277.001706 
L 361.242152 276.419328 
L 363.67385 275.2281 
L 363.740175 275.148685 
L 364.001561 274.989854 
L 364.064174 274.883967 
L 364.503157 274.645722 
L 364.59911 274.592778 
L 366.74546 273.242719 
L 367.262891 272.872115 
L 367.727566 272.660341 
L 367.915023 272.580926 
L 368.233274 272.395624 
L 368.385568 272.263265 
L 368.907938 272.02502 
L 369.011008 271.892661 
L 369.335577 271.73383 
L 369.683465 271.442641 
L 370.218059 271.12498 
L 370.399222 270.96615 
L 370.593557 270.860263 
L 370.979818 270.674961 
L 372.699258 269.563148 
L 372.808569 269.430789 
L 373.371406 269.060185 
L 373.415964 269.007241 
L 373.700627 268.848411 
L 373.79771 268.768996 
L 374.044153 268.53075 
L 374.115518 268.451335 
L 374.46805 268.186617 
L 374.568099 268.054259 
L 375.106271 267.842485 
L 375.672777 267.498352 
L 376.025633 267.339522 
L 376.206529 267.15422 
L 376.512687 266.995389 
L 377.035436 266.677728 
L 377.337032 266.518898 
L 377.511023 266.386539 
L 377.762566 266.201237 
L 377.950708 266.068878 
L 378.30326 265.910048 
L 378.388901 265.804161 
L 378.848731 265.539444 
L 379.028497 265.354142 
L 379.181167 265.221783 
L 379.181425 265.195311 
L 379.5237 265.036481 
L 380.523733 264.189385 
L 381.144595 263.50112 
L 381.469468 263.342289 
L 382.157381 262.971685 
L 382.347009 262.786383 
L 382.875467 262.468722 
L 382.963614 262.389307 
L 383.10984 262.230476 
L 383.791004 261.701042 
L 384.098647 261.515739 
L 384.170381 261.436324 
L 384.462497 261.171607 
L 384.611312 261.012776 
L 384.97831 260.748059 
L 385.709838 259.927435 
L 386.014667 259.768605 
L 386.143313 259.662718 
L 386.423431 259.424472 
L 386.669038 259.265642 
L 387.068632 258.921509 
L 387.31193 258.577377 
L 387.712466 258.047942 
L 388.145767 257.650866 
L 388.263329 257.518507 
L 388.339769 257.386148 
L 388.444831 257.25379 
L 388.688122 256.936129 
L 389.369046 256.274335 
L 389.537405 256.089033 
L 389.79934 255.850788 
L 391.823478 253.944822 
L 391.89998 253.838935 
L 392.616326 253.335972 
L 392.986132 252.885953 
L 393.327576 252.727122 
L 393.352993 252.674179 
L 393.612267 252.488877 
L 393.713732 252.38299 
L 396.415413 249.576986 
L 396.493893 249.391683 
L 396.719633 249.153438 
L 396.809606 248.968136 
L 396.954949 248.809305 
L 397.48907 248.173983 
L 397.680836 247.96221 
L 397.916302 247.565134 
L 398.076026 247.35336 
L 399.168576 246.029773 
L 399.481189 245.579753 
L 399.723761 245.288564 
L 399.998959 244.997375 
L 400.071221 244.891488 
L 400.319924 244.732658 
L 400.476849 244.520884 
L 400.571921 244.388525 
L 400.868722 244.097336 
L 401.067811 243.70026 
L 401.513316 243.329655 
L 401.645574 243.117882 
L 401.786196 242.932579 
L 402.003947 242.561975 
L 402.119096 242.376673 
L 402.325466 242.138427 
L 404.060433 239.967745 
L 404.170428 239.808914 
L 404.833949 238.723573 
L 404.979629 238.538271 
L 405.106308 238.352969 
L 405.400282 238.06178 
L 405.575934 237.797062 
L 405.752239 237.505873 
L 405.869137 237.347043 
L 405.953252 237.188212 
L 406.077743 237.029382 
L 406.476694 236.632306 
L 406.761898 236.076399 
L 406.866178 235.811682 
L 407.008759 235.546964 
L 407.123355 235.414606 
L 407.476966 235.044001 
L 407.603407 234.752812 
L 407.749114 234.514567 
L 407.950532 234.382208 
L 408.144705 234.170434 
L 408.327096 233.95866 
L 408.997954 232.979206 
L 409.760288 232.026223 
L 409.878383 231.787978 
L 410.237199 231.205599 
L 410.365665 231.020297 
L 410.575173 230.729108 
L 411.103963 229.749654 
L 411.376303 229.511408 
L 412.878174 227.049537 
L 413.096885 226.573045 
L 413.221976 226.308328 
L 413.821933 225.328874 
L 413.924951 225.170043 
L 414.048261 224.772967 
L 414.177275 224.455306 
L 414.341549 224.296476 
L 414.44763 224.190589 
L 414.642455 223.978815 
L 415.777836 221.940491 
L 415.957455 221.702245 
L 416.30265 221.119867 
L 416.465916 220.828678 
L 416.601132 220.458074 
L 417.681091 218.340335 
L 417.784521 218.181504 
L 417.909577 217.943259 
L 418.081062 217.652069 
L 418.592727 216.725559 
L 418.71257 216.540256 
L 419.020343 216.037293 
L 419.144436 215.666689 
L 419.271885 215.454915 
L 419.958722 214.184272 
L 420.183803 213.866611 
L 423.334207 207.963413 
L 423.467005 207.592809 
L 423.741868 207.275148 
L 423.841335 207.089846 
L 424.312442 206.110392 
L 424.660716 205.395655 
L 424.751031 205.157409 
L 425.029897 204.627974 
L 425.18771 204.363257 
L 425.269662 204.230898 
L 425.42012 204.045596 
L 426.288679 202.007272 
L 426.439343 201.716083 
L 426.561237 201.451366 
L 427.868736 198.539475 
L 428.008605 198.301229 
L 428.185254 197.983568 
L 428.307965 197.639435 
L 428.467947 197.110001 
L 428.582131 196.845283 
L 428.895628 196.236433 
L 429.363859 195.362866 
L 431.61492 190.54501 
L 431.701531 190.386179 
L 431.878331 189.883216 
L 432.046531 189.644971 
L 432.293314 188.983177 
L 432.413959 188.797875 
L 432.549352 188.506686 
L 432.674075 188.347855 
L 432.833994 187.897836 
L 433.139001 187.05074 
L 433.226033 186.838966 
L 433.411423 186.203645 
L 433.69278 185.541851 
L 433.82535 185.356549 
L 433.929003 185.012416 
L 434.295955 184.059434 
L 434.66879 183.132923 
L 434.724422 182.921149 
L 434.901778 182.312299 
L 435.041885 181.809336 
L 435.160676 181.597562 
L 435.677324 180.379862 
L 435.826996 179.744541 
L 437.225069 176.54146 
L 437.43925 175.879667 
L 437.605518 175.641421 
L 437.717031 175.429647 
L 437.88597 174.979628 
L 438.371624 173.735456 
L 438.572993 173.17955 
L 439.029481 172.147152 
L 439.410519 170.929452 
L 439.553454 170.717678 
L 439.821374 169.870582 
L 439.987272 169.68528 
L 440.172852 168.970543 
L 440.309825 168.494052 
L 440.489056 168.070504 
L 440.607295 167.911674 
L 441.781414 165.211556 
L 442.065973 164.470348 
L 442.304233 164.258574 
L 442.376811 164.073272 
L 442.65395 163.226176 
L 442.714494 162.98793 
L 442.862754 162.511439 
L 442.941486 162.273193 
L 443.122339 161.796702 
L 443.370358 161.214324 
L 443.484646 161.029022 
L 443.774722 160.102511 
L 443.898511 159.811322 
L 444.223597 158.752452 
L 444.348901 158.593622 
L 444.492018 158.143602 
L 444.60113 157.772998 
L 444.938243 156.475883 
L 445.048011 156.264109 
L 445.298328 155.655259 
L 445.39946 155.390542 
L 445.471399 155.205239 
L 445.842768 153.987539 
L 445.977525 153.775765 
L 446.162522 152.981613 
L 446.657474 151.605083 
L 446.78316 151.472724 
L 446.973074 151.10212 
L 447.074661 150.810931 
L 447.204081 150.546213 
L 447.289981 150.387383 
L 447.401093 150.175609 
L 447.499008 149.910892 
L 447.787834 149.010853 
L 447.86475 148.852022 
L 448.023499 148.428474 
L 448.56797 146.707811 
L 448.786774 145.913659 
L 448.920831 145.675414 
L 449.033595 145.278338 
L 449.15291 145.066564 
L 449.287616 144.643016 
L 449.429664 144.378298 
L 449.53912 144.034166 
L 449.634967 143.875335 
L 449.904191 143.054712 
L 450.251741 142.075257 
L 450.509074 141.466407 
L 450.662266 141.175218 
L 450.789204 140.778142 
L 450.913069 140.328123 
L 451.09668 140.010462 
L 451.230653 139.666329 
L 451.282775 139.454555 
L 451.432288 138.92512 
L 451.613048 138.501573 
L 451.716027 138.395686 
L 451.892804 137.70742 
L 451.998264 137.336816 
L 452.350525 136.251475 
L 457.818764 121.109641 
L 457.935511 120.977282 
L 459.876026 115.603519 
L 459.943158 115.365274 
L 460.282036 114.147574 
L 460.401211 113.962271 
L 461.254821 111.341569 
L 461.411567 110.759191 
L 461.562507 110.176813 
L 461.654792 109.991511 
L 461.745835 109.700322 
L 461.933543 109.488548 
L 462.182516 108.932641 
L 462.322354 108.667924 
L 462.688318 107.503167 
L 462.829792 107.159035 
L 463.022503 106.417826 
L 463.648884 104.750107 
L 463.760321 104.485389 
L 464.068695 103.638294 
L 464.257901 103.188274 
L 464.385971 102.738254 
L 465.185592 100.726402 
L 465.30813 100.461685 
L 465.66588 99.296929 
L 465.78923 99.085155 
L 466.03065 98.529248 
L 468.844304 91.514238 
L 468.933571 91.302464 
L 469.28288 90.402425 
L 469.658001 89.581801 
L 469.798118 89.025894 
L 470.083894 88.496459 
L 470.207067 88.125855 
L 470.298279 87.914081 
L 470.437227 87.675835 
L 470.557555 87.305231 
L 470.701281 86.934627 
L 471.19387 85.743399 
L 471.289973 85.584568 
L 471.420368 85.266907 
L 471.630059 84.975718 
L 471.816618 84.446283 
L 472.088771 83.705075 
L 472.170214 83.546244 
L 472.286902 83.387414 
L 472.421708 83.17564 
L 472.5331 83.01681 
L 472.650355 82.72562 
L 472.977279 82.037355 
L 473.427796 81.031429 
L 473.520148 80.846127 
L 473.626292 80.501994 
L 473.758613 80.263749 
L 473.966397 79.734314 
L 474.045924 79.52254 
L 474.189615 78.887218 
L 474.313904 78.490142 
L 474.424026 78.066595 
L 476.181833 73.751701 
L 476.302177 73.354625 
L 477.545335 70.548621 
L 477.697528 70.363319 
L 477.81909 70.07213 
L 479.204975 67.133767 
L 479.312087 66.974936 
L 479.461697 66.736691 
L 479.576475 66.524917 
L 479.699656 66.260199 
L 479.819066 66.048425 
L 481.024381 63.665969 
L 481.178989 63.295365 
L 483.87052 57.868658 
L 484.075157 57.550998 
L 484.380027 57.153921 
L 484.85174 56.280354 
L 484.981573 55.989165 
L 485.129682 55.830335 
L 485.391787 55.380315 
L 485.499726 55.168541 
L 485.586218 54.956767 
L 486.943667 52.8655 
L 487.134653 52.733141 
L 487.269139 52.468424 
L 487.396477 52.283122 
L 487.546876 52.044876 
L 487.827937 51.277196 
L 487.971987 51.065422 
L 488.332483 50.641874 
L 488.6294 50.218326 
L 488.738485 49.900665 
L 489.04593 49.635948 
L 489.175646 49.530061 
L 490.247482 48.285889 
L 491.14626 47.147604 
L 491.485065 46.644641 
L 491.633791 46.512283 
L 491.73615 46.300509 
L 491.82134 46.115207 
L 491.965126 45.744602 
L 492.156105 45.40047 
L 492.983229 44.209242 
L 493.091701 44.050411 
L 493.357704 43.865109 
L 493.75769 43.256259 
L 493.903018 43.097429 
L 494.142475 42.647409 
L 494.336378 42.382692 
L 494.478168 42.276805 
L 494.761383 41.800313 
L 494.852183 41.615011 
L 495.253784 41.085576 
L 495.358079 40.953218 
L 495.558381 40.767916 
L 495.820857 40.212009 
L 496.441499 39.76199 
L 496.809118 39.444329 
L 497.385257 38.835479 
L 497.532619 38.570761 
L 497.911254 38.411931 
L 498.079976 38.226629 
L 498.369657 38.014855 
L 499.245444 37.061872 
L 499.592032 36.797155 
L 499.715806 36.585381 
L 499.998748 36.26772 
L 500.279426 36.055946 
L 500.603597 35.764757 
L 501.198059 35.182379 
L 502.022255 34.705888 
L 502.182366 34.573529 
L 502.899196 34.202925 
L 503.132781 33.938207 
L 503.15849 33.83232 
L 503.594192 33.647018 
L 504.422023 33.144055 
L 504.797574 33.011696 
L 504.818355 32.958753 
L 505.244486 32.773451 
L 505.44755 32.508733 
L 506.061311 32.349903 
L 506.190748 32.296959 
L 506.582323 32.138129 
L 506.904996 31.979299 
L 507.269068 31.767525 
L 507.839287 31.608694 
L 507.96816 31.502807 
L 508.224928 31.317505 
L 508.381468 31.23809 
L 509.107592 30.973373 
L 509.677516 30.814542 
L 510.57845 30.576296 
L 513.362703 29.808616 
L 515.22064 29.623314 
L 515.274407 29.596842 
L 516.234359 29.41154 
L 516.530122 29.305653 
L 518.00253 29.093879 
L 518.027628 29.067407 
L 524.200839 28.537973 
L 530.539432 28.35267 
L 530.539432 28.35267 
" clip-path="url(#p3faef799dd)" style="fill: none; stroke: #1f77b4; stroke-width: 2; stroke-linecap: square"/>
   </g>
   <g id="patch_3">
    <path d="M 36.58125 306.278125 
L 36.58125 15.118125 
" style="fill: none; stroke: #000000; stroke-width: 0.8; stroke-linejoin: miter; stroke-linecap: square"/>
   </g>
   <g id="patch_4">
    <path d="M 554.06125 306.278125 
L 554.06125 15.118125 
" style="fill: none; stroke: #000000; stroke-width: 0.8; stroke-linejoin: miter; stroke-linecap: square"/>
   </g>
   <g id="patch_5">
    <path d="M 36.58125 306.278125 
L 554.06125 306.278125 
" style="fill: none; stroke: #000000; stroke-width: 0.8; stroke-linejoin: miter; stroke-linecap: square"/>
   </g>
   <g id="patch_6">
    <path d="M 36.58125 15.118125 
L 554.06125 15.118125 
" style="fill: none; stroke: #000000; stroke-width: 0.8; stroke-linejoin: miter; stroke-linecap: square"/>
   </g>
   <g id="text_16">
    <!-- Fading Variation Empirical CDF -->
    <g transform="translate(190.732813 9.118125) scale(0.12 -0.12)">
     <defs>
      <path id="DejaVuSans-Bold-46" d="M 588 4666 
L 3834 4666 
L 3834 3756 
L 1791 3756 
L 1791 2888 
L 3713 2888 
L 3713 1978 
L 1791 1978 
L 1791 0 
L 588 0 
L 588 4666 
z
" transform="scale(0.015625)"/>
      <path id="DejaVuSans-Bold-61" d="M 2106 1575 
Q 1756 1575 1579 1456 
Q 1403 1338 1403 1106 
Q 1403 894 1545 773 
Q 1688 653 1941 653 
Q 2256 653 2472 879 
Q 2688 1106 2688 1447 
L 2688 1575 
L 2106 1575 
z
M 3816 1997 
L 3816 0 
L 2688 0 
L 2688 519 
Q 2463 200 2181 54 
Q 1900 -91 1497 -91 
Q 953 -91 614 226 
Q 275 544 275 1050 
Q 275 1666 698 1953 
Q 1122 2241 2028 2241 
L 2688 2241 
L 2688 2328 
Q 2688 2594 2478 2717 
Q 2269 2841 1825 2841 
Q 1466 2841 1156 2769 
Q 847 2697 581 2553 
L 581 3406 
Q 941 3494 1303 3539 
Q 1666 3584 2028 3584 
Q 2975 3584 3395 3211 
Q 3816 2838 3816 1997 
z
" transform="scale(0.015625)"/>
      <path id="DejaVuSans-Bold-64" d="M 2919 2988 
L 2919 4863 
L 4044 4863 
L 4044 0 
L 2919 0 
L 2919 506 
Q 2688 197 2409 53 
Q 2131 -91 1766 -91 
Q 1119 -91 703 423 
Q 288 938 288 1747 
Q 288 2556 703 3070 
Q 1119 3584 1766 3584 
Q 2128 3584 2408 3439 
Q 2688 3294 2919 2988 
z
M 2181 722 
Q 2541 722 2730 984 
Q 2919 1247 2919 1747 
Q 2919 2247 2730 2509 
Q 2541 2772 2181 2772 
Q 1825 2772 1636 2509 
Q 1447 2247 1447 1747 
Q 1447 1247 1636 984 
Q 1825 722 2181 722 
z
" transform="scale(0.015625)"/>
      <path id="DejaVuSans-Bold-69" d="M 538 3500 
L 1656 3500 
L 1656 0 
L 538 0 
L 538 3500 
z
M 538 4863 
L 1656 4863 
L 1656 3950 
L 538 3950 
L 538 4863 
z
" transform="scale(0.015625)"/>
      <path id="DejaVuSans-Bold-6e" d="M 4056 2131 
L 4056 0 
L 2931 0 
L 2931 347 
L 2931 1631 
Q 2931 2084 2911 2256 
Q 2891 2428 2841 2509 
Q 2775 2619 2662 2680 
Q 2550 2741 2406 2741 
Q 2056 2741 1856 2470 
Q 1656 2200 1656 1722 
L 1656 0 
L 538 0 
L 538 3500 
L 1656 3500 
L 1656 2988 
Q 1909 3294 2193 3439 
Q 2478 3584 2822 3584 
Q 3428 3584 3742 3212 
Q 4056 2841 4056 2131 
z
" transform="scale(0.015625)"/>
      <path id="DejaVuSans-Bold-67" d="M 2919 594 
Q 2688 288 2409 144 
Q 2131 0 1766 0 
Q 1125 0 706 504 
Q 288 1009 288 1791 
Q 288 2575 706 3076 
Q 1125 3578 1766 3578 
Q 2131 3578 2409 3434 
Q 2688 3291 2919 2981 
L 2919 3500 
L 4044 3500 
L 4044 353 
Q 4044 -491 3511 -936 
Q 2978 -1381 1966 -1381 
Q 1638 -1381 1331 -1331 
Q 1025 -1281 716 -1178 
L 716 -306 
Q 1009 -475 1290 -558 
Q 1572 -641 1856 -641 
Q 2406 -641 2662 -400 
Q 2919 -159 2919 353 
L 2919 594 
z
M 2181 2772 
Q 1834 2772 1640 2515 
Q 1447 2259 1447 1791 
Q 1447 1309 1634 1061 
Q 1822 813 2181 813 
Q 2531 813 2725 1069 
Q 2919 1325 2919 1791 
Q 2919 2259 2725 2515 
Q 2531 2772 2181 2772 
z
" transform="scale(0.015625)"/>
      <path id="DejaVuSans-Bold-20" transform="scale(0.015625)"/>
      <path id="DejaVuSans-Bold-56" d="M 31 4666 
L 1241 4666 
L 2478 1222 
L 3713 4666 
L 4922 4666 
L 3194 0 
L 1759 0 
L 31 4666 
z
" transform="scale(0.015625)"/>
      <path id="DejaVuSans-Bold-72" d="M 3138 2547 
Q 2991 2616 2845 2648 
Q 2700 2681 2553 2681 
Q 2122 2681 1889 2404 
Q 1656 2128 1656 1613 
L 1656 0 
L 538 0 
L 538 3500 
L 1656 3500 
L 1656 2925 
Q 1872 3269 2151 3426 
Q 2431 3584 2822 3584 
Q 2878 3584 2943 3579 
Q 3009 3575 3134 3559 
L 3138 2547 
z
" transform="scale(0.015625)"/>
      <path id="DejaVuSans-Bold-74" d="M 1759 4494 
L 1759 3500 
L 2913 3500 
L 2913 2700 
L 1759 2700 
L 1759 1216 
Q 1759 972 1856 886 
Q 1953 800 2241 800 
L 2816 800 
L 2816 0 
L 1856 0 
Q 1194 0 917 276 
Q 641 553 641 1216 
L 641 2700 
L 84 2700 
L 84 3500 
L 641 3500 
L 641 4494 
L 1759 4494 
z
" transform="scale(0.015625)"/>
      <path id="DejaVuSans-Bold-6f" d="M 2203 2784 
Q 1831 2784 1636 2517 
Q 1441 2250 1441 1747 
Q 1441 1244 1636 976 
Q 1831 709 2203 709 
Q 2569 709 2762 976 
Q 2956 1244 2956 1747 
Q 2956 2250 2762 2517 
Q 2569 2784 2203 2784 
z
M 2203 3584 
Q 3106 3584 3614 3096 
Q 4122 2609 4122 1747 
Q 4122 884 3614 396 
Q 3106 -91 2203 -91 
Q 1297 -91 786 396 
Q 275 884 275 1747 
Q 275 2609 786 3096 
Q 1297 3584 2203 3584 
z
" transform="scale(0.015625)"/>
      <path id="DejaVuSans-Bold-45" d="M 588 4666 
L 3834 4666 
L 3834 3756 
L 1791 3756 
L 1791 2888 
L 3713 2888 
L 3713 1978 
L 1791 1978 
L 1791 909 
L 3903 909 
L 3903 0 
L 588 0 
L 588 4666 
z
" transform="scale(0.015625)"/>
      <path id="DejaVuSans-Bold-6d" d="M 3781 2919 
Q 3994 3244 4286 3414 
Q 4578 3584 4928 3584 
Q 5531 3584 5847 3212 
Q 6163 2841 6163 2131 
L 6163 0 
L 5038 0 
L 5038 1825 
Q 5041 1866 5042 1909 
Q 5044 1953 5044 2034 
Q 5044 2406 4934 2573 
Q 4825 2741 4581 2741 
Q 4263 2741 4089 2478 
Q 3916 2216 3909 1719 
L 3909 0 
L 2784 0 
L 2784 1825 
Q 2784 2406 2684 2573 
Q 2584 2741 2328 2741 
Q 2006 2741 1831 2477 
Q 1656 2213 1656 1722 
L 1656 0 
L 531 0 
L 531 3500 
L 1656 3500 
L 1656 2988 
Q 1863 3284 2130 3434 
Q 2397 3584 2719 3584 
Q 3081 3584 3359 3409 
Q 3638 3234 3781 2919 
z
" transform="scale(0.015625)"/>
      <path id="DejaVuSans-Bold-70" d="M 1656 506 
L 1656 -1331 
L 538 -1331 
L 538 3500 
L 1656 3500 
L 1656 2988 
Q 1888 3294 2169 3439 
Q 2450 3584 2816 3584 
Q 3463 3584 3878 3070 
Q 4294 2556 4294 1747 
Q 4294 938 3878 423 
Q 3463 -91 2816 -91 
Q 2450 -91 2169 54 
Q 1888 200 1656 506 
z
M 2400 2772 
Q 2041 2772 1848 2508 
Q 1656 2244 1656 1747 
Q 1656 1250 1848 986 
Q 2041 722 2400 722 
Q 2759 722 2948 984 
Q 3138 1247 3138 1747 
Q 3138 2247 2948 2509 
Q 2759 2772 2400 2772 
z
" transform="scale(0.015625)"/>
      <path id="DejaVuSans-Bold-63" d="M 3366 3391 
L 3366 2478 
Q 3138 2634 2908 2709 
Q 2678 2784 2431 2784 
Q 1963 2784 1702 2511 
Q 1441 2238 1441 1747 
Q 1441 1256 1702 982 
Q 1963 709 2431 709 
Q 2694 709 2930 787 
Q 3166 866 3366 1019 
L 3366 103 
Q 3103 6 2833 -42 
Q 2563 -91 2291 -91 
Q 1344 -91 809 395 
Q 275 881 275 1747 
Q 275 2613 809 3098 
Q 1344 3584 2291 3584 
Q 2566 3584 2833 3536 
Q 3100 3488 3366 3391 
z
" transform="scale(0.015625)"/>
      <path id="DejaVuSans-Bold-6c" d="M 538 4863 
L 1656 4863 
L 1656 0 
L 538 0 
L 538 4863 
z
" transform="scale(0.015625)"/>
      <path id="DejaVuSans-Bold-43" d="M 4288 256 
Q 3956 84 3597 -3 
Q 3238 -91 2847 -91 
Q 1681 -91 1000 561 
Q 319 1213 319 2328 
Q 319 3447 1000 4098 
Q 1681 4750 2847 4750 
Q 3238 4750 3597 4662 
Q 3956 4575 4288 4403 
L 4288 3438 
Q 3953 3666 3628 3772 
Q 3303 3878 2944 3878 
Q 2300 3878 1931 3465 
Q 1563 3053 1563 2328 
Q 1563 1606 1931 1193 
Q 2300 781 2944 781 
Q 3303 781 3628 887 
Q 3953 994 4288 1222 
L 4288 256 
z
" transform="scale(0.015625)"/>
      <path id="DejaVuSans-Bold-44" d="M 1791 3756 
L 1791 909 
L 2222 909 
Q 2959 909 3348 1275 
Q 3738 1641 3738 2338 
Q 3738 3031 3350 3393 
Q 2963 3756 2222 3756 
L 1791 3756 
z
M 588 4666 
L 1856 4666 
Q 2919 4666 3439 4514 
Q 3959 4363 4331 4000 
Q 4659 3684 4818 3271 
Q 4978 2859 4978 2338 
Q 4978 1809 4818 1395 
Q 4659 981 4331 666 
Q 3956 303 3431 151 
Q 2906 0 1856 0 
L 588 0 
L 588 4666 
z
" transform="scale(0.015625)"/>
     </defs>
     <use xlink:href="#DejaVuSans-Bold-46"/>
     <use xlink:href="#DejaVuSans-Bold-61" transform="translate(62.435547 0)"/>
     <use xlink:href="#DejaVuSans-Bold-64" transform="translate(129.916016 0)"/>
     <use xlink:href="#DejaVuSans-Bold-69" transform="translate(201.498047 0)"/>
     <use xlink:href="#DejaVuSans-Bold-6e" transform="translate(235.775391 0)"/>
     <use xlink:href="#DejaVuSans-Bold-67" transform="translate(306.966797 0)"/>
     <use xlink:href="#DejaVuSans-Bold-20" transform="translate(378.548828 0)"/>
     <use xlink:href="#DejaVuSans-Bold-56" transform="translate(413.363281 0)"/>
     <use xlink:href="#DejaVuSans-Bold-61" transform="translate(485.255859 0)"/>
     <use xlink:href="#DejaVuSans-Bold-72" transform="translate(552.736328 0)"/>
     <use xlink:href="#DejaVuSans-Bold-69" transform="translate(602.052734 0)"/>
     <use xlink:href="#DejaVuSans-Bold-61" transform="translate(636.330078 0)"/>
     <use xlink:href="#DejaVuSans-Bold-74" transform="translate(703.810547 0)"/>
     <use xlink:href="#DejaVuSans-Bold-69" transform="translate(751.613281 0)"/>
     <use xlink:href="#DejaVuSans-Bold-6f" transform="translate(785.890625 0)"/>
     <use xlink:href="#DejaVuSans-Bold-6e" transform="translate(854.591797 0)"/>
     <use xlink:href="#DejaVuSans-Bold-20" transform="translate(925.783203 0)"/>
     <use xlink:href="#DejaVuSans-Bold-45" transform="translate(960.597656 0)"/>
     <use xlink:href="#DejaVuSans-Bold-6d" transform="translate(1028.908203 0)"/>
     <use xlink:href="#DejaVuSans-Bold-70" transform="translate(1133.107422 0)"/>
     <use xlink:href="#DejaVuSans-Bold-69" transform="translate(1204.689453 0)"/>
     <use xlink:href="#DejaVuSans-Bold-72" transform="translate(1238.966797 0)"/>
     <use xlink:href="#DejaVuSans-Bold-69" transform="translate(1288.283203 0)"/>
     <use xlink:href="#DejaVuSans-Bold-63" transform="translate(1322.560547 0)"/>
     <use xlink:href="#DejaVuSans-Bold-61" transform="translate(1381.837891 0)"/>
     <use xlink:href="#DejaVuSans-Bold-6c" transform="translate(1449.318359 0)"/>
     <use xlink:href="#DejaVuSans-Bold-20" transform="translate(1483.595703 0)"/>
     <use xlink:href="#DejaVuSans-Bold-43" transform="translate(1518.410156 0)"/>
     <use xlink:href="#DejaVuSans-Bold-44" transform="translate(1591.798828 0)"/>
     <use xlink:href="#DejaVuSans-Bold-46" transform="translate(1674.806641 0)"/>
    </g>
   </g>
   <g id="line2d_28">
    <path d="M 298.802669 306.278125 
L 298.802669 15.118125 
" clip-path="url(#p3faef799dd)" style="fill: none; stroke-dasharray: 7.4,3.2; stroke-dashoffset: 0; stroke: #008000; stroke-width: 2"/>
   </g>
   <g id="legend_1">
    <g id="patch_7">
     <path d="M 43.58125 52.474375 
L 166.317188 52.474375 
Q 168.317188 52.474375 168.317188 50.474375 
L 168.317188 22.118125 
Q 168.317188 20.118125 166.317188 20.118125 
L 43.58125 20.118125 
Q 41.58125 20.118125 41.58125 22.118125 
L 41.58125 50.474375 
Q 41.58125 52.474375 43.58125 52.474375 
z
" style="fill: #ffffff; opacity: 0.8; stroke: #cccccc; stroke-linejoin: miter"/>
    </g>
    <g id="line2d_29">
     <path d="M 45.58125 28.216563 
L 55.58125 28.216563 
L 65.58125 28.216563 
" style="fill: none; stroke: #1f77b4; stroke-width: 2; stroke-linecap: square"/>
    </g>
    <g id="text_17">
     <!-- CDF -->
     <g transform="translate(73.58125 31.716563) scale(0.1 -0.1)">
      <use xlink:href="#DejaVuSans-43"/>
      <use xlink:href="#DejaVuSans-44" transform="translate(69.824219 0)"/>
      <use xlink:href="#DejaVuSans-46" transform="translate(146.826172 0)"/>
     </g>
    </g>
    <g id="line2d_30">
     <path d="M 45.58125 42.894688 
L 55.58125 42.894688 
L 65.58125 42.894688 
" style="fill: none; stroke-dasharray: 7.4,3.2; stroke-dashoffset: 0; stroke: #008000; stroke-width: 2"/>
    </g>
    <g id="text_18">
     <!-- 1th pct: -19.68 dB -->
     <g transform="translate(73.58125 46.394688) scale(0.1 -0.1)">
      <defs>
       <path id="DejaVuSans-68" d="M 3513 2113 
L 3513 0 
L 2938 0 
L 2938 2094 
Q 2938 2591 2744 2837 
Q 2550 3084 2163 3084 
Q 1697 3084 1428 2787 
Q 1159 2491 1159 1978 
L 1159 0 
L 581 0 
L 581 4863 
L 1159 4863 
L 1159 2956 
Q 1366 3272 1645 3428 
Q 1925 3584 2291 3584 
Q 2894 3584 3203 3211 
Q 3513 2838 3513 2113 
z
" transform="scale(0.015625)"/>
       <path id="DejaVuSans-70" d="M 1159 525 
L 1159 -1331 
L 581 -1331 
L 581 3500 
L 1159 3500 
L 1159 2969 
Q 1341 3281 1617 3432 
Q 1894 3584 2278 3584 
Q 2916 3584 3314 3078 
Q 3713 2572 3713 1747 
Q 3713 922 3314 415 
Q 2916 -91 2278 -91 
Q 1894 -91 1617 61 
Q 1341 213 1159 525 
z
M 3116 1747 
Q 3116 2381 2855 2742 
Q 2594 3103 2138 3103 
Q 1681 3103 1420 2742 
Q 1159 2381 1159 1747 
Q 1159 1113 1420 752 
Q 1681 391 2138 391 
Q 2594 391 2855 752 
Q 3116 1113 3116 1747 
z
" transform="scale(0.015625)"/>
       <path id="DejaVuSans-63" d="M 3122 3366 
L 3122 2828 
Q 2878 2963 2633 3030 
Q 2388 3097 2138 3097 
Q 1578 3097 1268 2742 
Q 959 2388 959 1747 
Q 959 1106 1268 751 
Q 1578 397 2138 397 
Q 2388 397 2633 464 
Q 2878 531 3122 666 
L 3122 134 
Q 2881 22 2623 -34 
Q 2366 -91 2075 -91 
Q 1284 -91 818 406 
Q 353 903 353 1747 
Q 353 2603 823 3093 
Q 1294 3584 2113 3584 
Q 2378 3584 2631 3529 
Q 2884 3475 3122 3366 
z
" transform="scale(0.015625)"/>
       <path id="DejaVuSans-3a" d="M 750 794 
L 1409 794 
L 1409 0 
L 750 0 
L 750 794 
z
M 750 3309 
L 1409 3309 
L 1409 2516 
L 750 2516 
L 750 3309 
z
" transform="scale(0.015625)"/>
       <path id="DejaVuSans-2d" d="M 313 2009 
L 1997 2009 
L 1997 1497 
L 313 1497 
L 313 2009 
z
" transform="scale(0.015625)"/>
       <path id="DejaVuSans-39" d="M 703 97 
L 703 672 
Q 941 559 1184 500 
Q 1428 441 1663 441 
Q 2288 441 2617 861 
Q 2947 1281 2994 2138 
Q 2813 1869 2534 1725 
Q 2256 1581 1919 1581 
Q 1219 1581 811 2004 
Q 403 2428 403 3163 
Q 403 3881 828 4315 
Q 1253 4750 1959 4750 
Q 2769 4750 3195 4129 
Q 3622 3509 3622 2328 
Q 3622 1225 3098 567 
Q 2575 -91 1691 -91 
Q 1453 -91 1209 -44 
Q 966 3 703 97 
z
M 1959 2075 
Q 2384 2075 2632 2365 
Q 2881 2656 2881 3163 
Q 2881 3666 2632 3958 
Q 2384 4250 1959 4250 
Q 1534 4250 1286 3958 
Q 1038 3666 1038 3163 
Q 1038 2656 1286 2365 
Q 1534 2075 1959 2075 
z
" transform="scale(0.015625)"/>
      </defs>
      <use xlink:href="#DejaVuSans-31"/>
      <use xlink:href="#DejaVuSans-74" transform="translate(63.623047 0)"/>
      <use xlink:href="#DejaVuSans-68" transform="translate(102.832031 0)"/>
      <use xlink:href="#DejaVuSans-20" transform="translate(166.210938 0)"/>
      <use xlink:href="#DejaVuSans-70" transform="translate(197.998047 0)"/>
      <use xlink:href="#DejaVuSans-63" transform="translate(261.474609 0)"/>
      <use xlink:href="#DejaVuSans-74" transform="translate(316.455078 0)"/>
      <use xlink:href="#DejaVuSans-3a" transform="translate(355.664062 0)"/>
      <use xlink:href="#DejaVuSans-20" transform="translate(389.355469 0)"/>
      <use xlink:href="#DejaVuSans-2d" transform="translate(421.142578 0)"/>
      <use xlink:href="#DejaVuSans-31" transform="translate(457.226562 0)"/>
      <use xlink:href="#DejaVuSans-39" transform="translate(520.849609 0)"/>
      <use xlink:href="#DejaVuSans-2e" transform="translate(584.472656 0)"/>
      <use xlink:href="#DejaVuSans-36" transform="translate(616.259766 0)"/>
      <use xlink:href="#DejaVuSans-38" transform="translate(679.882812 0)"/>
      <use xlink:href="#DejaVuSans-20" transform="translate(743.505859 0)"/>
      <use xlink:href="#DejaVuSans-64" transform="translate(775.292969 0)"/>
      <use xlink:href="#DejaVuSans-42" transform="translate(838.769531 0)"/>
     </g>
    </g>
   </g>
  </g>
 </g>
 <defs>
  <clipPath id="p3faef799dd">
   <rect x="36.58125" y="15.118125" width="517.48" height="291.16"/>
  </clipPath>
 </defs>
</svg>
