<?xml version="1.0" encoding="utf-8" standalone="no"?>
<!DOCTYPE svg PUBLIC "-//W3C//DTD SVG 1.1//EN"
  "http://www.w3.org/Graphics/SVG/1.1/DTD/svg11.dtd">
<svg xmlns:xlink="http://www.w3.org/1999/xlink" width="568.46125pt" height="351.034375pt" viewBox="0 0 568.46125 351.034375" xmlns="http://www.w3.org/2000/svg" version="1.1">
 <metadata>
  <rdf:RDF xmlns:dc="http://purl.org/dc/elements/1.1/" xmlns:cc="http://creativecommons.org/ns#" xmlns:rdf="http://www.w3.org/1999/02/22-rdf-syntax-ns#">
   <cc:Work>
    <dc:type rdf:resource="http://purl.org/dc/dcmitype/StillImage"/>
    <dc:date>2026-04-21T09:31:22.444217</dc:date>
    <dc:format>image/svg+xml</dc:format>
    <dc:creator>
     <cc:Agent>
      <dc:title>Matplotlib v3.10.8, https://matplotlib.org/</dc:title>
     </cc:Agent>
    </dc:creator>
   </cc:Work>
  </rdf:RDF>
 </metadata>
 <defs>
  <style type="text/css">*{stroke-linejoin: round; stroke-linecap: butt}</style>
 </defs>
 <g id="figure_1">
  <g id="patch_1">
   <path d="M 0 351.034375 
L 568.46125 351.034375 
L 568.46125 0 
L 0 0 
z
" style="fill: #ffffff"/>
  </g>
  <g id="axes_1">
   <g id="patch_2">
    <path d="M 43.78125 313.478125 
L 561.26125 313.478125 
L 561.26125 22.318125 
L 43.78125 22.318125 
z
" style="fill: #ffffff"/>
   </g>
   <g id="matplotlib.axis_1">
    <g id="xtick_1">
     <g id="line2d_1">
      <path d="M 62.011816 313.478125 
L 62.011816 22.318125 
" clip-path="url(#p6c5e32d37b)" style="fill: none; stroke: #b0b0b0; stroke-opacity: 0.25; stroke-width: 0.8; stroke-linecap: square"/>
     </g>
     <g id="line2d_2">
      <defs>
       <path id="m8213f6004b" d="M 0 0 
L 0 3.5 
" style="stroke: #000000; stroke-width: 0.8"/>
      </defs>
      <g>
       <use xlink:href="#m8213f6004b" x="62.011816" y="313.478125" style="stroke: #000000; stroke-width: 0.8"/>
      </g>
     </g>
     <g id="text_1">
      <!-- −50 -->
      <g transform="translate(51.459472 328.076563) scale(0.1 -0.1)">
       <defs>
        <path id="DejaVuSans-2212" d="M 678 2272 
L 4684 2272 
L 4684 1741 
L 678 1741 
L 678 2272 
z
" transform="scale(0.015625)"/>
        <path id="DejaVuSans-35" d="M 691 4666 
L 3169 4666 
L 3169 4134 
L 1269 4134 
L 1269 2991 
Q 1406 3038 1543 3061 
Q 1681 3084 1819 3084 
Q 2600 3084 3056 2656 
Q 3513 2228 3513 1497 
Q 3513 744 3044 326 
Q 2575 -91 1722 -91 
Q 1428 -91 1123 -41 
Q 819 9 494 109 
L 494 744 
Q 775 591 1075 516 
Q 1375 441 1709 441 
Q 2250 441 2565 725 
Q 2881 1009 2881 1497 
Q 2881 1984 2565 2268 
Q 2250 2553 1709 2553 
Q 1456 2553 1204 2497 
Q 953 2441 691 2322 
L 691 4666 
z
" transform="scale(0.015625)"/>
        <path id="DejaVuSans-30" d="M 2034 4250 
Q 1547 4250 1301 3770 
Q 1056 3291 1056 2328 
Q 1056 1369 1301 889 
Q 1547 409 2034 409 
Q 2525 409 2770 889 
Q 3016 1369 3016 2328 
Q 3016 3291 2770 3770 
Q 2525 4250 2034 4250 
z
M 2034 4750 
Q 2819 4750 3233 4129 
Q 3647 3509 3647 2328 
Q 3647 1150 3233 529 
Q 2819 -91 2034 -91 
Q 1250 -91 836 529 
Q 422 1150 422 2328 
Q 422 3509 836 4129 
Q 1250 4750 2034 4750 
z
" transform="scale(0.015625)"/>
       </defs>
       <use xlink:href="#DejaVuSans-2212"/>
       <use xlink:href="#DejaVuSans-35" transform="translate(83.789062 0)"/>
       <use xlink:href="#DejaVuSans-30" transform="translate(147.412109 0)"/>
      </g>
     </g>
    </g>
    <g id="xtick_2">
     <g id="line2d_3">
      <path d="M 142.47516 313.478125 
L 142.47516 22.318125 
" clip-path="url(#p6c5e32d37b)" style="fill: none; stroke: #b0b0b0; stroke-opacity: 0.25; stroke-width: 0.8; stroke-linecap: square"/>
     </g>
     <g id="line2d_4">
      <g>
       <use xlink:href="#m8213f6004b" x="142.47516" y="313.478125" style="stroke: #000000; stroke-width: 0.8"/>
      </g>
     </g>
     <g id="text_2">
      <!-- −40 -->
      <g transform="translate(131.922816 328.076563) scale(0.1 -0.1)">
       <defs>
        <path id="DejaVuSans-34" d="M 2419 4116 
L 825 1625 
L 2419 1625 
L 2419 4116 
z
M 2253 4666 
L 3047 4666 
L 3047 1625 
L 3713 1625 
L 3713 1100 
L 3047 1100 
L 3047 0 
L 2419 0 
L 2419 1100 
L 313 1100 
L 313 1709 
L 2253 4666 
z
" transform="scale(0.015625)"/>
       </defs>
       <use xlink:href="#DejaVuSans-2212"/>
       <use xlink:href="#DejaVuSans-34" transform="translate(83.789062 0)"/>
       <use xlink:href="#DejaVuSans-30" transform="translate(147.412109 0)"/>
      </g>
     </g>
    </g>
    <g id="xtick_3">
     <g id="line2d_5">
      <path d="M 222.938504 313.478125 
L 222.938504 22.318125 
" clip-path="url(#p6c5e32d37b)" style="fill: none; stroke: #b0b0b0; stroke-opacity: 0.25; stroke-width: 0.8; stroke-linecap: square"/>
     </g>
     <g id="line2d_6">
      <g>
       <use xlink:href="#m8213f6004b" x="222.938504" y="313.478125" style="stroke: #000000; stroke-width: 0.8"/>
      </g>
     </g>
     <g id="text_3">
      <!-- −30 -->
      <g transform="translate(212.38616 328.076563) scale(0.1 -0.1)">
       <defs>
        <path id="DejaVuSans-33" d="M 2597 2516 
Q 3050 2419 3304 2112 
Q 3559 1806 3559 1356 
Q 3559 666 3084 287 
Q 2609 -91 1734 -91 
Q 1441 -91 1130 -33 
Q 819 25 488 141 
L 488 750 
Q 750 597 1062 519 
Q 1375 441 1716 441 
Q 2309 441 2620 675 
Q 2931 909 2931 1356 
Q 2931 1769 2642 2001 
Q 2353 2234 1838 2234 
L 1294 2234 
L 1294 2753 
L 1863 2753 
Q 2328 2753 2575 2939 
Q 2822 3125 2822 3475 
Q 2822 3834 2567 4026 
Q 2313 4219 1838 4219 
Q 1578 4219 1281 4162 
Q 984 4106 628 3988 
L 628 4550 
Q 988 4650 1302 4700 
Q 1616 4750 1894 4750 
Q 2613 4750 3031 4423 
Q 3450 4097 3450 3541 
Q 3450 3153 3228 2886 
Q 3006 2619 2597 2516 
z
" transform="scale(0.015625)"/>
       </defs>
       <use xlink:href="#DejaVuSans-2212"/>
       <use xlink:href="#DejaVuSans-33" transform="translate(83.789062 0)"/>
       <use xlink:href="#DejaVuSans-30" transform="translate(147.412109 0)"/>
      </g>
     </g>
    </g>
    <g id="xtick_4">
     <g id="line2d_7">
      <path d="M 303.401848 313.478125 
L 303.401848 22.318125 
" clip-path="url(#p6c5e32d37b)" style="fill: none; stroke: #b0b0b0; stroke-opacity: 0.25; stroke-width: 0.8; stroke-linecap: square"/>
     </g>
     <g id="line2d_8">
      <g>
       <use xlink:href="#m8213f6004b" x="303.401848" y="313.478125" style="stroke: #000000; stroke-width: 0.8"/>
      </g>
     </g>
     <g id="text_4">
      <!-- −20 -->
      <g transform="translate(292.849504 328.076563) scale(0.1 -0.1)">
       <defs>
        <path id="DejaVuSans-32" d="M 1228 531 
L 3431 531 
L 3431 0 
L 469 0 
L 469 531 
Q 828 903 1448 1529 
Q 2069 2156 2228 2338 
Q 2531 2678 2651 2914 
Q 2772 3150 2772 3378 
Q 2772 3750 2511 3984 
Q 2250 4219 1831 4219 
Q 1534 4219 1204 4116 
Q 875 4013 500 3803 
L 500 4441 
Q 881 4594 1212 4672 
Q 1544 4750 1819 4750 
Q 2544 4750 2975 4387 
Q 3406 4025 3406 3419 
Q 3406 3131 3298 2873 
Q 3191 2616 2906 2266 
Q 2828 2175 2409 1742 
Q 1991 1309 1228 531 
z
" transform="scale(0.015625)"/>
       </defs>
       <use xlink:href="#DejaVuSans-2212"/>
       <use xlink:href="#DejaVuSans-32" transform="translate(83.789062 0)"/>
       <use xlink:href="#DejaVuSans-30" transform="translate(147.412109 0)"/>
      </g>
     </g>
    </g>
    <g id="xtick_5">
     <g id="line2d_9">
      <path d="M 383.865192 313.478125 
L 383.865192 22.318125 
" clip-path="url(#p6c5e32d37b)" style="fill: none; stroke: #b0b0b0; stroke-opacity: 0.25; stroke-width: 0.8; stroke-linecap: square"/>
     </g>
     <g id="line2d_10">
      <g>
       <use xlink:href="#m8213f6004b" x="383.865192" y="313.478125" style="stroke: #000000; stroke-width: 0.8"/>
      </g>
     </g>
     <g id="text_5">
      <!-- −10 -->
      <g transform="translate(373.312848 328.076563) scale(0.1 -0.1)">
       <defs>
        <path id="DejaVuSans-31" d="M 794 531 
L 1825 531 
L 1825 4091 
L 703 3866 
L 703 4441 
L 1819 4666 
L 2450 4666 
L 2450 531 
L 3481 531 
L 3481 0 
L 794 0 
L 794 531 
z
" transform="scale(0.015625)"/>
       </defs>
       <use xlink:href="#DejaVuSans-2212"/>
       <use xlink:href="#DejaVuSans-31" transform="translate(83.789062 0)"/>
       <use xlink:href="#DejaVuSans-30" transform="translate(147.412109 0)"/>
      </g>
     </g>
    </g>
    <g id="xtick_6">
     <g id="line2d_11">
      <path d="M 464.328536 313.478125 
L 464.328536 22.318125 
" clip-path="url(#p6c5e32d37b)" style="fill: none; stroke: #b0b0b0; stroke-opacity: 0.25; stroke-width: 0.8; stroke-linecap: square"/>
     </g>
     <g id="line2d_12">
      <g>
       <use xlink:href="#m8213f6004b" x="464.328536" y="313.478125" style="stroke: #000000; stroke-width: 0.8"/>
      </g>
     </g>
     <g id="text_6">
      <!-- 0 -->
      <g transform="translate(461.147286 328.076563) scale(0.1 -0.1)">
       <use xlink:href="#DejaVuSans-30"/>
      </g>
     </g>
    </g>
    <g id="xtick_7">
     <g id="line2d_13">
      <path d="M 544.79188 313.478125 
L 544.79188 22.318125 
" clip-path="url(#p6c5e32d37b)" style="fill: none; stroke: #b0b0b0; stroke-opacity: 0.25; stroke-width: 0.8; stroke-linecap: square"/>
     </g>
     <g id="line2d_14">
      <g>
       <use xlink:href="#m8213f6004b" x="544.79188" y="313.478125" style="stroke: #000000; stroke-width: 0.8"/>
      </g>
     </g>
     <g id="text_7">
      <!-- 10 -->
      <g transform="translate(538.42938 328.076563) scale(0.1 -0.1)">
       <use xlink:href="#DejaVuSans-31"/>
       <use xlink:href="#DejaVuSans-30" transform="translate(63.623047 0)"/>
      </g>
     </g>
    </g>
    <g id="text_8">
     <!-- Fading variation (dB) -->
     <g transform="translate(250.337656 341.754687) scale(0.1 -0.1)">
      <defs>
       <path id="DejaVuSans-46" d="M 628 4666 
L 3309 4666 
L 3309 4134 
L 1259 4134 
L 1259 2759 
L 3109 2759 
L 3109 2228 
L 1259 2228 
L 1259 0 
L 628 0 
L 628 4666 
z
" transform="scale(0.015625)"/>
       <path id="DejaVuSans-61" d="M 2194 1759 
Q 1497 1759 1228 1600 
Q 959 1441 959 1056 
Q 959 750 1161 570 
Q 1363 391 1709 391 
Q 2188 391 2477 730 
Q 2766 1069 2766 1631 
L 2766 1759 
L 2194 1759 
z
M 3341 1997 
L 3341 0 
L 2766 0 
L 2766 531 
Q 2569 213 2275 61 
Q 1981 -91 1556 -91 
Q 1019 -91 701 211 
Q 384 513 384 1019 
Q 384 1609 779 1909 
Q 1175 2209 1959 2209 
L 2766 2209 
L 2766 2266 
Q 2766 2663 2505 2880 
Q 2244 3097 1772 3097 
Q 1472 3097 1187 3025 
Q 903 2953 641 2809 
L 641 3341 
Q 956 3463 1253 3523 
Q 1550 3584 1831 3584 
Q 2591 3584 2966 3190 
Q 3341 2797 3341 1997 
z
" transform="scale(0.015625)"/>
       <path id="DejaVuSans-64" d="M 2906 2969 
L 2906 4863 
L 3481 4863 
L 3481 0 
L 2906 0 
L 2906 525 
Q 2725 213 2448 61 
Q 2172 -91 1784 -91 
Q 1150 -91 751 415 
Q 353 922 353 1747 
Q 353 2572 751 3078 
Q 1150 3584 1784 3584 
Q 2172 3584 2448 3432 
Q 2725 3281 2906 2969 
z
M 947 1747 
Q 947 1113 1208 752 
Q 1469 391 1925 391 
Q 2381 391 2643 752 
Q 2906 1113 2906 1747 
Q 2906 2381 2643 2742 
Q 2381 3103 1925 3103 
Q 1469 3103 1208 2742 
Q 947 2381 947 1747 
z
" transform="scale(0.015625)"/>
       <path id="DejaVuSans-69" d="M 603 3500 
L 1178 3500 
L 1178 0 
L 603 0 
L 603 3500 
z
M 603 4863 
L 1178 4863 
L 1178 4134 
L 603 4134 
L 603 4863 
z
" transform="scale(0.015625)"/>
       <path id="DejaVuSans-6e" d="M 3513 2113 
L 3513 0 
L 2938 0 
L 2938 2094 
Q 2938 2591 2744 2837 
Q 2550 3084 2163 3084 
Q 1697 3084 1428 2787 
Q 1159 2491 1159 1978 
L 1159 0 
L 581 0 
L 581 3500 
L 1159 3500 
L 1159 2956 
Q 1366 3272 1645 3428 
Q 1925 3584 2291 3584 
Q 2894 3584 3203 3211 
Q 3513 2838 3513 2113 
z
" transform="scale(0.015625)"/>
       <path id="DejaVuSans-67" d="M 2906 1791 
Q 2906 2416 2648 2759 
Q 2391 3103 1925 3103 
Q 1463 3103 1205 2759 
Q 947 2416 947 1791 
Q 947 1169 1205 825 
Q 1463 481 1925 481 
Q 2391 481 2648 825 
Q 2906 1169 2906 1791 
z
M 3481 434 
Q 3481 -459 3084 -895 
Q 2688 -1331 1869 -1331 
Q 1566 -1331 1297 -1286 
Q 1028 -1241 775 -1147 
L 775 -588 
Q 1028 -725 1275 -790 
Q 1522 -856 1778 -856 
Q 2344 -856 2625 -561 
Q 2906 -266 2906 331 
L 2906 616 
Q 2728 306 2450 153 
Q 2172 0 1784 0 
Q 1141 0 747 490 
Q 353 981 353 1791 
Q 353 2603 747 3093 
Q 1141 3584 1784 3584 
Q 2172 3584 2450 3431 
Q 2728 3278 2906 2969 
L 2906 3500 
L 3481 3500 
L 3481 434 
z
" transform="scale(0.015625)"/>
       <path id="DejaVuSans-20" transform="scale(0.015625)"/>
       <path id="DejaVuSans-76" d="M 191 3500 
L 800 3500 
L 1894 563 
L 2988 3500 
L 3597 3500 
L 2284 0 
L 1503 0 
L 191 3500 
z
" transform="scale(0.015625)"/>
       <path id="DejaVuSans-72" d="M 2631 2963 
Q 2534 3019 2420 3045 
Q 2306 3072 2169 3072 
Q 1681 3072 1420 2755 
Q 1159 2438 1159 1844 
L 1159 0 
L 581 0 
L 581 3500 
L 1159 3500 
L 1159 2956 
Q 1341 3275 1631 3429 
Q 1922 3584 2338 3584 
Q 2397 3584 2469 3576 
Q 2541 3569 2628 3553 
L 2631 2963 
z
" transform="scale(0.015625)"/>
       <path id="DejaVuSans-74" d="M 1172 4494 
L 1172 3500 
L 2356 3500 
L 2356 3053 
L 1172 3053 
L 1172 1153 
Q 1172 725 1289 603 
Q 1406 481 1766 481 
L 2356 481 
L 2356 0 
L 1766 0 
Q 1100 0 847 248 
Q 594 497 594 1153 
L 594 3053 
L 172 3053 
L 172 3500 
L 594 3500 
L 594 4494 
L 1172 4494 
z
" transform="scale(0.015625)"/>
       <path id="DejaVuSans-6f" d="M 1959 3097 
Q 1497 3097 1228 2736 
Q 959 2375 959 1747 
Q 959 1119 1226 758 
Q 1494 397 1959 397 
Q 2419 397 2687 759 
Q 2956 1122 2956 1747 
Q 2956 2369 2687 2733 
Q 2419 3097 1959 3097 
z
M 1959 3584 
Q 2709 3584 3137 3096 
Q 3566 2609 3566 1747 
Q 3566 888 3137 398 
Q 2709 -91 1959 -91 
Q 1206 -91 779 398 
Q 353 888 353 1747 
Q 353 2609 779 3096 
Q 1206 3584 1959 3584 
z
" transform="scale(0.015625)"/>
       <path id="DejaVuSans-28" d="M 1984 4856 
Q 1566 4138 1362 3434 
Q 1159 2731 1159 2009 
Q 1159 1288 1364 580 
Q 1569 -128 1984 -844 
L 1484 -844 
Q 1016 -109 783 600 
Q 550 1309 550 2009 
Q 550 2706 781 3412 
Q 1013 4119 1484 4856 
L 1984 4856 
z
" transform="scale(0.015625)"/>
       <path id="DejaVuSans-42" d="M 1259 2228 
L 1259 519 
L 2272 519 
Q 2781 519 3026 730 
Q 3272 941 3272 1375 
Q 3272 1813 3026 2020 
Q 2781 2228 2272 2228 
L 1259 2228 
z
M 1259 4147 
L 1259 2741 
L 2194 2741 
Q 2656 2741 2882 2914 
Q 3109 3088 3109 3444 
Q 3109 3797 2882 3972 
Q 2656 4147 2194 4147 
L 1259 4147 
z
M 628 4666 
L 2241 4666 
Q 2963 4666 3353 4366 
Q 3744 4066 3744 3513 
Q 3744 3084 3544 2831 
Q 3344 2578 2956 2516 
Q 3422 2416 3680 2098 
Q 3938 1781 3938 1306 
Q 3938 681 3513 340 
Q 3088 0 2303 0 
L 628 0 
L 628 4666 
z
" transform="scale(0.015625)"/>
       <path id="DejaVuSans-29" d="M 513 4856 
L 1013 4856 
Q 1481 4119 1714 3412 
Q 1947 2706 1947 2009 
Q 1947 1309 1714 600 
Q 1481 -109 1013 -844 
L 513 -844 
Q 928 -128 1133 580 
Q 1338 1288 1338 2009 
Q 1338 2731 1133 3434 
Q 928 4138 513 4856 
z
" transform="scale(0.015625)"/>
      </defs>
      <use xlink:href="#DejaVuSans-46"/>
      <use xlink:href="#DejaVuSans-61" transform="translate(48.394531 0)"/>
      <use xlink:href="#DejaVuSans-64" transform="translate(109.673828 0)"/>
      <use xlink:href="#DejaVuSans-69" transform="translate(173.150391 0)"/>
      <use xlink:href="#DejaVuSans-6e" transform="translate(200.933594 0)"/>
      <use xlink:href="#DejaVuSans-67" transform="translate(264.3125 0)"/>
      <use xlink:href="#DejaVuSans-20" transform="translate(327.789062 0)"/>
      <use xlink:href="#DejaVuSans-76" transform="translate(359.576172 0)"/>
      <use xlink:href="#DejaVuSans-61" transform="translate(418.755859 0)"/>
      <use xlink:href="#DejaVuSans-72" transform="translate(480.035156 0)"/>
      <use xlink:href="#DejaVuSans-69" transform="translate(521.148438 0)"/>
      <use xlink:href="#DejaVuSans-61" transform="translate(548.931641 0)"/>
      <use xlink:href="#DejaVuSans-74" transform="translate(610.210938 0)"/>
      <use xlink:href="#DejaVuSans-69" transform="translate(649.419922 0)"/>
      <use xlink:href="#DejaVuSans-6f" transform="translate(677.203125 0)"/>
      <use xlink:href="#DejaVuSans-6e" transform="translate(738.384766 0)"/>
      <use xlink:href="#DejaVuSans-20" transform="translate(801.763672 0)"/>
      <use xlink:href="#DejaVuSans-28" transform="translate(833.550781 0)"/>
      <use xlink:href="#DejaVuSans-64" transform="translate(872.564453 0)"/>
      <use xlink:href="#DejaVuSans-42" transform="translate(936.041016 0)"/>
      <use xlink:href="#DejaVuSans-29" transform="translate(1004.644531 0)"/>
     </g>
    </g>
   </g>
   <g id="matplotlib.axis_2">
    <g id="ytick_1">
     <g id="line2d_15">
      <path d="M 43.78125 300.270051 
L 561.26125 300.270051 
" clip-path="url(#p6c5e32d37b)" style="fill: none; stroke: #b0b0b0; stroke-opacity: 0.25; stroke-width: 0.8; stroke-linecap: square"/>
     </g>
     <g id="line2d_16">
      <defs>
       <path id="m50865ba446" d="M 0 0 
L -3.5 0 
" style="stroke: #000000; stroke-width: 0.8"/>
      </defs>
      <g>
       <use xlink:href="#m50865ba446" x="43.78125" y="300.270051" style="stroke: #000000; stroke-width: 0.8"/>
      </g>
     </g>
     <g id="text_9">
      <!-- 0.0 -->
      <g transform="translate(20.878125 304.06927) scale(0.1 -0.1)">
       <defs>
        <path id="DejaVuSans-2e" d="M 684 794 
L 1344 794 
L 1344 0 
L 684 0 
L 684 794 
z
" transform="scale(0.015625)"/>
       </defs>
       <use xlink:href="#DejaVuSans-30"/>
       <use xlink:href="#DejaVuSans-2e" transform="translate(63.623047 0)"/>
       <use xlink:href="#DejaVuSans-30" transform="translate(95.410156 0)"/>
      </g>
     </g>
    </g>
    <g id="ytick_2">
     <g id="line2d_17">
      <path d="M 43.78125 247.326575 
L 561.26125 247.326575 
" clip-path="url(#p6c5e32d37b)" style="fill: none; stroke: #b0b0b0; stroke-opacity: 0.25; stroke-width: 0.8; stroke-linecap: square"/>
     </g>
     <g id="line2d_18">
      <g>
       <use xlink:href="#m50865ba446" x="43.78125" y="247.326575" style="stroke: #000000; stroke-width: 0.8"/>
      </g>
     </g>
     <g id="text_10">
      <!-- 0.2 -->
      <g transform="translate(20.878125 251.125794) scale(0.1 -0.1)">
       <use xlink:href="#DejaVuSans-30"/>
       <use xlink:href="#DejaVuSans-2e" transform="translate(63.623047 0)"/>
       <use xlink:href="#DejaVuSans-32" transform="translate(95.410156 0)"/>
      </g>
     </g>
    </g>
    <g id="ytick_3">
     <g id="line2d_19">
      <path d="M 43.78125 194.383099 
L 561.26125 194.383099 
" clip-path="url(#p6c5e32d37b)" style="fill: none; stroke: #b0b0b0; stroke-opacity: 0.25; stroke-width: 0.8; stroke-linecap: square"/>
     </g>
     <g id="line2d_20">
      <g>
       <use xlink:href="#m50865ba446" x="43.78125" y="194.383099" style="stroke: #000000; stroke-width: 0.8"/>
      </g>
     </g>
     <g id="text_11">
      <!-- 0.4 -->
      <g transform="translate(20.878125 198.182318) scale(0.1 -0.1)">
       <use xlink:href="#DejaVuSans-30"/>
       <use xlink:href="#DejaVuSans-2e" transform="translate(63.623047 0)"/>
       <use xlink:href="#DejaVuSans-34" transform="translate(95.410156 0)"/>
      </g>
     </g>
    </g>
    <g id="ytick_4">
     <g id="line2d_21">
      <path d="M 43.78125 141.439623 
L 561.26125 141.439623 
" clip-path="url(#p6c5e32d37b)" style="fill: none; stroke: #b0b0b0; stroke-opacity: 0.25; stroke-width: 0.8; stroke-linecap: square"/>
     </g>
     <g id="line2d_22">
      <g>
       <use xlink:href="#m50865ba446" x="43.78125" y="141.439623" style="stroke: #000000; stroke-width: 0.8"/>
      </g>
     </g>
     <g id="text_12">
      <!-- 0.6 -->
      <g transform="translate(20.878125 145.238842) scale(0.1 -0.1)">
       <defs>
        <path id="DejaVuSans-36" d="M 2113 2584 
Q 1688 2584 1439 2293 
Q 1191 2003 1191 1497 
Q 1191 994 1439 701 
Q 1688 409 2113 409 
Q 2538 409 2786 701 
Q 3034 994 3034 1497 
Q 3034 2003 2786 2293 
Q 2538 2584 2113 2584 
z
M 3366 4563 
L 3366 3988 
Q 3128 4100 2886 4159 
Q 2644 4219 2406 4219 
Q 1781 4219 1451 3797 
Q 1122 3375 1075 2522 
Q 1259 2794 1537 2939 
Q 1816 3084 2150 3084 
Q 2853 3084 3261 2657 
Q 3669 2231 3669 1497 
Q 3669 778 3244 343 
Q 2819 -91 2113 -91 
Q 1303 -91 875 529 
Q 447 1150 447 2328 
Q 447 3434 972 4092 
Q 1497 4750 2381 4750 
Q 2619 4750 2861 4703 
Q 3103 4656 3366 4563 
z
" transform="scale(0.015625)"/>
       </defs>
       <use xlink:href="#DejaVuSans-30"/>
       <use xlink:href="#DejaVuSans-2e" transform="translate(63.623047 0)"/>
       <use xlink:href="#DejaVuSans-36" transform="translate(95.410156 0)"/>
      </g>
     </g>
    </g>
    <g id="ytick_5">
     <g id="line2d_23">
      <path d="M 43.78125 88.496147 
L 561.26125 88.496147 
" clip-path="url(#p6c5e32d37b)" style="fill: none; stroke: #b0b0b0; stroke-opacity: 0.25; stroke-width: 0.8; stroke-linecap: square"/>
     </g>
     <g id="line2d_24">
      <g>
       <use xlink:href="#m50865ba446" x="43.78125" y="88.496147" style="stroke: #000000; stroke-width: 0.8"/>
      </g>
     </g>
     <g id="text_13">
      <!-- 0.8 -->
      <g transform="translate(20.878125 92.295365) scale(0.1 -0.1)">
       <defs>
        <path id="DejaVuSans-38" d="M 2034 2216 
Q 1584 2216 1326 1975 
Q 1069 1734 1069 1313 
Q 1069 891 1326 650 
Q 1584 409 2034 409 
Q 2484 409 2743 651 
Q 3003 894 3003 1313 
Q 3003 1734 2745 1975 
Q 2488 2216 2034 2216 
z
M 1403 2484 
Q 997 2584 770 2862 
Q 544 3141 544 3541 
Q 544 4100 942 4425 
Q 1341 4750 2034 4750 
Q 2731 4750 3128 4425 
Q 3525 4100 3525 3541 
Q 3525 3141 3298 2862 
Q 3072 2584 2669 2484 
Q 3125 2378 3379 2068 
Q 3634 1759 3634 1313 
Q 3634 634 3220 271 
Q 2806 -91 2034 -91 
Q 1263 -91 848 271 
Q 434 634 434 1313 
Q 434 1759 690 2068 
Q 947 2378 1403 2484 
z
M 1172 3481 
Q 1172 3119 1398 2916 
Q 1625 2713 2034 2713 
Q 2441 2713 2670 2916 
Q 2900 3119 2900 3481 
Q 2900 3844 2670 4047 
Q 2441 4250 2034 4250 
Q 1625 4250 1398 4047 
Q 1172 3844 1172 3481 
z
" transform="scale(0.015625)"/>
       </defs>
       <use xlink:href="#DejaVuSans-30"/>
       <use xlink:href="#DejaVuSans-2e" transform="translate(63.623047 0)"/>
       <use xlink:href="#DejaVuSans-38" transform="translate(95.410156 0)"/>
      </g>
     </g>
    </g>
    <g id="ytick_6">
     <g id="line2d_25">
      <path d="M 43.78125 35.55267 
L 561.26125 35.55267 
" clip-path="url(#p6c5e32d37b)" style="fill: none; stroke: #b0b0b0; stroke-opacity: 0.25; stroke-width: 0.8; stroke-linecap: square"/>
     </g>
     <g id="line2d_26">
      <g>
       <use xlink:href="#m50865ba446" x="43.78125" y="35.55267" style="stroke: #000000; stroke-width: 0.8"/>
      </g>
     </g>
     <g id="text_14">
      <!-- 1.0 -->
      <g transform="translate(20.878125 39.351889) scale(0.1 -0.1)">
       <use xlink:href="#DejaVuSans-31"/>
       <use xlink:href="#DejaVuSans-2e" transform="translate(63.623047 0)"/>
       <use xlink:href="#DejaVuSans-30" transform="translate(95.410156 0)"/>
      </g>
     </g>
    </g>
    <g id="text_15">
     <!-- CDF -->
     <g transform="translate(14.798438 178.115313) rotate(-90) scale(0.1 -0.1)">
      <defs>
       <path id="DejaVuSans-43" d="M 4122 4306 
L 4122 3641 
Q 3803 3938 3442 4084 
Q 3081 4231 2675 4231 
Q 1875 4231 1450 3742 
Q 1025 3253 1025 2328 
Q 1025 1406 1450 917 
Q 1875 428 2675 428 
Q 3081 428 3442 575 
Q 3803 722 4122 1019 
L 4122 359 
Q 3791 134 3420 21 
Q 3050 -91 2638 -91 
Q 1578 -91 968 557 
Q 359 1206 359 2328 
Q 359 3453 968 4101 
Q 1578 4750 2638 4750 
Q 3056 4750 3426 4639 
Q 3797 4528 4122 4306 
z
" transform="scale(0.015625)"/>
       <path id="DejaVuSans-44" d="M 1259 4147 
L 1259 519 
L 2022 519 
Q 2988 519 3436 956 
Q 3884 1394 3884 2338 
Q 3884 3275 3436 3711 
Q 2988 4147 2022 4147 
L 1259 4147 
z
M 628 4666 
L 1925 4666 
Q 3281 4666 3915 4102 
Q 4550 3538 4550 2338 
Q 4550 1131 3912 565 
Q 3275 0 1925 0 
L 628 0 
L 628 4666 
z
" transform="scale(0.015625)"/>
      </defs>
      <use xlink:href="#DejaVuSans-43"/>
      <use xlink:href="#DejaVuSans-44" transform="translate(69.824219 0)"/>
      <use xlink:href="#DejaVuSans-46" transform="translate(146.826172 0)"/>
     </g>
    </g>
   </g>
   <g id="line2d_27">
    <path d="M 67.303068 300.24358 
L 173.497145 300.058277 
L 214.693404 299.899447 
L 268.306822 299.502371 
L 273.055891 299.370012 
L 281.631347 299.105295 
L 287.841088 298.840577 
L 295.042716 298.496445 
L 298.359642 298.311143 
L 300.517757 298.152312 
L 301.919745 297.940538 
L 303.469088 297.781708 
L 303.502687 297.755236 
L 305.335295 297.649349 
L 308.148873 297.411104 
L 308.567119 297.35816 
L 310.335838 297.093443 
L 311.148099 296.987556 
L 312.826116 296.802254 
L 317.107355 296.405178 
L 320.545973 296.061045 
L 320.639464 296.034573 
L 323.261924 295.849271 
L 323.370856 295.822799 
L 324.321471 295.690441 
L 325.271966 295.452195 
L 326.433932 295.319836 
L 326.521201 295.240421 
L 328.573112 294.92276 
L 328.993125 294.869817 
L 329.760871 294.737458 
L 332.244072 294.287438 
L 332.245816 294.260967 
L 333.61217 294.102136 
L 334.881198 293.837419 
L 338.070384 293.122682 
L 340.0302 292.93738 
L 340.301379 292.884436 
L 341.485207 292.699134 
L 342.820956 292.48736 
L 343.087065 292.381473 
L 343.657563 292.196171 
L 343.730968 292.116756 
L 345.491731 291.825567 
L 345.683053 291.772623 
L 346.176509 291.613793 
L 348.11512 291.190245 
L 349.25546 290.978471 
L 350.917528 290.581395 
L 351.538011 290.369621 
L 351.982939 290.025489 
L 352.29801 289.840186 
L 352.845307 289.548997 
L 352.867935 289.469582 
L 353.952472 289.151921 
L 354.65484 288.913676 
L 355.682983 288.754845 
L 357.347926 288.145995 
L 358.634073 287.881278 
L 360.944413 286.981239 
L 361.143071 286.928295 
L 361.430803 286.795937 
L 361.581185 286.69005 
L 361.829239 286.531219 
L 361.974387 286.372389 
L 362.187013 286.160615 
L 362.509041 286.028256 
L 365.243996 284.942915 
L 365.326195 284.810556 
L 365.736862 284.651726 
L 366.217924 284.334065 
L 367.055956 284.201706 
L 368.442152 283.619328 
L 370.87385 282.4281 
L 370.940175 282.348685 
L 371.201561 282.189854 
L 371.264174 282.083967 
L 371.703157 281.845722 
L 371.79911 281.792778 
L 373.94546 280.442719 
L 374.462891 280.072115 
L 374.927566 279.860341 
L 375.115023 279.780926 
L 375.433274 279.595624 
L 375.585568 279.463265 
L 376.107938 279.22502 
L 376.211008 279.092661 
L 376.535577 278.93383 
L 376.883465 278.642641 
L 377.418059 278.32498 
L 377.599222 278.16615 
L 377.793557 278.060263 
L 378.179818 277.874961 
L 379.899258 276.763148 
L 380.008569 276.630789 
L 380.571406 276.260185 
L 380.615964 276.207241 
L 380.900627 276.048411 
L 380.99771 275.968996 
L 381.244153 275.73075 
L 381.315518 275.651335 
L 381.66805 275.386617 
L 381.768099 275.254259 
L 382.306271 275.042485 
L 382.872777 274.698352 
L 383.225633 274.539522 
L 383.406529 274.35422 
L 383.712687 274.195389 
L 384.235436 273.877728 
L 384.537032 273.718898 
L 384.711023 273.586539 
L 384.962566 273.401237 
L 385.150708 273.268878 
L 385.50326 273.110048 
L 385.588901 273.004161 
L 386.048731 272.739444 
L 386.228497 272.554142 
L 386.381167 272.421783 
L 386.381425 272.395311 
L 386.7237 272.236481 
L 387.723733 271.389385 
L 388.344595 270.70112 
L 388.669468 270.542289 
L 389.357381 270.171685 
L 389.547009 269.986383 
L 390.075467 269.668722 
L 390.163614 269.589307 
L 390.30984 269.430476 
L 390.991004 268.901042 
L 391.298647 268.715739 
L 391.370381 268.636324 
L 391.662497 268.371607 
L 391.811312 268.212776 
L 392.17831 267.948059 
L 392.909838 267.127435 
L 393.214667 266.968605 
L 393.343313 266.862718 
L 393.623431 266.624472 
L 393.869038 266.465642 
L 394.268632 266.121509 
L 394.51193 265.777377 
L 394.912466 265.247942 
L 395.345767 264.850866 
L 395.463329 264.718507 
L 395.539769 264.586148 
L 395.644831 264.45379 
L 395.888122 264.136129 
L 396.569046 263.474335 
L 396.737405 263.289033 
L 396.99934 263.050788 
L 399.023478 261.144822 
L 399.09998 261.038935 
L 399.816326 260.535972 
L 400.186132 260.085953 
L 400.527576 259.927122 
L 400.552993 259.874179 
L 400.812267 259.688877 
L 400.913732 259.58299 
L 403.615413 256.776986 
L 403.693893 256.591683 
L 403.919633 256.353438 
L 404.009606 256.168136 
L 404.154949 256.009305 
L 404.68907 255.373983 
L 404.880836 255.16221 
L 405.116302 254.765134 
L 405.276026 254.55336 
L 406.368576 253.229773 
L 406.681189 252.779753 
L 406.923761 252.488564 
L 407.198959 252.197375 
L 407.271221 252.091488 
L 407.519924 251.932658 
L 407.676849 251.720884 
L 407.771921 251.588525 
L 408.068722 251.297336 
L 408.267811 250.90026 
L 408.713316 250.529655 
L 408.845574 250.317882 
L 408.986196 250.132579 
L 409.203947 249.761975 
L 409.319096 249.576673 
L 409.525466 249.338427 
L 411.260433 247.167745 
L 411.370428 247.008914 
L 412.033949 245.923573 
L 412.179629 245.738271 
L 412.306308 245.552969 
L 412.600282 245.26178 
L 412.775934 244.997062 
L 412.952239 244.705873 
L 413.069137 244.547043 
L 413.153252 244.388212 
L 413.277743 244.229382 
L 413.676694 243.832306 
L 413.961898 243.276399 
L 414.066178 243.011682 
L 414.208759 242.746964 
L 414.323355 242.614606 
L 414.676966 242.244001 
L 414.803407 241.952812 
L 414.949114 241.714567 
L 415.150532 241.582208 
L 415.344705 241.370434 
L 415.527096 241.15866 
L 416.197954 240.179206 
L 416.960288 239.226223 
L 417.078383 238.987978 
L 417.437199 238.405599 
L 417.565665 238.220297 
L 417.775173 237.929108 
L 418.303963 236.949654 
L 418.576303 236.711408 
L 420.078174 234.249537 
L 420.296885 233.773045 
L 420.421976 233.508328 
L 421.021933 232.528874 
L 421.124951 232.370043 
L 421.248261 231.972967 
L 421.377275 231.655306 
L 421.541549 231.496476 
L 421.64763 231.390589 
L 421.842455 231.178815 
L 422.977836 229.140491 
L 423.157455 228.902245 
L 423.50265 228.319867 
L 423.665916 228.028678 
L 423.801132 227.658074 
L 424.881091 225.540335 
L 424.984521 225.381504 
L 425.109577 225.143259 
L 425.281062 224.852069 
L 425.792727 223.925559 
L 425.91257 223.740256 
L 426.220343 223.237293 
L 426.344436 222.866689 
L 426.471885 222.654915 
L 427.158722 221.384272 
L 427.383803 221.066611 
L 430.534207 215.163413 
L 430.667005 214.792809 
L 430.941868 214.475148 
L 431.041335 214.289846 
L 431.512442 213.310392 
L 431.860716 212.595655 
L 431.951031 212.357409 
L 432.229897 211.827974 
L 432.38771 211.563257 
L 432.469662 211.430898 
L 432.62012 211.245596 
L 433.488679 209.207272 
L 433.639343 208.916083 
L 433.761237 208.651366 
L 435.068736 205.739475 
L 435.208605 205.501229 
L 435.385254 205.183568 
L 435.507965 204.839435 
L 435.667947 204.310001 
L 435.782131 204.045283 
L 436.095628 203.436433 
L 436.563859 202.562866 
L 438.81492 197.74501 
L 438.901531 197.586179 
L 439.078331 197.083216 
L 439.246531 196.844971 
L 439.493314 196.183177 
L 439.613959 195.997875 
L 439.749352 195.706686 
L 439.874075 195.547855 
L 440.033994 195.097836 
L 440.339001 194.25074 
L 440.426033 194.038966 
L 440.611423 193.403645 
L 440.89278 192.741851 
L 441.02535 192.556549 
L 441.129003 192.212416 
L 441.495955 191.259434 
L 441.86879 190.332923 
L 441.924422 190.121149 
L 442.101778 189.512299 
L 442.241885 189.009336 
L 442.360676 188.797562 
L 442.877324 187.579862 
L 443.026996 186.944541 
L 444.425069 183.74146 
L 444.63925 183.079667 
L 444.805518 182.841421 
L 444.917031 182.629647 
L 445.08597 182.179628 
L 445.571624 180.935456 
L 445.772993 180.37955 
L 446.229481 179.347152 
L 446.610519 178.129452 
L 446.753454 177.917678 
L 447.021374 177.070582 
L 447.187272 176.88528 
L 447.372852 176.170543 
L 447.509825 175.694052 
L 447.689056 175.270504 
L 447.807295 175.111674 
L 448.981414 172.411556 
L 449.265973 171.670348 
L 449.504233 171.458574 
L 449.576811 171.273272 
L 449.85395 170.426176 
L 449.914494 170.18793 
L 450.062754 169.711439 
L 450.141486 169.473193 
L 450.322339 168.996702 
L 450.570358 168.414324 
L 450.684646 168.229022 
L 450.974722 167.302511 
L 451.098511 167.011322 
L 451.423597 165.952452 
L 451.548901 165.793622 
L 451.692018 165.343602 
L 451.80113 164.972998 
L 452.138243 163.675883 
L 452.248011 163.464109 
L 452.498328 162.855259 
L 452.59946 162.590542 
L 452.671399 162.405239 
L 453.042768 161.187539 
L 453.177525 160.975765 
L 453.362522 160.181613 
L 453.857474 158.805083 
L 453.98316 158.672724 
L 454.173074 158.30212 
L 454.274661 158.010931 
L 454.404081 157.746213 
L 454.489981 157.587383 
L 454.601093 157.375609 
L 454.699008 157.110892 
L 454.987834 156.210853 
L 455.06475 156.052022 
L 455.223499 155.628474 
L 455.76797 153.907811 
L 455.986774 153.113659 
L 456.120831 152.875414 
L 456.233595 152.478338 
L 456.35291 152.266564 
L 456.487616 151.843016 
L 456.629664 151.578298 
L 456.73912 151.234166 
L 456.834967 151.075335 
L 457.104191 150.254712 
L 457.451741 149.275257 
L 457.709074 148.666407 
L 457.862266 148.375218 
L 457.989204 147.978142 
L 458.113069 147.528123 
L 458.29668 147.210462 
L 458.430653 146.866329 
L 458.482775 146.654555 
L 458.632288 146.12512 
L 458.813048 145.701573 
L 458.916027 145.595686 
L 459.092804 144.90742 
L 459.198264 144.536816 
L 459.550525 143.451475 
L 465.018764 128.309641 
L 465.135511 128.177282 
L 467.076026 122.803519 
L 467.143158 122.565274 
L 467.482036 121.347574 
L 467.601211 121.162271 
L 468.454821 118.541569 
L 468.611567 117.959191 
L 468.762507 117.376813 
L 468.854792 117.191511 
L 468.945835 116.900322 
L 469.133543 116.688548 
L 469.382516 116.132641 
L 469.522354 115.867924 
L 469.888318 114.703167 
L 470.029792 114.359035 
L 470.222503 113.617826 
L 470.848884 111.950107 
L 470.960321 111.685389 
L 471.268695 110.838294 
L 471.457901 110.388274 
L 471.585971 109.938254 
L 472.385592 107.926402 
L 472.50813 107.661685 
L 472.86588 106.496929 
L 472.98923 106.285155 
L 473.23065 105.729248 
L 476.044304 98.714238 
L 476.133571 98.502464 
L 476.48288 97.602425 
L 476.858001 96.781801 
L 476.998118 96.225894 
L 477.283894 95.696459 
L 477.407067 95.325855 
L 477.498279 95.114081 
L 477.637227 94.875835 
L 477.757555 94.505231 
L 477.901281 94.134627 
L 478.39387 92.943399 
L 478.489973 92.784568 
L 478.620368 92.466907 
L 478.830059 92.175718 
L 479.016618 91.646283 
L 479.288771 90.905075 
L 479.370214 90.746244 
L 479.486902 90.587414 
L 479.621708 90.37564 
L 479.7331 90.21681 
L 479.850355 89.92562 
L 480.177279 89.237355 
L 480.627796 88.231429 
L 480.720148 88.046127 
L 480.826292 87.701994 
L 480.958613 87.463749 
L 481.166397 86.934314 
L 481.245924 86.72254 
L 481.389615 86.087218 
L 481.513904 85.690142 
L 481.624026 85.266595 
L 483.381833 80.951701 
L 483.502177 80.554625 
L 484.745335 77.748621 
L 484.897528 77.563319 
L 485.01909 77.27213 
L 486.404975 74.333767 
L 486.512087 74.174936 
L 486.661697 73.936691 
L 486.776475 73.724917 
L 486.899656 73.460199 
L 487.019066 73.248425 
L 488.224381 70.865969 
L 488.378989 70.495365 
L 491.07052 65.068658 
L 491.275157 64.750998 
L 491.580027 64.353921 
L 492.05174 63.480354 
L 492.181573 63.189165 
L 492.329682 63.030335 
L 492.591787 62.580315 
L 492.699726 62.368541 
L 492.786218 62.156767 
L 494.143667 60.0655 
L 494.334653 59.933141 
L 494.469139 59.668424 
L 494.596477 59.483122 
L 494.746876 59.244876 
L 495.027937 58.477196 
L 495.171987 58.265422 
L 495.532483 57.841874 
L 495.8294 57.418326 
L 495.938485 57.100665 
L 496.24593 56.835948 
L 496.375646 56.730061 
L 497.447482 55.485889 
L 498.34626 54.347604 
L 498.685065 53.844641 
L 498.833791 53.712283 
L 498.93615 53.500509 
L 499.02134 53.315207 
L 499.165126 52.944602 
L 499.356105 52.60047 
L 500.183229 51.409242 
L 500.291701 51.250411 
L 500.557704 51.065109 
L 500.95769 50.456259 
L 501.103018 50.297429 
L 501.342475 49.847409 
L 501.536378 49.582692 
L 501.678168 49.476805 
L 501.961383 49.000313 
L 502.052183 48.815011 
L 502.453784 48.285576 
L 502.558079 48.153218 
L 502.758381 47.967916 
L 503.020857 47.412009 
L 503.641499 46.96199 
L 504.009118 46.644329 
L 504.585257 46.035479 
L 504.732619 45.770761 
L 505.111254 45.611931 
L 505.279976 45.426629 
L 505.569657 45.214855 
L 506.445444 44.261872 
L 506.792032 43.997155 
L 506.915806 43.785381 
L 507.198748 43.46772 
L 507.479426 43.255946 
L 507.803597 42.964757 
L 508.398059 42.382379 
L 509.222255 41.905888 
L 509.382366 41.773529 
L 510.099196 41.402925 
L 510.332781 41.138207 
L 510.35849 41.03232 
L 510.794192 40.847018 
L 511.622023 40.344055 
L 511.997574 40.211696 
L 512.018355 40.158753 
L 512.444486 39.973451 
L 512.64755 39.708733 
L 513.261311 39.549903 
L 513.390748 39.496959 
L 513.782323 39.338129 
L 514.104996 39.179299 
L 514.469068 38.967525 
L 515.039287 38.808694 
L 515.16816 38.702807 
L 515.424928 38.517505 
L 515.581468 38.43809 
L 516.307592 38.173373 
L 516.877516 38.014542 
L 517.77845 37.776296 
L 520.562703 37.008616 
L 522.42064 36.823314 
L 522.474407 36.796842 
L 523.434359 36.61154 
L 523.730122 36.505653 
L 525.20253 36.293879 
L 525.227628 36.267407 
L 531.400839 35.737973 
L 537.739432 35.55267 
L 537.739432 35.55267 
" clip-path="url(#p6c5e32d37b)" style="fill: none; stroke: #1f77b4; stroke-width: 2; stroke-linecap: square"/>
   </g>
   <g id="patch_3">
    <path d="M 43.78125 313.478125 
L 43.78125 22.318125 
" style="fill: none; stroke: #000000; stroke-width: 0.8; stroke-linejoin: miter; stroke-linecap: square"/>
   </g>
   <g id="patch_4">
    <path d="M 561.26125 313.478125 
L 561.26125 22.318125 
" style="fill: none; stroke: #000000; stroke-width: 0.8; stroke-linejoin: miter; stroke-linecap: square"/>
   </g>
   <g id="patch_5">
    <path d="M 43.78125 313.478125 
L 561.26125 313.478125 
" style="fill: none; stroke: #000000; stroke-width: 0.8; stroke-linejoin: miter; stroke-linecap: square"/>
   </g>
   <g id="patch_6">
    <path d="M 43.78125 22.318125 
L 561.26125 22.318125 
" style="fill: none; stroke: #000000; stroke-width: 0.8; stroke-linejoin: miter; stroke-linecap: square"/>
   </g>
   <g id="text_16">
    <!-- Fading Variation Empirical CDF -->
    <g transform="translate(197.932812 16.318125) scale(0.12 -0.12)">
     <defs>
      <path id="DejaVuSans-Bold-46" d="M 588 4666 
L 3834 4666 
L 3834 3756 
L 1791 3756 
L 1791 2888 
L 3713 2888 
L 3713 1978 
L 1791 1978 
L 1791 0 
L 588 0 
L 588 4666 
z
" transform="scale(0.015625)"/>
      <path id="DejaVuSans-Bold-61" d="M 2106 1575 
Q 1756 1575 1579 1456 
Q 1403 1338 1403 1106 
Q 1403 894 1545 773 
Q 1688 653 1941 653 
Q 2256 653 2472 879 
Q 2688 1106 2688 1447 
L 2688 1575 
L 2106 1575 
z
M 3816 1997 
L 3816 0 
L 2688 0 
L 2688 519 
Q 2463 200 2181 54 
Q 1900 -91 1497 -91 
Q 953 -91 614 226 
Q 275 544 275 1050 
Q 275 1666 698 1953 
Q 1122 2241 2028 2241 
L 2688 2241 
L 2688 2328 
Q 2688 2594 2478 2717 
Q 2269 2841 1825 2841 
Q 1466 2841 1156 2769 
Q 847 2697 581 2553 
L 581 3406 
Q 941 3494 1303 3539 
Q 1666 3584 2028 3584 
Q 2975 3584 3395 3211 
Q 3816 2838 3816 1997 
z
" transform="scale(0.015625)"/>
      <path id="DejaVuSans-Bold-64" d="M 2919 2988 
L 2919 4863 
L 4044 4863 
L 4044 0 
L 2919 0 
L 2919 506 
Q 2688 197 2409 53 
Q 2131 -91 1766 -91 
Q 1119 -91 703 423 
Q 288 938 288 1747 
Q 288 2556 703 3070 
Q 1119 3584 1766 3584 
Q 2128 3584 2408 3439 
Q 2688 3294 2919 2988 
z
M 2181 722 
Q 2541 722 2730 984 
Q 2919 1247 2919 1747 
Q 2919 2247 2730 2509 
Q 2541 2772 2181 2772 
Q 1825 2772 1636 2509 
Q 1447 2247 1447 1747 
Q 1447 1247 1636 984 
Q 1825 722 2181 722 
z
" transform="scale(0.015625)"/>
      <path id="DejaVuSans-Bold-69" d="M 538 3500 
L 1656 3500 
L 1656 0 
L 538 0 
L 538 3500 
z
M 538 4863 
L 1656 4863 
L 1656 3950 
L 538 3950 
L 538 4863 
z
" transform="scale(0.015625)"/>
      <path id="DejaVuSans-Bold-6e" d="M 4056 2131 
L 4056 0 
L 2931 0 
L 2931 347 
L 2931 1631 
Q 2931 2084 2911 2256 
Q 2891 2428 2841 2509 
Q 2775 2619 2662 2680 
Q 2550 2741 2406 2741 
Q 2056 2741 1856 2470 
Q 1656 2200 1656 1722 
L 1656 0 
L 538 0 
L 538 3500 
L 1656 3500 
L 1656 2988 
Q 1909 3294 2193 3439 
Q 2478 3584 2822 3584 
Q 3428 3584 3742 3212 
Q 4056 2841 4056 2131 
z
" transform="scale(0.015625)"/>
      <path id="DejaVuSans-Bold-67" d="M 2919 594 
Q 2688 288 2409 144 
Q 2131 0 1766 0 
Q 1125 0 706 504 
Q 288 1009 288 1791 
Q 288 2575 706 3076 
Q 1125 3578 1766 3578 
Q 2131 3578 2409 3434 
Q 2688 3291 2919 2981 
L 2919 3500 
L 4044 3500 
L 4044 353 
Q 4044 -491 3511 -936 
Q 2978 -1381 1966 -1381 
Q 1638 -1381 1331 -1331 
Q 1025 -1281 716 -1178 
L 716 -306 
Q 1009 -475 1290 -558 
Q 1572 -641 1856 -641 
Q 2406 -641 2662 -400 
Q 2919 -159 2919 353 
L 2919 594 
z
M 2181 2772 
Q 1834 2772 1640 2515 
Q 1447 2259 1447 1791 
Q 1447 1309 1634 1061 
Q 1822 813 2181 813 
Q 2531 813 2725 1069 
Q 2919 1325 2919 1791 
Q 2919 2259 2725 2515 
Q 2531 2772 2181 2772 
z
" transform="scale(0.015625)"/>
      <path id="DejaVuSans-Bold-20" transform="scale(0.015625)"/>
      <path id="DejaVuSans-Bold-56" d="M 31 4666 
L 1241 4666 
L 2478 1222 
L 3713 4666 
L 4922 4666 
L 3194 0 
L 1759 0 
L 31 4666 
z
" transform="scale(0.015625)"/>
      <path id="DejaVuSans-Bold-72" d="M 3138 2547 
Q 2991 2616 2845 2648 
Q 2700 2681 2553 2681 
Q 2122 2681 1889 2404 
Q 1656 2128 1656 1613 
L 1656 0 
L 538 0 
L 538 3500 
L 1656 3500 
L 1656 2925 
Q 1872 3269 2151 3426 
Q 2431 3584 2822 3584 
Q 2878 3584 2943 3579 
Q 3009 3575 3134 3559 
L 3138 2547 
z
" transform="scale(0.015625)"/>
      <path id="DejaVuSans-Bold-74" d="M 1759 4494 
L 1759 3500 
L 2913 3500 
L 2913 2700 
L 1759 2700 
L 1759 1216 
Q 1759 972 1856 886 
Q 1953 800 2241 800 
L 2816 800 
L 2816 0 
L 1856 0 
Q 1194 0 917 276 
Q 641 553 641 1216 
L 641 2700 
L 84 2700 
L 84 3500 
L 641 3500 
L 641 4494 
L 1759 4494 
z
" transform="scale(0.015625)"/>
      <path id="DejaVuSans-Bold-6f" d="M 2203 2784 
Q 1831 2784 1636 2517 
Q 1441 2250 1441 1747 
Q 1441 1244 1636 976 
Q 1831 709 2203 709 
Q 2569 709 2762 976 
Q 2956 1244 2956 1747 
Q 2956 2250 2762 2517 
Q 2569 2784 2203 2784 
z
M 2203 3584 
Q 3106 3584 3614 3096 
Q 4122 2609 4122 1747 
Q 4122 884 3614 396 
Q 3106 -91 2203 -91 
Q 1297 -91 786 396 
Q 275 884 275 1747 
Q 275 2609 786 3096 
Q 1297 3584 2203 3584 
z
" transform="scale(0.015625)"/>
      <path id="DejaVuSans-Bold-45" d="M 588 4666 
L 3834 4666 
L 3834 3756 
L 1791 3756 
L 1791 2888 
L 3713 2888 
L 3713 1978 
L 1791 1978 
L 1791 909 
L 3903 909 
L 3903 0 
L 588 0 
L 588 4666 
z
" transform="scale(0.015625)"/>
      <path id="DejaVuSans-Bold-6d" d="M 3781 2919 
Q 3994 3244 4286 3414 
Q 4578 3584 4928 3584 
Q 5531 3584 5847 3212 
Q 6163 2841 6163 2131 
L 6163 0 
L 5038 0 
L 5038 1825 
Q 5041 1866 5042 1909 
Q 5044 1953 5044 2034 
Q 5044 2406 4934 2573 
Q 4825 2741 4581 2741 
Q 4263 2741 4089 2478 
Q 3916 2216 3909 1719 
L 3909 0 
L 2784 0 
L 2784 1825 
Q 2784 2406 2684 2573 
Q 2584 2741 2328 2741 
Q 2006 2741 1831 2477 
Q 1656 2213 1656 1722 
L 1656 0 
L 531 0 
L 531 3500 
L 1656 3500 
L 1656 2988 
Q 1863 3284 2130 3434 
Q 2397 3584 2719 3584 
Q 3081 3584 3359 3409 
Q 3638 3234 3781 2919 
z
" transform="scale(0.015625)"/>
      <path id="DejaVuSans-Bold-70" d="M 1656 506 
L 1656 -1331 
L 538 -1331 
L 538 3500 
L 1656 3500 
L 1656 2988 
Q 1888 3294 2169 3439 
Q 2450 3584 2816 3584 
Q 3463 3584 3878 3070 
Q 4294 2556 4294 1747 
Q 4294 938 3878 423 
Q 3463 -91 2816 -91 
Q 2450 -91 2169 54 
Q 1888 200 1656 506 
z
M 2400 2772 
Q 2041 2772 1848 2508 
Q 1656 2244 1656 1747 
Q 1656 1250 1848 986 
Q 2041 722 2400 722 
Q 2759 722 2948 984 
Q 3138 1247 3138 1747 
Q 3138 2247 2948 2509 
Q 2759 2772 2400 2772 
z
" transform="scale(0.015625)"/>
      <path id="DejaVuSans-Bold-63" d="M 3366 3391 
L 3366 2478 
Q 3138 2634 2908 2709 
Q 2678 2784 2431 2784 
Q 1963 2784 1702 2511 
Q 1441 2238 1441 1747 
Q 1441 1256 1702 982 
Q 1963 709 2431 709 
Q 2694 709 2930 787 
Q 3166 866 3366 1019 
L 3366 103 
Q 3103 6 2833 -42 
Q 2563 -91 2291 -91 
Q 1344 -91 809 395 
Q 275 881 275 1747 
Q 275 2613 809 3098 
Q 1344 3584 2291 3584 
Q 2566 3584 2833 3536 
Q 3100 3488 3366 3391 
z
" transform="scale(0.015625)"/>
      <path id="DejaVuSans-Bold-6c" d="M 538 4863 
L 1656 4863 
L 1656 0 
L 538 0 
L 538 4863 
z
" transform="scale(0.015625)"/>
      <path id="DejaVuSans-Bold-43" d="M 4288 256 
Q 3956 84 3597 -3 
Q 3238 -91 2847 -91 
Q 1681 -91 1000 561 
Q 319 1213 319 2328 
Q 319 3447 1000 4098 
Q 1681 4750 2847 4750 
Q 3238 4750 3597 4662 
Q 3956 4575 4288 4403 
L 4288 3438 
Q 3953 3666 3628 3772 
Q 3303 3878 2944 3878 
Q 2300 3878 1931 3465 
Q 1563 3053 1563 2328 
Q 1563 1606 1931 1193 
Q 2300 781 2944 781 
Q 3303 781 3628 887 
Q 3953 994 4288 1222 
L 4288 256 
z
" transform="scale(0.015625)"/>
      <path id="DejaVuSans-Bold-44" d="M 1791 3756 
L 1791 909 
L 2222 909 
Q 2959 909 3348 1275 
Q 3738 1641 3738 2338 
Q 3738 3031 3350 3393 
Q 2963 3756 2222 3756 
L 1791 3756 
z
M 588 4666 
L 1856 4666 
Q 2919 4666 3439 4514 
Q 3959 4363 4331 4000 
Q 4659 3684 4818 3271 
Q 4978 2859 4978 2338 
Q 4978 1809 4818 1395 
Q 4659 981 4331 666 
Q 3956 303 3431 151 
Q 2906 0 1856 0 
L 588 0 
L 588 4666 
z
" transform="scale(0.015625)"/>
     </defs>
     <use xlink:href="#DejaVuSans-Bold-46"/>
     <use xlink:href="#DejaVuSans-Bold-61" transform="translate(62.435547 0)"/>
     <use xlink:href="#DejaVuSans-Bold-64" transform="translate(129.916016 0)"/>
     <use xlink:href="#DejaVuSans-Bold-69" transform="translate(201.498047 0)"/>
     <use xlink:href="#DejaVuSans-Bold-6e" transform="translate(235.775391 0)"/>
     <use xlink:href="#DejaVuSans-Bold-67" transform="translate(306.966797 0)"/>
     <use xlink:href="#DejaVuSans-Bold-20" transform="translate(378.548828 0)"/>
     <use xlink:href="#DejaVuSans-Bold-56" transform="translate(413.363281 0)"/>
     <use xlink:href="#DejaVuSans-Bold-61" transform="translate(485.255859 0)"/>
     <use xlink:href="#DejaVuSans-Bold-72" transform="translate(552.736328 0)"/>
     <use xlink:href="#DejaVuSans-Bold-69" transform="translate(602.052734 0)"/>
     <use xlink:href="#DejaVuSans-Bold-61" transform="translate(636.330078 0)"/>
     <use xlink:href="#DejaVuSans-Bold-74" transform="translate(703.810547 0)"/>
     <use xlink:href="#DejaVuSans-Bold-69" transform="translate(751.613281 0)"/>
     <use xlink:href="#DejaVuSans-Bold-6f" transform="translate(785.890625 0)"/>
     <use xlink:href="#DejaVuSans-Bold-6e" transform="translate(854.591797 0)"/>
     <use xlink:href="#DejaVuSans-Bold-20" transform="translate(925.783203 0)"/>
     <use xlink:href="#DejaVuSans-Bold-45" transform="translate(960.597656 0)"/>
     <use xlink:href="#DejaVuSans-Bold-6d" transform="translate(1028.908203 0)"/>
     <use xlink:href="#DejaVuSans-Bold-70" transform="translate(1133.107422 0)"/>
     <use xlink:href="#DejaVuSans-Bold-69" transform="translate(1204.689453 0)"/>
     <use xlink:href="#DejaVuSans-Bold-72" transform="translate(1238.966797 0)"/>
     <use xlink:href="#DejaVuSans-Bold-69" transform="translate(1288.283203 0)"/>
     <use xlink:href="#DejaVuSans-Bold-63" transform="translate(1322.560547 0)"/>
     <use xlink:href="#DejaVuSans-Bold-61" transform="translate(1381.837891 0)"/>
     <use xlink:href="#DejaVuSans-Bold-6c" transform="translate(1449.318359 0)"/>
     <use xlink:href="#DejaVuSans-Bold-20" transform="translate(1483.595703 0)"/>
     <use xlink:href="#DejaVuSans-Bold-43" transform="translate(1518.410156 0)"/>
     <use xlink:href="#DejaVuSans-Bold-44" transform="translate(1591.798828 0)"/>
     <use xlink:href="#DejaVuSans-Bold-46" transform="translate(1674.806641 0)"/>
    </g>
   </g>
   <g id="line2d_28">
    <path d="M 306.002669 313.478125 
L 306.002669 22.318125 
" clip-path="url(#p6c5e32d37b)" style="fill: none; stroke-dasharray: 7.4,3.2; stroke-dashoffset: 0; stroke: #008000; stroke-width: 2"/>
   </g>
   <g id="legend_1">
    <g id="patch_7">
     <path d="M 50.78125 59.674375 
L 173.517188 59.674375 
Q 175.517188 59.674375 175.517188 57.674375 
L 175.517188 29.318125 
Q 175.517188 27.318125 173.517188 27.318125 
L 50.78125 27.318125 
Q 48.78125 27.318125 48.78125 29.318125 
L 48.78125 57.674375 
Q 48.78125 59.674375 50.78125 59.674375 
z
" style="fill: #ffffff; opacity: 0.8; stroke: #cccccc; stroke-linejoin: miter"/>
    </g>
    <g id="line2d_29">
     <path d="M 52.78125 35.416562 
L 62.78125 35.416562 
L 72.78125 35.416562 
" style="fill: none; stroke: #1f77b4; stroke-width: 2; stroke-linecap: square"/>
    </g>
    <g id="text_17">
     <!-- CDF -->
     <g transform="translate(80.78125 38.916562) scale(0.1 -0.1)">
      <use xlink:href="#DejaVuSans-43"/>
      <use xlink:href="#DejaVuSans-44" transform="translate(69.824219 0)"/>
      <use xlink:href="#DejaVuSans-46" transform="translate(146.826172 0)"/>
     </g>
    </g>
    <g id="line2d_30">
     <path d="M 52.78125 50.094688 
L 62.78125 50.094688 
L 72.78125 50.094688 
" style="fill: none; stroke-dasharray: 7.4,3.2; stroke-dashoffset: 0; stroke: #008000; stroke-width: 2"/>
    </g>
    <g id="text_18">
     <!-- 5th pct: -19.68 dB -->
     <g transform="translate(80.78125 53.594688) scale(0.1 -0.1)">
      <defs>
       <path id="DejaVuSans-68" d="M 3513 2113 
L 3513 0 
L 2938 0 
L 2938 2094 
Q 2938 2591 2744 2837 
Q 2550 3084 2163 3084 
Q 1697 3084 1428 2787 
Q 1159 2491 1159 1978 
L 1159 0 
L 581 0 
L 581 4863 
L 1159 4863 
L 1159 2956 
Q 1366 3272 1645 3428 
Q 1925 3584 2291 3584 
Q 2894 3584 3203 3211 
Q 3513 2838 3513 2113 
z
" transform="scale(0.015625)"/>
       <path id="DejaVuSans-70" d="M 1159 525 
L 1159 -1331 
L 581 -1331 
L 581 3500 
L 1159 3500 
L 1159 2969 
Q 1341 3281 1617 3432 
Q 1894 3584 2278 3584 
Q 2916 3584 3314 3078 
Q 3713 2572 3713 1747 
Q 3713 922 3314 415 
Q 2916 -91 2278 -91 
Q 1894 -91 1617 61 
Q 1341 213 1159 525 
z
M 3116 1747 
Q 3116 2381 2855 2742 
Q 2594 3103 2138 3103 
Q 1681 3103 1420 2742 
Q 1159 2381 1159 1747 
Q 1159 1113 1420 752 
Q 1681 391 2138 391 
Q 2594 391 2855 752 
Q 3116 1113 3116 1747 
z
" transform="scale(0.015625)"/>
       <path id="DejaVuSans-63" d="M 3122 3366 
L 3122 2828 
Q 2878 2963 2633 3030 
Q 2388 3097 2138 3097 
Q 1578 3097 1268 2742 
Q 959 2388 959 1747 
Q 959 1106 1268 751 
Q 1578 397 2138 397 
Q 2388 397 2633 464 
Q 2878 531 3122 666 
L 3122 134 
Q 2881 22 2623 -34 
Q 2366 -91 2075 -91 
Q 1284 -91 818 406 
Q 353 903 353 1747 
Q 353 2603 823 3093 
Q 1294 3584 2113 3584 
Q 2378 3584 2631 3529 
Q 2884 3475 3122 3366 
z
" transform="scale(0.015625)"/>
       <path id="DejaVuSans-3a" d="M 750 794 
L 1409 794 
L 1409 0 
L 750 0 
L 750 794 
z
M 750 3309 
L 1409 3309 
L 1409 2516 
L 750 2516 
L 750 3309 
z
" transform="scale(0.015625)"/>
       <path id="DejaVuSans-2d" d="M 313 2009 
L 1997 2009 
L 1997 1497 
L 313 1497 
L 313 2009 
z
" transform="scale(0.015625)"/>
       <path id="DejaVuSans-39" d="M 703 97 
L 703 672 
Q 941 559 1184 500 
Q 1428 441 1663 441 
Q 2288 441 2617 861 
Q 2947 1281 2994 2138 
Q 2813 1869 2534 1725 
Q 2256 1581 1919 1581 
Q 1219 1581 811 2004 
Q 403 2428 403 3163 
Q 403 3881 828 4315 
Q 1253 4750 1959 4750 
Q 2769 4750 3195 4129 
Q 3622 3509 3622 2328 
Q 3622 1225 3098 567 
Q 2575 -91 1691 -91 
Q 1453 -91 1209 -44 
Q 966 3 703 97 
z
M 1959 2075 
Q 2384 2075 2632 2365 
Q 2881 2656 2881 3163 
Q 2881 3666 2632 3958 
Q 2384 4250 1959 4250 
Q 1534 4250 1286 3958 
Q 1038 3666 1038 3163 
Q 1038 2656 1286 2365 
Q 1534 2075 1959 2075 
z
" transform="scale(0.015625)"/>
      </defs>
      <use xlink:href="#DejaVuSans-35"/>
      <use xlink:href="#DejaVuSans-74" transform="translate(63.623047 0)"/>
      <use xlink:href="#DejaVuSans-68" transform="translate(102.832031 0)"/>
      <use xlink:href="#DejaVuSans-20" transform="translate(166.210938 0)"/>
      <use xlink:href="#DejaVuSans-70" transform="translate(197.998047 0)"/>
      <use xlink:href="#DejaVuSans-63" transform="translate(261.474609 0)"/>
      <use xlink:href="#DejaVuSans-74" transform="translate(316.455078 0)"/>
      <use xlink:href="#DejaVuSans-3a" transform="translate(355.664062 0)"/>
      <use xlink:href="#DejaVuSans-20" transform="translate(389.355469 0)"/>
      <use xlink:href="#DejaVuSans-2d" transform="translate(421.142578 0)"/>
      <use xlink:href="#DejaVuSans-31" transform="translate(457.226562 0)"/>
      <use xlink:href="#DejaVuSans-39" transform="translate(520.849609 0)"/>
      <use xlink:href="#DejaVuSans-2e" transform="translate(584.472656 0)"/>
      <use xlink:href="#DejaVuSans-36" transform="translate(616.259766 0)"/>
      <use xlink:href="#DejaVuSans-38" transform="translate(679.882812 0)"/>
      <use xlink:href="#DejaVuSans-20" transform="translate(743.505859 0)"/>
      <use xlink:href="#DejaVuSans-64" transform="translate(775.292969 0)"/>
      <use xlink:href="#DejaVuSans-42" transform="translate(838.769531 0)"/>
     </g>
    </g>
   </g>
  </g>
 </g>
 <defs>
  <clipPath id="p6c5e32d37b">
   <rect x="43.78125" y="22.318125" width="517.48" height="291.16"/>
  </clipPath>
 </defs>
</svg>
