<?xml version="1.0" encoding="utf-8" standalone="no"?>
<!DOCTYPE svg PUBLIC "-//W3C//DTD SVG 1.1//EN"
  "http://www.w3.org/Graphics/SVG/1.1/DTD/svg11.dtd">
<svg xmlns:xlink="http://www.w3.org/1999/xlink" width="554.06125pt" height="336.634375pt" viewBox="0 0 554.06125 336.634375" xmlns="http://www.w3.org/2000/svg" version="1.1">
 <metadata>
  <rdf:RDF xmlns:dc="http://purl.org/dc/elements/1.1/" xmlns:cc="http://creativecommons.org/ns#" xmlns:rdf="http://www.w3.org/1999/02/22-rdf-syntax-ns#">
   <cc:Work>
    <dc:type rdf:resource="http://purl.org/dc/dcmitype/StillImage"/>
    <dc:date>2026-04-29T14:45:48.608973</dc:date>
    <dc:format>image/svg+xml</dc:format>
    <dc:creator>
     <cc:Agent>
      <dc:title>Matplotlib v3.10.8, https://matplotlib.org/</dc:title>
     </cc:Agent>
    </dc:creator>
   </cc:Work>
  </rdf:RDF>
 </metadata>
 <defs>
  <style type="text/css">*{stroke-linejoin: round; stroke-linecap: butt}</style>
 </defs>
 <g id="figure_1">
  <g id="patch_1">
   <path d="M 0 336.634375 
L 554.06125 336.634375 
L 554.06125 0 
L 0 0 
z
" style="fill: #ffffff"/>
  </g>
  <g id="axes_1">
   <g id="patch_2">
    <path d="M 36.58125 306.278125 
L 554.06125 306.278125 
L 554.06125 15.118125 
L 36.58125 15.118125 
z
" style="fill: #ffffff"/>
   </g>
   <g id="matplotlib.axis_1">
    <g id="xtick_1">
     <g id="line2d_1">
      <path d="M 83.060562 306.278125 
L 83.060562 15.118125 
" clip-path="url(#p97babd73e0)" style="fill: none; stroke: #b0b0b0; stroke-opacity: 0.25; stroke-width: 0.8; stroke-linecap: square"/>
     </g>
     <g id="line2d_2">
      <defs>
       <path id="m2a324d4111" d="M 0 0 
L 0 3.5 
" style="stroke: #000000; stroke-width: 0.8"/>
      </defs>
      <g>
       <use xlink:href="#m2a324d4111" x="83.060562" y="306.278125" style="stroke: #000000; stroke-width: 0.8"/>
      </g>
     </g>
     <g id="text_1">
      <!-- −50 -->
      <g transform="translate(72.508218 320.876563) scale(0.1 -0.1)">
       <defs>
        <path id="DejaVuSans-2212" d="M 678 2272 
L 4684 2272 
L 4684 1741 
L 678 1741 
L 678 2272 
z
" transform="scale(0.015625)"/>
        <path id="DejaVuSans-35" d="M 691 4666 
L 3169 4666 
L 3169 4134 
L 1269 4134 
L 1269 2991 
Q 1406 3038 1543 3061 
Q 1681 3084 1819 3084 
Q 2600 3084 3056 2656 
Q 3513 2228 3513 1497 
Q 3513 744 3044 326 
Q 2575 -91 1722 -91 
Q 1428 -91 1123 -41 
Q 819 9 494 109 
L 494 744 
Q 775 591 1075 516 
Q 1375 441 1709 441 
Q 2250 441 2565 725 
Q 2881 1009 2881 1497 
Q 2881 1984 2565 2268 
Q 2250 2553 1709 2553 
Q 1456 2553 1204 2497 
Q 953 2441 691 2322 
L 691 4666 
z
" transform="scale(0.015625)"/>
        <path id="DejaVuSans-30" d="M 2034 4250 
Q 1547 4250 1301 3770 
Q 1056 3291 1056 2328 
Q 1056 1369 1301 889 
Q 1547 409 2034 409 
Q 2525 409 2770 889 
Q 3016 1369 3016 2328 
Q 3016 3291 2770 3770 
Q 2525 4250 2034 4250 
z
M 2034 4750 
Q 2819 4750 3233 4129 
Q 3647 3509 3647 2328 
Q 3647 1150 3233 529 
Q 2819 -91 2034 -91 
Q 1250 -91 836 529 
Q 422 1150 422 2328 
Q 422 3509 836 4129 
Q 1250 4750 2034 4750 
z
" transform="scale(0.015625)"/>
       </defs>
       <use xlink:href="#DejaVuSans-2212"/>
       <use xlink:href="#DejaVuSans-35" transform="translate(83.789062 0)"/>
       <use xlink:href="#DejaVuSans-30" transform="translate(147.412109 0)"/>
      </g>
     </g>
    </g>
    <g id="xtick_2">
     <g id="line2d_3">
      <path d="M 143.147307 306.278125 
L 143.147307 15.118125 
" clip-path="url(#p97babd73e0)" style="fill: none; stroke: #b0b0b0; stroke-opacity: 0.25; stroke-width: 0.8; stroke-linecap: square"/>
     </g>
     <g id="line2d_4">
      <g>
       <use xlink:href="#m2a324d4111" x="143.147307" y="306.278125" style="stroke: #000000; stroke-width: 0.8"/>
      </g>
     </g>
     <g id="text_2">
      <!-- −40 -->
      <g transform="translate(132.594963 320.876563) scale(0.1 -0.1)">
       <defs>
        <path id="DejaVuSans-34" d="M 2419 4116 
L 825 1625 
L 2419 1625 
L 2419 4116 
z
M 2253 4666 
L 3047 4666 
L 3047 1625 
L 3713 1625 
L 3713 1100 
L 3047 1100 
L 3047 0 
L 2419 0 
L 2419 1100 
L 313 1100 
L 313 1709 
L 2253 4666 
z
" transform="scale(0.015625)"/>
       </defs>
       <use xlink:href="#DejaVuSans-2212"/>
       <use xlink:href="#DejaVuSans-34" transform="translate(83.789062 0)"/>
       <use xlink:href="#DejaVuSans-30" transform="translate(147.412109 0)"/>
      </g>
     </g>
    </g>
    <g id="xtick_3">
     <g id="line2d_5">
      <path d="M 203.234053 306.278125 
L 203.234053 15.118125 
" clip-path="url(#p97babd73e0)" style="fill: none; stroke: #b0b0b0; stroke-opacity: 0.25; stroke-width: 0.8; stroke-linecap: square"/>
     </g>
     <g id="line2d_6">
      <g>
       <use xlink:href="#m2a324d4111" x="203.234053" y="306.278125" style="stroke: #000000; stroke-width: 0.8"/>
      </g>
     </g>
     <g id="text_3">
      <!-- −30 -->
      <g transform="translate(192.681709 320.876563) scale(0.1 -0.1)">
       <defs>
        <path id="DejaVuSans-33" d="M 2597 2516 
Q 3050 2419 3304 2112 
Q 3559 1806 3559 1356 
Q 3559 666 3084 287 
Q 2609 -91 1734 -91 
Q 1441 -91 1130 -33 
Q 819 25 488 141 
L 488 750 
Q 750 597 1062 519 
Q 1375 441 1716 441 
Q 2309 441 2620 675 
Q 2931 909 2931 1356 
Q 2931 1769 2642 2001 
Q 2353 2234 1838 2234 
L 1294 2234 
L 1294 2753 
L 1863 2753 
Q 2328 2753 2575 2939 
Q 2822 3125 2822 3475 
Q 2822 3834 2567 4026 
Q 2313 4219 1838 4219 
Q 1578 4219 1281 4162 
Q 984 4106 628 3988 
L 628 4550 
Q 988 4650 1302 4700 
Q 1616 4750 1894 4750 
Q 2613 4750 3031 4423 
Q 3450 4097 3450 3541 
Q 3450 3153 3228 2886 
Q 3006 2619 2597 2516 
z
" transform="scale(0.015625)"/>
       </defs>
       <use xlink:href="#DejaVuSans-2212"/>
       <use xlink:href="#DejaVuSans-33" transform="translate(83.789062 0)"/>
       <use xlink:href="#DejaVuSans-30" transform="translate(147.412109 0)"/>
      </g>
     </g>
    </g>
    <g id="xtick_4">
     <g id="line2d_7">
      <path d="M 263.320798 306.278125 
L 263.320798 15.118125 
" clip-path="url(#p97babd73e0)" style="fill: none; stroke: #b0b0b0; stroke-opacity: 0.25; stroke-width: 0.8; stroke-linecap: square"/>
     </g>
     <g id="line2d_8">
      <g>
       <use xlink:href="#m2a324d4111" x="263.320798" y="306.278125" style="stroke: #000000; stroke-width: 0.8"/>
      </g>
     </g>
     <g id="text_4">
      <!-- −20 -->
      <g transform="translate(252.768454 320.876563) scale(0.1 -0.1)">
       <defs>
        <path id="DejaVuSans-32" d="M 1228 531 
L 3431 531 
L 3431 0 
L 469 0 
L 469 531 
Q 828 903 1448 1529 
Q 2069 2156 2228 2338 
Q 2531 2678 2651 2914 
Q 2772 3150 2772 3378 
Q 2772 3750 2511 3984 
Q 2250 4219 1831 4219 
Q 1534 4219 1204 4116 
Q 875 4013 500 3803 
L 500 4441 
Q 881 4594 1212 4672 
Q 1544 4750 1819 4750 
Q 2544 4750 2975 4387 
Q 3406 4025 3406 3419 
Q 3406 3131 3298 2873 
Q 3191 2616 2906 2266 
Q 2828 2175 2409 1742 
Q 1991 1309 1228 531 
z
" transform="scale(0.015625)"/>
       </defs>
       <use xlink:href="#DejaVuSans-2212"/>
       <use xlink:href="#DejaVuSans-32" transform="translate(83.789062 0)"/>
       <use xlink:href="#DejaVuSans-30" transform="translate(147.412109 0)"/>
      </g>
     </g>
    </g>
    <g id="xtick_5">
     <g id="line2d_9">
      <path d="M 323.407543 306.278125 
L 323.407543 15.118125 
" clip-path="url(#p97babd73e0)" style="fill: none; stroke: #b0b0b0; stroke-opacity: 0.25; stroke-width: 0.8; stroke-linecap: square"/>
     </g>
     <g id="line2d_10">
      <g>
       <use xlink:href="#m2a324d4111" x="323.407543" y="306.278125" style="stroke: #000000; stroke-width: 0.8"/>
      </g>
     </g>
     <g id="text_5">
      <!-- −10 -->
      <g transform="translate(312.8552 320.876563) scale(0.1 -0.1)">
       <defs>
        <path id="DejaVuSans-31" d="M 794 531 
L 1825 531 
L 1825 4091 
L 703 3866 
L 703 4441 
L 1819 4666 
L 2450 4666 
L 2450 531 
L 3481 531 
L 3481 0 
L 794 0 
L 794 531 
z
" transform="scale(0.015625)"/>
       </defs>
       <use xlink:href="#DejaVuSans-2212"/>
       <use xlink:href="#DejaVuSans-31" transform="translate(83.789062 0)"/>
       <use xlink:href="#DejaVuSans-30" transform="translate(147.412109 0)"/>
      </g>
     </g>
    </g>
    <g id="xtick_6">
     <g id="line2d_11">
      <path d="M 383.494289 306.278125 
L 383.494289 15.118125 
" clip-path="url(#p97babd73e0)" style="fill: none; stroke: #b0b0b0; stroke-opacity: 0.25; stroke-width: 0.8; stroke-linecap: square"/>
     </g>
     <g id="line2d_12">
      <g>
       <use xlink:href="#m2a324d4111" x="383.494289" y="306.278125" style="stroke: #000000; stroke-width: 0.8"/>
      </g>
     </g>
     <g id="text_6">
      <!-- 0 -->
      <g transform="translate(380.313039 320.876563) scale(0.1 -0.1)">
       <use xlink:href="#DejaVuSans-30"/>
      </g>
     </g>
    </g>
    <g id="xtick_7">
     <g id="line2d_13">
      <path d="M 443.581034 306.278125 
L 443.581034 15.118125 
" clip-path="url(#p97babd73e0)" style="fill: none; stroke: #b0b0b0; stroke-opacity: 0.25; stroke-width: 0.8; stroke-linecap: square"/>
     </g>
     <g id="line2d_14">
      <g>
       <use xlink:href="#m2a324d4111" x="443.581034" y="306.278125" style="stroke: #000000; stroke-width: 0.8"/>
      </g>
     </g>
     <g id="text_7">
      <!-- 10 -->
      <g transform="translate(437.218534 320.876563) scale(0.1 -0.1)">
       <use xlink:href="#DejaVuSans-31"/>
       <use xlink:href="#DejaVuSans-30" transform="translate(63.623047 0)"/>
      </g>
     </g>
    </g>
    <g id="xtick_8">
     <g id="line2d_15">
      <path d="M 503.66778 306.278125 
L 503.66778 15.118125 
" clip-path="url(#p97babd73e0)" style="fill: none; stroke: #b0b0b0; stroke-opacity: 0.25; stroke-width: 0.8; stroke-linecap: square"/>
     </g>
     <g id="line2d_16">
      <g>
       <use xlink:href="#m2a324d4111" x="503.66778" y="306.278125" style="stroke: #000000; stroke-width: 0.8"/>
      </g>
     </g>
     <g id="text_8">
      <!-- 20 -->
      <g transform="translate(497.30528 320.876563) scale(0.1 -0.1)">
       <use xlink:href="#DejaVuSans-32"/>
       <use xlink:href="#DejaVuSans-30" transform="translate(63.623047 0)"/>
      </g>
     </g>
    </g>
    <g id="text_9">
     <!-- Composite channel variation (dB) -->
     <g transform="translate(211.468125 334.554688) scale(0.1 -0.1)">
      <defs>
       <path id="DejaVuSans-43" d="M 4122 4306 
L 4122 3641 
Q 3803 3938 3442 4084 
Q 3081 4231 2675 4231 
Q 1875 4231 1450 3742 
Q 1025 3253 1025 2328 
Q 1025 1406 1450 917 
Q 1875 428 2675 428 
Q 3081 428 3442 575 
Q 3803 722 4122 1019 
L 4122 359 
Q 3791 134 3420 21 
Q 3050 -91 2638 -91 
Q 1578 -91 968 557 
Q 359 1206 359 2328 
Q 359 3453 968 4101 
Q 1578 4750 2638 4750 
Q 3056 4750 3426 4639 
Q 3797 4528 4122 4306 
z
" transform="scale(0.015625)"/>
       <path id="DejaVuSans-6f" d="M 1959 3097 
Q 1497 3097 1228 2736 
Q 959 2375 959 1747 
Q 959 1119 1226 758 
Q 1494 397 1959 397 
Q 2419 397 2687 759 
Q 2956 1122 2956 1747 
Q 2956 2369 2687 2733 
Q 2419 3097 1959 3097 
z
M 1959 3584 
Q 2709 3584 3137 3096 
Q 3566 2609 3566 1747 
Q 3566 888 3137 398 
Q 2709 -91 1959 -91 
Q 1206 -91 779 398 
Q 353 888 353 1747 
Q 353 2609 779 3096 
Q 1206 3584 1959 3584 
z
" transform="scale(0.015625)"/>
       <path id="DejaVuSans-6d" d="M 3328 2828 
Q 3544 3216 3844 3400 
Q 4144 3584 4550 3584 
Q 5097 3584 5394 3201 
Q 5691 2819 5691 2113 
L 5691 0 
L 5113 0 
L 5113 2094 
Q 5113 2597 4934 2840 
Q 4756 3084 4391 3084 
Q 3944 3084 3684 2787 
Q 3425 2491 3425 1978 
L 3425 0 
L 2847 0 
L 2847 2094 
Q 2847 2600 2669 2842 
Q 2491 3084 2119 3084 
Q 1678 3084 1418 2786 
Q 1159 2488 1159 1978 
L 1159 0 
L 581 0 
L 581 3500 
L 1159 3500 
L 1159 2956 
Q 1356 3278 1631 3431 
Q 1906 3584 2284 3584 
Q 2666 3584 2933 3390 
Q 3200 3197 3328 2828 
z
" transform="scale(0.015625)"/>
       <path id="DejaVuSans-70" d="M 1159 525 
L 1159 -1331 
L 581 -1331 
L 581 3500 
L 1159 3500 
L 1159 2969 
Q 1341 3281 1617 3432 
Q 1894 3584 2278 3584 
Q 2916 3584 3314 3078 
Q 3713 2572 3713 1747 
Q 3713 922 3314 415 
Q 2916 -91 2278 -91 
Q 1894 -91 1617 61 
Q 1341 213 1159 525 
z
M 3116 1747 
Q 3116 2381 2855 2742 
Q 2594 3103 2138 3103 
Q 1681 3103 1420 2742 
Q 1159 2381 1159 1747 
Q 1159 1113 1420 752 
Q 1681 391 2138 391 
Q 2594 391 2855 752 
Q 3116 1113 3116 1747 
z
" transform="scale(0.015625)"/>
       <path id="DejaVuSans-73" d="M 2834 3397 
L 2834 2853 
Q 2591 2978 2328 3040 
Q 2066 3103 1784 3103 
Q 1356 3103 1142 2972 
Q 928 2841 928 2578 
Q 928 2378 1081 2264 
Q 1234 2150 1697 2047 
L 1894 2003 
Q 2506 1872 2764 1633 
Q 3022 1394 3022 966 
Q 3022 478 2636 193 
Q 2250 -91 1575 -91 
Q 1294 -91 989 -36 
Q 684 19 347 128 
L 347 722 
Q 666 556 975 473 
Q 1284 391 1588 391 
Q 1994 391 2212 530 
Q 2431 669 2431 922 
Q 2431 1156 2273 1281 
Q 2116 1406 1581 1522 
L 1381 1569 
Q 847 1681 609 1914 
Q 372 2147 372 2553 
Q 372 3047 722 3315 
Q 1072 3584 1716 3584 
Q 2034 3584 2315 3537 
Q 2597 3491 2834 3397 
z
" transform="scale(0.015625)"/>
       <path id="DejaVuSans-69" d="M 603 3500 
L 1178 3500 
L 1178 0 
L 603 0 
L 603 3500 
z
M 603 4863 
L 1178 4863 
L 1178 4134 
L 603 4134 
L 603 4863 
z
" transform="scale(0.015625)"/>
       <path id="DejaVuSans-74" d="M 1172 4494 
L 1172 3500 
L 2356 3500 
L 2356 3053 
L 1172 3053 
L 1172 1153 
Q 1172 725 1289 603 
Q 1406 481 1766 481 
L 2356 481 
L 2356 0 
L 1766 0 
Q 1100 0 847 248 
Q 594 497 594 1153 
L 594 3053 
L 172 3053 
L 172 3500 
L 594 3500 
L 594 4494 
L 1172 4494 
z
" transform="scale(0.015625)"/>
       <path id="DejaVuSans-65" d="M 3597 1894 
L 3597 1613 
L 953 1613 
Q 991 1019 1311 708 
Q 1631 397 2203 397 
Q 2534 397 2845 478 
Q 3156 559 3463 722 
L 3463 178 
Q 3153 47 2828 -22 
Q 2503 -91 2169 -91 
Q 1331 -91 842 396 
Q 353 884 353 1716 
Q 353 2575 817 3079 
Q 1281 3584 2069 3584 
Q 2775 3584 3186 3129 
Q 3597 2675 3597 1894 
z
M 3022 2063 
Q 3016 2534 2758 2815 
Q 2500 3097 2075 3097 
Q 1594 3097 1305 2825 
Q 1016 2553 972 2059 
L 3022 2063 
z
" transform="scale(0.015625)"/>
       <path id="DejaVuSans-20" transform="scale(0.015625)"/>
       <path id="DejaVuSans-63" d="M 3122 3366 
L 3122 2828 
Q 2878 2963 2633 3030 
Q 2388 3097 2138 3097 
Q 1578 3097 1268 2742 
Q 959 2388 959 1747 
Q 959 1106 1268 751 
Q 1578 397 2138 397 
Q 2388 397 2633 464 
Q 2878 531 3122 666 
L 3122 134 
Q 2881 22 2623 -34 
Q 2366 -91 2075 -91 
Q 1284 -91 818 406 
Q 353 903 353 1747 
Q 353 2603 823 3093 
Q 1294 3584 2113 3584 
Q 2378 3584 2631 3529 
Q 2884 3475 3122 3366 
z
" transform="scale(0.015625)"/>
       <path id="DejaVuSans-68" d="M 3513 2113 
L 3513 0 
L 2938 0 
L 2938 2094 
Q 2938 2591 2744 2837 
Q 2550 3084 2163 3084 
Q 1697 3084 1428 2787 
Q 1159 2491 1159 1978 
L 1159 0 
L 581 0 
L 581 4863 
L 1159 4863 
L 1159 2956 
Q 1366 3272 1645 3428 
Q 1925 3584 2291 3584 
Q 2894 3584 3203 3211 
Q 3513 2838 3513 2113 
z
" transform="scale(0.015625)"/>
       <path id="DejaVuSans-61" d="M 2194 1759 
Q 1497 1759 1228 1600 
Q 959 1441 959 1056 
Q 959 750 1161 570 
Q 1363 391 1709 391 
Q 2188 391 2477 730 
Q 2766 1069 2766 1631 
L 2766 1759 
L 2194 1759 
z
M 3341 1997 
L 3341 0 
L 2766 0 
L 2766 531 
Q 2569 213 2275 61 
Q 1981 -91 1556 -91 
Q 1019 -91 701 211 
Q 384 513 384 1019 
Q 384 1609 779 1909 
Q 1175 2209 1959 2209 
L 2766 2209 
L 2766 2266 
Q 2766 2663 2505 2880 
Q 2244 3097 1772 3097 
Q 1472 3097 1187 3025 
Q 903 2953 641 2809 
L 641 3341 
Q 956 3463 1253 3523 
Q 1550 3584 1831 3584 
Q 2591 3584 2966 3190 
Q 3341 2797 3341 1997 
z
" transform="scale(0.015625)"/>
       <path id="DejaVuSans-6e" d="M 3513 2113 
L 3513 0 
L 2938 0 
L 2938 2094 
Q 2938 2591 2744 2837 
Q 2550 3084 2163 3084 
Q 1697 3084 1428 2787 
Q 1159 2491 1159 1978 
L 1159 0 
L 581 0 
L 581 3500 
L 1159 3500 
L 1159 2956 
Q 1366 3272 1645 3428 
Q 1925 3584 2291 3584 
Q 2894 3584 3203 3211 
Q 3513 2838 3513 2113 
z
" transform="scale(0.015625)"/>
       <path id="DejaVuSans-6c" d="M 603 4863 
L 1178 4863 
L 1178 0 
L 603 0 
L 603 4863 
z
" transform="scale(0.015625)"/>
       <path id="DejaVuSans-76" d="M 191 3500 
L 800 3500 
L 1894 563 
L 2988 3500 
L 3597 3500 
L 2284 0 
L 1503 0 
L 191 3500 
z
" transform="scale(0.015625)"/>
       <path id="DejaVuSans-72" d="M 2631 2963 
Q 2534 3019 2420 3045 
Q 2306 3072 2169 3072 
Q 1681 3072 1420 2755 
Q 1159 2438 1159 1844 
L 1159 0 
L 581 0 
L 581 3500 
L 1159 3500 
L 1159 2956 
Q 1341 3275 1631 3429 
Q 1922 3584 2338 3584 
Q 2397 3584 2469 3576 
Q 2541 3569 2628 3553 
L 2631 2963 
z
" transform="scale(0.015625)"/>
       <path id="DejaVuSans-28" d="M 1984 4856 
Q 1566 4138 1362 3434 
Q 1159 2731 1159 2009 
Q 1159 1288 1364 580 
Q 1569 -128 1984 -844 
L 1484 -844 
Q 1016 -109 783 600 
Q 550 1309 550 2009 
Q 550 2706 781 3412 
Q 1013 4119 1484 4856 
L 1984 4856 
z
" transform="scale(0.015625)"/>
       <path id="DejaVuSans-64" d="M 2906 2969 
L 2906 4863 
L 3481 4863 
L 3481 0 
L 2906 0 
L 2906 525 
Q 2725 213 2448 61 
Q 2172 -91 1784 -91 
Q 1150 -91 751 415 
Q 353 922 353 1747 
Q 353 2572 751 3078 
Q 1150 3584 1784 3584 
Q 2172 3584 2448 3432 
Q 2725 3281 2906 2969 
z
M 947 1747 
Q 947 1113 1208 752 
Q 1469 391 1925 391 
Q 2381 391 2643 752 
Q 2906 1113 2906 1747 
Q 2906 2381 2643 2742 
Q 2381 3103 1925 3103 
Q 1469 3103 1208 2742 
Q 947 2381 947 1747 
z
" transform="scale(0.015625)"/>
       <path id="DejaVuSans-42" d="M 1259 2228 
L 1259 519 
L 2272 519 
Q 2781 519 3026 730 
Q 3272 941 3272 1375 
Q 3272 1813 3026 2020 
Q 2781 2228 2272 2228 
L 1259 2228 
z
M 1259 4147 
L 1259 2741 
L 2194 2741 
Q 2656 2741 2882 2914 
Q 3109 3088 3109 3444 
Q 3109 3797 2882 3972 
Q 2656 4147 2194 4147 
L 1259 4147 
z
M 628 4666 
L 2241 4666 
Q 2963 4666 3353 4366 
Q 3744 4066 3744 3513 
Q 3744 3084 3544 2831 
Q 3344 2578 2956 2516 
Q 3422 2416 3680 2098 
Q 3938 1781 3938 1306 
Q 3938 681 3513 340 
Q 3088 0 2303 0 
L 628 0 
L 628 4666 
z
" transform="scale(0.015625)"/>
       <path id="DejaVuSans-29" d="M 513 4856 
L 1013 4856 
Q 1481 4119 1714 3412 
Q 1947 2706 1947 2009 
Q 1947 1309 1714 600 
Q 1481 -109 1013 -844 
L 513 -844 
Q 928 -128 1133 580 
Q 1338 1288 1338 2009 
Q 1338 2731 1133 3434 
Q 928 4138 513 4856 
z
" transform="scale(0.015625)"/>
      </defs>
      <use xlink:href="#DejaVuSans-43"/>
      <use xlink:href="#DejaVuSans-6f" transform="translate(69.824219 0)"/>
      <use xlink:href="#DejaVuSans-6d" transform="translate(131.005859 0)"/>
      <use xlink:href="#DejaVuSans-70" transform="translate(228.417969 0)"/>
      <use xlink:href="#DejaVuSans-6f" transform="translate(291.894531 0)"/>
      <use xlink:href="#DejaVuSans-73" transform="translate(353.076172 0)"/>
      <use xlink:href="#DejaVuSans-69" transform="translate(405.175781 0)"/>
      <use xlink:href="#DejaVuSans-74" transform="translate(432.958984 0)"/>
      <use xlink:href="#DejaVuSans-65" transform="translate(472.167969 0)"/>
      <use xlink:href="#DejaVuSans-20" transform="translate(533.691406 0)"/>
      <use xlink:href="#DejaVuSans-63" transform="translate(565.478516 0)"/>
      <use xlink:href="#DejaVuSans-68" transform="translate(620.458984 0)"/>
      <use xlink:href="#DejaVuSans-61" transform="translate(683.837891 0)"/>
      <use xlink:href="#DejaVuSans-6e" transform="translate(745.117188 0)"/>
      <use xlink:href="#DejaVuSans-6e" transform="translate(808.496094 0)"/>
      <use xlink:href="#DejaVuSans-65" transform="translate(871.875 0)"/>
      <use xlink:href="#DejaVuSans-6c" transform="translate(933.398438 0)"/>
      <use xlink:href="#DejaVuSans-20" transform="translate(961.181641 0)"/>
      <use xlink:href="#DejaVuSans-76" transform="translate(992.96875 0)"/>
      <use xlink:href="#DejaVuSans-61" transform="translate(1052.148438 0)"/>
      <use xlink:href="#DejaVuSans-72" transform="translate(1113.427734 0)"/>
      <use xlink:href="#DejaVuSans-69" transform="translate(1154.541016 0)"/>
      <use xlink:href="#DejaVuSans-61" transform="translate(1182.324219 0)"/>
      <use xlink:href="#DejaVuSans-74" transform="translate(1243.603516 0)"/>
      <use xlink:href="#DejaVuSans-69" transform="translate(1282.8125 0)"/>
      <use xlink:href="#DejaVuSans-6f" transform="translate(1310.595703 0)"/>
      <use xlink:href="#DejaVuSans-6e" transform="translate(1371.777344 0)"/>
      <use xlink:href="#DejaVuSans-20" transform="translate(1435.15625 0)"/>
      <use xlink:href="#DejaVuSans-28" transform="translate(1466.943359 0)"/>
      <use xlink:href="#DejaVuSans-64" transform="translate(1505.957031 0)"/>
      <use xlink:href="#DejaVuSans-42" transform="translate(1569.433594 0)"/>
      <use xlink:href="#DejaVuSans-29" transform="translate(1638.037109 0)"/>
     </g>
    </g>
   </g>
   <g id="matplotlib.axis_2">
    <g id="ytick_1">
     <g id="line2d_17">
      <path d="M 36.58125 293.070051 
L 554.06125 293.070051 
" clip-path="url(#p97babd73e0)" style="fill: none; stroke: #b0b0b0; stroke-opacity: 0.25; stroke-width: 0.8; stroke-linecap: square"/>
     </g>
     <g id="line2d_18">
      <defs>
       <path id="m17d512376c" d="M 0 0 
L -3.5 0 
" style="stroke: #000000; stroke-width: 0.8"/>
      </defs>
      <g>
       <use xlink:href="#m17d512376c" x="36.58125" y="293.070051" style="stroke: #000000; stroke-width: 0.8"/>
      </g>
     </g>
     <g id="text_10">
      <!-- 0.0 -->
      <g transform="translate(13.678125 296.86927) scale(0.1 -0.1)">
       <defs>
        <path id="DejaVuSans-2e" d="M 684 794 
L 1344 794 
L 1344 0 
L 684 0 
L 684 794 
z
" transform="scale(0.015625)"/>
       </defs>
       <use xlink:href="#DejaVuSans-30"/>
       <use xlink:href="#DejaVuSans-2e" transform="translate(63.623047 0)"/>
       <use xlink:href="#DejaVuSans-30" transform="translate(95.410156 0)"/>
      </g>
     </g>
    </g>
    <g id="ytick_2">
     <g id="line2d_19">
      <path d="M 36.58125 240.126575 
L 554.06125 240.126575 
" clip-path="url(#p97babd73e0)" style="fill: none; stroke: #b0b0b0; stroke-opacity: 0.25; stroke-width: 0.8; stroke-linecap: square"/>
     </g>
     <g id="line2d_20">
      <g>
       <use xlink:href="#m17d512376c" x="36.58125" y="240.126575" style="stroke: #000000; stroke-width: 0.8"/>
      </g>
     </g>
     <g id="text_11">
      <!-- 0.2 -->
      <g transform="translate(13.678125 243.925794) scale(0.1 -0.1)">
       <use xlink:href="#DejaVuSans-30"/>
       <use xlink:href="#DejaVuSans-2e" transform="translate(63.623047 0)"/>
       <use xlink:href="#DejaVuSans-32" transform="translate(95.410156 0)"/>
      </g>
     </g>
    </g>
    <g id="ytick_3">
     <g id="line2d_21">
      <path d="M 36.58125 187.183099 
L 554.06125 187.183099 
" clip-path="url(#p97babd73e0)" style="fill: none; stroke: #b0b0b0; stroke-opacity: 0.25; stroke-width: 0.8; stroke-linecap: square"/>
     </g>
     <g id="line2d_22">
      <g>
       <use xlink:href="#m17d512376c" x="36.58125" y="187.183099" style="stroke: #000000; stroke-width: 0.8"/>
      </g>
     </g>
     <g id="text_12">
      <!-- 0.4 -->
      <g transform="translate(13.678125 190.982318) scale(0.1 -0.1)">
       <use xlink:href="#DejaVuSans-30"/>
       <use xlink:href="#DejaVuSans-2e" transform="translate(63.623047 0)"/>
       <use xlink:href="#DejaVuSans-34" transform="translate(95.410156 0)"/>
      </g>
     </g>
    </g>
    <g id="ytick_4">
     <g id="line2d_23">
      <path d="M 36.58125 134.239623 
L 554.06125 134.239623 
" clip-path="url(#p97babd73e0)" style="fill: none; stroke: #b0b0b0; stroke-opacity: 0.25; stroke-width: 0.8; stroke-linecap: square"/>
     </g>
     <g id="line2d_24">
      <g>
       <use xlink:href="#m17d512376c" x="36.58125" y="134.239623" style="stroke: #000000; stroke-width: 0.8"/>
      </g>
     </g>
     <g id="text_13">
      <!-- 0.6 -->
      <g transform="translate(13.678125 138.038842) scale(0.1 -0.1)">
       <defs>
        <path id="DejaVuSans-36" d="M 2113 2584 
Q 1688 2584 1439 2293 
Q 1191 2003 1191 1497 
Q 1191 994 1439 701 
Q 1688 409 2113 409 
Q 2538 409 2786 701 
Q 3034 994 3034 1497 
Q 3034 2003 2786 2293 
Q 2538 2584 2113 2584 
z
M 3366 4563 
L 3366 3988 
Q 3128 4100 2886 4159 
Q 2644 4219 2406 4219 
Q 1781 4219 1451 3797 
Q 1122 3375 1075 2522 
Q 1259 2794 1537 2939 
Q 1816 3084 2150 3084 
Q 2853 3084 3261 2657 
Q 3669 2231 3669 1497 
Q 3669 778 3244 343 
Q 2819 -91 2113 -91 
Q 1303 -91 875 529 
Q 447 1150 447 2328 
Q 447 3434 972 4092 
Q 1497 4750 2381 4750 
Q 2619 4750 2861 4703 
Q 3103 4656 3366 4563 
z
" transform="scale(0.015625)"/>
       </defs>
       <use xlink:href="#DejaVuSans-30"/>
       <use xlink:href="#DejaVuSans-2e" transform="translate(63.623047 0)"/>
       <use xlink:href="#DejaVuSans-36" transform="translate(95.410156 0)"/>
      </g>
     </g>
    </g>
    <g id="ytick_5">
     <g id="line2d_25">
      <path d="M 36.58125 81.296147 
L 554.06125 81.296147 
" clip-path="url(#p97babd73e0)" style="fill: none; stroke: #b0b0b0; stroke-opacity: 0.25; stroke-width: 0.8; stroke-linecap: square"/>
     </g>
     <g id="line2d_26">
      <g>
       <use xlink:href="#m17d512376c" x="36.58125" y="81.296147" style="stroke: #000000; stroke-width: 0.8"/>
      </g>
     </g>
     <g id="text_14">
      <!-- 0.8 -->
      <g transform="translate(13.678125 85.095365) scale(0.1 -0.1)">
       <defs>
        <path id="DejaVuSans-38" d="M 2034 2216 
Q 1584 2216 1326 1975 
Q 1069 1734 1069 1313 
Q 1069 891 1326 650 
Q 1584 409 2034 409 
Q 2484 409 2743 651 
Q 3003 894 3003 1313 
Q 3003 1734 2745 1975 
Q 2488 2216 2034 2216 
z
M 1403 2484 
Q 997 2584 770 2862 
Q 544 3141 544 3541 
Q 544 4100 942 4425 
Q 1341 4750 2034 4750 
Q 2731 4750 3128 4425 
Q 3525 4100 3525 3541 
Q 3525 3141 3298 2862 
Q 3072 2584 2669 2484 
Q 3125 2378 3379 2068 
Q 3634 1759 3634 1313 
Q 3634 634 3220 271 
Q 2806 -91 2034 -91 
Q 1263 -91 848 271 
Q 434 634 434 1313 
Q 434 1759 690 2068 
Q 947 2378 1403 2484 
z
M 1172 3481 
Q 1172 3119 1398 2916 
Q 1625 2713 2034 2713 
Q 2441 2713 2670 2916 
Q 2900 3119 2900 3481 
Q 2900 3844 2670 4047 
Q 2441 4250 2034 4250 
Q 1625 4250 1398 4047 
Q 1172 3844 1172 3481 
z
" transform="scale(0.015625)"/>
       </defs>
       <use xlink:href="#DejaVuSans-30"/>
       <use xlink:href="#DejaVuSans-2e" transform="translate(63.623047 0)"/>
       <use xlink:href="#DejaVuSans-38" transform="translate(95.410156 0)"/>
      </g>
     </g>
    </g>
    <g id="ytick_6">
     <g id="line2d_27">
      <path d="M 36.58125 28.35267 
L 554.06125 28.35267 
" clip-path="url(#p97babd73e0)" style="fill: none; stroke: #b0b0b0; stroke-opacity: 0.25; stroke-width: 0.8; stroke-linecap: square"/>
     </g>
     <g id="line2d_28">
      <g>
       <use xlink:href="#m17d512376c" x="36.58125" y="28.35267" style="stroke: #000000; stroke-width: 0.8"/>
      </g>
     </g>
     <g id="text_15">
      <!-- 1.0 -->
      <g transform="translate(13.678125 32.151889) scale(0.1 -0.1)">
       <use xlink:href="#DejaVuSans-31"/>
       <use xlink:href="#DejaVuSans-2e" transform="translate(63.623047 0)"/>
       <use xlink:href="#DejaVuSans-30" transform="translate(95.410156 0)"/>
      </g>
     </g>
    </g>
    <g id="text_16">
     <!-- CDF -->
     <g transform="translate(7.598438 170.915313) rotate(-90) scale(0.1 -0.1)">
      <defs>
       <path id="DejaVuSans-44" d="M 1259 4147 
L 1259 519 
L 2022 519 
Q 2988 519 3436 956 
Q 3884 1394 3884 2338 
Q 3884 3275 3436 3711 
Q 2988 4147 2022 4147 
L 1259 4147 
z
M 628 4666 
L 1925 4666 
Q 3281 4666 3915 4102 
Q 4550 3538 4550 2338 
Q 4550 1131 3912 565 
Q 3275 0 1925 0 
L 628 0 
L 628 4666 
z
" transform="scale(0.015625)"/>
       <path id="DejaVuSans-46" d="M 628 4666 
L 3309 4666 
L 3309 4134 
L 1259 4134 
L 1259 2759 
L 3109 2759 
L 3109 2228 
L 1259 2228 
L 1259 0 
L 628 0 
L 628 4666 
z
" transform="scale(0.015625)"/>
      </defs>
      <use xlink:href="#DejaVuSans-43"/>
      <use xlink:href="#DejaVuSans-44" transform="translate(69.824219 0)"/>
      <use xlink:href="#DejaVuSans-46" transform="translate(146.826172 0)"/>
     </g>
    </g>
   </g>
   <g id="line2d_29">
    <path d="M 60.103068 293.04358 
L 132.826056 292.884749 
L 187.102963 292.699447 
L 217.706632 292.037653 
L 218.540283 291.958238 
L 223.873045 291.693521 
L 224.29119 291.614106 
L 227.601023 291.455275 
L 232.085891 291.031727 
L 234.279731 290.899369 
L 252.945839 288.993404 
L 253.462994 288.887517 
L 254.703507 288.702214 
L 254.853345 288.649271 
L 256.168746 288.411025 
L 257.511613 288.17278 
L 259.024771 288.013949 
L 260.684813 287.616873 
L 261.634912 287.405099 
L 265.526029 286.743306 
L 266.703539 286.50506 
L 266.986678 286.372702 
L 269.217904 285.393247 
L 269.38462 285.260889 
L 270.142129 284.996171 
L 270.401803 284.731454 
L 271.28451 284.440265 
L 271.417552 284.360849 
L 272.201959 284.202019 
L 273.282441 283.937302 
L 273.37477 283.857886 
L 274.782061 283.566697 
L 275.450995 283.30198 
L 275.553777 283.249036 
L 276.532969 282.957847 
L 276.932561 282.746073 
L 276.981739 282.640186 
L 283.018784 280.231258 
L 283.114928 280.151843 
L 283.521885 279.993013 
L 283.891024 279.834182 
L 284.4823 279.675352 
L 285.284328 279.172389 
L 285.608897 279.013558 
L 285.825544 278.8812 
L 286.612851 278.695898 
L 287.342423 278.43118 
L 287.814856 278.219406 
L 288.34236 277.928217 
L 288.749321 277.610556 
L 288.827424 277.451726 
L 289.660251 277.134065 
L 290.035509 276.975235 
L 290.484035 276.736989 
L 290.492494 276.710517 
L 290.744342 276.551687 
L 291.517165 276.260498 
L 292.015237 275.99578 
L 292.221167 275.651648 
L 292.6383 275.466345 
L 293.380221 275.122213 
L 293.708834 274.963382 
L 294.122093 274.61925 
L 294.438154 274.354532 
L 294.525919 274.275117 
L 296.21248 273.189776 
L 296.899503 272.527983 
L 297.419265 272.34268 
L 297.548311 272.104435 
L 298.251471 271.601472 
L 300.942585 269.827865 
L 301.027271 269.74845 
L 301.776552 269.166072 
L 301.895186 269.060185 
L 302.303739 268.795467 
L 302.429055 268.663109 
L 303.030084 268.213089 
L 303.130009 268.107202 
L 303.626161 267.657183 
L 303.736704 267.524824 
L 303.930759 267.339522 
L 305.006028 266.518898 
L 305.025961 266.413011 
L 305.30257 266.254181 
L 305.574563 265.93652 
L 305.872098 265.698274 
L 305.986212 265.645331 
L 306.137734 265.539444 
L 306.441489 265.248255 
L 306.656867 265.062952 
L 306.863944 264.904122 
L 307.276805 264.586461 
L 307.383538 264.427631 
L 308.061375 263.818781 
L 308.232771 263.633479 
L 308.426415 263.448176 
L 308.623474 263.315818 
L 309.002933 263.104044 
L 309.507271 262.812855 
L 309.798977 262.627552 
L 309.864484 262.495194 
L 310.039376 262.362835 
L 310.114053 262.230476 
L 310.355764 262.098118 
L 310.558507 261.8334 
L 311.55918 260.774531 
L 311.729522 260.562757 
L 312.017521 260.245096 
L 312.665403 259.68919 
L 312.940961 259.345057 
L 312.999103 259.265642 
L 313.093021 259.106811 
L 313.241873 258.974453 
L 313.668762 258.762679 
L 314.522135 257.703809 
L 314.667934 257.571451 
L 314.942311 257.386148 
L 315.449298 256.777298 
L 315.580369 256.618468 
L 316.664174 255.400768 
L 316.77496 255.294881 
L 317.454442 254.633088 
L 318.737815 253.177142 
L 319.103823 253.044783 
L 319.514655 252.303575 
L 319.637944 252.171216 
L 319.769292 251.985914 
L 320.137661 251.694725 
L 320.271549 251.482951 
L 321.45897 250.291723 
L 321.563658 250.159364 
L 321.844474 249.894646 
L 321.945219 249.735816 
L 322.107613 249.576986 
L 322.232101 249.365212 
L 322.38203 249.17991 
L 322.570411 249.021079 
L 322.900711 248.624003 
L 323.003847 248.465173 
L 323.677155 247.697492 
L 323.790711 247.485718 
L 324.050337 247.06217 
L 324.261781 246.823925 
L 324.59933 246.506264 
L 324.878014 246.056244 
L 325.209682 245.738584 
L 325.55206 245.262092 
L 325.668983 245.103262 
L 325.823441 244.759129 
L 326.184443 244.30911 
L 326.318965 244.097336 
L 326.894781 243.170825 
L 327.232778 242.826692 
L 327.439433 242.64139 
L 327.694256 242.270786 
L 328.020658 241.87371 
L 328.337197 241.450162 
L 328.459303 241.291332 
L 328.711633 240.81484 
L 328.815489 240.576595 
L 330.302613 237.982364 
L 330.437721 237.717647 
L 331.688953 235.838154 
L 331.815822 235.679323 
L 331.996424 235.414606 
L 332.186963 235.282247 
L 332.313286 234.964586 
L 332.93424 234.011604 
L 333.228251 233.79983 
L 333.31631 233.667471 
L 333.411376 233.508641 
L 333.535823 233.243923 
L 333.683747 232.979206 
L 333.797189 232.793904 
L 333.94553 232.608602 
L 334.069673 232.423299 
L 334.183234 232.264469 
L 334.348076 231.867393 
L 334.409882 231.655619 
L 334.541409 231.470317 
L 334.787481 231.285015 
L 335.435941 229.987899 
L 335.699767 229.69671 
L 335.787274 229.617295 
L 336.100646 229.220219 
L 336.279215 228.849615 
L 336.396084 228.664313 
L 336.789764 228.108406 
L 338.650917 225.143571 
L 339.317505 224.217061 
L 339.506871 223.925871 
L 339.641199 223.793513 
L 339.922749 223.422908 
L 341.021146 221.834604 
L 341.142097 221.62283 
L 341.244809 221.464 
L 342.594427 219.002128 
L 342.79816 218.657996 
L 342.917942 218.472693 
L 343.128496 218.207976 
L 343.254945 217.96973 
L 343.371953 217.757956 
L 343.598854 217.36088 
L 344.160411 216.43437 
L 344.433073 216.010822 
L 344.59241 215.53433 
L 346.533299 211.987118 
L 346.725352 211.7224 
L 348.098602 208.704622 
L 348.191361 208.572263 
L 348.631293 207.963413 
L 348.777057 207.725168 
L 348.926926 207.433979 
L 349.040171 207.116318 
L 349.421307 206.507468 
L 349.561199 206.163335 
L 349.826507 205.766259 
L 350.1399 205.263296 
L 350.295162 205.077994 
L 350.601759 204.4162 
L 350.70321 204.204427 
L 350.782616 203.992653 
L 351.010947 203.595577 
L 351.43659 202.986727 
L 351.547318 202.854368 
L 351.671201 202.695537 
L 351.868443 202.139631 
L 352.063351 201.874914 
L 352.323158 201.451366 
L 352.613832 200.974874 
L 353.969235 198.195342 
L 354.035448 198.01004 
L 354.237912 197.56002 
L 354.288326 197.374718 
L 354.406648 196.898227 
L 354.604471 196.554094 
L 354.723162 196.236433 
L 354.832387 196.051131 
L 355.717674 194.35694 
L 355.827364 194.145166 
L 355.926336 193.853977 
L 356.009139 193.615731 
L 356.108618 193.377486 
L 356.178457 193.245127 
L 356.318057 192.821579 
L 356.612376 192.265673 
L 356.744648 191.895068 
L 356.895966 191.656823 
L 357.226782 190.809727 
L 357.287151 190.650897 
L 357.97094 188.691988 
L 358.077506 188.427271 
L 358.234762 188.136082 
L 358.402426 187.791949 
L 358.59394 187.50076 
L 358.755457 187.209571 
L 358.93327 186.997797 
L 359.25143 186.230116 
L 359.443163 185.753625 
L 359.556798 185.594795 
L 359.678688 185.277134 
L 360.188215 184.403566 
L 360.325945 183.980019 
L 360.795226 183.185867 
L 361.082606 182.47113 
L 361.274621 182.17994 
L 361.620618 181.465204 
L 361.971802 180.856354 
L 362.153816 180.432806 
L 362.275843 180.247504 
L 362.529875 179.532767 
L 362.685586 179.056275 
L 362.87763 178.685671 
L 362.98783 178.315067 
L 363.299318 177.785632 
L 364.083136 176.012025 
L 364.224371 175.826723 
L 364.31219 175.641421 
L 364.561829 175.32376 
L 365.297523 173.550154 
L 365.380513 173.391323 
L 365.517664 173.100134 
L 365.6502 172.835417 
L 365.791413 172.517756 
L 365.938448 172.173623 
L 366.070221 171.935378 
L 366.262877 171.538302 
L 366.388765 171.273584 
L 366.705438 170.717678 
L 366.822243 170.400017 
L 366.985126 169.817639 
L 367.132888 169.632337 
L 367.276259 169.341147 
L 367.551214 168.599939 
L 367.665354 168.335221 
L 368.300525 166.614558 
L 368.378531 166.455728 
L 368.631029 165.846878 
L 369.369219 164.390932 
L 369.475051 164.232102 
L 369.648212 163.808554 
L 370.021356 162.484967 
L 370.196623 162.193778 
L 370.375463 161.637872 
L 370.509526 161.426098 
L 370.73649 160.84372 
L 370.915738 160.526059 
L 371.143152 160.076039 
L 371.458542 159.414246 
L 371.572289 159.202472 
L 371.693926 158.937754 
L 371.824903 158.699509 
L 372.001073 158.40832 
L 372.135027 158.090659 
L 372.917716 156.237637 
L 373.075319 155.999391 
L 373.680942 154.702276 
L 373.857198 154.093426 
L 374.229605 153.405161 
L 374.378062 153.034557 
L 374.478345 152.875726 
L 374.652912 152.346292 
L 374.742996 152.134518 
L 374.939951 151.446253 
L 375.108362 151.075648 
L 375.685774 149.672646 
L 376.115028 148.613777 
L 376.235209 148.349059 
L 376.391938 147.713737 
L 377.167428 145.834244 
L 377.309567 145.516583 
L 377.380141 145.278338 
L 377.491626 145.093035 
L 377.612739 144.881261 
L 377.735922 144.669488 
L 377.912017 144.219468 
L 378.09372 143.79592 
L 378.198511 143.663562 
L 378.333393 143.292957 
L 378.573022 142.657635 
L 378.75313 142.41939 
L 378.889323 142.234088 
L 379.253114 141.572294 
L 379.402558 141.042859 
L 379.720616 140.486953 
L 383.056763 132.783677 
L 384.36824 129.898258 
L 384.427806 129.739427 
L 384.640508 129.262936 
L 384.791234 129.02469 
L 384.910248 128.680558 
L 384.986166 128.521727 
L 385.073603 128.309953 
L 385.157408 128.151123 
L 385.558012 127.171669 
L 385.651596 126.959895 
L 386.737446 124.392136 
L 386.950205 123.968588 
L 387.334908 123.306795 
L 388.208292 121.480245 
L 388.300889 121.294943 
L 388.457695 120.95081 
L 388.613009 120.79198 
L 388.812877 120.289017 
L 388.989517 119.786054 
L 389.245181 118.991902 
L 389.32607 118.780128 
L 389.449958 118.51541 
L 390.846304 115.92118 
L 390.953885 115.735878 
L 391.220831 115.100556 
L 392.405615 112.585741 
L 392.515379 112.400439 
L 392.951222 111.420985 
L 393.152172 111.182739 
L 393.45572 110.679776 
L 393.575834 110.44153 
L 394.100253 109.303246 
L 394.250282 108.932641 
L 394.540131 108.509093 
L 394.646581 108.217904 
L 394.782878 107.953187 
L 394.973842 107.503167 
L 395.074971 107.317865 
L 395.325783 106.523713 
L 395.645772 105.729561 
L 395.791489 105.464843 
L 396.145159 104.697163 
L 396.291234 104.538333 
L 398.667717 100.5411 
L 398.801212 100.302855 
L 399.167747 99.720476 
L 399.276666 99.508702 
L 399.528158 99.032211 
L 400.403955 97.099774 
L 400.593928 96.914472 
L 400.872405 96.27915 
L 401.176105 95.723244 
L 401.294657 95.537942 
L 401.343462 95.458526 
L 401.501939 95.299696 
L 401.641359 95.008507 
L 402.016881 94.29377 
L 402.147702 94.029053 
L 402.281644 93.84375 
L 402.403212 93.552561 
L 403.377887 91.69954 
L 403.679023 91.328935 
L 404.032956 90.667142 
L 404.179218 90.402425 
L 404.314716 90.084764 
L 404.554511 89.581801 
L 404.691471 89.42297 
L 404.809989 89.025894 
L 404.908173 88.761177 
L 405.364708 87.914081 
L 405.704063 87.675835 
L 406.025045 86.908155 
L 406.175331 86.564022 
L 406.750401 85.690455 
L 406.977324 85.240436 
L 407.717416 84.022736 
L 407.832459 83.810962 
L 408.026012 83.413886 
L 408.308866 83.043281 
L 408.432498 82.699149 
L 408.699739 82.249129 
L 408.851449 82.010884 
L 408.999457 81.772638 
L 409.452778 80.925542 
L 409.607452 80.713768 
L 409.753278 80.343164 
L 410.173289 79.734314 
L 410.594024 78.940162 
L 410.712354 78.675445 
L 410.850295 78.516614 
L 411.055124 78.30484 
L 411.27913 77.775405 
L 412.292655 76.001799 
L 412.427877 75.790025 
L 412.808055 75.022345 
L 412.977709 74.731156 
L 413.490521 73.937003 
L 413.612445 73.72523 
L 413.769935 73.43404 
L 413.908871 73.301682 
L 414.021383 73.142851 
L 414.146593 72.904606 
L 414.347609 72.692832 
L 414.460488 72.50753 
L 414.620402 72.21634 
L 414.928585 71.845736 
L 415.125302 71.633962 
L 415.302091 71.44866 
L 415.513592 71.210414 
L 415.620583 70.972169 
L 415.786468 70.733923 
L 415.919582 70.548621 
L 416.219686 70.283904 
L 416.577493 69.542695 
L 416.698649 69.383864 
L 416.843642 69.092675 
L 416.963228 68.907373 
L 417.109729 68.536769 
L 417.202327 68.298523 
L 417.417281 67.848504 
L 417.580347 67.716145 
L 417.67609 67.477899 
L 417.808927 67.345541 
L 417.989035 67.107295 
L 418.378796 66.763162 
L 418.554549 66.57786 
L 418.712293 66.339615 
L 418.816362 66.207256 
L 419.144805 65.96901 
L 419.289091 65.783708 
L 419.447158 65.624878 
L 420.10055 64.777782 
L 420.324422 64.618952 
L 421.17014 63.613026 
L 421.643234 63.004176 
L 421.985621 62.633571 
L 422.061032 62.474741 
L 422.330129 61.99825 
L 422.668893 61.70706 
L 422.935002 61.177626 
L 423.336363 60.78055 
L 423.50633 60.621719 
L 423.598919 60.48936 
L 423.727943 60.277587 
L 424.119226 59.642265 
L 424.33343 59.456963 
L 424.5402 59.271661 
L 424.738313 59.11283 
L 424.848715 58.927528 
L 425.078009 58.742226 
L 425.189359 58.50398 
L 425.278367 58.451037 
L 425.553227 58.212791 
L 425.730717 58.080432 
L 425.833769 57.921602 
L 426.265275 57.365695 
L 426.485829 57.048035 
L 426.722012 56.703902 
L 426.953653 56.545072 
L 427.228302 56.306826 
L 427.425319 56.06858 
L 427.893726 55.645032 
L 427.978383 55.539145 
L 428.166259 55.353843 
L 428.991898 54.427332 
L 429.194081 54.268502 
L 429.366384 54.030256 
L 430.103734 53.368463 
L 430.266401 53.209633 
L 430.746378 52.839028 
L 431.009732 52.41548 
L 431.220982 52.25665 
L 431.400973 52.09782 
L 431.671232 51.727215 
L 431.894389 51.594856 
L 431.925118 51.462498 
L 432.126176 51.330139 
L 432.311208 50.959535 
L 432.530402 50.800704 
L 433.116551 50.377157 
L 433.183422 50.244798 
L 433.695302 49.98008 
L 434.028231 49.66242 
L 434.252991 49.477117 
L 434.551789 49.159457 
L 435.077266 48.868267 
L 435.229544 48.630022 
L 435.460383 48.391776 
L 435.559972 48.259417 
L 436.000368 47.968228 
L 436.109533 47.809398 
L 436.27607 47.703511 
L 436.527648 47.571152 
L 436.730962 47.279963 
L 437.049577 47.094661 
L 437.136404 46.962302 
L 437.372033 46.777 
L 437.465953 46.697585 
L 437.691401 46.512283 
L 437.757743 46.432868 
L 437.879474 46.300509 
L 438.090846 46.16815 
L 438.665172 45.824018 
L 438.784742 45.612244 
L 439.025515 45.40047 
L 439.260712 45.135752 
L 440.080747 44.553374 
L 440.180019 44.394544 
L 440.498999 44.235713 
L 440.916421 43.997468 
L 441.589513 43.415089 
L 441.789147 43.070957 
L 442.059185 42.938598 
L 442.182714 42.859183 
L 442.404345 42.647409 
L 443.992824 41.641483 
L 444.453694 41.482653 
L 444.545833 41.376766 
L 444.787621 41.244407 
L 444.939684 41.112048 
L 445.202091 40.926746 
L 446.11077 40.344368 
L 446.35247 39.973763 
L 446.608439 39.841405 
L 446.979391 39.629631 
L 447.515976 39.338442 
L 447.952169 39.179611 
L 448.375498 38.914894 
L 448.635212 38.729592 
L 452.712303 36.823627 
L 453.131362 36.664796 
L 453.211634 36.585381 
L 453.589245 36.426551 
L 453.683041 36.347135 
L 454.501763 36.135361 
L 454.554166 36.082418 
L 455.101701 35.897116 
L 455.155382 35.817701 
L 456.225488 35.447096 
L 456.870216 35.208851 
L 457.377774 35.076492 
L 458.521527 34.679416 
L 459.230753 34.494114 
L 459.930955 34.202925 
L 459.935758 34.149981 
L 460.560804 33.964679 
L 460.974933 33.752905 
L 461.880426 33.567603 
L 462.037063 33.488188 
L 462.184732 33.435244 
L 462.986387 33.22347 
L 464.611781 32.826394 
L 464.721939 32.694036 
L 466.314469 32.429318 
L 469.228408 31.688109 
L 470.126316 31.555751 
L 472.155781 31.291033 
L 473.095999 31.079259 
L 475.973711 30.390994 
L 477.308899 30.152749 
L 479.889968 29.729201 
L 480.898471 29.649786 
L 489.395211 28.987992 
L 489.398473 28.96152 
L 493.872927 28.80269 
L 493.881147 28.776218 
L 494.194158 28.723275 
L 509.416882 28.432086 
L 530.539432 28.35267 
L 530.539432 28.35267 
" clip-path="url(#p97babd73e0)" style="fill: none; stroke: #1f77b4; stroke-width: 2; stroke-linecap: square"/>
   </g>
   <g id="patch_3">
    <path d="M 36.58125 306.278125 
L 36.58125 15.118125 
" style="fill: none; stroke: #000000; stroke-width: 0.8; stroke-linejoin: miter; stroke-linecap: square"/>
   </g>
   <g id="patch_4">
    <path d="M 554.06125 306.278125 
L 554.06125 15.118125 
" style="fill: none; stroke: #000000; stroke-width: 0.8; stroke-linejoin: miter; stroke-linecap: square"/>
   </g>
   <g id="patch_5">
    <path d="M 36.58125 306.278125 
L 554.06125 306.278125 
" style="fill: none; stroke: #000000; stroke-width: 0.8; stroke-linejoin: miter; stroke-linecap: square"/>
   </g>
   <g id="patch_6">
    <path d="M 36.58125 15.118125 
L 554.06125 15.118125 
" style="fill: none; stroke: #000000; stroke-width: 0.8; stroke-linejoin: miter; stroke-linecap: square"/>
   </g>
   <g id="text_17">
    <!-- Composite Channel Variation Empirical CDF -->
    <g transform="translate(148.204063 9.118125) scale(0.12 -0.12)">
     <defs>
      <path id="DejaVuSans-Bold-43" d="M 4288 256 
Q 3956 84 3597 -3 
Q 3238 -91 2847 -91 
Q 1681 -91 1000 561 
Q 319 1213 319 2328 
Q 319 3447 1000 4098 
Q 1681 4750 2847 4750 
Q 3238 4750 3597 4662 
Q 3956 4575 4288 4403 
L 4288 3438 
Q 3953 3666 3628 3772 
Q 3303 3878 2944 3878 
Q 2300 3878 1931 3465 
Q 1563 3053 1563 2328 
Q 1563 1606 1931 1193 
Q 2300 781 2944 781 
Q 3303 781 3628 887 
Q 3953 994 4288 1222 
L 4288 256 
z
" transform="scale(0.015625)"/>
      <path id="DejaVuSans-Bold-6f" d="M 2203 2784 
Q 1831 2784 1636 2517 
Q 1441 2250 1441 1747 
Q 1441 1244 1636 976 
Q 1831 709 2203 709 
Q 2569 709 2762 976 
Q 2956 1244 2956 1747 
Q 2956 2250 2762 2517 
Q 2569 2784 2203 2784 
z
M 2203 3584 
Q 3106 3584 3614 3096 
Q 4122 2609 4122 1747 
Q 4122 884 3614 396 
Q 3106 -91 2203 -91 
Q 1297 -91 786 396 
Q 275 884 275 1747 
Q 275 2609 786 3096 
Q 1297 3584 2203 3584 
z
" transform="scale(0.015625)"/>
      <path id="DejaVuSans-Bold-6d" d="M 3781 2919 
Q 3994 3244 4286 3414 
Q 4578 3584 4928 3584 
Q 5531 3584 5847 3212 
Q 6163 2841 6163 2131 
L 6163 0 
L 5038 0 
L 5038 1825 
Q 5041 1866 5042 1909 
Q 5044 1953 5044 2034 
Q 5044 2406 4934 2573 
Q 4825 2741 4581 2741 
Q 4263 2741 4089 2478 
Q 3916 2216 3909 1719 
L 3909 0 
L 2784 0 
L 2784 1825 
Q 2784 2406 2684 2573 
Q 2584 2741 2328 2741 
Q 2006 2741 1831 2477 
Q 1656 2213 1656 1722 
L 1656 0 
L 531 0 
L 531 3500 
L 1656 3500 
L 1656 2988 
Q 1863 3284 2130 3434 
Q 2397 3584 2719 3584 
Q 3081 3584 3359 3409 
Q 3638 3234 3781 2919 
z
" transform="scale(0.015625)"/>
      <path id="DejaVuSans-Bold-70" d="M 1656 506 
L 1656 -1331 
L 538 -1331 
L 538 3500 
L 1656 3500 
L 1656 2988 
Q 1888 3294 2169 3439 
Q 2450 3584 2816 3584 
Q 3463 3584 3878 3070 
Q 4294 2556 4294 1747 
Q 4294 938 3878 423 
Q 3463 -91 2816 -91 
Q 2450 -91 2169 54 
Q 1888 200 1656 506 
z
M 2400 2772 
Q 2041 2772 1848 2508 
Q 1656 2244 1656 1747 
Q 1656 1250 1848 986 
Q 2041 722 2400 722 
Q 2759 722 2948 984 
Q 3138 1247 3138 1747 
Q 3138 2247 2948 2509 
Q 2759 2772 2400 2772 
z
" transform="scale(0.015625)"/>
      <path id="DejaVuSans-Bold-73" d="M 3272 3391 
L 3272 2541 
Q 2913 2691 2578 2766 
Q 2244 2841 1947 2841 
Q 1628 2841 1473 2761 
Q 1319 2681 1319 2516 
Q 1319 2381 1436 2309 
Q 1553 2238 1856 2203 
L 2053 2175 
Q 2913 2066 3209 1816 
Q 3506 1566 3506 1031 
Q 3506 472 3093 190 
Q 2681 -91 1863 -91 
Q 1516 -91 1145 -36 
Q 775 19 384 128 
L 384 978 
Q 719 816 1070 734 
Q 1422 653 1784 653 
Q 2113 653 2278 743 
Q 2444 834 2444 1013 
Q 2444 1163 2330 1236 
Q 2216 1309 1875 1350 
L 1678 1375 
Q 931 1469 631 1722 
Q 331 1975 331 2491 
Q 331 3047 712 3315 
Q 1094 3584 1881 3584 
Q 2191 3584 2531 3537 
Q 2872 3491 3272 3391 
z
" transform="scale(0.015625)"/>
      <path id="DejaVuSans-Bold-69" d="M 538 3500 
L 1656 3500 
L 1656 0 
L 538 0 
L 538 3500 
z
M 538 4863 
L 1656 4863 
L 1656 3950 
L 538 3950 
L 538 4863 
z
" transform="scale(0.015625)"/>
      <path id="DejaVuSans-Bold-74" d="M 1759 4494 
L 1759 3500 
L 2913 3500 
L 2913 2700 
L 1759 2700 
L 1759 1216 
Q 1759 972 1856 886 
Q 1953 800 2241 800 
L 2816 800 
L 2816 0 
L 1856 0 
Q 1194 0 917 276 
Q 641 553 641 1216 
L 641 2700 
L 84 2700 
L 84 3500 
L 641 3500 
L 641 4494 
L 1759 4494 
z
" transform="scale(0.015625)"/>
      <path id="DejaVuSans-Bold-65" d="M 4031 1759 
L 4031 1441 
L 1416 1441 
Q 1456 1047 1700 850 
Q 1944 653 2381 653 
Q 2734 653 3104 758 
Q 3475 863 3866 1075 
L 3866 213 
Q 3469 63 3072 -14 
Q 2675 -91 2278 -91 
Q 1328 -91 801 392 
Q 275 875 275 1747 
Q 275 2603 792 3093 
Q 1309 3584 2216 3584 
Q 3041 3584 3536 3087 
Q 4031 2591 4031 1759 
z
M 2881 2131 
Q 2881 2450 2695 2645 
Q 2509 2841 2209 2841 
Q 1884 2841 1681 2658 
Q 1478 2475 1428 2131 
L 2881 2131 
z
" transform="scale(0.015625)"/>
      <path id="DejaVuSans-Bold-20" transform="scale(0.015625)"/>
      <path id="DejaVuSans-Bold-68" d="M 4056 2131 
L 4056 0 
L 2931 0 
L 2931 347 
L 2931 1625 
Q 2931 2084 2911 2256 
Q 2891 2428 2841 2509 
Q 2775 2619 2662 2680 
Q 2550 2741 2406 2741 
Q 2056 2741 1856 2470 
Q 1656 2200 1656 1722 
L 1656 0 
L 538 0 
L 538 4863 
L 1656 4863 
L 1656 2988 
Q 1909 3294 2193 3439 
Q 2478 3584 2822 3584 
Q 3428 3584 3742 3212 
Q 4056 2841 4056 2131 
z
" transform="scale(0.015625)"/>
      <path id="DejaVuSans-Bold-61" d="M 2106 1575 
Q 1756 1575 1579 1456 
Q 1403 1338 1403 1106 
Q 1403 894 1545 773 
Q 1688 653 1941 653 
Q 2256 653 2472 879 
Q 2688 1106 2688 1447 
L 2688 1575 
L 2106 1575 
z
M 3816 1997 
L 3816 0 
L 2688 0 
L 2688 519 
Q 2463 200 2181 54 
Q 1900 -91 1497 -91 
Q 953 -91 614 226 
Q 275 544 275 1050 
Q 275 1666 698 1953 
Q 1122 2241 2028 2241 
L 2688 2241 
L 2688 2328 
Q 2688 2594 2478 2717 
Q 2269 2841 1825 2841 
Q 1466 2841 1156 2769 
Q 847 2697 581 2553 
L 581 3406 
Q 941 3494 1303 3539 
Q 1666 3584 2028 3584 
Q 2975 3584 3395 3211 
Q 3816 2838 3816 1997 
z
" transform="scale(0.015625)"/>
      <path id="DejaVuSans-Bold-6e" d="M 4056 2131 
L 4056 0 
L 2931 0 
L 2931 347 
L 2931 1631 
Q 2931 2084 2911 2256 
Q 2891 2428 2841 2509 
Q 2775 2619 2662 2680 
Q 2550 2741 2406 2741 
Q 2056 2741 1856 2470 
Q 1656 2200 1656 1722 
L 1656 0 
L 538 0 
L 538 3500 
L 1656 3500 
L 1656 2988 
Q 1909 3294 2193 3439 
Q 2478 3584 2822 3584 
Q 3428 3584 3742 3212 
Q 4056 2841 4056 2131 
z
" transform="scale(0.015625)"/>
      <path id="DejaVuSans-Bold-6c" d="M 538 4863 
L 1656 4863 
L 1656 0 
L 538 0 
L 538 4863 
z
" transform="scale(0.015625)"/>
      <path id="DejaVuSans-Bold-56" d="M 31 4666 
L 1241 4666 
L 2478 1222 
L 3713 4666 
L 4922 4666 
L 3194 0 
L 1759 0 
L 31 4666 
z
" transform="scale(0.015625)"/>
      <path id="DejaVuSans-Bold-72" d="M 3138 2547 
Q 2991 2616 2845 2648 
Q 2700 2681 2553 2681 
Q 2122 2681 1889 2404 
Q 1656 2128 1656 1613 
L 1656 0 
L 538 0 
L 538 3500 
L 1656 3500 
L 1656 2925 
Q 1872 3269 2151 3426 
Q 2431 3584 2822 3584 
Q 2878 3584 2943 3579 
Q 3009 3575 3134 3559 
L 3138 2547 
z
" transform="scale(0.015625)"/>
      <path id="DejaVuSans-Bold-45" d="M 588 4666 
L 3834 4666 
L 3834 3756 
L 1791 3756 
L 1791 2888 
L 3713 2888 
L 3713 1978 
L 1791 1978 
L 1791 909 
L 3903 909 
L 3903 0 
L 588 0 
L 588 4666 
z
" transform="scale(0.015625)"/>
      <path id="DejaVuSans-Bold-63" d="M 3366 3391 
L 3366 2478 
Q 3138 2634 2908 2709 
Q 2678 2784 2431 2784 
Q 1963 2784 1702 2511 
Q 1441 2238 1441 1747 
Q 1441 1256 1702 982 
Q 1963 709 2431 709 
Q 2694 709 2930 787 
Q 3166 866 3366 1019 
L 3366 103 
Q 3103 6 2833 -42 
Q 2563 -91 2291 -91 
Q 1344 -91 809 395 
Q 275 881 275 1747 
Q 275 2613 809 3098 
Q 1344 3584 2291 3584 
Q 2566 3584 2833 3536 
Q 3100 3488 3366 3391 
z
" transform="scale(0.015625)"/>
      <path id="DejaVuSans-Bold-44" d="M 1791 3756 
L 1791 909 
L 2222 909 
Q 2959 909 3348 1275 
Q 3738 1641 3738 2338 
Q 3738 3031 3350 3393 
Q 2963 3756 2222 3756 
L 1791 3756 
z
M 588 4666 
L 1856 4666 
Q 2919 4666 3439 4514 
Q 3959 4363 4331 4000 
Q 4659 3684 4818 3271 
Q 4978 2859 4978 2338 
Q 4978 1809 4818 1395 
Q 4659 981 4331 666 
Q 3956 303 3431 151 
Q 2906 0 1856 0 
L 588 0 
L 588 4666 
z
" transform="scale(0.015625)"/>
      <path id="DejaVuSans-Bold-46" d="M 588 4666 
L 3834 4666 
L 3834 3756 
L 1791 3756 
L 1791 2888 
L 3713 2888 
L 3713 1978 
L 1791 1978 
L 1791 0 
L 588 0 
L 588 4666 
z
" transform="scale(0.015625)"/>
     </defs>
     <use xlink:href="#DejaVuSans-Bold-43"/>
     <use xlink:href="#DejaVuSans-Bold-6f" transform="translate(73.388672 0)"/>
     <use xlink:href="#DejaVuSans-Bold-6d" transform="translate(142.089844 0)"/>
     <use xlink:href="#DejaVuSans-Bold-70" transform="translate(246.289062 0)"/>
     <use xlink:href="#DejaVuSans-Bold-6f" transform="translate(317.871094 0)"/>
     <use xlink:href="#DejaVuSans-Bold-73" transform="translate(386.572266 0)"/>
     <use xlink:href="#DejaVuSans-Bold-69" transform="translate(446.09375 0)"/>
     <use xlink:href="#DejaVuSans-Bold-74" transform="translate(480.371094 0)"/>
     <use xlink:href="#DejaVuSans-Bold-65" transform="translate(528.173828 0)"/>
     <use xlink:href="#DejaVuSans-Bold-20" transform="translate(595.996094 0)"/>
     <use xlink:href="#DejaVuSans-Bold-43" transform="translate(630.810547 0)"/>
     <use xlink:href="#DejaVuSans-Bold-68" transform="translate(704.199219 0)"/>
     <use xlink:href="#DejaVuSans-Bold-61" transform="translate(775.390625 0)"/>
     <use xlink:href="#DejaVuSans-Bold-6e" transform="translate(842.871094 0)"/>
     <use xlink:href="#DejaVuSans-Bold-6e" transform="translate(914.0625 0)"/>
     <use xlink:href="#DejaVuSans-Bold-65" transform="translate(985.253906 0)"/>
     <use xlink:href="#DejaVuSans-Bold-6c" transform="translate(1053.076172 0)"/>
     <use xlink:href="#DejaVuSans-Bold-20" transform="translate(1087.353516 0)"/>
     <use xlink:href="#DejaVuSans-Bold-56" transform="translate(1122.167969 0)"/>
     <use xlink:href="#DejaVuSans-Bold-61" transform="translate(1194.060547 0)"/>
     <use xlink:href="#DejaVuSans-Bold-72" transform="translate(1261.541016 0)"/>
     <use xlink:href="#DejaVuSans-Bold-69" transform="translate(1310.857422 0)"/>
     <use xlink:href="#DejaVuSans-Bold-61" transform="translate(1345.134766 0)"/>
     <use xlink:href="#DejaVuSans-Bold-74" transform="translate(1412.615234 0)"/>
     <use xlink:href="#DejaVuSans-Bold-69" transform="translate(1460.417969 0)"/>
     <use xlink:href="#DejaVuSans-Bold-6f" transform="translate(1494.695312 0)"/>
     <use xlink:href="#DejaVuSans-Bold-6e" transform="translate(1563.396484 0)"/>
     <use xlink:href="#DejaVuSans-Bold-20" transform="translate(1634.587891 0)"/>
     <use xlink:href="#DejaVuSans-Bold-45" transform="translate(1669.402344 0)"/>
     <use xlink:href="#DejaVuSans-Bold-6d" transform="translate(1737.712891 0)"/>
     <use xlink:href="#DejaVuSans-Bold-70" transform="translate(1841.912109 0)"/>
     <use xlink:href="#DejaVuSans-Bold-69" transform="translate(1913.494141 0)"/>
     <use xlink:href="#DejaVuSans-Bold-72" transform="translate(1947.771484 0)"/>
     <use xlink:href="#DejaVuSans-Bold-69" transform="translate(1997.087891 0)"/>
     <use xlink:href="#DejaVuSans-Bold-63" transform="translate(2031.365234 0)"/>
     <use xlink:href="#DejaVuSans-Bold-61" transform="translate(2090.642578 0)"/>
     <use xlink:href="#DejaVuSans-Bold-6c" transform="translate(2158.123047 0)"/>
     <use xlink:href="#DejaVuSans-Bold-20" transform="translate(2192.400391 0)"/>
     <use xlink:href="#DejaVuSans-Bold-43" transform="translate(2227.214844 0)"/>
     <use xlink:href="#DejaVuSans-Bold-44" transform="translate(2300.603516 0)"/>
     <use xlink:href="#DejaVuSans-Bold-46" transform="translate(2383.611328 0)"/>
    </g>
   </g>
   <g id="line2d_30">
    <path d="M 240.182483 306.278125 
L 240.182483 15.118125 
" clip-path="url(#p97babd73e0)" style="fill: none; stroke-dasharray: 7.4,3.2; stroke-dashoffset: 0; stroke: #008000; stroke-width: 2"/>
   </g>
   <g id="legend_1">
    <g id="patch_7">
     <path d="M 43.58125 52.474375 
L 166.317188 52.474375 
Q 168.317188 52.474375 168.317188 50.474375 
L 168.317188 22.118125 
Q 168.317188 20.118125 166.317188 20.118125 
L 43.58125 20.118125 
Q 41.58125 20.118125 41.58125 22.118125 
L 41.58125 50.474375 
Q 41.58125 52.474375 43.58125 52.474375 
z
" style="fill: #ffffff; opacity: 0.8; stroke: #cccccc; stroke-linejoin: miter"/>
    </g>
    <g id="line2d_31">
     <path d="M 45.58125 28.216563 
L 55.58125 28.216563 
L 65.58125 28.216563 
" style="fill: none; stroke: #1f77b4; stroke-width: 2; stroke-linecap: square"/>
    </g>
    <g id="text_18">
     <!-- CDF -->
     <g transform="translate(73.58125 31.716563) scale(0.1 -0.1)">
      <use xlink:href="#DejaVuSans-43"/>
      <use xlink:href="#DejaVuSans-44" transform="translate(69.824219 0)"/>
      <use xlink:href="#DejaVuSans-46" transform="translate(146.826172 0)"/>
     </g>
    </g>
    <g id="line2d_32">
     <path d="M 45.58125 42.894688 
L 55.58125 42.894688 
L 65.58125 42.894688 
" style="fill: none; stroke-dasharray: 7.4,3.2; stroke-dashoffset: 0; stroke: #008000; stroke-width: 2"/>
    </g>
    <g id="text_19">
     <!-- 1th pct: -23.85 dB -->
     <g transform="translate(73.58125 46.394688) scale(0.1 -0.1)">
      <defs>
       <path id="DejaVuSans-3a" d="M 750 794 
L 1409 794 
L 1409 0 
L 750 0 
L 750 794 
z
M 750 3309 
L 1409 3309 
L 1409 2516 
L 750 2516 
L 750 3309 
z
" transform="scale(0.015625)"/>
       <path id="DejaVuSans-2d" d="M 313 2009 
L 1997 2009 
L 1997 1497 
L 313 1497 
L 313 2009 
z
" transform="scale(0.015625)"/>
      </defs>
      <use xlink:href="#DejaVuSans-31"/>
      <use xlink:href="#DejaVuSans-74" transform="translate(63.623047 0)"/>
      <use xlink:href="#DejaVuSans-68" transform="translate(102.832031 0)"/>
      <use xlink:href="#DejaVuSans-20" transform="translate(166.210938 0)"/>
      <use xlink:href="#DejaVuSans-70" transform="translate(197.998047 0)"/>
      <use xlink:href="#DejaVuSans-63" transform="translate(261.474609 0)"/>
      <use xlink:href="#DejaVuSans-74" transform="translate(316.455078 0)"/>
      <use xlink:href="#DejaVuSans-3a" transform="translate(355.664062 0)"/>
      <use xlink:href="#DejaVuSans-20" transform="translate(389.355469 0)"/>
      <use xlink:href="#DejaVuSans-2d" transform="translate(421.142578 0)"/>
      <use xlink:href="#DejaVuSans-32" transform="translate(457.226562 0)"/>
      <use xlink:href="#DejaVuSans-33" transform="translate(520.849609 0)"/>
      <use xlink:href="#DejaVuSans-2e" transform="translate(584.472656 0)"/>
      <use xlink:href="#DejaVuSans-38" transform="translate(616.259766 0)"/>
      <use xlink:href="#DejaVuSans-35" transform="translate(679.882812 0)"/>
      <use xlink:href="#DejaVuSans-20" transform="translate(743.505859 0)"/>
      <use xlink:href="#DejaVuSans-64" transform="translate(775.292969 0)"/>
      <use xlink:href="#DejaVuSans-42" transform="translate(838.769531 0)"/>
     </g>
    </g>
   </g>
  </g>
 </g>
 <defs>
  <clipPath id="p97babd73e0">
   <rect x="36.58125" y="15.118125" width="517.48" height="291.16"/>
  </clipPath>
 </defs>
</svg>
