<svg xmlns="http://www.w3.org/2000/svg" viewBox="328.94688 313.09794 0.994240000000018 1.407120000000009" width="500" height="500">
<g fill="none" stroke-width="0.009942400000000181">
<path d="M 329.289,314.39 L 329.096,314.348 L 329.17,314.247 L 329.243,314.145 L 329.319,314.043 L 329.394,313.942 L 329.468,313.84 L 329.543,313.738 L 329.613,313.641 L 329.617,313.636 L 329.617,313.636 L 329.635,313.612 L 329.638,313.605 L 329.637,313.599 L 329.633,313.593 L 329.623,313.587 L 329.5,313.563 L 329.486,313.559 L 329.478,313.551 L 329.472,313.542 L 329.463,313.521 L 329.46,313.514 L 329.483,313.519 L 329.49,313.516 L 329.495,313.511 L 329.508,313.493 L 329.542,313.455 L 329.549,313.444 L 329.552,313.432 L 329.553,313.418 L 329.557,313.406 L 329.574,313.377 L 329.591,313.344 L 329.59,313.334 L 329.587,313.331 L 329.573,313.327 L 329.569,313.319 L 329.581,313.28 L 329.592,313.236 L 329.597,313.203 L 329.602,313.175 L 329.602,313.155 L 329.598,313.125" stroke="red" />
<path d="M 329.548,313.627 L 329.613,313.641 L 329.633,313.593 L 329.656,313.583 L 329.686,313.542 L 329.692,313.534 L 329.727,313.484 L 329.728,313.476 L 329.723,313.469 L 329.714,313.464 L 329.665,313.452 L 329.656,313.448 L 329.652,313.441 L 329.653,313.435 L 329.707,313.359" stroke="blue" />
<path d="M 329.381,313.939 L 329.394,313.942 L 329.739,314.017" stroke="green" />
<path d="M 329.455,313.837 L 329.468,313.84 L 329.813,313.914" stroke="orange" />
<path d="M 329.53,313.735 L 329.543,313.738 L 329.867,313.809" stroke="purple" />
<path d="M 329.613,313.641 L 329.627,313.644 L 329.617,313.636 L 329.843,313.685 L 329.922,313.703" stroke="brown" />
<path d="M 329.306,314.04 L 329.319,314.043 L 329.624,314.11" stroke="pink" />
<path d="M 329.589,313.521 L 329.686,313.542 L 329.699,313.545 L 329.692,313.534 L 329.872,313.573" stroke="cyan" />
<path d="M 329.23,314.142 L 329.243,314.145 L 329.513,314.203" stroke="gold" />
<path d="M 329.101,314.341 L 329.096,314.348 L 329.044,314.414 L 329.03,314.427 L 328.966,314.478" stroke="lime" />
<path d="M 329.157,314.244 L 329.17,314.247 L 329.398,314.296" stroke="magenta" />
</g>
</svg>