<svg xmlns="http://www.w3.org/2000/svg" viewBox="321.16124 309.55178 8.56752 9.059440000000013" width="500" height="500">
<g fill="none" stroke-width="0.0856752">
<path d="M 324.616,315.48 L 324.692,315.455 L 324.673,315.437 L 324.608,315.487 L 324.572,315.55 L 324.528,315.55 L 324.543,315.572 L 324.519,315.591 L 324.444,315.651 L 324.4,315.654 L 324.26,315.797 L 324.176,315.865 L 323.95,316.045 L 323.907,316.08 L 323.866,316.112 L 323.838,316.134 L 323.799,316.165 L 323.729,316.222 L 323.701,316.243 L 323.667,316.239 L 323.646,316.255 L 323.57,316.317 L 323.534,316.35 L 323.487,316.392 L 323.439,316.431 L 322.966,316.807 L 322.935,316.832 L 322.889,316.873 L 322.855,316.9 L 322.828,316.921 L 322.753,316.977 L 322.7,317.019 L 322.659,317.051 L 322.702,317.042 L 322.587,317.109 L 322.55,317.148 L 322.527,317.167 L 322.55,317.148 L 322.605,317.118 L 322.694,317.049 L 322.716,317.034 L 322.792,316.981 L 322.815,316.962 L 322.844,316.935 L 322.866,316.916 L 322.941,316.851 L 322.983,316.816 L 323.459,316.438 L 323.604,316.32 L 323.642,316.29 L 323.666,316.271 L 323.701,316.243 L 323.702,316.211 L 323.796,316.137 L 323.838,316.108 L 323.886,316.076 L 323.912,316.056 L 323.936,316.038 L 324.074,315.928 L 324.116,315.889 L 324.155,315.857 L 324.239,315.789 L 324.4,315.654 L 324.448,315.614 L 324.513,315.562 L 324.562,315.523 L 324.608,315.487 L 324.636,315.498 L 324.691,315.522 L 324.726,315.536 L 324.811,315.571 L 324.867,315.595 L 324.962,315.638" stroke="red" />
<path d="M 328.449,312.423 L 328.394,312.507 L 328.356,312.511 L 328.394,312.469 L 328.429,312.431 L 328.455,312.416 L 328.49,312.378 L 328.514,312.351 L 328.563,312.292 L 328.607,312.24 L 328.622,312.219 L 328.648,312.182 L 328.66,312.163 L 328.677,312.134 L 328.701,312.091 L 328.716,312.065 L 328.735,312.023 L 328.756,311.973 L 328.771,311.932 L 328.785,311.886 L 328.801,311.829 L 328.814,311.785 L 328.827,311.739 L 328.834,311.716 L 328.842,311.686 L 328.85,311.661 L 328.86,311.625 L 328.852,311.653 L 328.86,311.625 L 328.894,311.55 L 328.885,311.502 L 328.879,311.522 L 328.891,311.484 L 328.904,311.44 L 328.936,311.407 L 328.949,311.363 L 328.955,311.345 L 328.997,311.201 L 329.011,311.154 L 328.997,311.201 L 329.011,311.154 L 329.039,311.059 L 329.046,311.032 L 329.025,310.997 L 329.017,311.032 L 329.054,311.004 L 329.061,310.979 L 329.069,310.947 L 329.074,310.926 L 329.041,310.935 L 329.051,310.892 L 329.067,310.839 L 329.1,310.831 L 329.107,310.806 L 329.12,310.76 L 329.126,310.739 L 329.132,310.72 L 329.14,310.691 L 329.124,310.658 L 329.097,310.764 L 329.082,310.803 L 329.067,310.839 L 329.091,310.861 L 329.084,310.889 L 329.077,310.914 L 329.064,310.968 L 329.041,310.935 L 329.036,310.958 L 329.025,310.997 L 329.017,311.032 L 329.003,311.1 L 328.988,311.152 L 328.973,311.202 L 328.964,311.234 L 328.949,311.285 L 328.932,311.343 L 328.924,311.371 L 328.955,311.345 L 328.946,311.374 L 328.936,311.407 L 328.952,311.356 L 328.921,311.379 L 328.929,311.432 L 328.936,311.407 L 328.904,311.44 L 328.915,311.4 L 328.924,311.371 L 328.911,311.413 L 328.919,311.466 L 328.887,311.498 L 328.916,311.476 L 328.923,311.451 L 328.915,311.483 L 328.908,311.504 L 328.902,311.525 L 328.908,311.504 L 328.919,311.468 L 328.911,311.414 L 328.904,311.44 L 328.916,311.398 L 328.909,311.422 L 328.926,311.442 L 328.934,311.417" stroke="blue" />
<path d="M 328.058,312.792 L 327.962,312.865 L 327.423,313.252 L 327.356,313.304 L 327.257,313.396 L 327.234,313.421 L 327.267,313.4 L 327.366,313.323 L 327.388,313.305 L 327.409,313.291 L 327.447,313.271 L 327.475,313.258 L 327.532,313.241 L 327.573,313.23 L 327.614,313.221 L 327.654,313.212 L 327.695,313.204 L 327.737,313.195 L 327.778,313.185 L 327.812,313.176 L 327.843,313.165 L 327.87,313.154 L 327.91,313.134 L 327.932,313.12 L 327.966,313.092 L 327.987,313.067 L 328.004,313.038 L 328.015,313.01 L 328.023,312.984 L 328.037,312.922 L 328.045,312.898 L 328.051,312.879 L 328.066,312.854 L 328.087,312.828 L 328.109,312.801 L 328.15,312.761 L 328.177,312.736 L 328.204,312.713 L 328.235,312.686 L 328.256,312.664 L 328.286,312.627 L 328.304,312.607 L 328.274,312.642 L 328.242,312.627 L 328.223,312.646 L 328.201,312.67 L 328.162,312.708 L 328.109,312.801 L 328.058,312.792 L 328.084,312.772 L 328.123,312.741 L 328.162,312.708 L 328.201,312.67 L 328.234,312.635 L 328.216,312.653 L 328.254,312.613 L 328.31,312.557 L 328.336,312.531 L 328.362,312.504 L 328.361,312.547 L 328.298,312.614 L 328.277,312.639 L 328.292,312.62 L 328.263,312.656 L 328.254,312.613 L 328.235,312.634" stroke="green" />
<path d="M 325.666,314.679 L 325.637,314.696 L 325.688,314.666 L 325.71,314.65 L 325.741,314.626 L 325.74,314.597 L 325.8,314.549 L 325.831,314.525 L 325.908,314.464 L 325.937,314.444 L 325.993,314.406 L 326.052,314.365 L 326.001,314.409 L 325.954,314.45 L 325.929,314.472 L 325.856,314.535 L 325.819,314.565 L 325.766,314.607 L 325.741,314.626 L 325.701,314.636 L 325.671,314.66 L 325.654,314.678 L 325.637,314.696 L 325.596,314.73 L 325.54,314.788 L 325.494,314.829 L 325.471,314.847 L 325.446,314.866 L 325.487,314.834 L 325.463,314.853 L 325.438,314.873 L 325.391,314.91 L 325.356,314.938 L 325.302,314.981 L 325.348,314.945 L 325.391,314.91 L 325.438,314.873 L 325.327,314.937 L 325.281,314.973 L 325.236,315.009 L 325.127,315.104 L 325.08,315.14 L 325.038,315.165 L 325.004,315.19 L 324.98,315.206 L 324.939,315.259 L 324.976,315.232 L 324.997,315.216 L 325.018,315.199 L 325.053,315.17 L 325.08,315.14 L 325.127,315.104 L 325.258,315.015 L 325.302,314.981 L 325.31,314.975" stroke="orange" />
<path d="M 328.295,314.218 L 328.21,314.19 L 328.133,314.17 L 328.052,314.153 L 328.009,314.145 L 327.95,314.136 L 327.888,314.129 L 327.828,314.133 L 327.612,314.107 L 327.589,314.093 L 327.48,314.091 L 327.455,314.077 L 327.422,314.072 L 327.498,314.082 L 327.534,314.086 L 327.57,314.09 L 327.603,314.094 L 327.888,314.129 L 327.926,314.144 L 328.005,314.155 L 328.047,314.161 L 328.128,314.177 L 328.206,314.194 L 328.282,314.214 L 328.323,314.227 L 328.36,314.239 L 328.414,314.258 L 328.491,314.283 L 328.621,314.333 L 328.759,314.389 L 328.898,314.441 L 328.974,314.471 L 329.105,314.522 L 329.144,314.537 L 329.564,314.699" stroke="purple" />
<path d="M 326.998,314.012 L 327.013,314.034 L 326.976,314.03 L 326.997,314.013 L 327.03,314.036 L 327.189,314.057 L 327.243,314.064 L 327.409,314.082 L 327.342,314.061 L 327.25,314.045 L 327.051,314.02 L 327.011,314.014 L 326.97,314.008 L 327.011,314.014 L 326.943,314.026 L 326.78,314.003 L 326.787,313.983 L 326.794,314.005 L 326.773,313.981 L 326.72,313.971 L 326.665,313.961 L 326.623,313.953 L 326.581,313.971 L 326.543,313.963 L 326.555,313.94 L 326.594,313.947 L 326.535,313.969 L 326.554,313.954 L 326.602,313.941 L 326.572,313.965 L 326.594,313.947 L 326.554,313.954 L 326.587,313.952 L 326.615,313.928 L 326.717,313.843 L 326.775,313.789 L 326.705,313.828 L 326.658,313.866 L 326.594,313.916 L 326.568,313.943 L 326.567,313.968 L 326.601,313.974 L 326.702,313.992 L 326.78,314.003 L 326.865,313.996 L 326.956,314.007 L 326.984,314.01" stroke="brown" />
<path d="M 329.26,310.248 L 329.266,310.228 L 329.276,310.193 L 329.268,310.22 L 329.26,310.248 L 329.268,310.22 L 329.269,310.255 L 329.257,310.294 L 329.244,310.338 L 329.236,310.364 L 329.226,310.397 L 329.22,310.418 L 329.212,310.446 L 329.198,310.495 L 329.189,310.526 L 329.159,310.548 L 329.178,310.564 L 329.171,310.59 L 329.166,310.524 L 329.198,310.415 L 329.245,310.254 L 329.276,310.193 L 329.283,310.169 L 329.287,310.151 L 329.291,310.113 L 329.297,310.132 L 329.293,310.105 L 329.295,310.124 L 329.29,310.142 L 329.304,310.088 L 329.316,310.051 L 329.308,310.075 L 329.295,310.124 L 329.29,310.142 L 329.302,310.118 L 329.309,310.1 L 329.316,310.051 L 329.333,310.005 L 329.338,309.987 L 329.349,309.949 L 329.354,309.915 L 329.357,309.89 L 329.378,309.848 L 329.357,309.89" stroke="pink" />
<path d="M 322.587,317.109 L 322.55,317.148 L 322.527,317.167 L 322.469,317.215 L 322.347,317.311 L 322.294,317.354 L 322.228,317.405 L 322.119,317.494 L 322.077,317.527 L 322.01,317.58 L 321.929,317.645 L 321.884,317.682 L 321.79,317.772 L 321.723,317.846 L 321.684,317.897 L 321.609,318.006 L 321.598,318.023 L 321.513,318.159 L 321.386,318.362 L 321.374,318.382" stroke="cyan" />
<path d="M 324.684,315.461 L 324.665,315.443 L 324.7,315.448 L 324.794,315.343 L 324.821,315.323 L 324.841,315.309 L 324.907,315.258 L 324.968,315.214 L 324.948,315.253 L 324.899,315.264 L 324.851,315.328 L 324.812,315.329 L 324.82,315.353 L 324.692,315.455" stroke="gold" />
<path d="M 326.474,314.02 L 326.398,314.084 L 326.366,314.114 L 326.341,314.138 L 326.361,314.124 L 326.381,314.11 L 326.411,314.089 L 326.473,314.042 L 326.534,313.995 L 326.568,313.968 L 326.58,313.945 L 326.568,313.968 L 326.518,313.983 L 326.467,314.026 L 326.459,314.033" stroke="lime" />
<path d="M 327.234,313.421 L 327.156,313.486 L 326.996,313.613 L 326.952,313.647 L 326.903,313.685 L 326.885,313.701 L 326.844,313.734 L 326.775,313.789 L 326.767,313.796" stroke="magenta" />
<path d="M 329.398,309.775 L 329.367,309.758 L 329.401,309.756 L 329.405,309.726 L 329.396,309.784 L 329.387,309.816 L 329.382,309.835 L 329.354,309.847 L 329.366,309.766 L 329.398,309.775 L 329.401,309.756 L 329.368,309.744 L 329.366,309.766 L 329.365,309.774" stroke="indigo" />
<path d="M 329.164,310.533 L 329.124,310.658 L 329.14,310.691 L 329.147,310.667 L 329.16,310.625 L 329.166,310.606 L 329.158,310.632 L 329.152,310.651 L 329.162,310.617" stroke="violet" />
<path d="M 326.349,314.132 L 326.288,314.18 L 326.269,314.195 L 326.153,314.287 L 326.052,314.365 L 326.059,314.359" stroke="teal" />
<path d="M 324.439,315.739 L 324.669,315.579 L 324.726,315.536 L 324.726,315.536" stroke="red" />
<path d="M 325.579,314.743 L 325.521,314.782 L 325.475,314.818 L 325.45,314.839 L 325.458,314.832" stroke="blue" />
<path d="M 321.362,318.437 L 321.378,318.374 L 321.342,318.413 L 321.326,318.429" stroke="green" />
<path d="M 323.684,316.226 L 323.675,316.233" stroke="orange" />
</g>
</svg>