<?xml version="1.0" encoding="utf-8" standalone="no"?>
<!DOCTYPE svg PUBLIC "-//W3C//DTD SVG 1.1//EN"
  "http://www.w3.org/Graphics/SVG/1.1/DTD/svg11.dtd">
<svg xmlns:xlink="http://www.w3.org/1999/xlink" width="568.46125pt" height="351.034375pt" viewBox="0 0 568.46125 351.034375" xmlns="http://www.w3.org/2000/svg" version="1.1">
 <metadata>
  <rdf:RDF xmlns:dc="http://purl.org/dc/elements/1.1/" xmlns:cc="http://creativecommons.org/ns#" xmlns:rdf="http://www.w3.org/1999/02/22-rdf-syntax-ns#">
   <cc:Work>
    <dc:type rdf:resource="http://purl.org/dc/dcmitype/StillImage"/>
    <dc:date>2026-04-28T10:53:00.862067</dc:date>
    <dc:format>image/svg+xml</dc:format>
    <dc:creator>
     <cc:Agent>
      <dc:title>Matplotlib v3.10.8, https://matplotlib.org/</dc:title>
     </cc:Agent>
    </dc:creator>
   </cc:Work>
  </rdf:RDF>
 </metadata>
 <defs>
  <style type="text/css">*{stroke-linejoin: round; stroke-linecap: butt}</style>
 </defs>
 <g id="figure_1">
  <g id="patch_1">
   <path d="M 0 351.034375 
L 568.46125 351.034375 
L 568.46125 0 
L 0 0 
z
" style="fill: #ffffff"/>
  </g>
  <g id="axes_1">
   <g id="patch_2">
    <path d="M 43.78125 313.478125 
L 561.26125 313.478125 
L 561.26125 22.318125 
L 43.78125 22.318125 
z
" style="fill: #ffffff"/>
   </g>
   <g id="matplotlib.axis_1">
    <g id="xtick_1">
     <g id="line2d_1">
      <path d="M 90.260562 313.478125 
L 90.260562 22.318125 
" clip-path="url(#p9df9114862)" style="fill: none; stroke: #b0b0b0; stroke-opacity: 0.25; stroke-width: 0.8; stroke-linecap: square"/>
     </g>
     <g id="line2d_2">
      <defs>
       <path id="me70a988f2d" d="M 0 0 
L 0 3.5 
" style="stroke: #000000; stroke-width: 0.8"/>
      </defs>
      <g>
       <use xlink:href="#me70a988f2d" x="90.260562" y="313.478125" style="stroke: #000000; stroke-width: 0.8"/>
      </g>
     </g>
     <g id="text_1">
      <!-- −50 -->
      <g transform="translate(79.708218 328.076563) scale(0.1 -0.1)">
       <defs>
        <path id="DejaVuSans-2212" d="M 678 2272 
L 4684 2272 
L 4684 1741 
L 678 1741 
L 678 2272 
z
" transform="scale(0.015625)"/>
        <path id="DejaVuSans-35" d="M 691 4666 
L 3169 4666 
L 3169 4134 
L 1269 4134 
L 1269 2991 
Q 1406 3038 1543 3061 
Q 1681 3084 1819 3084 
Q 2600 3084 3056 2656 
Q 3513 2228 3513 1497 
Q 3513 744 3044 326 
Q 2575 -91 1722 -91 
Q 1428 -91 1123 -41 
Q 819 9 494 109 
L 494 744 
Q 775 591 1075 516 
Q 1375 441 1709 441 
Q 2250 441 2565 725 
Q 2881 1009 2881 1497 
Q 2881 1984 2565 2268 
Q 2250 2553 1709 2553 
Q 1456 2553 1204 2497 
Q 953 2441 691 2322 
L 691 4666 
z
" transform="scale(0.015625)"/>
        <path id="DejaVuSans-30" d="M 2034 4250 
Q 1547 4250 1301 3770 
Q 1056 3291 1056 2328 
Q 1056 1369 1301 889 
Q 1547 409 2034 409 
Q 2525 409 2770 889 
Q 3016 1369 3016 2328 
Q 3016 3291 2770 3770 
Q 2525 4250 2034 4250 
z
M 2034 4750 
Q 2819 4750 3233 4129 
Q 3647 3509 3647 2328 
Q 3647 1150 3233 529 
Q 2819 -91 2034 -91 
Q 1250 -91 836 529 
Q 422 1150 422 2328 
Q 422 3509 836 4129 
Q 1250 4750 2034 4750 
z
" transform="scale(0.015625)"/>
       </defs>
       <use xlink:href="#DejaVuSans-2212"/>
       <use xlink:href="#DejaVuSans-35" transform="translate(83.789062 0)"/>
       <use xlink:href="#DejaVuSans-30" transform="translate(147.412109 0)"/>
      </g>
     </g>
    </g>
    <g id="xtick_2">
     <g id="line2d_3">
      <path d="M 150.347307 313.478125 
L 150.347307 22.318125 
" clip-path="url(#p9df9114862)" style="fill: none; stroke: #b0b0b0; stroke-opacity: 0.25; stroke-width: 0.8; stroke-linecap: square"/>
     </g>
     <g id="line2d_4">
      <g>
       <use xlink:href="#me70a988f2d" x="150.347307" y="313.478125" style="stroke: #000000; stroke-width: 0.8"/>
      </g>
     </g>
     <g id="text_2">
      <!-- −40 -->
      <g transform="translate(139.794963 328.076563) scale(0.1 -0.1)">
       <defs>
        <path id="DejaVuSans-34" d="M 2419 4116 
L 825 1625 
L 2419 1625 
L 2419 4116 
z
M 2253 4666 
L 3047 4666 
L 3047 1625 
L 3713 1625 
L 3713 1100 
L 3047 1100 
L 3047 0 
L 2419 0 
L 2419 1100 
L 313 1100 
L 313 1709 
L 2253 4666 
z
" transform="scale(0.015625)"/>
       </defs>
       <use xlink:href="#DejaVuSans-2212"/>
       <use xlink:href="#DejaVuSans-34" transform="translate(83.789062 0)"/>
       <use xlink:href="#DejaVuSans-30" transform="translate(147.412109 0)"/>
      </g>
     </g>
    </g>
    <g id="xtick_3">
     <g id="line2d_5">
      <path d="M 210.434053 313.478125 
L 210.434053 22.318125 
" clip-path="url(#p9df9114862)" style="fill: none; stroke: #b0b0b0; stroke-opacity: 0.25; stroke-width: 0.8; stroke-linecap: square"/>
     </g>
     <g id="line2d_6">
      <g>
       <use xlink:href="#me70a988f2d" x="210.434053" y="313.478125" style="stroke: #000000; stroke-width: 0.8"/>
      </g>
     </g>
     <g id="text_3">
      <!-- −30 -->
      <g transform="translate(199.881709 328.076563) scale(0.1 -0.1)">
       <defs>
        <path id="DejaVuSans-33" d="M 2597 2516 
Q 3050 2419 3304 2112 
Q 3559 1806 3559 1356 
Q 3559 666 3084 287 
Q 2609 -91 1734 -91 
Q 1441 -91 1130 -33 
Q 819 25 488 141 
L 488 750 
Q 750 597 1062 519 
Q 1375 441 1716 441 
Q 2309 441 2620 675 
Q 2931 909 2931 1356 
Q 2931 1769 2642 2001 
Q 2353 2234 1838 2234 
L 1294 2234 
L 1294 2753 
L 1863 2753 
Q 2328 2753 2575 2939 
Q 2822 3125 2822 3475 
Q 2822 3834 2567 4026 
Q 2313 4219 1838 4219 
Q 1578 4219 1281 4162 
Q 984 4106 628 3988 
L 628 4550 
Q 988 4650 1302 4700 
Q 1616 4750 1894 4750 
Q 2613 4750 3031 4423 
Q 3450 4097 3450 3541 
Q 3450 3153 3228 2886 
Q 3006 2619 2597 2516 
z
" transform="scale(0.015625)"/>
       </defs>
       <use xlink:href="#DejaVuSans-2212"/>
       <use xlink:href="#DejaVuSans-33" transform="translate(83.789062 0)"/>
       <use xlink:href="#DejaVuSans-30" transform="translate(147.412109 0)"/>
      </g>
     </g>
    </g>
    <g id="xtick_4">
     <g id="line2d_7">
      <path d="M 270.520798 313.478125 
L 270.520798 22.318125 
" clip-path="url(#p9df9114862)" style="fill: none; stroke: #b0b0b0; stroke-opacity: 0.25; stroke-width: 0.8; stroke-linecap: square"/>
     </g>
     <g id="line2d_8">
      <g>
       <use xlink:href="#me70a988f2d" x="270.520798" y="313.478125" style="stroke: #000000; stroke-width: 0.8"/>
      </g>
     </g>
     <g id="text_4">
      <!-- −20 -->
      <g transform="translate(259.968454 328.076563) scale(0.1 -0.1)">
       <defs>
        <path id="DejaVuSans-32" d="M 1228 531 
L 3431 531 
L 3431 0 
L 469 0 
L 469 531 
Q 828 903 1448 1529 
Q 2069 2156 2228 2338 
Q 2531 2678 2651 2914 
Q 2772 3150 2772 3378 
Q 2772 3750 2511 3984 
Q 2250 4219 1831 4219 
Q 1534 4219 1204 4116 
Q 875 4013 500 3803 
L 500 4441 
Q 881 4594 1212 4672 
Q 1544 4750 1819 4750 
Q 2544 4750 2975 4387 
Q 3406 4025 3406 3419 
Q 3406 3131 3298 2873 
Q 3191 2616 2906 2266 
Q 2828 2175 2409 1742 
Q 1991 1309 1228 531 
z
" transform="scale(0.015625)"/>
       </defs>
       <use xlink:href="#DejaVuSans-2212"/>
       <use xlink:href="#DejaVuSans-32" transform="translate(83.789062 0)"/>
       <use xlink:href="#DejaVuSans-30" transform="translate(147.412109 0)"/>
      </g>
     </g>
    </g>
    <g id="xtick_5">
     <g id="line2d_9">
      <path d="M 330.607543 313.478125 
L 330.607543 22.318125 
" clip-path="url(#p9df9114862)" style="fill: none; stroke: #b0b0b0; stroke-opacity: 0.25; stroke-width: 0.8; stroke-linecap: square"/>
     </g>
     <g id="line2d_10">
      <g>
       <use xlink:href="#me70a988f2d" x="330.607543" y="313.478125" style="stroke: #000000; stroke-width: 0.8"/>
      </g>
     </g>
     <g id="text_5">
      <!-- −10 -->
      <g transform="translate(320.0552 328.076563) scale(0.1 -0.1)">
       <defs>
        <path id="DejaVuSans-31" d="M 794 531 
L 1825 531 
L 1825 4091 
L 703 3866 
L 703 4441 
L 1819 4666 
L 2450 4666 
L 2450 531 
L 3481 531 
L 3481 0 
L 794 0 
L 794 531 
z
" transform="scale(0.015625)"/>
       </defs>
       <use xlink:href="#DejaVuSans-2212"/>
       <use xlink:href="#DejaVuSans-31" transform="translate(83.789062 0)"/>
       <use xlink:href="#DejaVuSans-30" transform="translate(147.412109 0)"/>
      </g>
     </g>
    </g>
    <g id="xtick_6">
     <g id="line2d_11">
      <path d="M 390.694289 313.478125 
L 390.694289 22.318125 
" clip-path="url(#p9df9114862)" style="fill: none; stroke: #b0b0b0; stroke-opacity: 0.25; stroke-width: 0.8; stroke-linecap: square"/>
     </g>
     <g id="line2d_12">
      <g>
       <use xlink:href="#me70a988f2d" x="390.694289" y="313.478125" style="stroke: #000000; stroke-width: 0.8"/>
      </g>
     </g>
     <g id="text_6">
      <!-- 0 -->
      <g transform="translate(387.513039 328.076563) scale(0.1 -0.1)">
       <use xlink:href="#DejaVuSans-30"/>
      </g>
     </g>
    </g>
    <g id="xtick_7">
     <g id="line2d_13">
      <path d="M 450.781034 313.478125 
L 450.781034 22.318125 
" clip-path="url(#p9df9114862)" style="fill: none; stroke: #b0b0b0; stroke-opacity: 0.25; stroke-width: 0.8; stroke-linecap: square"/>
     </g>
     <g id="line2d_14">
      <g>
       <use xlink:href="#me70a988f2d" x="450.781034" y="313.478125" style="stroke: #000000; stroke-width: 0.8"/>
      </g>
     </g>
     <g id="text_7">
      <!-- 10 -->
      <g transform="translate(444.418534 328.076563) scale(0.1 -0.1)">
       <use xlink:href="#DejaVuSans-31"/>
       <use xlink:href="#DejaVuSans-30" transform="translate(63.623047 0)"/>
      </g>
     </g>
    </g>
    <g id="xtick_8">
     <g id="line2d_15">
      <path d="M 510.86778 313.478125 
L 510.86778 22.318125 
" clip-path="url(#p9df9114862)" style="fill: none; stroke: #b0b0b0; stroke-opacity: 0.25; stroke-width: 0.8; stroke-linecap: square"/>
     </g>
     <g id="line2d_16">
      <g>
       <use xlink:href="#me70a988f2d" x="510.86778" y="313.478125" style="stroke: #000000; stroke-width: 0.8"/>
      </g>
     </g>
     <g id="text_8">
      <!-- 20 -->
      <g transform="translate(504.50528 328.076563) scale(0.1 -0.1)">
       <use xlink:href="#DejaVuSans-32"/>
       <use xlink:href="#DejaVuSans-30" transform="translate(63.623047 0)"/>
      </g>
     </g>
    </g>
    <g id="text_9">
     <!-- Composite channel variation (dB) -->
     <g transform="translate(218.668125 341.754687) scale(0.1 -0.1)">
      <defs>
       <path id="DejaVuSans-43" d="M 4122 4306 
L 4122 3641 
Q 3803 3938 3442 4084 
Q 3081 4231 2675 4231 
Q 1875 4231 1450 3742 
Q 1025 3253 1025 2328 
Q 1025 1406 1450 917 
Q 1875 428 2675 428 
Q 3081 428 3442 575 
Q 3803 722 4122 1019 
L 4122 359 
Q 3791 134 3420 21 
Q 3050 -91 2638 -91 
Q 1578 -91 968 557 
Q 359 1206 359 2328 
Q 359 3453 968 4101 
Q 1578 4750 2638 4750 
Q 3056 4750 3426 4639 
Q 3797 4528 4122 4306 
z
" transform="scale(0.015625)"/>
       <path id="DejaVuSans-6f" d="M 1959 3097 
Q 1497 3097 1228 2736 
Q 959 2375 959 1747 
Q 959 1119 1226 758 
Q 1494 397 1959 397 
Q 2419 397 2687 759 
Q 2956 1122 2956 1747 
Q 2956 2369 2687 2733 
Q 2419 3097 1959 3097 
z
M 1959 3584 
Q 2709 3584 3137 3096 
Q 3566 2609 3566 1747 
Q 3566 888 3137 398 
Q 2709 -91 1959 -91 
Q 1206 -91 779 398 
Q 353 888 353 1747 
Q 353 2609 779 3096 
Q 1206 3584 1959 3584 
z
" transform="scale(0.015625)"/>
       <path id="DejaVuSans-6d" d="M 3328 2828 
Q 3544 3216 3844 3400 
Q 4144 3584 4550 3584 
Q 5097 3584 5394 3201 
Q 5691 2819 5691 2113 
L 5691 0 
L 5113 0 
L 5113 2094 
Q 5113 2597 4934 2840 
Q 4756 3084 4391 3084 
Q 3944 3084 3684 2787 
Q 3425 2491 3425 1978 
L 3425 0 
L 2847 0 
L 2847 2094 
Q 2847 2600 2669 2842 
Q 2491 3084 2119 3084 
Q 1678 3084 1418 2786 
Q 1159 2488 1159 1978 
L 1159 0 
L 581 0 
L 581 3500 
L 1159 3500 
L 1159 2956 
Q 1356 3278 1631 3431 
Q 1906 3584 2284 3584 
Q 2666 3584 2933 3390 
Q 3200 3197 3328 2828 
z
" transform="scale(0.015625)"/>
       <path id="DejaVuSans-70" d="M 1159 525 
L 1159 -1331 
L 581 -1331 
L 581 3500 
L 1159 3500 
L 1159 2969 
Q 1341 3281 1617 3432 
Q 1894 3584 2278 3584 
Q 2916 3584 3314 3078 
Q 3713 2572 3713 1747 
Q 3713 922 3314 415 
Q 2916 -91 2278 -91 
Q 1894 -91 1617 61 
Q 1341 213 1159 525 
z
M 3116 1747 
Q 3116 2381 2855 2742 
Q 2594 3103 2138 3103 
Q 1681 3103 1420 2742 
Q 1159 2381 1159 1747 
Q 1159 1113 1420 752 
Q 1681 391 2138 391 
Q 2594 391 2855 752 
Q 3116 1113 3116 1747 
z
" transform="scale(0.015625)"/>
       <path id="DejaVuSans-73" d="M 2834 3397 
L 2834 2853 
Q 2591 2978 2328 3040 
Q 2066 3103 1784 3103 
Q 1356 3103 1142 2972 
Q 928 2841 928 2578 
Q 928 2378 1081 2264 
Q 1234 2150 1697 2047 
L 1894 2003 
Q 2506 1872 2764 1633 
Q 3022 1394 3022 966 
Q 3022 478 2636 193 
Q 2250 -91 1575 -91 
Q 1294 -91 989 -36 
Q 684 19 347 128 
L 347 722 
Q 666 556 975 473 
Q 1284 391 1588 391 
Q 1994 391 2212 530 
Q 2431 669 2431 922 
Q 2431 1156 2273 1281 
Q 2116 1406 1581 1522 
L 1381 1569 
Q 847 1681 609 1914 
Q 372 2147 372 2553 
Q 372 3047 722 3315 
Q 1072 3584 1716 3584 
Q 2034 3584 2315 3537 
Q 2597 3491 2834 3397 
z
" transform="scale(0.015625)"/>
       <path id="DejaVuSans-69" d="M 603 3500 
L 1178 3500 
L 1178 0 
L 603 0 
L 603 3500 
z
M 603 4863 
L 1178 4863 
L 1178 4134 
L 603 4134 
L 603 4863 
z
" transform="scale(0.015625)"/>
       <path id="DejaVuSans-74" d="M 1172 4494 
L 1172 3500 
L 2356 3500 
L 2356 3053 
L 1172 3053 
L 1172 1153 
Q 1172 725 1289 603 
Q 1406 481 1766 481 
L 2356 481 
L 2356 0 
L 1766 0 
Q 1100 0 847 248 
Q 594 497 594 1153 
L 594 3053 
L 172 3053 
L 172 3500 
L 594 3500 
L 594 4494 
L 1172 4494 
z
" transform="scale(0.015625)"/>
       <path id="DejaVuSans-65" d="M 3597 1894 
L 3597 1613 
L 953 1613 
Q 991 1019 1311 708 
Q 1631 397 2203 397 
Q 2534 397 2845 478 
Q 3156 559 3463 722 
L 3463 178 
Q 3153 47 2828 -22 
Q 2503 -91 2169 -91 
Q 1331 -91 842 396 
Q 353 884 353 1716 
Q 353 2575 817 3079 
Q 1281 3584 2069 3584 
Q 2775 3584 3186 3129 
Q 3597 2675 3597 1894 
z
M 3022 2063 
Q 3016 2534 2758 2815 
Q 2500 3097 2075 3097 
Q 1594 3097 1305 2825 
Q 1016 2553 972 2059 
L 3022 2063 
z
" transform="scale(0.015625)"/>
       <path id="DejaVuSans-20" transform="scale(0.015625)"/>
       <path id="DejaVuSans-63" d="M 3122 3366 
L 3122 2828 
Q 2878 2963 2633 3030 
Q 2388 3097 2138 3097 
Q 1578 3097 1268 2742 
Q 959 2388 959 1747 
Q 959 1106 1268 751 
Q 1578 397 2138 397 
Q 2388 397 2633 464 
Q 2878 531 3122 666 
L 3122 134 
Q 2881 22 2623 -34 
Q 2366 -91 2075 -91 
Q 1284 -91 818 406 
Q 353 903 353 1747 
Q 353 2603 823 3093 
Q 1294 3584 2113 3584 
Q 2378 3584 2631 3529 
Q 2884 3475 3122 3366 
z
" transform="scale(0.015625)"/>
       <path id="DejaVuSans-68" d="M 3513 2113 
L 3513 0 
L 2938 0 
L 2938 2094 
Q 2938 2591 2744 2837 
Q 2550 3084 2163 3084 
Q 1697 3084 1428 2787 
Q 1159 2491 1159 1978 
L 1159 0 
L 581 0 
L 581 4863 
L 1159 4863 
L 1159 2956 
Q 1366 3272 1645 3428 
Q 1925 3584 2291 3584 
Q 2894 3584 3203 3211 
Q 3513 2838 3513 2113 
z
" transform="scale(0.015625)"/>
       <path id="DejaVuSans-61" d="M 2194 1759 
Q 1497 1759 1228 1600 
Q 959 1441 959 1056 
Q 959 750 1161 570 
Q 1363 391 1709 391 
Q 2188 391 2477 730 
Q 2766 1069 2766 1631 
L 2766 1759 
L 2194 1759 
z
M 3341 1997 
L 3341 0 
L 2766 0 
L 2766 531 
Q 2569 213 2275 61 
Q 1981 -91 1556 -91 
Q 1019 -91 701 211 
Q 384 513 384 1019 
Q 384 1609 779 1909 
Q 1175 2209 1959 2209 
L 2766 2209 
L 2766 2266 
Q 2766 2663 2505 2880 
Q 2244 3097 1772 3097 
Q 1472 3097 1187 3025 
Q 903 2953 641 2809 
L 641 3341 
Q 956 3463 1253 3523 
Q 1550 3584 1831 3584 
Q 2591 3584 2966 3190 
Q 3341 2797 3341 1997 
z
" transform="scale(0.015625)"/>
       <path id="DejaVuSans-6e" d="M 3513 2113 
L 3513 0 
L 2938 0 
L 2938 2094 
Q 2938 2591 2744 2837 
Q 2550 3084 2163 3084 
Q 1697 3084 1428 2787 
Q 1159 2491 1159 1978 
L 1159 0 
L 581 0 
L 581 3500 
L 1159 3500 
L 1159 2956 
Q 1366 3272 1645 3428 
Q 1925 3584 2291 3584 
Q 2894 3584 3203 3211 
Q 3513 2838 3513 2113 
z
" transform="scale(0.015625)"/>
       <path id="DejaVuSans-6c" d="M 603 4863 
L 1178 4863 
L 1178 0 
L 603 0 
L 603 4863 
z
" transform="scale(0.015625)"/>
       <path id="DejaVuSans-76" d="M 191 3500 
L 800 3500 
L 1894 563 
L 2988 3500 
L 3597 3500 
L 2284 0 
L 1503 0 
L 191 3500 
z
" transform="scale(0.015625)"/>
       <path id="DejaVuSans-72" d="M 2631 2963 
Q 2534 3019 2420 3045 
Q 2306 3072 2169 3072 
Q 1681 3072 1420 2755 
Q 1159 2438 1159 1844 
L 1159 0 
L 581 0 
L 581 3500 
L 1159 3500 
L 1159 2956 
Q 1341 3275 1631 3429 
Q 1922 3584 2338 3584 
Q 2397 3584 2469 3576 
Q 2541 3569 2628 3553 
L 2631 2963 
z
" transform="scale(0.015625)"/>
       <path id="DejaVuSans-28" d="M 1984 4856 
Q 1566 4138 1362 3434 
Q 1159 2731 1159 2009 
Q 1159 1288 1364 580 
Q 1569 -128 1984 -844 
L 1484 -844 
Q 1016 -109 783 600 
Q 550 1309 550 2009 
Q 550 2706 781 3412 
Q 1013 4119 1484 4856 
L 1984 4856 
z
" transform="scale(0.015625)"/>
       <path id="DejaVuSans-64" d="M 2906 2969 
L 2906 4863 
L 3481 4863 
L 3481 0 
L 2906 0 
L 2906 525 
Q 2725 213 2448 61 
Q 2172 -91 1784 -91 
Q 1150 -91 751 415 
Q 353 922 353 1747 
Q 353 2572 751 3078 
Q 1150 3584 1784 3584 
Q 2172 3584 2448 3432 
Q 2725 3281 2906 2969 
z
M 947 1747 
Q 947 1113 1208 752 
Q 1469 391 1925 391 
Q 2381 391 2643 752 
Q 2906 1113 2906 1747 
Q 2906 2381 2643 2742 
Q 2381 3103 1925 3103 
Q 1469 3103 1208 2742 
Q 947 2381 947 1747 
z
" transform="scale(0.015625)"/>
       <path id="DejaVuSans-42" d="M 1259 2228 
L 1259 519 
L 2272 519 
Q 2781 519 3026 730 
Q 3272 941 3272 1375 
Q 3272 1813 3026 2020 
Q 2781 2228 2272 2228 
L 1259 2228 
z
M 1259 4147 
L 1259 2741 
L 2194 2741 
Q 2656 2741 2882 2914 
Q 3109 3088 3109 3444 
Q 3109 3797 2882 3972 
Q 2656 4147 2194 4147 
L 1259 4147 
z
M 628 4666 
L 2241 4666 
Q 2963 4666 3353 4366 
Q 3744 4066 3744 3513 
Q 3744 3084 3544 2831 
Q 3344 2578 2956 2516 
Q 3422 2416 3680 2098 
Q 3938 1781 3938 1306 
Q 3938 681 3513 340 
Q 3088 0 2303 0 
L 628 0 
L 628 4666 
z
" transform="scale(0.015625)"/>
       <path id="DejaVuSans-29" d="M 513 4856 
L 1013 4856 
Q 1481 4119 1714 3412 
Q 1947 2706 1947 2009 
Q 1947 1309 1714 600 
Q 1481 -109 1013 -844 
L 513 -844 
Q 928 -128 1133 580 
Q 1338 1288 1338 2009 
Q 1338 2731 1133 3434 
Q 928 4138 513 4856 
z
" transform="scale(0.015625)"/>
      </defs>
      <use xlink:href="#DejaVuSans-43"/>
      <use xlink:href="#DejaVuSans-6f" transform="translate(69.824219 0)"/>
      <use xlink:href="#DejaVuSans-6d" transform="translate(131.005859 0)"/>
      <use xlink:href="#DejaVuSans-70" transform="translate(228.417969 0)"/>
      <use xlink:href="#DejaVuSans-6f" transform="translate(291.894531 0)"/>
      <use xlink:href="#DejaVuSans-73" transform="translate(353.076172 0)"/>
      <use xlink:href="#DejaVuSans-69" transform="translate(405.175781 0)"/>
      <use xlink:href="#DejaVuSans-74" transform="translate(432.958984 0)"/>
      <use xlink:href="#DejaVuSans-65" transform="translate(472.167969 0)"/>
      <use xlink:href="#DejaVuSans-20" transform="translate(533.691406 0)"/>
      <use xlink:href="#DejaVuSans-63" transform="translate(565.478516 0)"/>
      <use xlink:href="#DejaVuSans-68" transform="translate(620.458984 0)"/>
      <use xlink:href="#DejaVuSans-61" transform="translate(683.837891 0)"/>
      <use xlink:href="#DejaVuSans-6e" transform="translate(745.117188 0)"/>
      <use xlink:href="#DejaVuSans-6e" transform="translate(808.496094 0)"/>
      <use xlink:href="#DejaVuSans-65" transform="translate(871.875 0)"/>
      <use xlink:href="#DejaVuSans-6c" transform="translate(933.398438 0)"/>
      <use xlink:href="#DejaVuSans-20" transform="translate(961.181641 0)"/>
      <use xlink:href="#DejaVuSans-76" transform="translate(992.96875 0)"/>
      <use xlink:href="#DejaVuSans-61" transform="translate(1052.148438 0)"/>
      <use xlink:href="#DejaVuSans-72" transform="translate(1113.427734 0)"/>
      <use xlink:href="#DejaVuSans-69" transform="translate(1154.541016 0)"/>
      <use xlink:href="#DejaVuSans-61" transform="translate(1182.324219 0)"/>
      <use xlink:href="#DejaVuSans-74" transform="translate(1243.603516 0)"/>
      <use xlink:href="#DejaVuSans-69" transform="translate(1282.8125 0)"/>
      <use xlink:href="#DejaVuSans-6f" transform="translate(1310.595703 0)"/>
      <use xlink:href="#DejaVuSans-6e" transform="translate(1371.777344 0)"/>
      <use xlink:href="#DejaVuSans-20" transform="translate(1435.15625 0)"/>
      <use xlink:href="#DejaVuSans-28" transform="translate(1466.943359 0)"/>
      <use xlink:href="#DejaVuSans-64" transform="translate(1505.957031 0)"/>
      <use xlink:href="#DejaVuSans-42" transform="translate(1569.433594 0)"/>
      <use xlink:href="#DejaVuSans-29" transform="translate(1638.037109 0)"/>
     </g>
    </g>
   </g>
   <g id="matplotlib.axis_2">
    <g id="ytick_1">
     <g id="line2d_17">
      <path d="M 43.78125 300.270051 
L 561.26125 300.270051 
" clip-path="url(#p9df9114862)" style="fill: none; stroke: #b0b0b0; stroke-opacity: 0.25; stroke-width: 0.8; stroke-linecap: square"/>
     </g>
     <g id="line2d_18">
      <defs>
       <path id="mf27287a0fb" d="M 0 0 
L -3.5 0 
" style="stroke: #000000; stroke-width: 0.8"/>
      </defs>
      <g>
       <use xlink:href="#mf27287a0fb" x="43.78125" y="300.270051" style="stroke: #000000; stroke-width: 0.8"/>
      </g>
     </g>
     <g id="text_10">
      <!-- 0.0 -->
      <g transform="translate(20.878125 304.06927) scale(0.1 -0.1)">
       <defs>
        <path id="DejaVuSans-2e" d="M 684 794 
L 1344 794 
L 1344 0 
L 684 0 
L 684 794 
z
" transform="scale(0.015625)"/>
       </defs>
       <use xlink:href="#DejaVuSans-30"/>
       <use xlink:href="#DejaVuSans-2e" transform="translate(63.623047 0)"/>
       <use xlink:href="#DejaVuSans-30" transform="translate(95.410156 0)"/>
      </g>
     </g>
    </g>
    <g id="ytick_2">
     <g id="line2d_19">
      <path d="M 43.78125 247.326575 
L 561.26125 247.326575 
" clip-path="url(#p9df9114862)" style="fill: none; stroke: #b0b0b0; stroke-opacity: 0.25; stroke-width: 0.8; stroke-linecap: square"/>
     </g>
     <g id="line2d_20">
      <g>
       <use xlink:href="#mf27287a0fb" x="43.78125" y="247.326575" style="stroke: #000000; stroke-width: 0.8"/>
      </g>
     </g>
     <g id="text_11">
      <!-- 0.2 -->
      <g transform="translate(20.878125 251.125794) scale(0.1 -0.1)">
       <use xlink:href="#DejaVuSans-30"/>
       <use xlink:href="#DejaVuSans-2e" transform="translate(63.623047 0)"/>
       <use xlink:href="#DejaVuSans-32" transform="translate(95.410156 0)"/>
      </g>
     </g>
    </g>
    <g id="ytick_3">
     <g id="line2d_21">
      <path d="M 43.78125 194.383099 
L 561.26125 194.383099 
" clip-path="url(#p9df9114862)" style="fill: none; stroke: #b0b0b0; stroke-opacity: 0.25; stroke-width: 0.8; stroke-linecap: square"/>
     </g>
     <g id="line2d_22">
      <g>
       <use xlink:href="#mf27287a0fb" x="43.78125" y="194.383099" style="stroke: #000000; stroke-width: 0.8"/>
      </g>
     </g>
     <g id="text_12">
      <!-- 0.4 -->
      <g transform="translate(20.878125 198.182318) scale(0.1 -0.1)">
       <use xlink:href="#DejaVuSans-30"/>
       <use xlink:href="#DejaVuSans-2e" transform="translate(63.623047 0)"/>
       <use xlink:href="#DejaVuSans-34" transform="translate(95.410156 0)"/>
      </g>
     </g>
    </g>
    <g id="ytick_4">
     <g id="line2d_23">
      <path d="M 43.78125 141.439623 
L 561.26125 141.439623 
" clip-path="url(#p9df9114862)" style="fill: none; stroke: #b0b0b0; stroke-opacity: 0.25; stroke-width: 0.8; stroke-linecap: square"/>
     </g>
     <g id="line2d_24">
      <g>
       <use xlink:href="#mf27287a0fb" x="43.78125" y="141.439623" style="stroke: #000000; stroke-width: 0.8"/>
      </g>
     </g>
     <g id="text_13">
      <!-- 0.6 -->
      <g transform="translate(20.878125 145.238842) scale(0.1 -0.1)">
       <defs>
        <path id="DejaVuSans-36" d="M 2113 2584 
Q 1688 2584 1439 2293 
Q 1191 2003 1191 1497 
Q 1191 994 1439 701 
Q 1688 409 2113 409 
Q 2538 409 2786 701 
Q 3034 994 3034 1497 
Q 3034 2003 2786 2293 
Q 2538 2584 2113 2584 
z
M 3366 4563 
L 3366 3988 
Q 3128 4100 2886 4159 
Q 2644 4219 2406 4219 
Q 1781 4219 1451 3797 
Q 1122 3375 1075 2522 
Q 1259 2794 1537 2939 
Q 1816 3084 2150 3084 
Q 2853 3084 3261 2657 
Q 3669 2231 3669 1497 
Q 3669 778 3244 343 
Q 2819 -91 2113 -91 
Q 1303 -91 875 529 
Q 447 1150 447 2328 
Q 447 3434 972 4092 
Q 1497 4750 2381 4750 
Q 2619 4750 2861 4703 
Q 3103 4656 3366 4563 
z
" transform="scale(0.015625)"/>
       </defs>
       <use xlink:href="#DejaVuSans-30"/>
       <use xlink:href="#DejaVuSans-2e" transform="translate(63.623047 0)"/>
       <use xlink:href="#DejaVuSans-36" transform="translate(95.410156 0)"/>
      </g>
     </g>
    </g>
    <g id="ytick_5">
     <g id="line2d_25">
      <path d="M 43.78125 88.496147 
L 561.26125 88.496147 
" clip-path="url(#p9df9114862)" style="fill: none; stroke: #b0b0b0; stroke-opacity: 0.25; stroke-width: 0.8; stroke-linecap: square"/>
     </g>
     <g id="line2d_26">
      <g>
       <use xlink:href="#mf27287a0fb" x="43.78125" y="88.496147" style="stroke: #000000; stroke-width: 0.8"/>
      </g>
     </g>
     <g id="text_14">
      <!-- 0.8 -->
      <g transform="translate(20.878125 92.295365) scale(0.1 -0.1)">
       <defs>
        <path id="DejaVuSans-38" d="M 2034 2216 
Q 1584 2216 1326 1975 
Q 1069 1734 1069 1313 
Q 1069 891 1326 650 
Q 1584 409 2034 409 
Q 2484 409 2743 651 
Q 3003 894 3003 1313 
Q 3003 1734 2745 1975 
Q 2488 2216 2034 2216 
z
M 1403 2484 
Q 997 2584 770 2862 
Q 544 3141 544 3541 
Q 544 4100 942 4425 
Q 1341 4750 2034 4750 
Q 2731 4750 3128 4425 
Q 3525 4100 3525 3541 
Q 3525 3141 3298 2862 
Q 3072 2584 2669 2484 
Q 3125 2378 3379 2068 
Q 3634 1759 3634 1313 
Q 3634 634 3220 271 
Q 2806 -91 2034 -91 
Q 1263 -91 848 271 
Q 434 634 434 1313 
Q 434 1759 690 2068 
Q 947 2378 1403 2484 
z
M 1172 3481 
Q 1172 3119 1398 2916 
Q 1625 2713 2034 2713 
Q 2441 2713 2670 2916 
Q 2900 3119 2900 3481 
Q 2900 3844 2670 4047 
Q 2441 4250 2034 4250 
Q 1625 4250 1398 4047 
Q 1172 3844 1172 3481 
z
" transform="scale(0.015625)"/>
       </defs>
       <use xlink:href="#DejaVuSans-30"/>
       <use xlink:href="#DejaVuSans-2e" transform="translate(63.623047 0)"/>
       <use xlink:href="#DejaVuSans-38" transform="translate(95.410156 0)"/>
      </g>
     </g>
    </g>
    <g id="ytick_6">
     <g id="line2d_27">
      <path d="M 43.78125 35.55267 
L 561.26125 35.55267 
" clip-path="url(#p9df9114862)" style="fill: none; stroke: #b0b0b0; stroke-opacity: 0.25; stroke-width: 0.8; stroke-linecap: square"/>
     </g>
     <g id="line2d_28">
      <g>
       <use xlink:href="#mf27287a0fb" x="43.78125" y="35.55267" style="stroke: #000000; stroke-width: 0.8"/>
      </g>
     </g>
     <g id="text_15">
      <!-- 1.0 -->
      <g transform="translate(20.878125 39.351889) scale(0.1 -0.1)">
       <use xlink:href="#DejaVuSans-31"/>
       <use xlink:href="#DejaVuSans-2e" transform="translate(63.623047 0)"/>
       <use xlink:href="#DejaVuSans-30" transform="translate(95.410156 0)"/>
      </g>
     </g>
    </g>
    <g id="text_16">
     <!-- CDF -->
     <g transform="translate(14.798438 178.115313) rotate(-90) scale(0.1 -0.1)">
      <defs>
       <path id="DejaVuSans-44" d="M 1259 4147 
L 1259 519 
L 2022 519 
Q 2988 519 3436 956 
Q 3884 1394 3884 2338 
Q 3884 3275 3436 3711 
Q 2988 4147 2022 4147 
L 1259 4147 
z
M 628 4666 
L 1925 4666 
Q 3281 4666 3915 4102 
Q 4550 3538 4550 2338 
Q 4550 1131 3912 565 
Q 3275 0 1925 0 
L 628 0 
L 628 4666 
z
" transform="scale(0.015625)"/>
       <path id="DejaVuSans-46" d="M 628 4666 
L 3309 4666 
L 3309 4134 
L 1259 4134 
L 1259 2759 
L 3109 2759 
L 3109 2228 
L 1259 2228 
L 1259 0 
L 628 0 
L 628 4666 
z
" transform="scale(0.015625)"/>
      </defs>
      <use xlink:href="#DejaVuSans-43"/>
      <use xlink:href="#DejaVuSans-44" transform="translate(69.824219 0)"/>
      <use xlink:href="#DejaVuSans-46" transform="translate(146.826172 0)"/>
     </g>
    </g>
   </g>
   <g id="line2d_29">
    <path d="M 67.303068 300.24358 
L 140.026056 300.084749 
L 194.302963 299.899447 
L 224.906632 299.237653 
L 225.740283 299.158238 
L 231.073045 298.893521 
L 231.49119 298.814106 
L 234.801023 298.655275 
L 239.285891 298.231727 
L 241.479731 298.099369 
L 260.145839 296.193404 
L 260.662994 296.087517 
L 261.903507 295.902214 
L 262.053345 295.849271 
L 263.368746 295.611025 
L 264.711613 295.37278 
L 266.224771 295.213949 
L 267.884813 294.816873 
L 268.834912 294.605099 
L 272.726029 293.943306 
L 273.903539 293.70506 
L 274.186678 293.572702 
L 276.417904 292.593247 
L 276.58462 292.460889 
L 277.342129 292.196171 
L 277.601803 291.931454 
L 278.48451 291.640265 
L 278.617552 291.560849 
L 279.401959 291.402019 
L 280.482441 291.137302 
L 280.57477 291.057886 
L 281.982061 290.766697 
L 282.650995 290.50198 
L 282.753777 290.449036 
L 283.732969 290.157847 
L 284.132561 289.946073 
L 284.181739 289.840186 
L 290.218784 287.431258 
L 290.314928 287.351843 
L 290.721885 287.193013 
L 291.091024 287.034182 
L 291.6823 286.875352 
L 292.484328 286.372389 
L 292.808897 286.213558 
L 293.025544 286.0812 
L 293.812851 285.895898 
L 294.542423 285.63118 
L 295.014856 285.419406 
L 295.54236 285.128217 
L 295.949321 284.810556 
L 296.027424 284.651726 
L 296.860251 284.334065 
L 297.235509 284.175235 
L 297.684035 283.936989 
L 297.692494 283.910517 
L 297.944342 283.751687 
L 298.717165 283.460498 
L 299.215237 283.19578 
L 299.421167 282.851648 
L 299.8383 282.666345 
L 300.580221 282.322213 
L 300.908834 282.163382 
L 301.322093 281.81925 
L 301.638154 281.554532 
L 301.725919 281.475117 
L 303.41248 280.389776 
L 304.099503 279.727983 
L 304.619265 279.54268 
L 304.748311 279.304435 
L 305.451471 278.801472 
L 308.142585 277.027865 
L 308.227271 276.94845 
L 308.976552 276.366072 
L 309.095186 276.260185 
L 309.503739 275.995467 
L 309.629055 275.863109 
L 310.230084 275.413089 
L 310.330009 275.307202 
L 310.826161 274.857183 
L 310.936704 274.724824 
L 311.130759 274.539522 
L 312.206028 273.718898 
L 312.225961 273.613011 
L 312.50257 273.454181 
L 312.774563 273.13652 
L 313.072098 272.898274 
L 313.186212 272.845331 
L 313.337734 272.739444 
L 313.641489 272.448255 
L 313.856867 272.262952 
L 314.063944 272.104122 
L 314.476805 271.786461 
L 314.583538 271.627631 
L 315.261375 271.018781 
L 315.432771 270.833479 
L 315.626415 270.648176 
L 315.823474 270.515818 
L 316.202933 270.304044 
L 316.707271 270.012855 
L 316.998977 269.827552 
L 317.064484 269.695194 
L 317.239376 269.562835 
L 317.314053 269.430476 
L 317.555764 269.298118 
L 317.758507 269.0334 
L 318.75918 267.974531 
L 318.929522 267.762757 
L 319.217521 267.445096 
L 319.865403 266.88919 
L 320.140961 266.545057 
L 320.199103 266.465642 
L 320.293021 266.306811 
L 320.441873 266.174453 
L 320.868762 265.962679 
L 321.722135 264.903809 
L 321.867934 264.771451 
L 322.142311 264.586148 
L 322.649298 263.977298 
L 322.780369 263.818468 
L 323.864174 262.600768 
L 323.97496 262.494881 
L 324.654442 261.833088 
L 325.937815 260.377142 
L 326.303823 260.244783 
L 326.714655 259.503575 
L 326.837944 259.371216 
L 326.969292 259.185914 
L 327.337661 258.894725 
L 327.471549 258.682951 
L 328.65897 257.491723 
L 328.763658 257.359364 
L 329.044474 257.094646 
L 329.145219 256.935816 
L 329.307613 256.776986 
L 329.432101 256.565212 
L 329.58203 256.37991 
L 329.770411 256.221079 
L 330.100711 255.824003 
L 330.203847 255.665173 
L 330.877155 254.897492 
L 330.990711 254.685718 
L 331.250337 254.26217 
L 331.461781 254.023925 
L 331.79933 253.706264 
L 332.078014 253.256244 
L 332.409682 252.938584 
L 332.75206 252.462092 
L 332.868983 252.303262 
L 333.023441 251.959129 
L 333.384443 251.50911 
L 333.518965 251.297336 
L 334.094781 250.370825 
L 334.432778 250.026692 
L 334.639433 249.84139 
L 334.894256 249.470786 
L 335.220658 249.07371 
L 335.537197 248.650162 
L 335.659303 248.491332 
L 335.911633 248.01484 
L 336.015489 247.776595 
L 337.502613 245.182364 
L 337.637721 244.917647 
L 338.888953 243.038154 
L 339.015822 242.879323 
L 339.196424 242.614606 
L 339.386963 242.482247 
L 339.513286 242.164586 
L 340.13424 241.211604 
L 340.428251 240.99983 
L 340.51631 240.867471 
L 340.611376 240.708641 
L 340.735823 240.443923 
L 340.883747 240.179206 
L 340.997189 239.993904 
L 341.14553 239.808602 
L 341.269673 239.623299 
L 341.383234 239.464469 
L 341.548076 239.067393 
L 341.609882 238.855619 
L 341.741409 238.670317 
L 341.987481 238.485015 
L 342.635941 237.187899 
L 342.899767 236.89671 
L 342.987274 236.817295 
L 343.300646 236.420219 
L 343.479215 236.049615 
L 343.596084 235.864313 
L 343.989764 235.308406 
L 345.850917 232.343571 
L 346.517505 231.417061 
L 346.706871 231.125871 
L 346.841199 230.993513 
L 347.122749 230.622908 
L 348.221146 229.034604 
L 348.342097 228.82283 
L 348.444809 228.664 
L 349.794427 226.202128 
L 349.99816 225.857996 
L 350.117942 225.672693 
L 350.328496 225.407976 
L 350.454945 225.16973 
L 350.571953 224.957956 
L 350.798854 224.56088 
L 351.360411 223.63437 
L 351.633073 223.210822 
L 351.79241 222.73433 
L 353.733299 219.187118 
L 353.925352 218.9224 
L 355.298602 215.904622 
L 355.391361 215.772263 
L 355.831293 215.163413 
L 355.977057 214.925168 
L 356.126926 214.633979 
L 356.240171 214.316318 
L 356.621307 213.707468 
L 356.761199 213.363335 
L 357.026507 212.966259 
L 357.3399 212.463296 
L 357.495162 212.277994 
L 357.801759 211.6162 
L 357.90321 211.404427 
L 357.982616 211.192653 
L 358.210947 210.795577 
L 358.63659 210.186727 
L 358.747318 210.054368 
L 358.871201 209.895537 
L 359.068443 209.339631 
L 359.263351 209.074914 
L 359.523158 208.651366 
L 359.813832 208.174874 
L 361.169235 205.395342 
L 361.235448 205.21004 
L 361.437912 204.76002 
L 361.488326 204.574718 
L 361.606648 204.098227 
L 361.804471 203.754094 
L 361.923162 203.436433 
L 362.032387 203.251131 
L 362.917674 201.55694 
L 363.027364 201.345166 
L 363.126336 201.053977 
L 363.209139 200.815731 
L 363.308618 200.577486 
L 363.378457 200.445127 
L 363.518057 200.021579 
L 363.812376 199.465673 
L 363.944648 199.095068 
L 364.095966 198.856823 
L 364.426782 198.009727 
L 364.487151 197.850897 
L 365.17094 195.891988 
L 365.277506 195.627271 
L 365.434762 195.336082 
L 365.602426 194.991949 
L 365.79394 194.70076 
L 365.955457 194.409571 
L 366.13327 194.197797 
L 366.45143 193.430116 
L 366.643163 192.953625 
L 366.756798 192.794795 
L 366.878688 192.477134 
L 367.388215 191.603566 
L 367.525945 191.180019 
L 367.995226 190.385867 
L 368.282606 189.67113 
L 368.474621 189.37994 
L 368.820618 188.665204 
L 369.171802 188.056354 
L 369.353816 187.632806 
L 369.475843 187.447504 
L 369.729875 186.732767 
L 369.885586 186.256275 
L 370.07763 185.885671 
L 370.18783 185.515067 
L 370.499318 184.985632 
L 371.283136 183.212025 
L 371.424371 183.026723 
L 371.51219 182.841421 
L 371.761829 182.52376 
L 372.497523 180.750154 
L 372.580513 180.591323 
L 372.717664 180.300134 
L 372.8502 180.035417 
L 372.991413 179.717756 
L 373.138448 179.373623 
L 373.270221 179.135378 
L 373.462877 178.738302 
L 373.588765 178.473584 
L 373.905438 177.917678 
L 374.022243 177.600017 
L 374.185126 177.017639 
L 374.332888 176.832337 
L 374.476259 176.541147 
L 374.751214 175.799939 
L 374.865354 175.535221 
L 375.500525 173.814558 
L 375.578531 173.655728 
L 375.831029 173.046878 
L 376.569219 171.590932 
L 376.675051 171.432102 
L 376.848212 171.008554 
L 377.221356 169.684967 
L 377.396623 169.393778 
L 377.575463 168.837872 
L 377.709526 168.626098 
L 377.93649 168.04372 
L 378.115738 167.726059 
L 378.343152 167.276039 
L 378.658542 166.614246 
L 378.772289 166.402472 
L 378.893926 166.137754 
L 379.024903 165.899509 
L 379.201073 165.60832 
L 379.335027 165.290659 
L 380.117716 163.437637 
L 380.275319 163.199391 
L 380.880942 161.902276 
L 381.057198 161.293426 
L 381.429605 160.605161 
L 381.578062 160.234557 
L 381.678345 160.075726 
L 381.852912 159.546292 
L 381.942996 159.334518 
L 382.139951 158.646253 
L 382.308362 158.275648 
L 382.885774 156.872646 
L 383.315028 155.813777 
L 383.435209 155.549059 
L 383.591938 154.913737 
L 384.367428 153.034244 
L 384.509567 152.716583 
L 384.580141 152.478338 
L 384.691626 152.293035 
L 384.812739 152.081261 
L 384.935922 151.869488 
L 385.112017 151.419468 
L 385.29372 150.99592 
L 385.398511 150.863562 
L 385.533393 150.492957 
L 385.773022 149.857635 
L 385.95313 149.61939 
L 386.089323 149.434088 
L 386.453114 148.772294 
L 386.602558 148.242859 
L 386.920616 147.686953 
L 390.256763 139.983677 
L 391.56824 137.098258 
L 391.627806 136.939427 
L 391.840508 136.462936 
L 391.991234 136.22469 
L 392.110248 135.880558 
L 392.186166 135.721727 
L 392.273603 135.509953 
L 392.357408 135.351123 
L 392.758012 134.371669 
L 392.851596 134.159895 
L 393.937446 131.592136 
L 394.150205 131.168588 
L 394.534908 130.506795 
L 395.408292 128.680245 
L 395.500889 128.494943 
L 395.657695 128.15081 
L 395.813009 127.99198 
L 396.012877 127.489017 
L 396.189517 126.986054 
L 396.445181 126.191902 
L 396.52607 125.980128 
L 396.649958 125.71541 
L 398.046304 123.12118 
L 398.153885 122.935878 
L 398.420831 122.300556 
L 399.605615 119.785741 
L 399.715379 119.600439 
L 400.151222 118.620985 
L 400.352172 118.382739 
L 400.65572 117.879776 
L 400.775834 117.64153 
L 401.300253 116.503246 
L 401.450282 116.132641 
L 401.740131 115.709093 
L 401.846581 115.417904 
L 401.982878 115.153187 
L 402.173842 114.703167 
L 402.274971 114.517865 
L 402.525783 113.723713 
L 402.845772 112.929561 
L 402.991489 112.664843 
L 403.345159 111.897163 
L 403.491234 111.738333 
L 405.867717 107.7411 
L 406.001212 107.502855 
L 406.367747 106.920476 
L 406.476666 106.708702 
L 406.728158 106.232211 
L 407.603955 104.299774 
L 407.793928 104.114472 
L 408.072405 103.47915 
L 408.376105 102.923244 
L 408.494657 102.737942 
L 408.543462 102.658526 
L 408.701939 102.499696 
L 408.841359 102.208507 
L 409.216881 101.49377 
L 409.347702 101.229053 
L 409.481644 101.04375 
L 409.603212 100.752561 
L 410.577887 98.89954 
L 410.879023 98.528935 
L 411.232956 97.867142 
L 411.379218 97.602425 
L 411.514716 97.284764 
L 411.754511 96.781801 
L 411.891471 96.62297 
L 412.009989 96.225894 
L 412.108173 95.961177 
L 412.564708 95.114081 
L 412.904063 94.875835 
L 413.225045 94.108155 
L 413.375331 93.764022 
L 413.950401 92.890455 
L 414.177324 92.440436 
L 414.917416 91.222736 
L 415.032459 91.010962 
L 415.226012 90.613886 
L 415.508866 90.243281 
L 415.632498 89.899149 
L 415.899739 89.449129 
L 416.051449 89.210884 
L 416.199457 88.972638 
L 416.652778 88.125542 
L 416.807452 87.913768 
L 416.953278 87.543164 
L 417.373289 86.934314 
L 417.794024 86.140162 
L 417.912354 85.875445 
L 418.050295 85.716614 
L 418.255124 85.50484 
L 418.47913 84.975405 
L 419.492655 83.201799 
L 419.627877 82.990025 
L 420.008055 82.222345 
L 420.177709 81.931156 
L 420.690521 81.137003 
L 420.812445 80.92523 
L 420.969935 80.63404 
L 421.108871 80.501682 
L 421.221383 80.342851 
L 421.346593 80.104606 
L 421.547609 79.892832 
L 421.660488 79.70753 
L 421.820402 79.41634 
L 422.128585 79.045736 
L 422.325302 78.833962 
L 422.502091 78.64866 
L 422.713592 78.410414 
L 422.820583 78.172169 
L 422.986468 77.933923 
L 423.119582 77.748621 
L 423.419686 77.483904 
L 423.777493 76.742695 
L 423.898649 76.583864 
L 424.043642 76.292675 
L 424.163228 76.107373 
L 424.309729 75.736769 
L 424.402327 75.498523 
L 424.617281 75.048504 
L 424.780347 74.916145 
L 424.87609 74.677899 
L 425.008927 74.545541 
L 425.189035 74.307295 
L 425.578796 73.963162 
L 425.754549 73.77786 
L 425.912293 73.539615 
L 426.016362 73.407256 
L 426.344805 73.16901 
L 426.489091 72.983708 
L 426.647158 72.824878 
L 427.30055 71.977782 
L 427.524422 71.818952 
L 428.37014 70.813026 
L 428.843234 70.204176 
L 429.185621 69.833571 
L 429.261032 69.674741 
L 429.530129 69.19825 
L 429.868893 68.90706 
L 430.135002 68.377626 
L 430.536363 67.98055 
L 430.70633 67.821719 
L 430.798919 67.68936 
L 430.927943 67.477587 
L 431.319226 66.842265 
L 431.53343 66.656963 
L 431.7402 66.471661 
L 431.938313 66.31283 
L 432.048715 66.127528 
L 432.278009 65.942226 
L 432.389359 65.70398 
L 432.478367 65.651037 
L 432.753227 65.412791 
L 432.930717 65.280432 
L 433.033769 65.121602 
L 433.465275 64.565695 
L 433.685829 64.248035 
L 433.922012 63.903902 
L 434.153653 63.745072 
L 434.428302 63.506826 
L 434.625319 63.26858 
L 435.093726 62.845032 
L 435.178383 62.739145 
L 435.366259 62.553843 
L 436.191898 61.627332 
L 436.394081 61.468502 
L 436.566384 61.230256 
L 437.303734 60.568463 
L 437.466401 60.409633 
L 437.946378 60.039028 
L 438.209732 59.61548 
L 438.420982 59.45665 
L 438.600973 59.29782 
L 438.871232 58.927215 
L 439.094389 58.794856 
L 439.125118 58.662498 
L 439.326176 58.530139 
L 439.511208 58.159535 
L 439.730402 58.000704 
L 440.316551 57.577157 
L 440.383422 57.444798 
L 440.895302 57.18008 
L 441.228231 56.86242 
L 441.452991 56.677117 
L 441.751789 56.359457 
L 442.277266 56.068267 
L 442.429544 55.830022 
L 442.660383 55.591776 
L 442.759972 55.459417 
L 443.200368 55.168228 
L 443.309533 55.009398 
L 443.47607 54.903511 
L 443.727648 54.771152 
L 443.930962 54.479963 
L 444.249577 54.294661 
L 444.336404 54.162302 
L 444.572033 53.977 
L 444.665953 53.897585 
L 444.891401 53.712283 
L 444.957743 53.632868 
L 445.079474 53.500509 
L 445.290846 53.36815 
L 445.865172 53.024018 
L 445.984742 52.812244 
L 446.225515 52.60047 
L 446.460712 52.335752 
L 447.280747 51.753374 
L 447.380019 51.594544 
L 447.698999 51.435713 
L 448.116421 51.197468 
L 448.789513 50.615089 
L 448.989147 50.270957 
L 449.259185 50.138598 
L 449.382714 50.059183 
L 449.604345 49.847409 
L 451.192824 48.841483 
L 451.653694 48.682653 
L 451.745833 48.576766 
L 451.987621 48.444407 
L 452.139684 48.312048 
L 452.402091 48.126746 
L 453.31077 47.544368 
L 453.55247 47.173763 
L 453.808439 47.041405 
L 454.179391 46.829631 
L 454.715976 46.538442 
L 455.152169 46.379611 
L 455.575498 46.114894 
L 455.835212 45.929592 
L 459.912303 44.023627 
L 460.331362 43.864796 
L 460.411634 43.785381 
L 460.789245 43.626551 
L 460.883041 43.547135 
L 461.701763 43.335361 
L 461.754166 43.282418 
L 462.301701 43.097116 
L 462.355382 43.017701 
L 463.425488 42.647096 
L 464.070216 42.408851 
L 464.577774 42.276492 
L 465.721527 41.879416 
L 466.430753 41.694114 
L 467.130955 41.402925 
L 467.135758 41.349981 
L 467.760804 41.164679 
L 468.174933 40.952905 
L 469.080426 40.767603 
L 469.237063 40.688188 
L 469.384732 40.635244 
L 470.186387 40.42347 
L 471.811781 40.026394 
L 471.921939 39.894036 
L 473.514469 39.629318 
L 476.428408 38.888109 
L 477.326316 38.755751 
L 479.355781 38.491033 
L 480.295999 38.279259 
L 483.173711 37.590994 
L 484.508899 37.352749 
L 487.089968 36.929201 
L 488.098471 36.849786 
L 496.595211 36.187992 
L 496.598473 36.16152 
L 501.072927 36.00269 
L 501.081147 35.976218 
L 501.394158 35.923275 
L 516.616882 35.632086 
L 537.739432 35.55267 
L 537.739432 35.55267 
" clip-path="url(#p9df9114862)" style="fill: none; stroke: #1f77b4; stroke-width: 2; stroke-linecap: square"/>
   </g>
   <g id="patch_3">
    <path d="M 43.78125 313.478125 
L 43.78125 22.318125 
" style="fill: none; stroke: #000000; stroke-width: 0.8; stroke-linejoin: miter; stroke-linecap: square"/>
   </g>
   <g id="patch_4">
    <path d="M 561.26125 313.478125 
L 561.26125 22.318125 
" style="fill: none; stroke: #000000; stroke-width: 0.8; stroke-linejoin: miter; stroke-linecap: square"/>
   </g>
   <g id="patch_5">
    <path d="M 43.78125 313.478125 
L 561.26125 313.478125 
" style="fill: none; stroke: #000000; stroke-width: 0.8; stroke-linejoin: miter; stroke-linecap: square"/>
   </g>
   <g id="patch_6">
    <path d="M 43.78125 22.318125 
L 561.26125 22.318125 
" style="fill: none; stroke: #000000; stroke-width: 0.8; stroke-linejoin: miter; stroke-linecap: square"/>
   </g>
   <g id="text_17">
    <!-- Composite Channel Variation Empirical CDF -->
    <g transform="translate(155.404062 16.318125) scale(0.12 -0.12)">
     <defs>
      <path id="DejaVuSans-Bold-43" d="M 4288 256 
Q 3956 84 3597 -3 
Q 3238 -91 2847 -91 
Q 1681 -91 1000 561 
Q 319 1213 319 2328 
Q 319 3447 1000 4098 
Q 1681 4750 2847 4750 
Q 3238 4750 3597 4662 
Q 3956 4575 4288 4403 
L 4288 3438 
Q 3953 3666 3628 3772 
Q 3303 3878 2944 3878 
Q 2300 3878 1931 3465 
Q 1563 3053 1563 2328 
Q 1563 1606 1931 1193 
Q 2300 781 2944 781 
Q 3303 781 3628 887 
Q 3953 994 4288 1222 
L 4288 256 
z
" transform="scale(0.015625)"/>
      <path id="DejaVuSans-Bold-6f" d="M 2203 2784 
Q 1831 2784 1636 2517 
Q 1441 2250 1441 1747 
Q 1441 1244 1636 976 
Q 1831 709 2203 709 
Q 2569 709 2762 976 
Q 2956 1244 2956 1747 
Q 2956 2250 2762 2517 
Q 2569 2784 2203 2784 
z
M 2203 3584 
Q 3106 3584 3614 3096 
Q 4122 2609 4122 1747 
Q 4122 884 3614 396 
Q 3106 -91 2203 -91 
Q 1297 -91 786 396 
Q 275 884 275 1747 
Q 275 2609 786 3096 
Q 1297 3584 2203 3584 
z
" transform="scale(0.015625)"/>
      <path id="DejaVuSans-Bold-6d" d="M 3781 2919 
Q 3994 3244 4286 3414 
Q 4578 3584 4928 3584 
Q 5531 3584 5847 3212 
Q 6163 2841 6163 2131 
L 6163 0 
L 5038 0 
L 5038 1825 
Q 5041 1866 5042 1909 
Q 5044 1953 5044 2034 
Q 5044 2406 4934 2573 
Q 4825 2741 4581 2741 
Q 4263 2741 4089 2478 
Q 3916 2216 3909 1719 
L 3909 0 
L 2784 0 
L 2784 1825 
Q 2784 2406 2684 2573 
Q 2584 2741 2328 2741 
Q 2006 2741 1831 2477 
Q 1656 2213 1656 1722 
L 1656 0 
L 531 0 
L 531 3500 
L 1656 3500 
L 1656 2988 
Q 1863 3284 2130 3434 
Q 2397 3584 2719 3584 
Q 3081 3584 3359 3409 
Q 3638 3234 3781 2919 
z
" transform="scale(0.015625)"/>
      <path id="DejaVuSans-Bold-70" d="M 1656 506 
L 1656 -1331 
L 538 -1331 
L 538 3500 
L 1656 3500 
L 1656 2988 
Q 1888 3294 2169 3439 
Q 2450 3584 2816 3584 
Q 3463 3584 3878 3070 
Q 4294 2556 4294 1747 
Q 4294 938 3878 423 
Q 3463 -91 2816 -91 
Q 2450 -91 2169 54 
Q 1888 200 1656 506 
z
M 2400 2772 
Q 2041 2772 1848 2508 
Q 1656 2244 1656 1747 
Q 1656 1250 1848 986 
Q 2041 722 2400 722 
Q 2759 722 2948 984 
Q 3138 1247 3138 1747 
Q 3138 2247 2948 2509 
Q 2759 2772 2400 2772 
z
" transform="scale(0.015625)"/>
      <path id="DejaVuSans-Bold-73" d="M 3272 3391 
L 3272 2541 
Q 2913 2691 2578 2766 
Q 2244 2841 1947 2841 
Q 1628 2841 1473 2761 
Q 1319 2681 1319 2516 
Q 1319 2381 1436 2309 
Q 1553 2238 1856 2203 
L 2053 2175 
Q 2913 2066 3209 1816 
Q 3506 1566 3506 1031 
Q 3506 472 3093 190 
Q 2681 -91 1863 -91 
Q 1516 -91 1145 -36 
Q 775 19 384 128 
L 384 978 
Q 719 816 1070 734 
Q 1422 653 1784 653 
Q 2113 653 2278 743 
Q 2444 834 2444 1013 
Q 2444 1163 2330 1236 
Q 2216 1309 1875 1350 
L 1678 1375 
Q 931 1469 631 1722 
Q 331 1975 331 2491 
Q 331 3047 712 3315 
Q 1094 3584 1881 3584 
Q 2191 3584 2531 3537 
Q 2872 3491 3272 3391 
z
" transform="scale(0.015625)"/>
      <path id="DejaVuSans-Bold-69" d="M 538 3500 
L 1656 3500 
L 1656 0 
L 538 0 
L 538 3500 
z
M 538 4863 
L 1656 4863 
L 1656 3950 
L 538 3950 
L 538 4863 
z
" transform="scale(0.015625)"/>
      <path id="DejaVuSans-Bold-74" d="M 1759 4494 
L 1759 3500 
L 2913 3500 
L 2913 2700 
L 1759 2700 
L 1759 1216 
Q 1759 972 1856 886 
Q 1953 800 2241 800 
L 2816 800 
L 2816 0 
L 1856 0 
Q 1194 0 917 276 
Q 641 553 641 1216 
L 641 2700 
L 84 2700 
L 84 3500 
L 641 3500 
L 641 4494 
L 1759 4494 
z
" transform="scale(0.015625)"/>
      <path id="DejaVuSans-Bold-65" d="M 4031 1759 
L 4031 1441 
L 1416 1441 
Q 1456 1047 1700 850 
Q 1944 653 2381 653 
Q 2734 653 3104 758 
Q 3475 863 3866 1075 
L 3866 213 
Q 3469 63 3072 -14 
Q 2675 -91 2278 -91 
Q 1328 -91 801 392 
Q 275 875 275 1747 
Q 275 2603 792 3093 
Q 1309 3584 2216 3584 
Q 3041 3584 3536 3087 
Q 4031 2591 4031 1759 
z
M 2881 2131 
Q 2881 2450 2695 2645 
Q 2509 2841 2209 2841 
Q 1884 2841 1681 2658 
Q 1478 2475 1428 2131 
L 2881 2131 
z
" transform="scale(0.015625)"/>
      <path id="DejaVuSans-Bold-20" transform="scale(0.015625)"/>
      <path id="DejaVuSans-Bold-68" d="M 4056 2131 
L 4056 0 
L 2931 0 
L 2931 347 
L 2931 1625 
Q 2931 2084 2911 2256 
Q 2891 2428 2841 2509 
Q 2775 2619 2662 2680 
Q 2550 2741 2406 2741 
Q 2056 2741 1856 2470 
Q 1656 2200 1656 1722 
L 1656 0 
L 538 0 
L 538 4863 
L 1656 4863 
L 1656 2988 
Q 1909 3294 2193 3439 
Q 2478 3584 2822 3584 
Q 3428 3584 3742 3212 
Q 4056 2841 4056 2131 
z
" transform="scale(0.015625)"/>
      <path id="DejaVuSans-Bold-61" d="M 2106 1575 
Q 1756 1575 1579 1456 
Q 1403 1338 1403 1106 
Q 1403 894 1545 773 
Q 1688 653 1941 653 
Q 2256 653 2472 879 
Q 2688 1106 2688 1447 
L 2688 1575 
L 2106 1575 
z
M 3816 1997 
L 3816 0 
L 2688 0 
L 2688 519 
Q 2463 200 2181 54 
Q 1900 -91 1497 -91 
Q 953 -91 614 226 
Q 275 544 275 1050 
Q 275 1666 698 1953 
Q 1122 2241 2028 2241 
L 2688 2241 
L 2688 2328 
Q 2688 2594 2478 2717 
Q 2269 2841 1825 2841 
Q 1466 2841 1156 2769 
Q 847 2697 581 2553 
L 581 3406 
Q 941 3494 1303 3539 
Q 1666 3584 2028 3584 
Q 2975 3584 3395 3211 
Q 3816 2838 3816 1997 
z
" transform="scale(0.015625)"/>
      <path id="DejaVuSans-Bold-6e" d="M 4056 2131 
L 4056 0 
L 2931 0 
L 2931 347 
L 2931 1631 
Q 2931 2084 2911 2256 
Q 2891 2428 2841 2509 
Q 2775 2619 2662 2680 
Q 2550 2741 2406 2741 
Q 2056 2741 1856 2470 
Q 1656 2200 1656 1722 
L 1656 0 
L 538 0 
L 538 3500 
L 1656 3500 
L 1656 2988 
Q 1909 3294 2193 3439 
Q 2478 3584 2822 3584 
Q 3428 3584 3742 3212 
Q 4056 2841 4056 2131 
z
" transform="scale(0.015625)"/>
      <path id="DejaVuSans-Bold-6c" d="M 538 4863 
L 1656 4863 
L 1656 0 
L 538 0 
L 538 4863 
z
" transform="scale(0.015625)"/>
      <path id="DejaVuSans-Bold-56" d="M 31 4666 
L 1241 4666 
L 2478 1222 
L 3713 4666 
L 4922 4666 
L 3194 0 
L 1759 0 
L 31 4666 
z
" transform="scale(0.015625)"/>
      <path id="DejaVuSans-Bold-72" d="M 3138 2547 
Q 2991 2616 2845 2648 
Q 2700 2681 2553 2681 
Q 2122 2681 1889 2404 
Q 1656 2128 1656 1613 
L 1656 0 
L 538 0 
L 538 3500 
L 1656 3500 
L 1656 2925 
Q 1872 3269 2151 3426 
Q 2431 3584 2822 3584 
Q 2878 3584 2943 3579 
Q 3009 3575 3134 3559 
L 3138 2547 
z
" transform="scale(0.015625)"/>
      <path id="DejaVuSans-Bold-45" d="M 588 4666 
L 3834 4666 
L 3834 3756 
L 1791 3756 
L 1791 2888 
L 3713 2888 
L 3713 1978 
L 1791 1978 
L 1791 909 
L 3903 909 
L 3903 0 
L 588 0 
L 588 4666 
z
" transform="scale(0.015625)"/>
      <path id="DejaVuSans-Bold-63" d="M 3366 3391 
L 3366 2478 
Q 3138 2634 2908 2709 
Q 2678 2784 2431 2784 
Q 1963 2784 1702 2511 
Q 1441 2238 1441 1747 
Q 1441 1256 1702 982 
Q 1963 709 2431 709 
Q 2694 709 2930 787 
Q 3166 866 3366 1019 
L 3366 103 
Q 3103 6 2833 -42 
Q 2563 -91 2291 -91 
Q 1344 -91 809 395 
Q 275 881 275 1747 
Q 275 2613 809 3098 
Q 1344 3584 2291 3584 
Q 2566 3584 2833 3536 
Q 3100 3488 3366 3391 
z
" transform="scale(0.015625)"/>
      <path id="DejaVuSans-Bold-44" d="M 1791 3756 
L 1791 909 
L 2222 909 
Q 2959 909 3348 1275 
Q 3738 1641 3738 2338 
Q 3738 3031 3350 3393 
Q 2963 3756 2222 3756 
L 1791 3756 
z
M 588 4666 
L 1856 4666 
Q 2919 4666 3439 4514 
Q 3959 4363 4331 4000 
Q 4659 3684 4818 3271 
Q 4978 2859 4978 2338 
Q 4978 1809 4818 1395 
Q 4659 981 4331 666 
Q 3956 303 3431 151 
Q 2906 0 1856 0 
L 588 0 
L 588 4666 
z
" transform="scale(0.015625)"/>
      <path id="DejaVuSans-Bold-46" d="M 588 4666 
L 3834 4666 
L 3834 3756 
L 1791 3756 
L 1791 2888 
L 3713 2888 
L 3713 1978 
L 1791 1978 
L 1791 0 
L 588 0 
L 588 4666 
z
" transform="scale(0.015625)"/>
     </defs>
     <use xlink:href="#DejaVuSans-Bold-43"/>
     <use xlink:href="#DejaVuSans-Bold-6f" transform="translate(73.388672 0)"/>
     <use xlink:href="#DejaVuSans-Bold-6d" transform="translate(142.089844 0)"/>
     <use xlink:href="#DejaVuSans-Bold-70" transform="translate(246.289062 0)"/>
     <use xlink:href="#DejaVuSans-Bold-6f" transform="translate(317.871094 0)"/>
     <use xlink:href="#DejaVuSans-Bold-73" transform="translate(386.572266 0)"/>
     <use xlink:href="#DejaVuSans-Bold-69" transform="translate(446.09375 0)"/>
     <use xlink:href="#DejaVuSans-Bold-74" transform="translate(480.371094 0)"/>
     <use xlink:href="#DejaVuSans-Bold-65" transform="translate(528.173828 0)"/>
     <use xlink:href="#DejaVuSans-Bold-20" transform="translate(595.996094 0)"/>
     <use xlink:href="#DejaVuSans-Bold-43" transform="translate(630.810547 0)"/>
     <use xlink:href="#DejaVuSans-Bold-68" transform="translate(704.199219 0)"/>
     <use xlink:href="#DejaVuSans-Bold-61" transform="translate(775.390625 0)"/>
     <use xlink:href="#DejaVuSans-Bold-6e" transform="translate(842.871094 0)"/>
     <use xlink:href="#DejaVuSans-Bold-6e" transform="translate(914.0625 0)"/>
     <use xlink:href="#DejaVuSans-Bold-65" transform="translate(985.253906 0)"/>
     <use xlink:href="#DejaVuSans-Bold-6c" transform="translate(1053.076172 0)"/>
     <use xlink:href="#DejaVuSans-Bold-20" transform="translate(1087.353516 0)"/>
     <use xlink:href="#DejaVuSans-Bold-56" transform="translate(1122.167969 0)"/>
     <use xlink:href="#DejaVuSans-Bold-61" transform="translate(1194.060547 0)"/>
     <use xlink:href="#DejaVuSans-Bold-72" transform="translate(1261.541016 0)"/>
     <use xlink:href="#DejaVuSans-Bold-69" transform="translate(1310.857422 0)"/>
     <use xlink:href="#DejaVuSans-Bold-61" transform="translate(1345.134766 0)"/>
     <use xlink:href="#DejaVuSans-Bold-74" transform="translate(1412.615234 0)"/>
     <use xlink:href="#DejaVuSans-Bold-69" transform="translate(1460.417969 0)"/>
     <use xlink:href="#DejaVuSans-Bold-6f" transform="translate(1494.695312 0)"/>
     <use xlink:href="#DejaVuSans-Bold-6e" transform="translate(1563.396484 0)"/>
     <use xlink:href="#DejaVuSans-Bold-20" transform="translate(1634.587891 0)"/>
     <use xlink:href="#DejaVuSans-Bold-45" transform="translate(1669.402344 0)"/>
     <use xlink:href="#DejaVuSans-Bold-6d" transform="translate(1737.712891 0)"/>
     <use xlink:href="#DejaVuSans-Bold-70" transform="translate(1841.912109 0)"/>
     <use xlink:href="#DejaVuSans-Bold-69" transform="translate(1913.494141 0)"/>
     <use xlink:href="#DejaVuSans-Bold-72" transform="translate(1947.771484 0)"/>
     <use xlink:href="#DejaVuSans-Bold-69" transform="translate(1997.087891 0)"/>
     <use xlink:href="#DejaVuSans-Bold-63" transform="translate(2031.365234 0)"/>
     <use xlink:href="#DejaVuSans-Bold-61" transform="translate(2090.642578 0)"/>
     <use xlink:href="#DejaVuSans-Bold-6c" transform="translate(2158.123047 0)"/>
     <use xlink:href="#DejaVuSans-Bold-20" transform="translate(2192.400391 0)"/>
     <use xlink:href="#DejaVuSans-Bold-43" transform="translate(2227.214844 0)"/>
     <use xlink:href="#DejaVuSans-Bold-44" transform="translate(2300.603516 0)"/>
     <use xlink:href="#DejaVuSans-Bold-46" transform="translate(2383.611328 0)"/>
    </g>
   </g>
   <g id="line2d_30">
    <path d="M 291.389237 313.478125 
L 291.389237 22.318125 
" clip-path="url(#p9df9114862)" style="fill: none; stroke-dasharray: 7.4,3.2; stroke-dashoffset: 0; stroke: #008000; stroke-width: 2"/>
   </g>
   <g id="legend_1">
    <g id="patch_7">
     <path d="M 50.78125 59.674375 
L 173.517188 59.674375 
Q 175.517188 59.674375 175.517188 57.674375 
L 175.517188 29.318125 
Q 175.517188 27.318125 173.517188 27.318125 
L 50.78125 27.318125 
Q 48.78125 27.318125 48.78125 29.318125 
L 48.78125 57.674375 
Q 48.78125 59.674375 50.78125 59.674375 
z
" style="fill: #ffffff; opacity: 0.8; stroke: #cccccc; stroke-linejoin: miter"/>
    </g>
    <g id="line2d_31">
     <path d="M 52.78125 35.416562 
L 62.78125 35.416562 
L 72.78125 35.416562 
" style="fill: none; stroke: #1f77b4; stroke-width: 2; stroke-linecap: square"/>
    </g>
    <g id="text_18">
     <!-- CDF -->
     <g transform="translate(80.78125 38.916562) scale(0.1 -0.1)">
      <use xlink:href="#DejaVuSans-43"/>
      <use xlink:href="#DejaVuSans-44" transform="translate(69.824219 0)"/>
      <use xlink:href="#DejaVuSans-46" transform="translate(146.826172 0)"/>
     </g>
    </g>
    <g id="line2d_32">
     <path d="M 52.78125 50.094688 
L 62.78125 50.094688 
L 72.78125 50.094688 
" style="fill: none; stroke-dasharray: 7.4,3.2; stroke-dashoffset: 0; stroke: #008000; stroke-width: 2"/>
    </g>
    <g id="text_19">
     <!-- 5th pct: -16.53 dB -->
     <g transform="translate(80.78125 53.594688) scale(0.1 -0.1)">
      <defs>
       <path id="DejaVuSans-3a" d="M 750 794 
L 1409 794 
L 1409 0 
L 750 0 
L 750 794 
z
M 750 3309 
L 1409 3309 
L 1409 2516 
L 750 2516 
L 750 3309 
z
" transform="scale(0.015625)"/>
       <path id="DejaVuSans-2d" d="M 313 2009 
L 1997 2009 
L 1997 1497 
L 313 1497 
L 313 2009 
z
" transform="scale(0.015625)"/>
      </defs>
      <use xlink:href="#DejaVuSans-35"/>
      <use xlink:href="#DejaVuSans-74" transform="translate(63.623047 0)"/>
      <use xlink:href="#DejaVuSans-68" transform="translate(102.832031 0)"/>
      <use xlink:href="#DejaVuSans-20" transform="translate(166.210938 0)"/>
      <use xlink:href="#DejaVuSans-70" transform="translate(197.998047 0)"/>
      <use xlink:href="#DejaVuSans-63" transform="translate(261.474609 0)"/>
      <use xlink:href="#DejaVuSans-74" transform="translate(316.455078 0)"/>
      <use xlink:href="#DejaVuSans-3a" transform="translate(355.664062 0)"/>
      <use xlink:href="#DejaVuSans-20" transform="translate(389.355469 0)"/>
      <use xlink:href="#DejaVuSans-2d" transform="translate(421.142578 0)"/>
      <use xlink:href="#DejaVuSans-31" transform="translate(457.226562 0)"/>
      <use xlink:href="#DejaVuSans-36" transform="translate(520.849609 0)"/>
      <use xlink:href="#DejaVuSans-2e" transform="translate(584.472656 0)"/>
      <use xlink:href="#DejaVuSans-35" transform="translate(616.259766 0)"/>
      <use xlink:href="#DejaVuSans-33" transform="translate(679.882812 0)"/>
      <use xlink:href="#DejaVuSans-20" transform="translate(743.505859 0)"/>
      <use xlink:href="#DejaVuSans-64" transform="translate(775.292969 0)"/>
      <use xlink:href="#DejaVuSans-42" transform="translate(838.769531 0)"/>
     </g>
    </g>
   </g>
  </g>
 </g>
 <defs>
  <clipPath id="p9df9114862">
   <rect x="43.78125" y="22.318125" width="517.48" height="291.16"/>
  </clipPath>
 </defs>
</svg>
