<?xml version="1.0" encoding="UTF-8"?>
<svg xmlns="http://www.w3.org/2000/svg" viewBox="328.5836 312.7425 1.7108 2.1211" width="1600" height="1983" style="background:#080d14;">
<defs>
  <filter id="rg_45156875" x="-60%" y="-60%" width="220%" height="220%"><feGaussianBlur stdDeviation="0.018" result="b"/><feMerge><feMergeNode in="b"/><feMergeNode in="SourceGraphic"/></feMerge></filter>
  <filter id="iglow" x="-150%" y="-150%" width="400%" height="400%"><feGaussianBlur stdDeviation="0.07" result="b"/><feMerge><feMergeNode in="b"/><feMergeNode in="SourceGraphic"/></feMerge></filter>
  <filter id="mglow" x="-150%" y="-150%" width="400%" height="400%"><feGaussianBlur stdDeviation="0.10" result="b"/><feMerge><feMergeNode in="b"/><feMergeNode in="SourceGraphic"/></feMerge></filter>
  <filter id="gglow" x="-150%" y="-150%" width="400%" height="400%"><feGaussianBlur stdDeviation="0.07" result="b"/><feMerge><feMergeNode in="b"/><feMergeNode in="SourceGraphic"/></feMerge></filter>
</defs>
<g stroke="#aaaaaa" stroke-width="0.018" opacity="0.40">
<line x1="329.259507" y1="314.383582" x2="329.230014" y2="314.377164"/>
<line x1="329.230014" y1="314.377164" x2="329.200521" y2="314.370746"/>
<line x1="329.200521" y1="314.370746" x2="329.171028" y2="314.364327"/>
<line x1="329.171028" y1="314.364327" x2="329.141536" y2="314.357909"/>
<line x1="329.141536" y1="314.357909" x2="329.112043" y2="314.351491"/>
<line x1="329.101436" y1="314.34058" x2="329.113356" y2="314.324311"/>
<line x1="329.113356" y1="314.324311" x2="329.125276" y2="314.308042"/>
<line x1="329.125276" y1="314.308042" x2="329.137196" y2="314.291772"/>
<line x1="329.137196" y1="314.291772" x2="329.149117" y2="314.275503"/>
<line x1="329.149117" y1="314.275503" x2="329.161037" y2="314.259234"/>
<line x1="329.161037" y1="314.259234" x2="329.172898" y2="314.242951"/>
<line x1="329.172898" y1="314.242951" x2="329.184579" y2="314.226629"/>
<line x1="329.184579" y1="314.226629" x2="329.196261" y2="314.210307"/>
<line x1="329.196261" y1="314.210307" x2="329.207943" y2="314.193984"/>
<line x1="329.207943" y1="314.193984" x2="329.219624" y2="314.177662"/>
<line x1="329.219624" y1="314.177662" x2="329.231306" y2="314.16134"/>
<line x1="329.231306" y1="314.16134" x2="329.242988" y2="314.145017"/>
<line x1="329.242988" y1="314.145017" x2="329.25508" y2="314.128787"/>
<line x1="329.25508" y1="314.128787" x2="329.267173" y2="314.112557"/>
<line x1="329.267173" y1="314.112557" x2="329.279266" y2="314.096327"/>
<line x1="329.279266" y1="314.096327" x2="329.291359" y2="314.080097"/>
<line x1="329.291359" y1="314.080097" x2="329.303452" y2="314.063867"/>
<line x1="329.303452" y1="314.063867" x2="329.315545" y2="314.047637"/>
<line x1="329.315545" y1="314.047637" x2="329.327613" y2="314.031401"/>
<line x1="329.327613" y1="314.031401" x2="329.339671" y2="314.015163"/>
<line x1="329.339671" y1="314.015163" x2="329.351729" y2="313.998925"/>
<line x1="329.351729" y1="313.998925" x2="329.363787" y2="313.982687"/>
<line x1="329.363787" y1="313.982687" x2="329.375845" y2="313.966449"/>
<line x1="329.375845" y1="313.966449" x2="329.387903" y2="313.950211"/>
<line x1="329.387903" y1="313.950211" x2="329.399843" y2="313.933946"/>
<line x1="329.399843" y1="313.933946" x2="329.411663" y2="313.917654"/>
<line x1="329.411663" y1="313.917654" x2="329.423482" y2="313.901362"/>
<line x1="329.423482" y1="313.901362" x2="329.435302" y2="313.88507"/>
<line x1="329.435302" y1="313.88507" x2="329.447121" y2="313.868779"/>
<line x1="329.447121" y1="313.868779" x2="329.458941" y2="313.852487"/>
<line x1="329.458941" y1="313.852487" x2="329.470793" y2="313.836202"/>
<line x1="329.470793" y1="313.836202" x2="329.482749" y2="313.819941"/>
<line x1="329.482749" y1="313.819941" x2="329.494706" y2="313.80368"/>
<line x1="329.494706" y1="313.80368" x2="329.506663" y2="313.787419"/>
<line x1="329.506663" y1="313.787419" x2="329.518619" y2="313.771158"/>
<line x1="329.518619" y1="313.771158" x2="329.530576" y2="313.754897"/>
<line x1="329.530576" y1="313.754897" x2="329.542533" y2="313.738636"/>
<line x1="329.542533" y1="313.738636" x2="329.554306" y2="313.722334"/>
<line x1="329.554306" y1="313.722334" x2="329.566071" y2="313.70603"/>
<line x1="329.566071" y1="313.70603" x2="329.577837" y2="313.689726"/>
<line x1="329.577837" y1="313.689726" x2="329.589603" y2="313.673422"/>
<line x1="329.589603" y1="313.673422" x2="329.601368" y2="313.657118"/>
<line x1="329.601368" y1="313.657118" x2="329.61314" y2="313.640816"/>
<line x1="329.61314" y1="313.640816" x2="329.625419" y2="313.624629"/>
<line x1="329.625419" y1="313.624629" x2="329.634594" y2="313.608147"/>
<line x1="329.634594" y1="313.608147" x2="329.629011" y2="313.5921"/>
<line x1="329.629011" y1="313.5921" x2="329.599664" y2="313.585481"/>
<line x1="329.599664" y1="313.585481" x2="329.570316" y2="313.578861"/>
<line x1="329.570316" y1="313.578861" x2="329.540969" y2="313.572241"/>
<line x1="329.540969" y1="313.572241" x2="329.511621" y2="313.565621"/>
<line x1="329.511621" y1="313.565621" x2="329.488627" y2="313.55447"/>
<line x1="329.488627" y1="313.55447" x2="329.471143" y2="313.540001"/>
<line x1="329.471143" y1="313.540001" x2="329.463822" y2="313.522917"/>
<line x1="329.463822" y1="313.522917" x2="329.487502" y2="313.513343"/>
<line x1="329.487502" y1="313.513343" x2="329.503575" y2="313.499126"/>
<line x1="329.503575" y1="313.499126" x2="329.516786" y2="313.483181"/>
<line x1="329.516786" y1="313.483181" x2="329.530861" y2="313.467449"/>
<line x1="329.530861" y1="313.467449" x2="329.543549" y2="313.451438"/>
<line x1="329.543549" y1="313.451438" x2="329.550971" y2="313.434367"/>
<line x1="329.550971" y1="313.434367" x2="329.554892" y2="313.416961"/>
<line x1="329.554892" y1="313.416961" x2="329.560644" y2="313.399784"/>
<line x1="329.560644" y1="313.399784" x2="329.570434" y2="313.383083"/>
<line x1="329.570434" y1="313.383083" x2="329.57953" y2="313.366266"/>
<line x1="329.57953" y1="313.366266" x2="329.588228" y2="313.349381"/>
<line x1="329.588228" y1="313.349381" x2="329.580075" y2="313.333682"/>
<line x1="329.580075" y1="313.333682" x2="329.574663" y2="313.317232"/>
<line x1="329.574663" y1="313.317232" x2="329.577638" y2="313.29975"/>
<line x1="329.577638" y1="313.29975" x2="329.580614" y2="313.282268"/>
<line x1="329.580614" y1="313.282268" x2="329.584784" y2="313.264864"/>
<line x1="329.584784" y1="313.264864" x2="329.589132" y2="313.247471"/>
<line x1="329.589132" y1="313.247471" x2="329.592903" y2="313.230042"/>
<line x1="329.592903" y1="313.230042" x2="329.595554" y2="313.212544"/>
<line x1="329.595554" y1="313.212544" x2="329.598418" y2="313.195057"/>
<line x1="329.598418" y1="313.195057" x2="329.601539" y2="313.177583"/>
<line x1="329.601539" y1="313.177583" x2="329.602" y2="313.160037"/>
<line x1="329.602" y1="313.160037" x2="329.600335" y2="313.142512"/>
<line x1="329.576828" y1="313.633209" x2="329.605655" y2="313.639418"/>
<line x1="329.618186" y1="313.628555" x2="329.625144" y2="313.611854"/>
<line x1="329.625144" y1="313.611854" x2="329.632102" y2="313.595154"/>
<line x1="329.632102" y1="313.595154" x2="329.646444" y2="313.580063"/>
<line x1="329.646444" y1="313.580063" x2="329.661879" y2="313.56521"/>
<line x1="329.661879" y1="313.56521" x2="329.677314" y2="313.550358"/>
<line x1="329.677314" y1="313.550358" x2="329.690933" y2="313.535021"/>
<line x1="329.690933" y1="313.535021" x2="329.702214" y2="313.519063"/>
<line x1="329.702214" y1="313.519063" x2="329.713496" y2="313.503104"/>
<line x1="329.713496" y1="313.503104" x2="329.724777" y2="313.487145"/>
<line x1="329.724777" y1="313.487145" x2="329.718584" y2="313.471052"/>
<line x1="329.718584" y1="313.471052" x2="329.698083" y2="313.460102"/>
<line x1="329.698083" y1="313.460102" x2="329.669794" y2="313.453174"/>
<line x1="329.669794" y1="313.453174" x2="329.655642" y2="313.438743"/>
<line x1="329.655642" y1="313.438743" x2="329.661674" y2="313.422792"/>
<line x1="329.661674" y1="313.422792" x2="329.673006" y2="313.406844"/>
<line x1="329.673006" y1="313.406844" x2="329.684337" y2="313.390896"/>
<line x1="329.684337" y1="313.390896" x2="329.695669" y2="313.374948"/>
<line x1="329.408538" y1="313.945" x2="329.436077" y2="313.951"/>
<line x1="329.436077" y1="313.951" x2="329.463615" y2="313.957"/>
<line x1="329.463615" y1="313.957" x2="329.491154" y2="313.963"/>
<line x1="329.491154" y1="313.963" x2="329.518692" y2="313.969"/>
<line x1="329.518692" y1="313.969" x2="329.546231" y2="313.975"/>
<line x1="329.546231" y1="313.975" x2="329.573769" y2="313.981"/>
<line x1="329.573769" y1="313.981" x2="329.601308" y2="313.987"/>
<line x1="329.601308" y1="313.987" x2="329.628846" y2="313.993"/>
<line x1="329.628846" y1="313.993" x2="329.656385" y2="313.999"/>
<line x1="329.656385" y1="313.999" x2="329.683923" y2="314.005"/>
<line x1="329.683923" y1="314.005" x2="329.711462" y2="314.011"/>
<line x1="329.482538" y1="313.842923" x2="329.510077" y2="313.848846"/>
<line x1="329.510077" y1="313.848846" x2="329.537615" y2="313.854769"/>
<line x1="329.537615" y1="313.854769" x2="329.565154" y2="313.860692"/>
<line x1="329.565154" y1="313.860692" x2="329.592692" y2="313.866615"/>
<line x1="329.592692" y1="313.866615" x2="329.620231" y2="313.872538"/>
<line x1="329.620231" y1="313.872538" x2="329.647769" y2="313.878462"/>
<line x1="329.647769" y1="313.878462" x2="329.675308" y2="313.884385"/>
<line x1="329.675308" y1="313.884385" x2="329.702846" y2="313.890308"/>
<line x1="329.702846" y1="313.890308" x2="329.730385" y2="313.896231"/>
<line x1="329.730385" y1="313.896231" x2="329.757923" y2="313.902154"/>
<line x1="329.757923" y1="313.902154" x2="329.785462" y2="313.908077"/>
<line x1="329.558083" y1="313.741167" x2="329.586167" y2="313.747333"/>
<line x1="329.586167" y1="313.747333" x2="329.61425" y2="313.7535"/>
<line x1="329.61425" y1="313.7535" x2="329.642333" y2="313.759667"/>
<line x1="329.642333" y1="313.759667" x2="329.670417" y2="313.765833"/>
<line x1="329.670417" y1="313.765833" x2="329.6985" y2="313.772"/>
<line x1="329.6985" y1="313.772" x2="329.726583" y2="313.778167"/>
<line x1="329.726583" y1="313.778167" x2="329.754667" y2="313.784333"/>
<line x1="329.754667" y1="313.784333" x2="329.78275" y2="313.7905"/>
<line x1="329.78275" y1="313.7905" x2="329.810833" y2="313.796667"/>
<line x1="329.810833" y1="313.796667" x2="329.838917" y2="313.802833"/>
<line x1="329.641249" y1="313.646404" x2="329.669498" y2="313.651808"/>
<line x1="329.669498" y1="313.651808" x2="329.697748" y2="313.657213"/>
<line x1="329.697748" y1="313.657213" x2="329.725997" y2="313.662617"/>
<line x1="329.725997" y1="313.662617" x2="329.754246" y2="313.668021"/>
<line x1="329.754246" y1="313.668021" x2="329.782495" y2="313.673425"/>
<line x1="329.782495" y1="313.673425" x2="329.810744" y2="313.678829"/>
<line x1="329.810744" y1="313.678829" x2="329.838994" y2="313.684234"/>
<line x1="329.838994" y1="313.684234" x2="329.86672" y2="313.690405"/>
<line x1="329.86672" y1="313.690405" x2="329.89436" y2="313.696702"/>
<line x1="329.334909" y1="314.046364" x2="329.363818" y2="314.052727"/>
<line x1="329.363818" y1="314.052727" x2="329.392727" y2="314.059091"/>
<line x1="329.392727" y1="314.059091" x2="329.421636" y2="314.065455"/>
<line x1="329.421636" y1="314.065455" x2="329.450545" y2="314.071818"/>
<line x1="329.450545" y1="314.071818" x2="329.479455" y2="314.078182"/>
<line x1="329.479455" y1="314.078182" x2="329.508364" y2="314.084545"/>
<line x1="329.508364" y1="314.084545" x2="329.537273" y2="314.090909"/>
<line x1="329.537273" y1="314.090909" x2="329.566182" y2="314.097273"/>
<line x1="329.566182" y1="314.097273" x2="329.595091" y2="314.103636"/>
<line x1="329.616791" y1="313.527017" x2="329.644583" y2="313.533033"/>
<line x1="329.644583" y1="313.533033" x2="329.672374" y2="313.53905"/>
<line x1="329.672374" y1="313.53905" x2="329.700564" y2="313.544427"/>
<line x1="329.700564" y1="313.544427" x2="329.729137" y2="313.549189"/>
<line x1="329.729137" y1="313.549189" x2="329.757709" y2="313.553952"/>
<line x1="329.757709" y1="313.553952" x2="329.786282" y2="313.558714"/>
<line x1="329.786282" y1="313.558714" x2="329.814855" y2="313.563476"/>
<line x1="329.814855" y1="313.563476" x2="329.843427" y2="313.568238"/>
<line x1="329.2583" y1="314.1481" x2="329.2866" y2="314.1542"/>
<line x1="329.2866" y1="314.1542" x2="329.3149" y2="314.1603"/>
<line x1="329.3149" y1="314.1603" x2="329.3432" y2="314.1664"/>
<line x1="329.3432" y1="314.1664" x2="329.3715" y2="314.1725"/>
<line x1="329.3715" y1="314.1725" x2="329.3998" y2="314.1786"/>
<line x1="329.3998" y1="314.1786" x2="329.4281" y2="314.1847"/>
<line x1="329.4281" y1="314.1847" x2="329.4564" y2="314.1908"/>
<line x1="329.4564" y1="314.1908" x2="329.4847" y2="314.1969"/>
<line x1="329.088517" y1="314.356987" x2="329.076035" y2="314.372973"/>
<line x1="329.076035" y1="314.372973" x2="329.063552" y2="314.38896"/>
<line x1="329.063552" y1="314.38896" x2="329.051069" y2="314.404946"/>
<line x1="329.051069" y1="314.404946" x2="329.036371" y2="314.42026"/>
<line x1="329.036371" y1="314.42026" x2="329.018778" y2="314.434695"/>
<line x1="329.018778" y1="314.434695" x2="329.001185" y2="314.44913"/>
<line x1="329.001185" y1="314.44913" x2="328.983593" y2="314.463565"/>
<line x1="329.183778" y1="314.249778" x2="329.210556" y2="314.255556"/>
<line x1="329.210556" y1="314.255556" x2="329.237333" y2="314.261333"/>
<line x1="329.237333" y1="314.261333" x2="329.264111" y2="314.267111"/>
<line x1="329.264111" y1="314.267111" x2="329.290889" y2="314.272889"/>
<line x1="329.290889" y1="314.272889" x2="329.317667" y2="314.278667"/>
<line x1="329.317667" y1="314.278667" x2="329.344444" y2="314.284444"/>
<line x1="329.344444" y1="314.284444" x2="329.371222" y2="314.290222"/>
<line x1="329.84975" y1="313.677" x2="329.8615" y2="313.661"/>
<line x1="329.8615" y1="313.661" x2="329.87325" y2="313.645"/>
<line x1="329.543667" y1="313.372333" x2="329.565333" y2="313.375667"/>
</g>
<g fill="#aaaaaa" opacity="0.92" filter="url(#rg_45156875)">
<circle cx="329.259507" cy="314.383582" r="0.045"/>
<circle cx="329.230014" cy="314.377164" r="0.045"/>
<circle cx="329.200521" cy="314.370746" r="0.045"/>
<circle cx="329.171028" cy="314.364327" r="0.045"/>
<circle cx="329.141536" cy="314.357909" r="0.045"/>
<circle cx="329.112043" cy="314.351491" r="0.045"/>
<circle cx="329.101436" cy="314.34058" r="0.045"/>
<circle cx="329.113356" cy="314.324311" r="0.045"/>
<circle cx="329.125276" cy="314.308042" r="0.045"/>
<circle cx="329.137196" cy="314.291772" r="0.045"/>
<circle cx="329.149117" cy="314.275503" r="0.045"/>
<circle cx="329.161037" cy="314.259234" r="0.045"/>
<circle cx="329.172898" cy="314.242951" r="0.045"/>
<circle cx="329.184579" cy="314.226629" r="0.045"/>
<circle cx="329.196261" cy="314.210307" r="0.045"/>
<circle cx="329.207943" cy="314.193984" r="0.045"/>
<circle cx="329.219624" cy="314.177662" r="0.045"/>
<circle cx="329.231306" cy="314.16134" r="0.045"/>
<circle cx="329.242988" cy="314.145017" r="0.045"/>
<circle cx="329.25508" cy="314.128787" r="0.045"/>
<circle cx="329.267173" cy="314.112557" r="0.045"/>
<circle cx="329.279266" cy="314.096327" r="0.045"/>
<circle cx="329.291359" cy="314.080097" r="0.045"/>
<circle cx="329.303452" cy="314.063867" r="0.045"/>
<circle cx="329.315545" cy="314.047637" r="0.045"/>
<circle cx="329.327613" cy="314.031401" r="0.045"/>
<circle cx="329.339671" cy="314.015163" r="0.045"/>
<circle cx="329.351729" cy="313.998925" r="0.045"/>
<circle cx="329.363787" cy="313.982687" r="0.045"/>
<circle cx="329.375845" cy="313.966449" r="0.045"/>
<circle cx="329.387903" cy="313.950211" r="0.045"/>
<circle cx="329.399843" cy="313.933946" r="0.045"/>
<circle cx="329.411663" cy="313.917654" r="0.045"/>
<circle cx="329.423482" cy="313.901362" r="0.045"/>
<circle cx="329.435302" cy="313.88507" r="0.045"/>
<circle cx="329.447121" cy="313.868779" r="0.045"/>
<circle cx="329.458941" cy="313.852487" r="0.045"/>
<circle cx="329.470793" cy="313.836202" r="0.045"/>
<circle cx="329.482749" cy="313.819941" r="0.045"/>
<circle cx="329.494706" cy="313.80368" r="0.045"/>
<circle cx="329.506663" cy="313.787419" r="0.045"/>
<circle cx="329.518619" cy="313.771158" r="0.045"/>
<circle cx="329.530576" cy="313.754897" r="0.045"/>
<circle cx="329.542533" cy="313.738636" r="0.045"/>
<circle cx="329.554306" cy="313.722334" r="0.045"/>
<circle cx="329.566071" cy="313.70603" r="0.045"/>
<circle cx="329.577837" cy="313.689726" r="0.045"/>
<circle cx="329.589603" cy="313.673422" r="0.045"/>
<circle cx="329.601368" cy="313.657118" r="0.045"/>
<circle cx="329.61314" cy="313.640816" r="0.045"/>
<circle cx="329.625419" cy="313.624629" r="0.045"/>
<circle cx="329.634594" cy="313.608147" r="0.045"/>
<circle cx="329.629011" cy="313.5921" r="0.045"/>
<circle cx="329.599664" cy="313.585481" r="0.045"/>
<circle cx="329.570316" cy="313.578861" r="0.045"/>
<circle cx="329.540969" cy="313.572241" r="0.045"/>
<circle cx="329.511621" cy="313.565621" r="0.045"/>
<circle cx="329.488627" cy="313.55447" r="0.045"/>
<circle cx="329.471143" cy="313.540001" r="0.045"/>
<circle cx="329.463822" cy="313.522917" r="0.045"/>
<circle cx="329.487502" cy="313.513343" r="0.045"/>
<circle cx="329.503575" cy="313.499126" r="0.045"/>
<circle cx="329.516786" cy="313.483181" r="0.045"/>
<circle cx="329.530861" cy="313.467449" r="0.045"/>
<circle cx="329.543549" cy="313.451438" r="0.045"/>
<circle cx="329.550971" cy="313.434367" r="0.045"/>
<circle cx="329.554892" cy="313.416961" r="0.045"/>
<circle cx="329.560644" cy="313.399784" r="0.045"/>
<circle cx="329.570434" cy="313.383083" r="0.045"/>
<circle cx="329.57953" cy="313.366266" r="0.045"/>
<circle cx="329.588228" cy="313.349381" r="0.045"/>
<circle cx="329.580075" cy="313.333682" r="0.045"/>
<circle cx="329.574663" cy="313.317232" r="0.045"/>
<circle cx="329.577638" cy="313.29975" r="0.045"/>
<circle cx="329.580614" cy="313.282268" r="0.045"/>
<circle cx="329.584784" cy="313.264864" r="0.045"/>
<circle cx="329.589132" cy="313.247471" r="0.045"/>
<circle cx="329.592903" cy="313.230042" r="0.045"/>
<circle cx="329.595554" cy="313.212544" r="0.045"/>
<circle cx="329.598418" cy="313.195057" r="0.045"/>
<circle cx="329.601539" cy="313.177583" r="0.045"/>
<circle cx="329.602" cy="313.160037" r="0.045"/>
<circle cx="329.600335" cy="313.142512" r="0.045"/>
<circle cx="329.576828" cy="313.633209" r="0.045"/>
<circle cx="329.605655" cy="313.639418" r="0.045"/>
<circle cx="329.618186" cy="313.628555" r="0.045"/>
<circle cx="329.625144" cy="313.611854" r="0.045"/>
<circle cx="329.632102" cy="313.595154" r="0.045"/>
<circle cx="329.646444" cy="313.580063" r="0.045"/>
<circle cx="329.661879" cy="313.56521" r="0.045"/>
<circle cx="329.677314" cy="313.550358" r="0.045"/>
<circle cx="329.690933" cy="313.535021" r="0.045"/>
<circle cx="329.702214" cy="313.519063" r="0.045"/>
<circle cx="329.713496" cy="313.503104" r="0.045"/>
<circle cx="329.724777" cy="313.487145" r="0.045"/>
<circle cx="329.718584" cy="313.471052" r="0.045"/>
<circle cx="329.698083" cy="313.460102" r="0.045"/>
<circle cx="329.669794" cy="313.453174" r="0.045"/>
<circle cx="329.655642" cy="313.438743" r="0.045"/>
<circle cx="329.661674" cy="313.422792" r="0.045"/>
<circle cx="329.673006" cy="313.406844" r="0.045"/>
<circle cx="329.684337" cy="313.390896" r="0.045"/>
<circle cx="329.695669" cy="313.374948" r="0.045"/>
<circle cx="329.408538" cy="313.945" r="0.045"/>
<circle cx="329.436077" cy="313.951" r="0.045"/>
<circle cx="329.463615" cy="313.957" r="0.045"/>
<circle cx="329.491154" cy="313.963" r="0.045"/>
<circle cx="329.518692" cy="313.969" r="0.045"/>
<circle cx="329.546231" cy="313.975" r="0.045"/>
<circle cx="329.573769" cy="313.981" r="0.045"/>
<circle cx="329.601308" cy="313.987" r="0.045"/>
<circle cx="329.628846" cy="313.993" r="0.045"/>
<circle cx="329.656385" cy="313.999" r="0.045"/>
<circle cx="329.683923" cy="314.005" r="0.045"/>
<circle cx="329.711462" cy="314.011" r="0.045"/>
<circle cx="329.482538" cy="313.842923" r="0.045"/>
<circle cx="329.510077" cy="313.848846" r="0.045"/>
<circle cx="329.537615" cy="313.854769" r="0.045"/>
<circle cx="329.565154" cy="313.860692" r="0.045"/>
<circle cx="329.592692" cy="313.866615" r="0.045"/>
<circle cx="329.620231" cy="313.872538" r="0.045"/>
<circle cx="329.647769" cy="313.878462" r="0.045"/>
<circle cx="329.675308" cy="313.884385" r="0.045"/>
<circle cx="329.702846" cy="313.890308" r="0.045"/>
<circle cx="329.730385" cy="313.896231" r="0.045"/>
<circle cx="329.757923" cy="313.902154" r="0.045"/>
<circle cx="329.785462" cy="313.908077" r="0.045"/>
<circle cx="329.558083" cy="313.741167" r="0.045"/>
<circle cx="329.586167" cy="313.747333" r="0.045"/>
<circle cx="329.61425" cy="313.7535" r="0.045"/>
<circle cx="329.642333" cy="313.759667" r="0.045"/>
<circle cx="329.670417" cy="313.765833" r="0.045"/>
<circle cx="329.6985" cy="313.772" r="0.045"/>
<circle cx="329.726583" cy="313.778167" r="0.045"/>
<circle cx="329.754667" cy="313.784333" r="0.045"/>
<circle cx="329.78275" cy="313.7905" r="0.045"/>
<circle cx="329.810833" cy="313.796667" r="0.045"/>
<circle cx="329.838917" cy="313.802833" r="0.045"/>
<circle cx="329.641249" cy="313.646404" r="0.045"/>
<circle cx="329.669498" cy="313.651808" r="0.045"/>
<circle cx="329.697748" cy="313.657213" r="0.045"/>
<circle cx="329.725997" cy="313.662617" r="0.045"/>
<circle cx="329.754246" cy="313.668021" r="0.045"/>
<circle cx="329.782495" cy="313.673425" r="0.045"/>
<circle cx="329.810744" cy="313.678829" r="0.045"/>
<circle cx="329.838994" cy="313.684234" r="0.045"/>
<circle cx="329.86672" cy="313.690405" r="0.045"/>
<circle cx="329.89436" cy="313.696702" r="0.045"/>
<circle cx="329.334909" cy="314.046364" r="0.045"/>
<circle cx="329.363818" cy="314.052727" r="0.045"/>
<circle cx="329.392727" cy="314.059091" r="0.045"/>
<circle cx="329.421636" cy="314.065455" r="0.045"/>
<circle cx="329.450545" cy="314.071818" r="0.045"/>
<circle cx="329.479455" cy="314.078182" r="0.045"/>
<circle cx="329.508364" cy="314.084545" r="0.045"/>
<circle cx="329.537273" cy="314.090909" r="0.045"/>
<circle cx="329.566182" cy="314.097273" r="0.045"/>
<circle cx="329.595091" cy="314.103636" r="0.045"/>
<circle cx="329.616791" cy="313.527017" r="0.045"/>
<circle cx="329.644583" cy="313.533033" r="0.045"/>
<circle cx="329.672374" cy="313.53905" r="0.045"/>
<circle cx="329.700564" cy="313.544427" r="0.045"/>
<circle cx="329.729137" cy="313.549189" r="0.045"/>
<circle cx="329.757709" cy="313.553952" r="0.045"/>
<circle cx="329.786282" cy="313.558714" r="0.045"/>
<circle cx="329.814855" cy="313.563476" r="0.045"/>
<circle cx="329.843427" cy="313.568238" r="0.045"/>
<circle cx="329.2583" cy="314.1481" r="0.045"/>
<circle cx="329.2866" cy="314.1542" r="0.045"/>
<circle cx="329.3149" cy="314.1603" r="0.045"/>
<circle cx="329.3432" cy="314.1664" r="0.045"/>
<circle cx="329.3715" cy="314.1725" r="0.045"/>
<circle cx="329.3998" cy="314.1786" r="0.045"/>
<circle cx="329.4281" cy="314.1847" r="0.045"/>
<circle cx="329.4564" cy="314.1908" r="0.045"/>
<circle cx="329.4847" cy="314.1969" r="0.045"/>
<circle cx="329.088517" cy="314.356987" r="0.045"/>
<circle cx="329.076035" cy="314.372973" r="0.045"/>
<circle cx="329.063552" cy="314.38896" r="0.045"/>
<circle cx="329.051069" cy="314.404946" r="0.045"/>
<circle cx="329.036371" cy="314.42026" r="0.045"/>
<circle cx="329.018778" cy="314.434695" r="0.045"/>
<circle cx="329.001185" cy="314.44913" r="0.045"/>
<circle cx="328.983593" cy="314.463565" r="0.045"/>
<circle cx="329.183778" cy="314.249778" r="0.045"/>
<circle cx="329.210556" cy="314.255556" r="0.045"/>
<circle cx="329.237333" cy="314.261333" r="0.045"/>
<circle cx="329.264111" cy="314.267111" r="0.045"/>
<circle cx="329.290889" cy="314.272889" r="0.045"/>
<circle cx="329.317667" cy="314.278667" r="0.045"/>
<circle cx="329.344444" cy="314.284444" r="0.045"/>
<circle cx="329.371222" cy="314.290222" r="0.045"/>
<circle cx="329.84975" cy="313.677" r="0.045"/>
<circle cx="329.8615" cy="313.661" r="0.045"/>
<circle cx="329.87325" cy="313.645" r="0.045"/>
<circle cx="329.543667" cy="313.372333" r="0.045"/>
<circle cx="329.565333" cy="313.375667" r="0.045"/>
</g>
<g id="legend">
<rect x="328.614" y="312.743" width="3.8" height="1.930" fill="#080d14" fill-opacity="0.80" rx="0.10"/>
<text x="328.784" y="312.963" font-size="0.17850000000000002" fill="#ffffff" font-weight="bold" font-family="monospace">Node map  (merge r=12.5 m, interval=12.5 m)</text>
<circle cx="328.804" cy="313.229" r="0.07" fill="#aaa"/>
<text x="328.930" y="313.271" font-size="0.1394" fill="#aaa" font-family="monospace">road 45156875</text>
<line x1="328.734" y1="313.467" x2="332.234" y2="313.467" stroke="#ffffff22" stroke-width="0.015"/>
<circle cx="328.804" cy="313.509" r="0.11200000000000002" fill="none" stroke="#ffffff" stroke-width="0.022"/>
<circle cx="328.804" cy="313.509" r="0.038500000000000006" fill="#ffffff"/>
<text x="328.930" y="313.551" font-size="0.1394" fill="#ffffff" font-family="monospace">intersection node</text>
<circle cx="328.804" cy="313.789" r="0.11200000000000002" fill="none" stroke="#fbbf24" stroke-width="0.028"/>
<circle cx="328.804" cy="313.789" r="0.038500000000000006" fill="#fbbf24"/>
<text x="328.930" y="313.831" font-size="0.1394" fill="#fbbf24" font-family="monospace">merged intersection</text>
<circle cx="328.804" cy="314.069" r="0.09450000000000001" fill="#22d3ee0d" stroke="#22d3ee" stroke-width="0.022"/>
<circle cx="328.804" cy="314.069" r="0.038500000000000006" fill="#22d3ee"/>
<text x="328.930" y="314.111" font-size="0.1394" fill="#22d3ee" font-family="monospace">gateway point</text>
</g>
</svg>